<svg xmlns="http://www.w3.org/2000/svg" xmlns:xlink="http://www.w3.org/1999/xlink" version="1.1" x="0px" y="0px" viewBox="0 0 100 125" enable-background="new 0 0 100 100" xml:space="preserve" fill="white" ><g><path  d="M61.6767578,32.6879883c0,1.5356445,1.0195313,2.6694336,3.0253906,3.3681641   c1.2128906,0.434082,1.3134766,0.6791992,1.3134766,0.9121094c0,0.4892578-0.6630859,0.5625-1.0576172,0.5625   c-1.0654297,0-1.9785156-0.425293-2.2333984-0.5556641c-0.1367188-0.0703125-0.2949219-0.0732422-0.4355469-0.0102539   c-0.1386719,0.0634766-0.2412109,0.1870117-0.2773438,0.3354492l-0.4511719,1.8339844   c-0.0537109,0.2197266,0.0458984,0.4482422,0.2441406,0.5571289c0.5759888,0.3187866,1.6922607,0.6339722,2.9111328,0.652832   v1.9267578c0,0.5522461,0.4472656,1,1,1s1-0.4477539,1-1v-2.194397c1.852478-0.5788574,2.5703125-2.0006104,2.5703125-3.2684937   c0-1.5913086-0.9130859-2.6699219-2.8701172-3.3935547c-1.1757813-0.4462891-1.4970703-0.6430664-1.4970703-0.9155273   c0-0.2670898,0.3720703-0.4462891,0.9267578-0.4462891c0.6445313,0,1.2617188,0.1401367,1.8359375,0.4165039   c0.1328125,0.0634766,0.2871094,0.0654297,0.4238281,0.0043945c0.1347656-0.0610352,0.2353516-0.1791992,0.2744141-0.3217773   L68.875,30.3613281c0.0664063-0.237793-0.0517578-0.4882813-0.2763672-0.5893555   c-0.5700073-0.2566528-1.2023926-0.4185791-1.8828125-0.4918213v-2.1781006c0-0.5522461-0.4472656-1-1-1s-1,0.4477539-1,1   v2.2611694C62.8851318,29.7418213,61.6767578,30.9960327,61.6767578,32.6879883z"/><path fill="white" d="M50.0390625,34.6865234c0,8.4790039,6.8984375,15.3769531,15.3769531,15.3769531   s15.3769531-6.8979492,15.3769531-15.3769531c0-8.4785156-6.8984375-15.3764648-15.3769531-15.3764648   S50.0390625,26.2080078,50.0390625,34.6865234z M65.4160156,21.3100586c7.3759766,0,13.3769531,6.0004883,13.3769531,13.3764648   s-6.0009766,13.3769531-13.3769531,13.3769531S52.0390625,42.0625,52.0390625,34.6865234   S58.0400391,21.3100586,65.4160156,21.3100586z"/><path d="M55.5244141,30.0498047c0.1591797,0.0932617,0.3339844,0.1376953,0.5058594,0.1376953   c0.3427734,0,0.6767578-0.1762695,0.8632813-0.4931641c1.0097656-1.71875,2.4931641-3.078125,4.2890625-3.9321289   c0.4980469-0.2373047,0.7109375-0.8339844,0.4736328-1.3325195c-0.2382813-0.4990234-0.8339844-0.7124023-1.3330078-0.4741211   c-2.1582031,1.0268555-3.9404297,2.6606445-5.1542969,4.7250977   C54.8896484,29.1572266,55.0488281,29.7700195,55.5244141,30.0498047z"/><path d="M65.4160156,46.5620117c1.6289063,0,3.2089844-0.324707,4.6943359-0.9643555   c0.5078125-0.21875,0.7412109-0.8066406,0.5224609-1.3139648c-0.2177734-0.5087891-0.8105469-0.7421875-1.3134766-0.5229492   c-1.234375,0.5317383-2.5478516,0.8012695-3.9033203,0.8012695c-5.4453125,0-9.875-4.4301758-9.875-9.8754883   c0-0.5522461-0.4472656-1-1-1s-1,0.4477539-1,1C53.5410156,41.2348633,58.8681641,46.5620117,65.4160156,46.5620117z"/><path d="M73.7470703,42.6767578c0.2861328,0,0.5693359-0.121582,0.7666016-0.3569336   c1.4755859-1.7578125,2.4042969-3.8852539,2.6855469-6.152832c0.0683594-0.5478516-0.3212891-1.0473633-0.8691406-1.1152344   c-0.5517578-0.0732422-1.0478516,0.3212891-1.1152344,0.8691406c-0.234375,1.8833008-1.0058594,3.6513672-2.2324219,5.112793   c-0.3554688,0.4233398-0.2998047,1.0541992,0.1230469,1.4091797   C73.2929688,42.6000977,73.5205078,42.6767578,73.7470703,42.6767578z"/><path d="M72.7480469,51.9521484c0.1582031-0.5292969-0.1435547-1.0859375-0.6728516-1.2436523   c-0.5322266-0.1601563-1.0859375,0.1455078-1.2431641,0.6733398c-1.8063354,6.0667114-5.965332,11.2107544-11.4957886,14.2764893   l-0.8538208-2.6573486c-0.109375-0.340332-0.3916016-0.5961914-0.7412109-0.671875   c-0.3486328-0.0737305-0.7109375,0.0405273-0.9521484,0.3061523l-5.3476563,5.8994141   c-0.2392578,0.2646484-0.3203125,0.637207-0.2109375,0.9770508c0.109375,0.340332,0.3916016,0.5961914,0.7412109,0.671875   l7.7832031,1.6816406c0.0703125,0.0151367,0.140625,0.0224609,0.2109375,0.0224609c0.0068359,0,0.0146484-0.0004883,0.0195313,0   c0.5527344,0,1-0.4477539,1-1c0-0.1762695-0.0449219-0.3417969-0.125-0.4858398l-0.9031372-2.8109131   C66.1146851,64.2971191,70.755188,58.6466675,72.7480469,51.9521484z"/><path d="M23.3017578,37.6264648c0.1025391,0.0332031,0.2070313,0.0493164,0.3085938,0.0493164   c0.421875,0,0.8144531-0.269043,0.9511719-0.6923828c3.1275635-9.6498413,11.8401489-16.2312622,21.8955688-16.7040405   l-0.663147,2.571228c-0.0898438,0.3461914,0.0126953,0.7133789,0.2675781,0.9633789   C46.2509766,24,46.5029297,24.1005859,46.7617188,24.1005859c0.0888672,0,0.1796875-0.0117188,0.2675781-0.0366211   l7.671875-2.1313477c0.3447266-0.0957031,0.6113281-0.3676758,0.7011719-0.7133789   c0.0888672-0.3461914-0.0136719-0.7133789-0.2685547-0.9633789l-5.6826172-5.5786133   c-0.2558594-0.2509766-0.6279297-0.3452148-0.9677734-0.2495117c-0.3447266,0.0957031-0.6113281,0.3676758-0.7011719,0.7138672   l-0.8039551,3.1170044c-11.1450195,0.2653198-20.8699951,7.4641113-24.3190918,18.1085815   C22.4892578,36.8925781,22.7763672,37.456543,23.3017578,37.6264648z"/><path d="M19.2070313,82.7021484c0,1.6572266,0.921875,2.9067383,2.1445313,2.9067383h23.8720703   c1.2226563,0,2.1445313-1.2495117,2.1445313-2.9067383c0-1.4158325-0.6759033-2.5271606-1.6347656-2.8225098V66.536377   c0.9588623-0.2953491,1.6347656-1.4067383,1.6347656-2.822998s-0.6759033-2.5276489-1.6347656-2.822998V49.505127   c0.9588623-0.2953491,1.6347656-1.4067383,1.6347656-2.822998c0-1.6567383-0.921875-2.90625-2.1445313-2.90625H21.3515625   c-1.2226563,0-2.1445313,1.2495117-2.1445313,2.90625c0,1.3447876,0.6118774,2.4083252,1.4941406,2.7663574v11.4985352   c-0.8822632,0.3580322-1.4941406,1.4215698-1.4941406,2.7663574s0.6118774,2.4083252,1.4941406,2.7663574v13.456543   C19.8189087,80.2943115,19.2070313,81.3577271,19.2070313,82.7021484z M21.4492188,64.6201172   c-0.0878906-0.105957-0.2421875-0.4145508-0.2421875-0.9067383s0.1542969-0.8007813,0.2421875-0.9067383h0.2519531h1.9277344   h0.0009766c0.5527344,0,1-0.4477539,1-1s-0.4472656-1-1-1h-0.0009766h-0.9277344V49.5888672h21.0322266v11.2177734H38.572998   c-0.4365234-1.24646-1.0369873-2.6471558-1.8574219-4.1381836c-0.0137329-0.0249634-0.026123-0.050354-0.039917-0.0753174   c-0.3236694-0.5839844-0.6891479-1.182373-1.0845337-1.7891846c-0.0856323-0.1314087-0.1726685-0.2619629-0.2606201-0.3925171   c-0.3873291-0.5745239-0.7960205-1.1536865-1.2543335-1.7400513c-0.1894531-0.2426758-0.4804688-0.3842773-0.7880859-0.3842773   S32.6894531,52.4287109,32.5,52.6708984c-0.0037842,0.0048218-0.0067749,0.0099487-0.0105591,0.0147705   c-0.4932861,0.6316528-0.930481,1.255188-1.3416138,1.8727417c-0.0809326,0.121521-0.163147,0.2423096-0.2420654,0.364624   c-0.4197998,0.6509399-0.7963257,1.2887573-1.1340942,1.9123535c-0.043457,0.0804443-0.0855713,0.1610718-0.1281738,0.2418213   c-1.685791,3.1853638-2.3678589,5.9188232-2.6373901,7.5429077h-5.3049316H21.4492188z M45.1259766,62.8066406   c0.0878906,0.105957,0.2421875,0.4145508,0.2421875,0.9067383s-0.1542969,0.8007813-0.2421875,0.9067383h-0.3925781h-5.1642456   c-0.0841064-0.5067139-0.2034912-1.1097412-0.3848267-1.8134766h5.5490723H45.1259766z M28.8435669,66.3110962   c0.000061-0.0009766,0.0001221-0.0020142,0.0001831-0.0029907c0.0058594-0.074707,0.0029297-0.1494141-0.0087891-0.2231445   c0.0407104-0.4954224,0.2167358-2.0123901,0.8915405-4.09375c0.1702271-0.5263672,0.3609009-1.0476685,0.5678711-1.5646973   c0.0519409-0.1295166,0.1080933-0.262085,0.1638184-0.3944092c0.1948242-0.4633179,0.4039917-0.9226074,0.6281128-1.3774414   c0.074646-0.1516113,0.1539917-0.305603,0.2337036-0.4597168c0.2393799-0.4622803,0.4906006-0.9208374,0.7601318-1.37323   c0.0737305-0.1240845,0.1541748-0.250061,0.2312622-0.3751221c0.3031616-0.4904175,0.6168823-0.9772339,0.9554443-1.4547729   c0.0074463-0.0105591,0.0137939-0.020813,0.0212402-0.0313721c0.0073242,0.0103149,0.0135498,0.0205078,0.020874,0.0308228   c0.3411865,0.4816895,0.6577148,0.9725342,0.9630127,1.4672852c0.0725708,0.1178589,0.1484375,0.2366943,0.2180176,0.3536377   c0.2741089,0.4598999,0.529541,0.9260254,0.772522,1.3959961c0.074585,0.1445313,0.149292,0.2890625,0.2194824,0.4314575   c0.2287598,0.463562,0.4419556,0.9317017,0.6402588,1.4041138c0.0521851,0.1240845,0.1051025,0.2487183,0.1540527,0.3703613   c0.2115479,0.5274048,0.4061279,1.0593872,0.5794067,1.5964355c0.5834961,1.8050537,0.7918701,3.1826782,0.8619995,3.8325806   c0.0033569,0.0330811,0.0061646,0.0621948,0.0089111,0.0913086c0.0048218,0.0491333,0.010376,0.1027832,0.0135498,0.140686   c-0.0092163,0.0612183-0.0088501,0.1238403-0.006958,0.1864624c0.0004883,0.015625-0.0029297,0.0308838-0.00177,0.0465088   c0,0.000061,0,0.0001221,0,0.0001831c0,0.0001221,0,0.0001831,0,0.0003052   c0.0107422,0.128418,0.0205078,0.2578125,0.0205078,0.3896484c0,2.4614258-2.0029297,4.4638672-4.4638672,4.4638672   c-2.4619141,0-4.4648438-2.0024414-4.4648438-4.4638672c0-0.1293945,0.0097656-0.2573242,0.0205078-0.3833008   C28.8438721,66.3136597,28.8434448,66.3123779,28.8435669,66.3110962z M22.7011719,66.6201172h4.1230469   c-0.0009766,0.0258789-0.0009766,0.0522461-0.0009766,0.078125c0,3.5639648,2.9003906,6.4638672,6.4648438,6.4638672   s6.4638672-2.8999023,6.4638672-6.4638672c0-0.0258789,0-0.0522461-0.0009766-0.078125h3.9824219v13.175293H22.7011719V66.6201172z    M45.1259766,83.6088867H21.4492188c-0.0878906-0.105957-0.2421875-0.4145508-0.2421875-0.9067383   c0-0.4916992,0.1542969-0.8007813,0.2421875-0.90625h23.6767578c0.0878906,0.1054688,0.2421875,0.4145508,0.2421875,0.90625   C45.3681641,83.1943359,45.2138672,83.5029297,45.1259766,83.6088867z M21.4492188,45.7758789h23.6767578   c0.0878906,0.1054688,0.2421875,0.4145508,0.2421875,0.90625c0,0.4921875-0.1542969,0.8007813-0.2421875,0.9067383h-0.3925781   H21.7011719h-0.2519531c-0.0878906-0.105957-0.2421875-0.4145508-0.2421875-0.9067383   C21.2070313,46.1904297,21.3613281,45.8813477,21.4492188,45.7758789z"/><path fill="white" d="M33.2158203,70.1503906c0.0576172,0,0.1171875-0.0048828,0.1767578-0.015625   c2.2988281-0.4101563,3.3388672-2.0351563,3.0888672-4.8300781c-0.0498047-0.5493164-0.5195313-0.9511719-1.0849609-0.9072266   c-0.5498047,0.0493164-0.9560547,0.5351563-0.9072266,1.0849609c0.1572266,1.7626953-0.2216797,2.4648438-1.4482422,2.6835938   c-0.5439453,0.0966797-0.9052734,0.6162109-0.8085938,1.1601563   C32.3183594,69.8105469,32.7402344,70.1503906,33.2158203,70.1503906z"/></g></svg>