<svg width="48" height="48" viewBox="0 0 48 48" fill="none" xmlns="http://www.w3.org/2000/svg">
<g id="Group 6836">
<path id="Vector" fill-rule="evenodd" clip-rule="evenodd" d="M22.9321 10.9078C22.3818 11.1821 22.0198 11.5649 21.7619 12.1451C21.5947 12.5215 21.5877 12.9203 21.6117 20.6512L21.6368 28.7624L21.9228 29.2271C22.8716 30.7689 25.028 30.7689 25.9768 29.2271L26.2628 28.7624L26.2885 20.7463C26.3057 15.369 26.2816 12.6091 26.2151 12.3622C26.0668 11.8113 25.5715 11.2271 24.9994 10.9281C24.3208 10.5736 23.6167 10.5667 22.9321 10.9078ZM23.1708 33.8339C22.6426 34.0312 22.1919 34.4131 21.8985 34.9122C21.6747 35.2931 21.6368 35.4611 21.6368 36.0731C21.6368 36.7046 21.6704 36.8435 21.9228 37.2535C22.8503 38.7609 24.9963 38.8017 25.9297 37.3296C26.885 35.8228 25.8927 33.8545 24.12 33.7402C23.7501 33.7163 23.391 33.7518 23.1708 33.8339Z" fill="#FF0000"/>
<circle id="Ellipse 14" cx="24" cy="24" r="22.08" stroke="#FF0000" stroke-width="3.84"/>
</g>
</svg>
