<svg xmlns="http://www.w3.org/2000/svg" data-name="Layer 23" viewBox="0 0 32 40" x="0px" y="0px" fill="white" ><title>trade, trading, finance, business,</title><path d="M15,2a1,1,0,0,0-1,1V4.051A12.994,12.994,0,1,0,27.949,18H29a1,1,0,0,0,1-1A15.017,15.017,0,0,0,15,2Zm1,2.038A13.021,13.021,0,0,1,27.962,16H16V4.038ZM4,17A11.011,11.011,0,0,1,14,6.051V17a1,1,0,0,0,.294.708l7.74,7.74A10.992,10.992,0,0,1,4,17Zm19.448,7.034L17.414,18h8.535A10.947,10.947,0,0,1,23.448,24.034Z"/><path d="M10,14a1,1,0,0,1,1,1h2a3,3,0,0,0-2-2.816V11H9v1.184A2.993,2.993,0,0,0,10,18a1,1,0,1,1-1,1H7a3,3,0,0,0,2,2.816V23h2V21.816A2.993,2.993,0,0,0,10,16,1,1,0,0,1,10,14Z"/><rect x="17" y="13" width="4" height="2"/><rect x="17" y="10" width="4" height="2"/></svg>