<svg xmlns="http://www.w3.org/2000/svg" viewBox="0 0 960 1200" x="0px" y="0px"  fill="white" ><path stroke="10px"  d="m472.026,234.202h3.753v20.829h-3.753v-20.829Zm3.377-112.029c22.519,0,33.027,15.575,33.027,29.462,0,11.822-3.565,18.015-19.328,31.15-14.262,12.01-17.076,19.891-17.076,28.335v.751h3.753v-1.126c0-5.817,3.002-14.262,15.387-24.582,15.951-13.323,21.393-20.079,21.393-34.903,0-15.388-11.259-32.652-37.155-32.652-20.454,0-37.343,11.072-40.533,34.341h3.94c3.565-21.017,16.889-30.775,36.592-30.775Zm-78.673,349.724c7.458,9.277,11.24,19.903,11.24,31.584,0,20.179-17.283,39.082-48.666,53.229-31.129,14.032-72.494,21.761-116.475,21.761s-85.338-7.729-116.466-21.761c-31.381-14.146-48.664-33.051-48.664-53.229,0-23.07,13.906-41.321,41.32-54.26v-66.15c0-15.202,12.984-29.428,36.562-40.056,23.324-10.515,54.31-16.305,87.249-16.305s63.932,5.79,87.257,16.305c23.578,10.628,36.562,24.854,36.562,40.056v66.521c13.051,6.212,23.173,13.712,30.081,22.305Zm-275.71-88.826c0,29.979,54.644,54.37,121.81,54.37s121.82-24.391,121.82-54.37-54.648-54.36-121.82-54.36-121.81,24.386-121.81,54.36Zm0,10.206v91.584c0,29.974,54.644,54.359,121.81,54.359s121.82-24.386,121.82-54.359v-91.584c-4.472,11.294-16.355,21.649-34.562,29.858-23.324,10.515-54.313,16.306-87.257,16.306s-63.926-5.791-87.249-16.306c-18.207-8.209-30.09-18.564-34.562-29.858Zm48.35,8.874h146.93c.433,0,.816-.278.951-.69.134-.411-.012-.862-.361-1.117l-73.47-53.601c-.352-.256-.828-.256-1.179,0l-73.46,53.601c-.35.255-.496.706-.361,1.117.134.412.518.69.951.69Zm712.93,101.33c0,20.178-17.283,39.082-48.664,53.229-31.128,14.032-72.49,21.761-116.466,21.761s-85.345-7.729-116.475-21.761c-31.382-14.146-48.666-33.05-48.666-53.229,0-23.07,13.906-41.321,41.32-54.26v-66.15c0-15.202,12.985-29.428,36.562-40.056,23.326-10.515,54.314-16.305,87.257-16.305s63.925,5.79,87.249,16.305c23.577,10.628,36.562,24.854,36.562,40.056v66.521c13.051,6.212,23.173,13.712,30.081,22.305,7.458,9.277,11.239,19.903,11.239,31.584Zm-286.95-110.199v91.579c0,29.974,54.648,54.359,121.82,54.359s121.81-24.386,121.81-54.359v-91.573c-6.886,17.365-31.161,32.29-66.75,40.309-.006.001-.012,0-.019.002-17.156,3.876-35.674,5.843-55.041,5.843-19.466,0-38.088-1.99-55.346-5.915-.002,0-.003,0-.005,0-35.428-8.029-59.599-22.93-66.469-40.244Zm0-10.211c0,20.564,25.639,39.15,66.911,48.504h0c17.115,3.893,35.589,5.866,54.908,5.866,19.222,0,37.595-1.95,54.609-5.796.011-.002.021.001.031,0,.012-.002.022-.01.035-.012,40.787-9.201,67.134-28.259,67.134-48.562,0-29.975-54.644-54.36-121.81-54.36s-121.82,24.386-121.82,54.36Zm121.23,36.337c.176.128.382.192.589.192s.414-.064.589-.192l73.46-53.6c.35-.255.496-.706.361-1.117-.134-.412-.518-.69-.951-.69h-146.93c-.433,0-.816.278-.951.69-.134.411.012.862.361,1.117l73.47,53.6Zm16.922,251.539c-14.254,3.528-20.417,12.858-20.803,32.502-5.093-16.862-10.24-23.077-22.288-28.847-13.39-6.41-27.032-3.93-38.41,6.99-8.603,8.256-10.52,15.564-9.886,27.116-4.645-15.228-9.029-25.578-25.96-32.403-14.63-5.898-35.491-4.014-46.722,14.053-6.704,10.783-7.681,17.898-6.096,28.09-17.968-51.555-54.263-120.197-76.414-155.522-5.425-8.652-24.844-36.235-46.913-27.92-9.572,3.605-18.142,14.357-19.936,25.011-1.657,9.843,1.418,24.67,4.85,35.264,10.894,33.641,23.443,64.786,35.578,94.906,21.06,52.269,42.835,106.316,56.369,174.665.094.477.512.806.98.806.064,0,.13-.006.195-.019.542-.107.894-.634.787-1.176-13.57-68.533-35.381-122.67-56.476-175.024-12.123-30.088-24.658-61.2-35.531-94.773-3.358-10.369-6.377-24.829-4.779-34.316,1.684-10.006,9.709-20.097,18.668-23.472,20.652-7.773,39.293,18.784,44.514,27.111,30.172,48.117,70.386,129.16,82.741,176.187.138.526.67.844,1.202.719.529-.128.859-.655.742-1.187-.61-2.786-1.195-5.354-1.738-7.739-4.342-19.066-5.966-26.2,2.956-40.553,7.446-11.978,24.479-21.235,44.276-13.254,17.663,7.12,21.038,18.465,26.147,35.638.496,1.669,1.009,3.392,1.551,5.169.151.495.65.792,1.163.687.507-.106.848-.583.787-1.097-2.097-17.549-1.93-25.676,8.331-35.521,10.889-10.45,23.392-12.745,36.162-6.629,13.006,6.228,17.579,13.099,23.299,35.009.13.495.616.817,1.117.735.506-.076.873-.522.85-1.033-1.089-24.14,4.106-34.501,19.169-38.229,20.649-5.101,34.86,19.557,42.498,32.808,25.231,43.78,48.076,110.238,53.139,154.586.062.549.561.943,1.107.88.549-.062.943-.558.88-1.106-5.09-44.583-28.044-111.373-53.394-155.357-7.9-13.708-22.606-39.221-44.71-33.751ZM242.834,281.933h.021c.552-.012.99-.469.979-1.021l-1-47.964c-.012-.546-.457-.979-1-.979h-.021c-.552.012-.99.469-.979,1.021l1,47.964c.012.546.457.979,1,.979Zm72.97,14.695c.156.089.326.131.494.131.348,0,.686-.182.87-.505l35.771-62.79c.273-.48.106-1.091-.374-1.364s-1.091-.105-1.364.374l-35.771,62.79c-.273.48-.106,1.091.374,1.364Zm-147.315,3.966c.181.335.525.525.881.525.16,0,.322-.038.473-.119.486-.263.668-.869.406-1.355l-44.551-82.72c-.262-.485-.869-.668-1.354-.406-.486.263-.668.869-.406,1.355l44.551,82.72Zm548.676-25.51c.014,0,.027,0,.042,0,.552-.022.981-.488.958-1.04l-2-48.812c-.022-.552-.474-.99-1.04-.958-.552.022-.981.488-.958,1.04l2,48.812c.022.538.465.959.999.959Zm76.794,15.57c.284,0,.566-.12.764-.354l48.017-56.686c.357-.422.305-1.053-.117-1.409-.422-.357-1.053-.307-1.41.116l-48.017,56.686c-.357.422-.305,1.053.117,1.409.188.159.417.237.646.237Zm-156.041,1.33c.196.271.501.414.812.414.203,0,.408-.062.585-.189.448-.324.548-.949.225-1.396l-44.581-61.662c-.324-.447-.948-.549-1.396-.225-.448.324-.548.949-.225,1.396l44.581,61.662Z"/></svg>