<svg width="27" height="27" viewBox="0 0 27 27" fill="none" xmlns="http://www.w3.org/2000/svg">
<path d="M11.5398 3.9375C10.6716 3.9375 9.87165 4.40819 9.45 5.16714L8.72691 6.46875H6.60938C4.82308 6.46875 3.375 7.91685 3.375 9.70312V19.2656C3.375 21.0519 4.82308 22.5 6.60938 22.5H12.9354C12.7486 22.0521 12.6051 21.5816 12.5101 21.0938H6.60938C5.59973 21.0938 4.78125 20.2753 4.78125 19.2656V9.70312C4.78125 8.69349 5.59973 7.875 6.60938 7.875H9.55434L10.6793 5.85006C10.8529 5.53756 11.1823 5.34375 11.5398 5.34375H15.4602C15.8177 5.34375 16.1471 5.53756 16.3207 5.85006L17.4457 7.875H20.3906C21.4003 7.875 22.2188 8.69349 22.2188 9.70312V12.8249C22.715 13.0081 23.186 13.2435 23.625 13.5245V9.70312C23.625 7.91685 22.1769 6.46875 20.3906 6.46875H18.2731L17.55 5.16714C17.1284 4.40819 16.3284 3.9375 15.4602 3.9375H11.5398Z" fill="#ADFF14"/>
<path d="M13.5 9.5625C15.4844 9.5625 17.1687 10.8469 17.7671 12.6298C17.3087 12.7542 16.8682 12.9221 16.4504 13.1288C16.0544 11.8765 14.8832 10.9688 13.5 10.9688C11.7913 10.9688 10.4062 12.3538 10.4062 14.0625C10.4062 15.5483 11.4537 16.7896 12.8505 17.088C12.6853 17.5224 12.5602 17.9768 12.4799 18.4464C10.486 17.9842 9 16.1969 9 14.0625C9 11.5772 11.0147 9.5625 13.5 9.5625Z" fill="#ADFF14"/>
<path d="M25.875 19.6875C25.875 23.1047 23.1047 25.875 19.6875 25.875C16.2703 25.875 13.5 23.1047 13.5 19.6875C13.5 16.2703 16.2703 13.5 19.6875 13.5C23.1047 13.5 25.875 16.2703 25.875 19.6875ZM20.25 16.3125C20.25 16.0018 19.9982 15.75 19.6875 15.75C19.3768 15.75 19.125 16.0018 19.125 16.3125V19.125H16.3125C16.0018 19.125 15.75 19.3768 15.75 19.6875C15.75 19.9982 16.0018 20.25 16.3125 20.25H19.125V23.0625C19.125 23.3732 19.3768 23.625 19.6875 23.625C19.9982 23.625 20.25 23.3732 20.25 23.0625V20.25H23.0625C23.3732 20.25 23.625 19.9982 23.625 19.6875C23.625 19.3768 23.3732 19.125 23.0625 19.125H20.25V16.3125Z" fill="#ADFF14"/>
</svg>
