<svg width="17" height="17" viewBox="0 0 17 17" fill="none" xmlns="http://www.w3.org/2000/svg">
<path d="M0.936607 0.936441C1.45379 0.419259 2.29231 0.419259 2.80949 0.936441L16.0637 14.1907C16.5809 14.7079 16.5809 15.5464 16.0637 16.0636C15.5465 16.5807 14.708 16.5807 14.1908 16.0636L0.936608 2.80932C0.419426 2.29214 0.419425 1.45362 0.936607 0.936441Z" fill="white"/>
<path d="M0.93644 16.0635C0.419259 15.5463 0.419259 14.7078 0.93644 14.1906L14.1907 0.9364C14.7079 0.419219 15.5464 0.419217 16.0636 0.936399C16.5807 1.45358 16.5807 2.2921 16.0636 2.80928L2.80932 16.0635C2.29214 16.5807 1.45362 16.5807 0.93644 16.0635Z" fill="white"/>
</svg>
