<svg width="360" height="225" viewBox="0 0 360 225" fill="none" xmlns="http://www.w3.org/2000/svg">
<mask id="mask0_547_4789" style="mask-type:luminance" maskUnits="userSpaceOnUse" x="0" y="203" width="360" height="22">
<path d="M0 203.108H359.101V225H0V203.108Z" fill="white"/>
</mask>
<g mask="url(#mask0_547_4789)">
<path d="M0 214.213C0 220.175 80.3847 225 179.551 225C278.712 225 359.101 220.175 359.101 214.213C359.101 208.255 278.712 203.425 179.551 203.425C80.3847 203.425 0 208.255 0 214.213Z" fill="#C5EAE2"/>
</g>
<path d="M336.585 212.479C336.585 212.479 329.797 202.419 334.124 198.561C336.775 196.198 338.07 203.767 338.07 203.767C338.07 203.767 339.574 189.327 344.462 192.374C346.85 193.864 341.83 207.181 341.83 207.181C341.83 207.181 345.404 200.261 348.222 202.16C352.773 205.227 341.927 212.376 341.927 212.376L336.585 212.479Z" fill="#A2DDD0"/>
<path d="M339.168 212.43L342.674 196.076C342.693 195.988 342.64 195.895 342.547 195.876C342.454 195.856 342.371 195.915 342.347 196.003L338.826 212.435L339.168 212.43Z" fill="#E0FBF0"/>
<path d="M341.034 212.396L347.494 204.539C347.558 204.47 347.543 204.368 347.475 204.309C347.402 204.251 347.294 204.26 347.236 204.329L340.594 212.406L341.034 212.396Z" fill="#E0FBF0"/>
<path d="M337.971 212.454L335.32 200.471C335.3 200.378 335.212 200.324 335.12 200.349C335.032 200.363 334.973 200.451 334.993 200.544L337.634 212.459L337.971 212.454Z" fill="#E0FBF0"/>
<path d="M21.7549 212.753C21.7549 212.753 30.496 196.745 24.6898 194.709C20.8612 193.366 19.616 208.333 19.616 208.333C19.616 208.333 19.2741 191.74 14.1857 193.859C10.3474 195.461 15.4749 207.439 15.4749 207.439C15.4749 207.439 9.903 202.922 9.20468 205.76C8.08639 210.272 14.4982 212.836 14.4982 212.836L21.7549 212.753Z" fill="#A2DDD0"/>
<path d="M19.958 212.772L24.187 199.509C24.2114 199.436 24.1724 199.358 24.0991 199.333C24.021 199.309 23.9477 199.353 23.9233 199.426L19.665 212.777L19.958 212.772Z" fill="#E0FBF0"/>
<path d="M18.8594 212.787L15.8268 198.327C15.8122 198.249 15.7341 198.2 15.6608 198.215C15.5876 198.234 15.5387 198.308 15.5534 198.381L18.5713 212.787H18.8594Z" fill="#E0FBF0"/>
<path d="M17.2965 212.802L11.5391 207.845C11.4805 207.791 11.3926 207.801 11.3438 207.855L11.3535 208.055L16.8815 212.807L17.2965 212.802Z" fill="#E0FBF0"/>
<mask id="mask1_547_4789" style="mask-type:luminance" maskUnits="userSpaceOnUse" x="80" y="0" width="39" height="19">
<path d="M80.6973 0H118.201V18.0879H80.6973V0Z" fill="white"/>
</mask>
<g mask="url(#mask1_547_4789)">
<path d="M117.717 13.5025C117.693 12.809 117.542 12.1058 117.249 11.4759C117.019 10.9778 116.711 10.5187 116.252 10.2111C114.675 9.16117 112.116 9.85948 111.359 11.6126C111.276 11.7884 111.037 11.637 111.11 11.4661C111.511 10.6311 111.569 9.64462 111.393 8.73631C111.232 7.92568 110.881 7.12969 110.319 6.51928C109.665 5.81119 108.771 5.46448 107.814 5.52796C106.744 5.59144 105.714 6.11884 104.913 6.81716C104.547 7.13458 104.19 7.47641 103.883 7.85243C103.673 8.11125 103.473 8.40913 103.346 8.72166C103.307 8.90723 103.268 9.08792 103.214 9.2686C103.17 9.42487 102.911 9.39557 102.931 9.22953L102.935 9.19047V9.18558C102.955 9.0049 102.999 8.8291 103.062 8.66306C103.37 7.12969 103.145 5.47424 102.589 4.01901C102.047 2.6126 101.085 1.22574 99.649 0.63485C98.0912 -0.00974962 96.2844 0.4444 95.0928 1.59687C93.8085 2.84212 93.1493 4.64896 92.7977 6.36301C92.5877 7.35921 92.4705 8.37495 92.5632 9.3858C92.6756 10.6359 93.0272 11.8519 93.0809 13.1069C93.0906 13.2192 92.9539 13.2876 92.8611 13.2339C92.407 12.9506 91.9431 12.6625 91.4254 12.5111C90.8883 12.3549 90.3413 12.3988 89.8432 12.6479C89.0326 13.0532 88.2415 14.0933 88.4222 15.0456C88.4515 15.2019 88.2415 15.2995 88.1536 15.1579C87.7385 14.4791 87.2746 13.815 86.7081 13.2534C86.2149 12.7651 85.6094 12.3256 84.9111 12.2133C84.159 12.0912 83.4119 12.4184 82.8747 12.9311C81.8004 13.9517 81.3999 15.6951 82.0348 17.0575H116.702C117.39 16.0076 117.766 14.7624 117.717 13.5025Z" fill="#DBF1FF"/>
</g>
<path d="M253.509 45.8496C252.889 43.9841 253.143 41.4155 255.077 40.4193C256.644 39.6184 258.564 40.2191 259.35 41.7866C259.482 42.0601 259.872 41.8257 259.745 41.5571C259.042 40.0482 258.432 37.6797 260.341 36.7666C261.86 36.0438 263.759 37.167 264.692 38.466C264.775 38.5978 264.853 38.7443 264.951 38.8762C265.122 39.1203 265.498 38.9103 265.356 38.6418C263.755 36.3417 262.934 33.4166 262.89 30.6282C262.841 28.167 263.471 25.53 265.4 23.855C267.427 22.1019 270.411 21.8089 272.818 22.8783C275.367 24.0113 277.276 26.2967 278.58 28.7042C279.845 31.053 280.7 33.7975 280.543 36.4882C280.529 36.747 280.954 36.8056 280.998 36.5517C281.242 35.2283 281.579 33.9 282.189 32.6987C282.726 31.6635 283.473 30.7307 284.514 30.1887C285.554 29.6515 286.765 29.5636 287.898 29.798C289.91 30.218 292.166 31.6146 292.727 33.7096C292.766 33.9537 292.806 34.1979 292.859 34.4323C292.918 34.6862 293.338 34.6325 293.313 34.3737L293.308 34.3102L293.299 34.2663C293.279 34.0856 293.25 33.9049 293.206 33.734C292.81 31.3607 293.177 28.8555 294.236 26.6971C295.198 24.7389 296.771 23.0004 298.841 22.2093C301.171 21.3254 303.803 21.7552 305.908 23.0248C308.164 24.3775 309.726 26.6727 310.171 29.2609C310.727 32.5327 309.096 35.4627 308.002 38.4318C307.934 38.6173 308.178 38.8078 308.344 38.6955C309.77 37.6797 311.494 37.0205 313.12 38.0265C314.453 38.8469 315.113 40.4828 314.409 41.938C314.282 42.2066 314.683 42.4361 314.815 42.1724C315.337 41.0688 316.163 40.0823 317.339 39.6673C319.161 39.0275 321.197 39.8284 322.496 41.1616C323.922 42.6363 324.362 44.7411 323.439 46.5967L253.783 46.5186C253.68 46.2988 253.587 46.0791 253.509 45.8496Z" fill="#DBF1FF"/>
<path d="M15.7337 82.7676C15.094 81.7567 14.8059 80.575 14.9475 79.3786C15.0744 78.3189 15.6409 77.225 16.7006 76.8588C18.2633 76.3118 20.7098 77.0248 21.1591 78.7974C21.2274 79.0025 21.54 78.9195 21.4863 78.7095C21.203 77.8305 21.0809 76.8588 21.2421 75.9504C21.3837 75.1642 21.7744 74.4171 22.5215 74.0704C23.2003 73.7578 23.9963 73.8164 24.6995 74.0069C25.8764 74.3243 27.2388 75.1447 27.776 76.3313C27.8297 76.5218 27.8932 76.7122 27.9616 76.8978C28.0348 77.098 28.3278 77.0199 28.2839 76.805C28.2448 76.6097 28.1813 76.4241 28.1032 76.2483C27.7955 75.1935 27.6979 74.0801 27.8053 72.9911C27.9225 71.8631 28.2888 70.7106 29.0066 69.817C29.8124 68.8159 31.0039 68.2494 32.2736 68.1762C33.7532 68.0932 35.2573 68.5913 36.4732 69.4361C37.0348 69.8267 37.5818 70.276 38.0408 70.7839C38.2947 71.072 38.5389 71.3992 38.7049 71.7508C38.7489 72.0877 38.827 72.4247 38.9296 72.7519C38.9979 72.9325 39.2567 72.9032 39.2616 72.7079C39.2763 72.3417 39.1835 71.9901 39.0321 71.6629C38.8368 70.0953 39.2909 68.4057 39.9599 67.0335C40.7022 65.5245 41.9035 64.0009 43.5785 63.5272C45.2926 63.0438 47.0115 63.9374 48.1591 65.1973C49.4483 66.6281 50.1906 68.5229 50.6154 70.3834C51.0207 72.1805 51.177 74.1192 50.8156 75.9407C50.7766 76.1555 51.0842 76.2434 51.1428 76.0335C51.5237 74.6466 52.0804 73.2744 52.935 72.1121C53.6382 71.1404 54.6393 70.2955 55.8699 70.1735C57.2128 70.0367 58.6143 70.696 59.5129 71.6824C61.3002 73.6455 61.0316 76.7464 59.8645 78.9537C59.7619 79.149 60.0256 79.2907 60.1526 79.1246C60.6507 78.4654 61.3392 77.9624 62.1596 77.8305C63.3951 77.6303 64.6843 78.3091 65.368 79.3346C65.7049 79.8376 65.9051 80.4285 65.8807 81.034C65.8514 81.747 65.5096 82.3818 65.031 82.8897L64.9871 83.0118H15.8997C15.8411 82.9287 15.7874 82.8555 15.7337 82.7676Z" fill="#DBF1FF"/>
<path d="M88.7984 91.2013C87.309 94.2582 85.673 97.2078 83.8076 100.025C83.6269 100.304 83.8564 100.709 84.1885 100.748C87.768 101.144 91.3524 101.534 94.9319 101.92C97.8961 102.247 102.203 102.033 106.559 100.445C111.804 98.5312 116.043 94.0336 116.946 88.0662C117.732 82.8556 112.497 80.7167 108.278 79.7059C103.072 78.4655 98.1256 81.0195 94.3068 83.9886C91.8212 85.9126 90.1901 88.3641 88.7984 91.2013Z" fill="#A2DDD0"/>
<path d="M84.1651 100.387C86.2991 99.4638 88.4527 98.5409 90.4451 97.3298C90.6062 97.2224 90.7723 97.1247 90.9334 97.0221C90.5476 97.5593 90.1667 98.1014 89.8054 98.6532C89.3561 99.3564 89.0045 100.113 88.8385 100.929C88.7848 101.202 89.195 101.334 89.2487 101.061C89.4147 100.245 89.7614 99.5175 90.2156 98.8241C90.743 98.0183 91.3094 97.2468 91.8564 96.4654L91.8954 96.3629C93.2481 95.3862 94.5178 94.2972 95.8803 93.3303C97.3501 92.2951 98.8982 91.3965 100.495 90.581C100.554 92.6369 99.0837 94.5023 98.0582 96.1627C97.4332 97.1638 96.8032 98.1697 96.1781 99.1757C95.6947 99.9473 95.2064 100.753 95.3773 101.696C95.4212 101.974 95.8461 101.871 95.7972 101.603C95.6019 100.48 96.5639 99.371 97.1206 98.4871C97.7652 97.4519 98.4049 96.4166 99.0495 95.3813C99.9969 93.8577 101.027 92.2365 100.92 90.3759C103.264 89.2137 105.706 88.2272 108.123 87.2603C108.919 86.938 109.72 86.6157 110.525 86.313C109.392 92.0558 106.482 97.2858 102.067 101.153C101.857 101.334 102.155 101.652 102.365 101.471C106.912 97.4909 109.895 92.0704 110.994 86.1421C112.645 85.5365 114.33 85.0335 116.083 84.7747C116.356 84.7308 116.258 84.3108 115.98 84.3499C115.335 84.4427 114.701 84.5745 114.071 84.7259L114.032 84.7064C111.463 83.5246 108.758 82.67 105.969 82.1866C103.176 81.7129 99.9237 81.2831 97.2427 82.4063C96.9937 82.5186 97.1988 82.8946 97.4527 82.7921C98.8835 82.1963 100.432 82.1328 101.955 82.2012C103.318 82.2598 104.68 82.4014 106.028 82.6358C108.572 83.09 111.048 83.8518 113.407 84.9066C112.542 85.141 111.688 85.4291 110.848 85.7319C110.765 85.7074 110.672 85.7319 110.628 85.81C110.179 85.976 109.739 86.1518 109.29 86.3227C108.377 86.6841 107.464 87.0504 106.55 87.4215C104.48 86.6792 102.395 86.2251 100.197 86.0981C97.7603 85.9467 95.3138 85.8686 92.8721 85.7514C92.5938 85.7416 92.5791 86.1762 92.8575 86.1909C95.2161 86.2934 97.5748 86.3813 99.9383 86.5132C102.009 86.6353 103.982 87.0162 105.94 87.6657C104.866 88.11 103.796 88.5691 102.736 89.0379C102.077 89.3406 101.418 89.6483 100.764 89.9657C100.671 89.9462 100.544 89.9999 100.495 90.1024C99.2546 90.7324 98.0387 91.4014 96.8716 92.1535H96.852C95.431 92.2218 94.1418 91.587 92.7793 91.3184C91.3046 91.0303 89.9616 91.3672 88.5748 91.8507C88.316 91.9386 88.4087 92.3634 88.6773 92.2707C89.3708 92.0314 90.0788 91.7872 90.8113 91.6847C91.5536 91.5821 92.2959 91.6456 93.0186 91.8165C94.0881 92.0704 95.1282 92.4904 96.2319 92.5783C94.4543 93.7943 92.8477 95.2446 91.0506 96.4264C88.8385 97.8963 86.387 98.9608 83.9551 100.001C83.6963 100.113 83.9063 100.494 84.1651 100.387Z" fill="#E0FBF0"/>
<path d="M101.383 76.7319C104.792 77.44 108.376 77.5084 111.927 76.937C114.651 76.4926 117.162 76.1899 118.182 72.9278C120.228 66.389 118.793 59.1568 115.584 54.0146C114.979 53.0428 114.295 52.1541 113.567 51.319C112.034 49.1313 110.149 47.2561 107.932 45.8545C103.82 43.242 98.9906 42.2506 94.1072 42.0504C91.6949 41.9576 89.2679 42.0553 86.8311 42.2213C83.8766 42.4264 80.5462 43.1492 78.1729 41.1079C77.6455 40.6538 76.9374 41.2593 76.9276 41.9528C76.869 46.3624 76.8202 50.8258 77.7773 55.0206C78.6905 59.064 80.6585 62.4726 83.1979 65.3733C88.0519 70.9012 94.2782 75.262 101.383 76.7319Z" fill="#A2DDD0"/>
<path d="M99.7463 75.6573C101.597 74.0165 103.956 73.4891 106.353 73.9042C107.711 74.1386 108.966 74.3144 110.343 74.0703C111.657 73.8407 112.912 73.3671 114.157 72.8836C112.599 70.7935 110.988 68.7376 109.181 66.8527L109.039 66.7111C102.525 66.7697 97.1874 71.5016 90.7267 71.9411C90.253 71.9704 90.1603 71.2428 90.6388 71.2086C96.8895 70.7886 102.08 66.335 108.331 65.9981C106.099 63.8543 103.585 62.067 100.938 60.4555C100.049 59.9183 99.1554 59.3812 98.2568 58.8489C96.5379 59.1272 94.9948 59.9232 93.3735 60.5239C91.9573 61.0415 90.5167 61.3052 89.0078 61.3003C85.9899 61.2759 83.055 60.3969 80.0273 60.3969C79.5634 60.3969 79.4706 59.6595 79.9443 59.6644C82.9085 59.6644 85.7799 60.4848 88.7392 60.5532C90.4777 60.602 92.0794 60.2504 93.6909 59.6107C94.8971 59.1321 96.074 58.6145 97.3241 58.2971C94.3257 56.5195 91.3323 54.742 88.4853 52.7447C84.4565 52.7935 80.1201 52.6128 77.2096 49.4338C76.8922 49.0871 77.4782 48.6329 77.7908 48.9796C80.2764 51.6997 83.9926 52.022 87.4744 52.0171C86.405 51.2406 85.3648 50.43 84.3491 49.5656C81.5851 47.2119 79.0946 44.5504 77.068 41.5325C76.8043 41.1419 77.3854 40.6877 77.654 41.0784C80.5791 45.449 84.4663 48.965 88.7001 52.0122C88.8857 52.0122 89.0078 52.1294 89.0566 52.271C89.5059 52.5884 89.96 52.901 90.4191 53.2037C90.424 52.0854 90.2921 50.9818 90.0626 49.8977C89.5352 47.4609 88.5243 45.1218 87.533 42.851C87.3426 42.4115 88.0262 42.1332 88.2167 42.5678C89.7549 46.0985 91.2834 49.7659 91.1369 53.6823C91.4934 53.9265 91.8597 54.1609 92.221 54.3904C94.2623 55.6942 96.3768 56.9004 98.4766 58.1261L98.5157 58.1506C99.6437 58.8 100.762 59.4642 101.861 60.1625C102.603 57.3546 101.641 54.5076 100.64 51.895C99.5412 49.0285 98.6475 46.245 98.5108 43.1587C98.4912 42.685 99.2189 42.5922 99.2384 43.0708C99.3165 44.7848 99.5802 46.4843 100.069 48.1397C100.547 49.7463 101.226 51.2846 101.787 52.8668C102.676 55.3524 103.248 57.9748 102.505 60.5776C104.815 62.0572 107.027 63.6785 108.995 65.6221C110.231 66.8429 111.369 68.1419 112.458 69.4897C114.172 66.4962 113.136 62.8874 112.218 59.7914C111.247 56.5195 110.709 53.3453 111.325 49.9514C111.403 49.4826 112.135 49.5852 112.052 50.0491C111.72 51.8999 111.666 53.7653 111.945 55.6259C112.252 57.6671 112.975 59.6058 113.498 61.5982C114.245 64.4159 114.528 67.5168 112.946 70.0952C114.142 71.5993 115.28 73.1571 116.413 74.7149C116.691 75.0958 116.11 75.5499 115.832 75.169C115.422 74.6074 115.016 74.0556 114.611 73.5038C112.345 74.373 110.001 75.2081 107.54 74.8565C106.222 74.6709 104.981 74.3437 103.638 74.5684C102.349 74.7783 101.177 75.3741 100.196 76.2433C99.8439 76.551 99.3947 75.9699 99.7463 75.6573Z" fill="#E0FBF0"/>
<path d="M110.705 165.497L157.21 164.969L157.361 212.186L110.857 212.709L102.575 210.653L102.418 163.436L110.705 165.497Z" fill="#387694"/>
<path d="M157.21 164.969L148.923 162.913L102.418 163.436L110.705 165.496L157.21 164.969Z" fill="#4087AA"/>
<path d="M110.706 165.496L110.857 212.708L157.362 212.186L157.21 164.969L110.706 165.496Z" fill="#4693B9"/>
<mask id="mask2_547_4789" style="mask-type:luminance" maskUnits="userSpaceOnUse" x="122" y="175" width="22" height="27">
<path d="M122.322 175.659H143.477V201.463H122.322V175.659Z" fill="white"/>
</mask>
<g mask="url(#mask2_547_4789)">
<mask id="mask3_547_4789" style="mask-type:luminance" maskUnits="userSpaceOnUse" x="122" y="175" width="22" height="27">
<path d="M142.907 201.042H136.974C136.813 201.042 136.661 200.959 136.573 200.827L130.689 191.632L128.638 193.839V200.573C128.638 200.837 128.428 201.042 128.169 201.042H123.183C122.919 201.042 122.709 200.837 122.709 200.573V176.367C122.709 176.103 122.919 175.893 123.183 175.893H128.169C128.428 175.893 128.638 176.103 128.638 176.367V185.889L129.976 184.053L136.148 176.074C136.241 175.956 136.378 175.893 136.524 175.893H142.658C142.839 175.893 143.005 175.995 143.083 176.161C143.161 176.323 143.136 176.518 143.024 176.66L134.649 187.149L143.298 200.315C143.395 200.461 143.405 200.642 143.322 200.798C143.239 200.949 143.078 201.042 142.907 201.042Z" fill="white"/>
</mask>
<g mask="url(#mask3_547_4789)">
<path d="M122.709 201.042H143.405V175.893H122.709V201.042Z" fill="#DAE9F1"/>
</g>
</g>
<path d="M127.646 118.226L174.155 117.703L174.312 164.92L127.798 165.447L119.516 163.387L119.364 116.17L127.646 118.226Z" fill="#236B68"/>
<path d="M174.155 117.703L165.873 115.647L119.364 116.17L127.646 118.226L174.155 117.703Z" fill="#25716D"/>
<path d="M127.646 118.226L127.797 165.448L174.311 164.92L174.155 117.703L127.646 118.226Z" fill="#2A817D"/>
<path d="M151.666 154.48C149.747 154.48 147.969 154.123 146.392 153.42C144.786 152.707 143.545 151.706 142.695 150.451C141.841 149.191 141.406 147.716 141.406 146.061C141.406 145.802 141.621 145.592 141.88 145.592H146.88C147.139 145.592 147.354 145.802 147.354 146.061C147.354 148.473 148.726 149.596 151.666 149.596C152.745 149.596 153.585 149.381 154.166 148.966C154.704 148.571 154.967 148.034 154.967 147.326C154.967 146.534 154.704 145.948 154.157 145.533C153.541 145.065 152.379 144.552 150.709 144.01C148.956 143.443 147.549 142.877 146.524 142.325C143.623 140.753 142.153 138.599 142.153 135.903C142.153 134.502 142.559 133.227 143.35 132.129C144.131 131.035 145.269 130.17 146.724 129.565C148.155 128.969 149.776 128.666 151.549 128.666C153.341 128.666 154.958 128.998 156.369 129.648C157.795 130.307 158.923 131.259 159.714 132.47C160.51 133.686 160.915 135.078 160.915 136.616C160.915 136.88 160.7 137.09 160.442 137.09H155.456C155.197 137.09 154.982 136.88 154.982 136.616C154.982 135.645 154.694 134.912 154.098 134.385C153.493 133.852 152.609 133.584 151.466 133.584C150.357 133.584 149.498 133.808 148.912 134.263C148.355 134.683 148.087 135.229 148.087 135.918C148.087 136.543 148.404 137.061 149.063 137.505C149.81 138.008 150.948 138.492 152.438 138.941C155.334 139.815 157.482 140.919 158.825 142.237C160.212 143.585 160.915 145.284 160.915 147.291C160.915 149.538 160.051 151.32 158.347 152.6C156.686 153.845 154.44 154.48 151.666 154.48Z" fill="#D4E6E5"/>
<path d="M120.623 70.96L167.128 70.4375L167.284 117.655L120.775 118.177L112.493 116.121L112.336 68.9041L120.623 70.96Z" fill="#FFBC33"/>
<path d="M167.128 70.4374L158.845 68.3766L112.336 68.904L120.623 70.9599L167.128 70.4374Z" fill="#F9C969"/>
<path d="M120.624 70.96L120.775 118.177L167.284 117.655L167.128 70.4375L120.624 70.96Z" fill="#FFD471"/>
<path d="M146.154 105.851H141.168C140.909 105.851 140.694 105.646 140.694 105.382V81.1756C140.694 80.9119 140.909 80.702 141.168 80.702H146.154C146.413 80.702 146.628 80.9119 146.628 81.1756V105.382C146.628 105.646 146.413 105.851 146.154 105.851Z" fill="#FFF6E3"/>
<path d="M132.904 23.6938L179.413 23.1713L179.565 70.3883L133.056 70.9109L124.773 68.855L124.617 21.6379L132.904 23.6938Z" fill="#7ABDE1"/>
<path d="M179.413 23.1716L171.126 21.1157L124.617 21.6382L132.904 23.6941L179.413 23.1716Z" fill="#7FC8EF"/>
<path d="M132.905 23.6938L133.056 70.9109L179.565 70.3884L179.414 23.1713L132.905 23.6938Z" fill="#98D4FC"/>
<path d="M164.862 59.3229H159.51C159.329 59.3229 159.173 59.2253 159.09 59.069L154.685 50.4597H151.472V58.8492C151.472 59.1129 151.262 59.3229 151.003 59.3229H146.017C145.753 59.3229 145.543 59.1129 145.543 58.8492V34.6425C145.543 34.3837 145.753 34.1688 146.017 34.1688H155.007C157.962 34.1688 160.291 34.8476 161.917 36.1905C163.578 37.553 164.418 39.4917 164.418 41.9578C164.418 43.6962 164.032 45.171 163.27 46.3479C162.586 47.4027 161.58 48.2719 160.272 48.9409L165.277 58.4C165.311 58.4634 165.336 58.5416 165.336 58.6197V58.8492C165.336 59.1129 165.121 59.3229 164.862 59.3229ZM151.472 39.1547V45.4786H155.022C156.145 45.4786 157.014 45.1954 157.61 44.6485C158.201 44.0967 158.489 43.3495 158.489 42.3582C158.489 41.3376 158.216 40.566 157.654 39.9995C157.102 39.4379 156.209 39.1547 155.007 39.1547H151.472Z" fill="#EAF6FE"/>
<path d="M120.619 76.9422L120.501 76.9178L112.219 73.8804C112.034 73.8169 111.941 73.6167 112.009 73.4311C112.073 73.2504 112.278 73.1576 112.459 73.226L120.677 76.239L167.123 75.3747C167.318 75.3844 167.474 75.5261 167.479 75.7214C167.484 75.9167 167.328 76.073 167.132 76.0779L120.628 76.9422H120.619Z" fill="#29566D"/>
<path d="M48.1792 203.425H52.5107C52.4814 202.927 52.457 202.434 52.4619 201.931C52.4668 200.217 52.6621 198.503 52.8819 196.803C53.0967 195.168 53.4288 193.566 54.0148 192.023C54.3273 191.202 54.6643 190.387 54.8547 189.522C54.9963 188.853 55.0305 188.175 54.9768 187.501H48.8091C48.8873 188.717 48.9605 189.928 48.5601 191.095C48.3452 191.73 48.1108 192.35 47.9546 192.999C47.8032 193.634 47.7006 194.274 47.6371 194.923C47.3686 197.638 47.769 200.383 48.1255 203.074C48.1401 203.191 48.1645 203.308 48.1792 203.425Z" fill="#BF7968"/>
<path d="M52.5694 203.425C52.6182 202.996 52.667 202.566 52.711 202.141C52.711 202.141 51.3925 202.283 47.813 202.087C47.813 202.087 47.8667 202.688 47.9351 203.425H52.5694Z" fill="#FFD471"/>
<path d="M57.6681 212.113C57.5655 211.561 57.1797 211.185 56.7402 210.892C55.9003 210.326 53.2828 209.579 52.9996 209.329C52.4673 208.851 52.3648 208.065 52.3892 207.376C52.4429 205.916 52.6285 204.451 52.7554 202.996C52.7554 202.996 50.9047 203.45 47.7549 202.937C47.7549 202.937 47.9649 205.55 48.0723 206.854C48.126 207.493 48.1797 208.128 48.1309 208.768C48.087 209.329 47.9698 209.881 47.8574 210.433C47.7402 210.98 47.6328 211.532 47.6182 212.093C47.6133 212.191 47.6133 212.396 47.6133 212.396C47.96 212.753 48.7902 212.723 49.176 212.704C50.1575 212.665 51.1 212.513 52.0913 212.577C53.361 212.66 54.6209 212.87 55.9003 212.919C56.3349 212.933 56.75 212.929 57.1456 212.865C57.6534 212.733 57.6974 212.264 57.6681 212.113Z" fill="#091317"/>
<path d="M40.7618 203.425H45.0982C45.064 202.927 45.0444 202.434 45.0493 201.931C45.0542 200.217 45.2495 198.503 45.4693 196.803C45.6842 195.168 46.0162 193.566 46.6022 192.023C46.9099 191.202 47.2517 190.387 47.4373 189.522C47.5838 188.853 47.618 188.175 47.5594 187.501H41.3966C41.4698 188.717 41.5431 189.928 41.1475 191.095C40.9327 191.73 40.6983 192.35 40.5371 192.999C40.3906 193.634 40.2832 194.274 40.2246 194.923C39.9511 197.638 40.3564 200.383 40.7129 203.074C40.7276 203.191 40.7471 203.308 40.7618 203.425Z" fill="#BF7968"/>
<path d="M45.1573 203.425C45.2061 202.996 45.2549 202.566 45.294 202.141C45.294 202.141 43.9804 202.283 40.4009 202.087C40.4009 202.087 40.4546 202.688 40.523 203.425H45.1573Z" fill="#FFD471"/>
<path d="M50.2547 212.113C50.1473 211.561 49.7615 211.185 49.3269 210.892C48.487 210.326 45.8646 209.579 45.5863 209.329C45.0491 208.851 44.9514 208.065 44.9758 207.376C45.0247 205.916 45.2151 204.451 45.3372 202.996C45.3372 202.996 43.4913 203.45 40.3367 202.937C40.3367 202.937 40.5515 205.55 40.659 206.854C40.7078 207.493 40.7664 208.128 40.7176 208.768C40.6736 209.329 40.5515 209.881 40.4392 210.433C40.3269 210.98 40.2195 211.532 40.1999 212.093C40.195 212.191 40.1999 212.396 40.1999 212.396C40.5466 212.753 41.3719 212.723 41.7577 212.704C42.7393 212.665 43.6866 212.513 44.6731 212.577C45.9476 212.66 47.2075 212.87 48.4821 212.919C48.9216 212.933 49.3367 212.929 49.7322 212.865C50.2401 212.733 50.2791 212.264 50.2547 212.113Z" fill="#12252E"/>
<path d="M69.554 139.429C69.2707 139.141 68.9582 139.79 68.841 139.947C68.4943 140.42 68.0157 140.704 67.5176 140.987C67.6739 140.811 67.8253 140.635 67.9815 140.469C68.1183 140.332 68.2648 140.206 68.382 140.059C68.5138 139.888 68.6066 139.678 68.7092 139.488C68.7971 139.307 68.8996 139.126 68.9777 138.936C69.0168 138.838 69.0461 138.716 68.9631 138.633C68.7726 138.433 68.4796 138.653 68.3087 138.838C68.3283 138.74 68.3331 138.643 68.2941 138.54C68.1525 138.203 67.8546 138.526 67.7032 138.672C67.2344 139.102 66.7656 139.536 66.2773 139.947C66.0722 140.118 65.8524 140.362 65.6131 140.479L65.5203 140.557C65.4276 140.513 65.3445 140.474 65.2518 140.435L65.3445 140.196C65.3885 140.098 65.4422 140 65.4715 139.898C65.5252 139.712 65.535 139.292 65.242 139.351C65.076 139.375 64.905 139.639 64.8123 139.756C64.6511 139.956 64.49 140.171 64.3581 140.391C64.1335 140.782 64.1091 141.211 64.1139 141.656C64.1188 142.261 64.0651 142.847 63.8551 143.424C63.7379 143.726 63.5914 144.015 63.4107 144.283C63.2398 144.537 63.0396 144.757 62.9029 145.03C62.8931 145.04 64.8855 145.895 65.3494 146.022C65.4422 145.06 66.37 144.41 66.9756 143.741C67.2539 143.429 67.542 143.106 67.8692 142.838C68.1964 142.579 68.5871 142.383 68.8508 142.051C69.0998 141.744 69.2756 141.358 69.4661 141.016C69.5296 140.894 69.6956 140.621 69.471 140.547C69.2805 140.484 69.0315 140.787 68.9143 140.884L68.8068 140.987C68.9191 140.86 69.0266 140.733 69.1242 140.596C69.2952 140.372 69.8421 139.727 69.554 139.429Z" fill="#BF7968"/>
<path d="M39.4674 163.201C38.6617 162.317 35.4582 158.386 34.9552 157.961C36.2933 156.14 37.9976 153.854 38.5298 151.667C39.111 153.64 39.736 155.061 40.1169 157.077L40.3171 158.552C40.2244 160.384 39.7653 161.599 39.4674 163.201ZM65.9596 145.382C64.7241 145.055 64.2699 144.684 63.1761 144.019C61.7843 145.392 60.3584 147.477 58.9031 148.786C57.3356 150.192 56.5103 148.6 54.5521 146.842C53.1506 145.592 51.9737 144.376 50.8066 143.888C48.5016 142.93 46.7241 143.199 44.6536 143.053C41.0985 142.808 38.9156 142.76 36.8256 144.561C34.545 146.529 32.6991 151.579 32.3329 152.722C31.9813 153.859 31.4734 154.943 31.1023 156.076C30.5505 157.771 30.2135 159.255 31.3123 160.799C31.9617 161.707 36.5863 165.067 37.8706 165.872C37.8706 165.872 38.5836 164.569 39.0279 164.051C38.5494 167.645 38.3687 171.268 38.1782 174.892C37.9683 179.038 37.7485 183.179 37.5336 187.325C44.258 189.942 51.4853 188.331 58.2244 187.305C57.5456 181.841 56.6422 176.406 55.5092 171.019C54.933 168.304 54.303 165.604 53.6243 162.918C52.9455 160.247 51.8907 158.303 52.213 155.525C52.3399 154.431 52.506 153.098 52.213 151.696C52.5109 151.882 53.5266 152.414 53.8147 152.59C55.3627 153.542 57.1451 154.333 58.991 154.099C60.7784 153.879 61.9113 152.116 62.9759 150.744C64.2846 149.064 64.7387 147.12 65.9596 145.382Z" fill="#98D4FC"/>
<path d="M41.6841 139.488C41.6157 138.828 41.5327 138.389 41.5327 138.389C41.5327 138.389 42.5924 138.233 42.7975 137.232C42.7975 137.217 43.5886 131.738 45.4589 131.528C47.676 131.289 48.6917 131.879 49.1361 134.043C49.3216 134.956 49.8002 135.273 50.2788 135.684C50.4692 135.84 50.3423 136.201 50.0688 136.182L49.7465 136.201C49.6732 136.206 49.6146 136.27 49.6195 136.343C49.6293 136.968 49.5853 137.554 49.4535 138.081C49.1556 139.312 49.3168 140.591 47.1827 140.562C46.9337 140.562 46.6944 140.542 46.4551 140.518C46.4551 140.518 46.504 141.988 47.0021 144.215C47.0509 144.449 47.0948 144.708 47.0948 144.708C46.3135 145.729 43.7498 145.343 42.6461 144.327C42.2017 143.917 41.5181 143.277 41.5474 143.15C41.8208 141.934 41.7915 140.508 41.6841 139.488Z" fill="#BF7968"/>
<path d="M30.7255 217.665C29.8758 217.665 28.9528 217.631 27.9517 217.567C27.7613 217.553 27.6148 217.387 27.6294 217.191C27.6392 217.001 27.8199 216.854 28.0006 216.864C33.255 217.216 36.3462 216.635 37.4596 215.092C38.7928 213.246 37.4791 210.003 35.809 205.896C34.7738 203.347 33.6018 200.461 32.8937 197.414C30.0174 185.069 36.4536 174.369 39.9159 168.622L39.9599 168.568L125.379 76.3509C125.511 76.2093 125.731 76.1995 125.873 76.3314C126.019 76.4632 126.029 76.6878 125.897 76.8295L40.497 169.017C37.0836 174.687 30.7645 185.205 33.5773 197.258C34.2757 200.246 35.433 203.108 36.4585 205.633C38.2067 209.94 39.5887 213.338 38.0309 215.502C36.9761 216.962 34.6273 217.665 30.7255 217.665Z" fill="#29566D"/>
<path d="M42.6706 169.887C43.0026 169.657 42.4069 169.242 42.2701 169.1C41.8599 168.69 41.6499 168.168 41.4546 167.635C41.6011 167.816 41.7525 167.992 41.8892 168.173C42.0015 168.329 42.1041 168.495 42.2359 168.632C42.3824 168.793 42.5729 168.915 42.7487 169.047C42.9098 169.164 43.0759 169.291 43.2468 169.398C43.3396 169.452 43.4519 169.496 43.5496 169.432C43.7791 169.276 43.6082 168.949 43.447 168.749C43.5447 168.788 43.6423 168.807 43.7449 168.788C44.1014 168.695 43.8279 168.348 43.7107 168.177C43.3542 167.65 43.0026 167.118 42.6754 166.571C42.5387 166.341 42.3287 166.087 42.2506 165.833L42.192 165.726C42.2457 165.643 42.2994 165.565 42.3531 165.482L42.5778 165.609C42.6657 165.672 42.7536 165.736 42.8464 165.785C43.0222 165.868 43.4324 165.941 43.4275 165.643C43.4275 165.472 43.1931 165.262 43.0905 165.155C42.9196 164.964 42.734 164.769 42.5338 164.608C42.1822 164.32 41.7671 164.227 41.3325 164.163C40.727 164.075 40.1605 163.929 39.6282 163.626C39.345 163.47 39.0764 163.279 38.842 163.06C38.6174 162.855 38.4318 162.615 38.1828 162.44C38.173 162.425 37.0205 164.266 36.8252 164.701C37.7579 164.945 38.256 165.965 38.8225 166.664C39.0862 166.996 39.3597 167.323 39.5696 167.689C39.7747 168.06 39.9066 168.47 40.1947 168.788C40.4584 169.081 40.8051 169.315 41.1177 169.555C41.23 169.638 41.4693 169.843 41.5816 169.633C41.6695 169.452 41.4107 169.159 41.3374 169.032L41.2544 168.91C41.3569 169.037 41.4693 169.164 41.5865 169.286C41.7818 169.486 42.3336 170.126 42.6706 169.887Z" fill="#BF7968"/>
<path d="M39.7992 163.436C39.7992 163.436 39.14 163.87 38.6126 164.554C38.1828 165.121 37.8703 165.873 37.8703 165.873L36.2588 164.769L38.1291 161.634L39.7992 163.436Z" fill="#98D4FC"/>
<path d="M37.5919 134.287C38.0753 133.96 38.5295 133.989 38.842 134.057C38.6565 132.939 38.6906 132.251 38.9836 131.557C39.555 130.214 40.6391 129.155 42.0406 128.617C45.0195 127.465 45.2832 128.857 46.924 128.774C47.51 128.744 48.0325 128.52 48.5696 128.881C49.1166 129.252 49.4242 129.931 49.4242 130.571C49.4291 132.739 47.7004 132.246 46.8068 133.012C46.1622 133.564 45.7227 134.556 45.6152 134.868C45.3125 135.737 44.3602 136.089 43.9647 136.914C43.5545 137.764 43.4031 139.102 42.6852 139.751C42.1187 140.264 40.7905 139.732 40.307 139.112C40.1215 139.288 39.4427 139.488 38.7834 139.336C37.9581 139.141 37.3331 138.184 36.9668 137.002C36.5615 135.708 37.0352 134.658 37.5919 134.287Z" fill="#12252E"/>
<path d="M100.928 214.965C100.928 214.965 114.054 190.265 103.389 190.529C99.004 190.636 95.2194 210.272 95.2194 210.272C95.2194 210.272 96.074 192.355 87.3084 195.163C82.5617 196.686 89.7403 210.272 89.7403 210.272C89.7403 210.272 83.2405 201.501 79.5829 203.992C73.6252 208.05 84.5639 215.028 84.5639 215.028L100.928 214.965Z" fill="#A2DDD0"/>
<path d="M106.686 214.936C106.686 214.936 109.001 201.868 114.079 202.088C117.718 202.254 114.436 211.102 111.355 214.931C111.355 214.931 106.828 214.936 106.686 214.936Z" fill="#A2DDD0"/>
<path d="M97.7402 214.97L103.21 195.622C103.244 195.49 103.38 195.412 103.507 195.451C103.639 195.49 103.713 195.622 103.678 195.754L98.2481 214.97H97.7402Z" fill="#E0FBF0"/>
<path d="M93.2129 214.994L89.4185 199.333C89.3941 199.202 89.4722 199.07 89.6041 199.036C89.731 199.006 89.8629 199.084 89.8971 199.216L93.711 214.994H93.2129Z" fill="#E0FBF0"/>
<path d="M109.079 214.93L112.58 206.194C112.629 206.067 112.771 206.009 112.898 206.057C113.025 206.111 113.083 206.253 113.035 206.38L109.611 214.926L109.079 214.93Z" fill="#E0FBF0"/>
<path d="M89.189 215.014L82.3034 207.244C82.2155 207.142 82.2253 206.99 82.3279 206.898C82.4255 206.805 82.5769 206.819 82.6697 206.917L89.8433 215.014H89.189Z" fill="#E0FBF0"/>
<path d="M210.711 53.3307C205.154 55.7333 199.362 59.6156 197.585 66.0714C196.144 71.3112 195.324 78.3481 201.516 80.6335C208.592 83.2412 216.083 81.3123 221.352 76.7122C225.718 72.8885 228.555 68.2933 229.986 64.8456C231.719 60.6801 233.458 56.5146 235.187 52.3492C235.343 51.9634 235.04 51.4604 234.625 51.4946C230.411 51.8364 226.192 51.8559 221.938 51.646C217.992 51.4604 214.325 51.768 210.711 53.3307Z" fill="#A2DDD0"/>
<path d="M234.801 52.1005C232.506 53.8927 230.196 55.6946 227.661 57.145C227.451 57.2671 227.237 57.3843 227.032 57.4966C227.852 57.3989 228.682 57.3061 229.502 57.2475C230.543 57.1743 231.583 57.2475 232.584 57.5601C232.911 57.6626 232.808 58.1949 232.476 58.0875C231.48 57.7749 230.474 57.7163 229.444 57.7994C228.243 57.8921 227.051 58.0484 225.86 58.1754L225.723 58.151C223.843 59.0495 221.884 59.7918 220.004 60.7001C217.978 61.6816 216.054 62.839 214.198 64.1038C216.415 65.4027 219.35 64.9193 221.787 64.7923C223.262 64.7093 224.751 64.6312 226.226 64.553C227.364 64.4895 228.54 64.4407 229.468 65.1927C229.752 65.4125 229.38 65.8178 229.112 65.5981C228.008 64.7044 226.206 65.1 224.902 65.1683C223.379 65.2513 221.86 65.3344 220.336 65.4125C218.095 65.5346 215.692 65.6811 213.72 64.4407C211.034 66.3159 208.475 68.3962 205.955 70.4619C205.12 71.1407 204.29 71.8243 203.469 72.5275C210.443 74.7494 217.934 74.7201 224.839 72.2101C225.166 72.088 225.332 72.6057 225.005 72.7277C217.9 75.311 210.155 75.3061 202.996 72.9377C201.335 74.3881 199.763 75.9263 198.43 77.6941C198.215 77.9725 197.814 77.6062 198.024 77.3279C198.513 76.6735 199.04 76.0582 199.587 75.4575L199.592 75.4087C199.846 71.8683 200.544 68.3913 201.702 65.0365C202.864 61.6914 204.358 57.8628 207.205 55.597C207.479 55.387 207.772 55.8411 207.503 56.056C205.979 57.2671 204.983 58.9274 204.134 60.6415C203.372 62.1748 202.712 63.757 202.156 65.3734C201.116 68.4353 200.456 71.6143 200.183 74.8373C200.964 74.0316 201.794 73.2649 202.639 72.5324C202.659 72.4201 202.737 72.3371 202.859 72.3371C203.308 71.9464 203.767 71.5655 204.226 71.1797C205.174 70.3984 206.126 69.6122 207.078 68.8357C207.518 66.1206 208.279 63.5568 209.466 61.0663C210.775 58.3072 212.167 55.5726 213.51 52.8232C213.661 52.5107 214.149 52.75 214.003 53.0674C212.694 55.7239 211.361 58.3658 210.081 61.0321C208.958 63.3761 208.182 65.769 207.723 68.3132C208.856 67.4049 209.994 66.5064 211.156 65.6274C211.883 65.0853 212.621 64.553 213.368 64.0305C213.402 63.9084 213.534 63.8059 213.676 63.8156C215.116 62.8341 216.581 61.9014 218.11 61.0761L218.124 61.0517C219.052 59.5329 219.14 57.7359 219.667 56.0804C220.244 54.2882 221.421 53.0186 222.783 51.7831C223.042 51.5536 223.452 51.9198 223.188 52.1493C222.505 52.7695 221.811 53.3995 221.255 54.1369C220.693 54.8938 220.317 55.7435 220.073 56.642C219.702 57.9703 219.531 59.3669 218.959 60.6268C221.367 59.4109 223.926 58.527 226.314 57.272C229.258 55.7288 231.9 53.6778 234.508 51.6464C234.786 51.4266 235.079 51.8808 234.801 52.1005Z" fill="#E0FBF0"/>
<path d="M197.043 206.653C197.043 210.057 191.94 210.047 191.94 206.653C191.94 203.249 197.043 203.254 197.043 206.653ZM188.712 212.254H199.666C200.144 212.254 200.535 211.864 200.535 211.38V11.9445C200.535 11.4659 200.144 11.0704 199.666 11.0704H188.712C188.229 11.0704 187.838 11.4659 187.838 11.9445V211.38C187.838 211.864 188.229 212.254 188.712 212.254Z" fill="#2F627C"/>
<path d="M193.586 195.905V196.721H187.838V195.905H193.586Z" fill="#98D4FC"/>
<path d="M190.715 192.076V192.887H187.838V192.076H190.715Z" fill="#98D4FC"/>
<path d="M193.586 187.94V188.751H187.838V187.94H193.586Z" fill="#98D4FC"/>
<path d="M190.715 184.107V184.918H187.838V184.107H190.715Z" fill="#98D4FC"/>
<path d="M193.586 179.57V180.386H187.838V179.57H193.586Z" fill="#98D4FC"/>
<path d="M190.715 175.737V176.552H187.838V175.737H190.715Z" fill="#98D4FC"/>
<path d="M193.586 171.367V172.182H187.838V171.367H193.586Z" fill="#98D4FC"/>
<path d="M190.715 167.533V168.348H187.838V167.533H190.715Z" fill="#98D4FC"/>
<path d="M193.586 163.401V164.217H187.838V163.401H193.586Z" fill="#98D4FC"/>
<path d="M190.715 159.568V160.379H187.838V159.568H190.715Z" fill="#98D4FC"/>
<path d="M193.586 155.032V155.852H187.838V155.032H193.586Z" fill="#98D4FC"/>
<path d="M190.715 151.203V152.014H187.838V151.203H190.715Z" fill="#98D4FC"/>
<path d="M193.586 147.169V147.985H187.838V147.169H193.586Z" fill="#98D4FC"/>
<path d="M190.715 143.336V144.151H187.838V143.336H190.715Z" fill="#98D4FC"/>
<path d="M193.586 139.2V140.015H187.838V139.2H193.586Z" fill="#98D4FC"/>
<path d="M190.715 135.371V136.182H187.838V135.371H190.715Z" fill="#98D4FC"/>
<path d="M193.586 130.834V131.65H187.838V130.834H193.586Z" fill="#98D4FC"/>
<path d="M190.715 127.001V127.817H187.838V127.001H190.715Z" fill="#98D4FC"/>
<path d="M193.586 122.63V123.446H187.838V122.63H193.586Z" fill="#98D4FC"/>
<path d="M190.715 118.797V119.613H187.838V118.797H190.715Z" fill="#98D4FC"/>
<path d="M193.586 114.666V115.476H187.838V114.666H193.586Z" fill="#98D4FC"/>
<path d="M190.715 110.832V111.643H187.838V110.832H190.715Z" fill="#98D4FC"/>
<path d="M193.586 106.711V107.521H187.838V106.711H193.586Z" fill="#98D4FC"/>
<path d="M190.715 102.878V103.693H187.838V102.878H190.715Z" fill="#98D4FC"/>
<path d="M193.586 98.7411V99.5566H187.838V98.7411H193.586Z" fill="#98D4FC"/>
<path d="M190.715 94.9079V95.7234H187.838V94.9079H190.715Z" fill="#98D4FC"/>
<path d="M193.586 90.376V91.1866H187.838V90.376H193.586Z" fill="#98D4FC"/>
<path d="M190.715 86.5428V87.3535H187.838V86.5428H190.715Z" fill="#98D4FC"/>
<path d="M193.586 82.1721V82.9827H187.838V82.1721H193.586Z" fill="#98D4FC"/>
<path d="M190.715 78.3337V79.1492H187.838V78.3337H190.715Z" fill="#98D4FC"/>
<path d="M193.586 74.2024V75.0179H187.838V74.2024H193.586Z" fill="#98D4FC"/>
<path d="M190.715 70.3693V71.1848H187.838V70.3693H190.715Z" fill="#98D4FC"/>
<path d="M193.586 65.8373V66.648H187.838V65.8373H193.586Z" fill="#98D4FC"/>
<path d="M190.715 62.0039V62.8194H187.838V62.0039H190.715Z" fill="#98D4FC"/>
<path d="M193.586 57.9702V58.7857H187.838V57.9702H193.586Z" fill="#98D4FC"/>
<path d="M190.715 54.137V54.9525H187.838V54.137H190.715Z" fill="#98D4FC"/>
<path d="M193.586 50.0057V50.8164H187.838V50.0057H193.586Z" fill="#98D4FC"/>
<path d="M190.715 46.172V46.9875H187.838V46.172H190.715Z" fill="#98D4FC"/>
<path d="M193.586 41.6404V42.451H187.838V41.6404H193.586Z" fill="#98D4FC"/>
<path d="M190.715 37.8066V38.6222H187.838V37.8066H190.715Z" fill="#98D4FC"/>
<path d="M193.586 33.4315V34.247H187.838V33.4315H193.586Z" fill="#98D4FC"/>
<path d="M190.715 29.6027V30.4133H187.838V29.6027H190.715Z" fill="#98D4FC"/>
<path d="M193.586 25.4667V26.2823H187.838V25.4667H193.586Z" fill="#98D4FC"/>
<path d="M190.715 21.6331V22.4437H187.838V21.6331H190.715Z" fill="#98D4FC"/>
<path d="M210.213 168.724L220.683 171.132C221.923 175.698 219.277 178.633 219.291 186.837C219.301 191.701 219.135 196.55 218.94 201.331H210.804C210.521 199.372 210.457 196.975 209.759 192.36C209.168 188.404 208.524 184.297 208.265 181.568C207.801 176.748 207.586 170.336 207.176 167.626L210.213 168.724Z" fill="#2A817D"/>
<path d="M205.628 161.917C203.841 162.093 201.536 161.087 199.876 160.857C199.031 160.745 199.471 161.521 200.745 162.386C201.629 162.981 194.856 162.591 196.97 164.329C198.396 168.876 201.815 164.901 206.346 165.301C206.161 164.476 205.809 162.747 205.628 161.917Z" fill="#FFA18A"/>
<path d="M219.36 131.357C219.897 131.094 220.41 130.913 220.79 130.112C221.679 128.227 222.754 127.915 224.741 128.632C226.426 129.243 225.938 134.453 225.938 134.468C225.918 134.991 226.187 135.337 226.436 135.552L227.163 135.816C227.163 135.816 226.856 136.255 226.646 136.846C226.314 137.759 226.499 138.829 226.475 140.001C226.475 140.123 224.595 140.391 224.473 140.396C223.73 140.44 221.323 140.641 220.83 139.532L221.831 136.871C221.63 136.812 221.43 136.744 221.225 136.661C219.907 136.099 219.609 134.961 219.594 133.784C219.584 133.257 219.677 132.695 219.828 132.114C219.848 132.046 219.809 131.977 219.741 131.958L219.448 131.86C219.189 131.821 219.15 131.46 219.36 131.357Z" fill="#FFA18A"/>
<path d="M224.878 124.862C224.204 124.667 224.15 123.763 222.412 124.335C221.313 124.701 220.253 126.547 221.235 128.388C221.675 129.208 223.574 129.042 223.755 131.772C223.838 132.959 224.815 131.44 225.615 131.767C226.162 131.987 225.83 133.613 224.961 133.867C224.961 133.867 224.058 137.29 226.226 137.29C226.988 137.29 228.638 135.982 229.703 133.975C232.262 129.169 230.04 126.352 224.878 124.862Z" fill="#A55852"/>
<path d="M228.702 145.084C228.575 143.063 227.862 141.08 226.651 139.454C226.661 138.912 226.602 138.438 226.456 137.906C225.264 137.998 221.543 138.14 221.362 138.218C221.04 138.355 220.737 138.638 220.473 138.907C217.265 140.704 213.983 144.171 212.68 147.614C212.25 148.752 210.531 153.318 209.745 157.957C209.706 158.186 209.686 158.758 209.686 158.758C208.109 159.822 205.994 161.243 204.48 161.917C205.35 162.908 205.428 164.588 205.296 165.672C205.97 165.726 206.253 165.648 206.702 165.565C206.463 166.361 206.102 167.938 206.102 167.938C207.347 168.334 215.336 172.201 216.533 172.538C217.753 172.885 221.406 174.575 221.406 174.575C222.324 171.972 222.593 168.764 223.037 166.039C223.662 162.151 226.021 154.236 227.164 152.116C228.218 150.148 228.843 147.345 228.702 145.084Z" fill="#FFD471"/>
<path d="M213.573 201.282C213.554 201.282 213.534 201.272 213.534 201.247C213.158 199.006 212.792 196.769 212.426 194.533C212.098 192.589 211.766 190.65 211.464 188.697C211.322 187.764 211.195 186.822 211.146 185.879C211.093 184.898 211.127 183.921 211.132 182.945C211.156 180.996 210.99 179.057 210.839 177.119C210.682 175.131 210.526 173.149 210.375 171.156C210.37 171.127 210.394 171.112 210.419 171.112C210.443 171.112 210.467 171.127 210.472 171.156C210.643 173.359 210.814 175.556 210.985 177.754C211.136 179.697 211.249 181.626 211.224 183.575C211.21 184.532 211.205 185.489 211.283 186.441C211.366 187.452 211.517 188.448 211.679 189.444C212.323 193.371 212.977 197.297 213.627 201.223C213.632 201.257 213.598 201.282 213.573 201.282Z" fill="#185B58"/>
<path d="M204.339 211.404C204.456 210.745 204.92 210.306 205.438 209.954C206.434 209.285 209.535 208.401 209.867 208.103C210.502 207.532 210.619 206.609 210.595 205.789C210.531 204.06 210.307 202.326 210.165 200.598C210.165 200.598 212.338 201.286 216.079 200.686C216.079 200.686 215.84 203.625 215.708 205.173C215.649 205.93 215.581 206.687 215.639 207.439C215.693 208.103 215.835 208.763 215.966 209.407C216.103 210.057 216.23 210.716 216.25 211.38C216.255 211.502 216.25 211.741 216.25 211.741C215.84 212.166 214.863 212.127 214.404 212.103C213.242 212.054 212.118 211.878 210.951 211.956C209.442 212.054 207.943 212.303 206.439 212.357C205.917 212.371 205.423 212.371 204.955 212.293C204.354 212.142 204.305 211.58 204.339 211.404Z" fill="#091317"/>
<path d="M207.186 211.551C207.313 210.877 207.787 210.423 208.319 210.062C209.345 209.373 212.543 208.46 212.88 208.152C213.539 207.571 213.661 206.614 213.632 205.769C213.569 203.992 213.339 202.2 213.188 200.422C213.188 200.422 215.444 200.974 219.297 200.354C219.297 200.354 219.033 203.538 218.901 205.135C218.838 205.911 218.774 206.692 218.833 207.469C218.882 208.157 219.028 208.831 219.17 209.505C219.307 210.169 219.443 210.843 219.458 211.527C219.463 211.649 219.463 211.903 219.463 211.903C219.038 212.337 218.027 212.303 217.558 212.279C216.357 212.225 215.205 212.04 213.998 212.123C212.445 212.22 210.907 212.474 209.349 212.538C208.817 212.552 208.304 212.547 207.821 212.474C207.206 212.313 207.152 211.737 207.186 211.551Z" fill="#12252E"/>
<path d="M206.907 165.428C209.177 164.969 211.497 164.539 213.66 163.69C215.457 162.996 217.201 161.868 218.089 160.096C218.558 159.148 218.651 158.093 218.983 157.107C219.364 155.969 220.004 154.934 220.551 153.864C221.596 151.818 222.524 149.689 223.251 147.511C223.925 145.47 224.262 142.872 222.48 141.27L222.411 141.339C224.106 142.867 223.847 145.328 223.217 147.291C222.543 149.406 221.645 151.467 220.653 153.449C220.155 154.45 219.569 155.417 219.13 156.448C218.734 157.385 218.612 158.386 218.29 159.344C217.65 161.277 215.96 162.591 214.153 163.382C211.858 164.393 209.324 164.842 206.887 165.331C206.824 165.345 206.848 165.438 206.907 165.428Z" fill="#FFBC33"/>
<path d="M209.837 158.567C210.545 157.893 211.244 157.195 211.615 156.272C212.001 155.29 212.177 154.226 212.509 153.225C213.168 151.188 214.062 149.23 215.155 147.384C215.79 146.32 216.498 145.289 217.265 144.313L217.201 144.239C214.623 147.531 212.855 151.281 211.805 155.31C211.639 155.954 211.434 156.57 211.048 157.107C210.682 157.625 210.223 158.064 209.769 158.499L209.837 158.567Z" fill="#FFBC33"/>
<path d="M312.739 138.697L295.076 145.69C294.773 145.807 294.431 145.66 294.309 145.358L287.111 127.133L305.873 119.715L313.071 137.935C313.193 138.238 313.042 138.579 312.739 138.697Z" fill="#4693B9"/>
<path d="M305.873 119.715L287.111 127.133L285.153 122.176C285.036 121.878 285.182 121.536 285.485 121.414L303.153 114.426C303.451 114.309 303.793 114.456 303.915 114.758L305.873 119.715Z" fill="#2F627C"/>
<path d="M304.086 119.041L287.854 125.458L287.712 125.399L286.56 122.484L286.623 122.342L302.855 115.921L302.997 115.984L304.149 118.895L304.086 119.041Z" fill="#98D4FC"/>
<path d="M292.366 123.676L295.364 122.489V122.494L292.366 123.676Z" fill="#517F96"/>
<path d="M292.366 123.676L294.251 119.325L294.324 119.295L297.254 118.138L295.364 122.489L292.366 123.676Z" fill="#A5DAFD"/>
<path d="M297.01 121.84L298.895 117.488L300.14 116.995L298.256 121.346L297.64 121.59L297.01 121.84Z" fill="#A5DAFD"/>
<path d="M307.426 138.043C307.484 138.184 307.411 138.345 307.274 138.399L305.521 139.097C305.379 139.151 305.218 139.083 305.165 138.936L304.471 137.188C304.413 137.046 304.481 136.885 304.627 136.832L306.381 136.138C306.517 136.08 306.678 136.148 306.732 136.29L307.426 138.043Z" fill="#254D62"/>
<path d="M310.825 136.704C310.878 136.841 310.81 137.002 310.668 137.056L308.915 137.754C308.774 137.808 308.612 137.735 308.559 137.598L306.991 133.623C306.933 133.481 307.001 133.32 307.143 133.267L308.896 132.573C309.037 132.519 309.198 132.588 309.252 132.729L310.825 136.704Z" fill="#254D62"/>
<path d="M304.033 139.39C304.086 139.527 304.018 139.688 303.876 139.742L302.123 140.435C301.982 140.494 301.825 140.425 301.767 140.284L301.073 138.526C301.02 138.389 301.088 138.228 301.23 138.174L302.983 137.476C303.124 137.422 303.286 137.495 303.339 137.632L304.033 139.39Z" fill="#254D62"/>
<path d="M300.634 140.718C300.688 140.86 300.619 141.016 300.478 141.075L298.724 141.768C298.583 141.827 298.427 141.753 298.368 141.612L297.675 139.859C297.621 139.717 297.689 139.556 297.831 139.502L299.584 138.809C299.726 138.755 299.882 138.823 299.94 138.965L300.634 140.718Z" fill="#254D62"/>
<path d="M306.108 134.702C306.161 134.844 306.093 135 305.951 135.054L304.198 135.747C304.057 135.806 303.895 135.737 303.842 135.596L303.148 133.838C303.09 133.701 303.163 133.54 303.304 133.486L305.058 132.788C305.194 132.734 305.355 132.807 305.414 132.944L306.108 134.702Z" fill="#2F627C"/>
<path d="M302.708 136.045C302.767 136.182 302.694 136.343 302.557 136.402L300.799 137.09C300.662 137.149 300.501 137.075 300.447 136.939L299.754 135.181C299.695 135.044 299.768 134.883 299.905 134.829L301.658 134.136C301.8 134.077 301.961 134.145 302.015 134.287L302.708 136.045Z" fill="#2F627C"/>
<path d="M299.31 137.373C299.363 137.515 299.295 137.671 299.158 137.73L297.4 138.423C297.263 138.482 297.102 138.408 297.049 138.267L296.35 136.514C296.297 136.372 296.37 136.211 296.506 136.157L298.26 135.464C298.401 135.41 298.562 135.478 298.616 135.62L299.31 137.373Z" fill="#2F627C"/>
<path d="M304.779 131.343C304.833 131.484 304.764 131.64 304.628 131.699L302.87 132.392C302.728 132.451 302.572 132.378 302.513 132.241L301.825 130.483C301.766 130.341 301.834 130.185 301.976 130.127L303.729 129.428C303.871 129.375 304.027 129.448 304.086 129.589L304.779 131.343Z" fill="#2F627C"/>
<path d="M301.385 132.685C301.439 132.827 301.37 132.983 301.229 133.041L299.475 133.735C299.334 133.794 299.178 133.72 299.119 133.579L298.426 131.826C298.372 131.684 298.44 131.523 298.582 131.469L300.335 130.776C300.477 130.722 300.633 130.79 300.691 130.932L301.385 132.685Z" fill="#2F627C"/>
<path d="M297.982 134.018C298.04 134.16 297.972 134.321 297.83 134.37L296.072 135.068C295.935 135.122 295.774 135.049 295.721 134.912L295.027 133.159C294.973 133.017 295.042 132.856 295.179 132.802L296.937 132.109C297.078 132.055 297.234 132.124 297.288 132.26L297.982 134.018Z" fill="#2F627C"/>
<path d="M303.362 127.758C303.416 127.895 303.348 128.056 303.206 128.11L301.453 128.803C301.316 128.862 301.155 128.788 301.101 128.652L300.403 126.894C300.349 126.752 300.418 126.596 300.559 126.537L302.312 125.844C302.454 125.79 302.615 125.858 302.669 126L303.362 127.758Z" fill="#2F627C"/>
<path d="M299.964 129.096C300.023 129.237 299.954 129.399 299.813 129.452L298.06 130.146C297.918 130.199 297.757 130.136 297.703 129.994L297.01 128.236C296.956 128.095 297.019 127.938 297.166 127.88L298.919 127.191C299.056 127.133 299.217 127.201 299.271 127.343L299.964 129.096Z" fill="#2F627C"/>
<path d="M296.566 130.429C296.62 130.571 296.552 130.727 296.415 130.781L294.662 131.479C294.52 131.533 294.359 131.464 294.305 131.323L293.612 129.57C293.553 129.428 293.622 129.272 293.763 129.213L295.516 128.52C295.658 128.466 295.819 128.534 295.878 128.676L296.566 130.429Z" fill="#2F627C"/>
<path d="M308.173 129.999C308.232 130.136 308.164 130.302 308.022 130.356L306.264 131.049C306.127 131.103 305.966 131.034 305.912 130.898L305.219 129.14C305.165 128.998 305.234 128.842 305.37 128.783L307.128 128.09C307.265 128.036 307.426 128.1 307.48 128.246L308.173 129.999Z" fill="#254D62"/>
<path d="M306.757 126.411C306.811 126.547 306.742 126.713 306.601 126.767L304.847 127.46C304.706 127.519 304.55 127.446 304.496 127.304L303.798 125.551C303.744 125.414 303.812 125.253 303.954 125.199L305.707 124.506C305.849 124.447 306.01 124.516 306.063 124.657L306.757 126.411Z" fill="#98D4FC"/>
<path d="M297.19 142.081C297.244 142.223 297.176 142.379 297.034 142.437L295.281 143.131C295.139 143.185 294.983 143.116 294.929 142.979L294.231 141.221C294.177 141.08 294.246 140.919 294.387 140.865L296.141 140.172C296.282 140.118 296.438 140.186 296.497 140.328L297.19 142.081Z" fill="#2F627C"/>
<path d="M295.866 138.736C295.925 138.877 295.852 139.038 295.71 139.092L293.957 139.785C293.82 139.844 293.659 139.771 293.605 139.629L292.907 137.876C292.853 137.734 292.926 137.578 293.063 137.52L294.816 136.826C294.958 136.772 295.119 136.841 295.173 136.978L295.866 138.736Z" fill="#254D62"/>
<path d="M294.544 135.381C294.598 135.518 294.529 135.679 294.388 135.738L292.635 136.431C292.493 136.485 292.332 136.416 292.278 136.275L291.585 134.517C291.526 134.38 291.599 134.219 291.736 134.165L293.494 133.472C293.636 133.413 293.792 133.482 293.846 133.623L294.544 135.381Z" fill="#254D62"/>
<path d="M293.123 131.792C293.177 131.933 293.109 132.095 292.972 132.148L291.214 132.842C291.077 132.9 290.916 132.827 290.857 132.685L290.169 130.932C290.11 130.791 290.179 130.63 290.32 130.576L292.078 129.882C292.215 129.824 292.376 129.897 292.43 130.034L293.123 131.792Z" fill="#254D62"/>
<path d="M305.35 122.845C305.404 122.982 305.331 123.143 305.189 123.197L289.811 129.281C289.67 129.335 289.509 129.272 289.455 129.13L289.01 128.012C288.957 127.87 289.025 127.714 289.167 127.655L304.549 121.571C304.691 121.512 304.852 121.585 304.906 121.727L305.35 122.845Z" fill="#C1E5FD"/>
<path d="M315.127 139.092C314.424 137.93 313.697 136.763 312.686 135.845C312.373 135.562 310.957 133.916 310.645 134.253C310.171 134.761 311.25 135.708 311.524 136.089C311.797 136.465 312.012 136.939 312.095 137.417C311.968 137.271 311.831 137.139 311.665 137.022C311.465 136.875 311.099 136.621 310.845 136.826C310.581 137.027 310.752 137.456 310.84 137.691C310.942 137.964 311.05 138.218 311.099 138.501C311.133 138.716 311.152 138.936 311.226 139.146C311.401 139.605 311.777 140.025 312.09 140.386C312.451 140.792 312.881 141.031 313.301 141.353C313.809 141.744 314.029 142.33 314.273 142.906C314.454 143.326 314.634 143.756 314.815 144.176L316.539 141.505C316.08 140.694 315.611 139.888 315.127 139.092Z" fill="#BF7968"/>
<path d="M291.154 137.788C291.189 137.608 291.33 137.129 291.623 137.295C291.916 137.466 291.838 138.233 291.872 138.521C291.955 139.244 292.38 139.751 292.893 140.225C292.839 140.04 292.8 139.849 292.79 139.649C292.776 139.405 292.761 138.955 293.064 138.848C293.376 138.736 293.645 139.107 293.796 139.312C293.967 139.541 294.128 139.766 294.343 139.957C294.509 140.108 294.685 140.24 294.817 140.416C295.115 140.811 295.271 141.353 295.403 141.812C295.554 142.33 295.525 142.818 295.574 143.35C295.627 143.985 296.008 144.488 296.365 145.001C296.619 145.382 296.882 145.763 297.146 146.144L293.967 146.168C293.528 145.343 293.098 144.518 292.683 143.683C292.077 142.462 291.433 141.241 291.252 139.883C291.164 139.224 291.047 138.443 291.154 137.788Z" fill="#BF7968"/>
<path d="M313.575 131.167C313.677 131.03 314.214 130.576 314.366 130.253C314.766 129.37 314.61 128.544 315.157 127.826L321.515 128.408L321.588 128.491C322.14 129.228 322.433 130.146 322.619 131.03C322.843 132.085 322.887 133.203 322.706 134.268C322.662 134.565 322.423 135.65 322.003 135.938C321.984 136.284 321.974 136.631 321.959 136.978C321.94 137.368 321.979 137.818 321.906 138.199L315.469 137.613C315.489 137.163 315.533 136.714 315.591 136.265C315.113 135.879 314.668 135.435 314.473 134.849C314.341 134.473 314.356 134.097 314.361 133.706C314.371 133.047 314.288 132.549 313.775 132.094C313.584 131.928 313.413 131.792 313.443 131.513C313.457 131.386 313.496 131.269 313.575 131.167Z" fill="#BF7968"/>
<path d="M322.58 208.333L326.833 208.294C326.945 209.071 327.414 209.749 327.478 210.526C327.531 211.214 327.155 211.888 326.516 212.172C326.135 212.342 325.71 212.372 325.3 212.425C324.816 212.489 324.308 212.582 323.815 212.582C323.097 212.587 322.516 212.206 322.467 211.454C322.433 210.946 322.609 210.443 322.653 209.945C322.702 209.408 322.672 208.865 322.58 208.333Z" fill="#12252E"/>
<path d="M322.164 208.333C322.218 205.867 322.232 203.386 321.964 200.935C321.646 198.102 320.699 195.417 320.548 192.565C320.469 191.046 317.408 178.398 316.568 175.654C315.664 178.916 314.81 182.193 313.691 185.372C313.091 187.081 312.964 188.756 312.842 190.572C312.729 192.208 312.563 193.839 312.353 195.465C311.894 198.913 309.526 208.318 309.497 208.431L304.823 208.46C304.921 205.261 306.039 195.641 305.888 193.922C305.736 192.223 305.365 175.419 306.991 168.837L325.187 168.705C325.607 171.664 326.071 174.633 326.276 177.612C326.525 181.196 326.129 184.776 326.154 188.36C326.178 191.935 327.023 195.378 327.267 198.933C327.482 202.048 327.37 205.178 327.213 208.294L322.164 208.333Z" fill="#2F627C"/>
<path d="M327.614 141.544C326.271 140.201 324.4 139.898 322.882 138.887C322.794 138.658 322.437 137.823 322.325 137.71C322.066 137.466 315.42 137.461 315.298 137.593C314.917 137.998 314.57 138.492 314.351 139.038C313.867 139.288 313.359 139.468 312.807 139.556C312.148 139.654 311.504 139.854 310.864 140.084C310 140.401 309.116 140.787 308.276 141.241V150.661L308.285 150.656C308.749 157.268 306.21 163.699 305.507 170.224C307.04 170.267 323.409 171.498 326.158 172.206C326.788 169.301 326.906 166.322 326.915 163.358C326.92 160.716 326.842 158.084 326.979 155.442C327.042 154.167 327.16 152.897 327.365 151.628C327.589 150.236 327.96 148.908 328.336 147.555C328.918 145.47 329.181 143.111 327.614 141.544Z" fill="#2A817D"/>
<path d="M308.76 149.357L309.6 140.675C309.273 140.782 308.95 140.904 308.633 141.046C307.349 141.607 306.177 142.462 305.029 143.321C303.842 144.215 302.666 145.109 301.381 145.792C300.395 146.325 299.369 146.745 298.324 147.057C297.953 146.212 296.166 144.132 296.166 144.132C294.979 145.685 293.275 145.787 293.275 145.787C293.314 146.764 293.343 147.751 293.387 148.727C293.46 150.251 293.778 151.667 295.868 152.556C296.024 152.624 296.195 152.673 296.366 152.697C297.689 152.907 299.076 152.483 300.366 152.028C301.699 151.56 302.998 150.969 304.336 150.524C305.01 150.295 305.698 150.104 306.387 149.982C306.782 149.909 308.36 149.421 308.76 149.357Z" fill="#2A817D"/>
<path d="M309.312 208.431L305.058 208.46C304.96 209.232 304.501 209.915 304.448 210.697C304.404 211.39 304.79 212.054 305.434 212.328C305.815 212.489 306.245 212.518 306.65 212.567C307.143 212.621 307.646 212.704 308.14 212.699C308.857 212.694 309.434 212.303 309.473 211.546C309.502 211.039 309.316 210.545 309.263 210.047C309.204 209.505 309.229 208.963 309.312 208.431Z" fill="#12252E"/>
<path d="M324.151 128.666C324.215 127.245 323.531 125.897 322.334 125.121C321.744 124.73 321.04 124.511 320.337 124.457C319.463 124.379 318.599 124.628 317.72 124.579C316.318 124.506 314.736 124.203 313.94 125.668C313.608 126.283 313.408 127.104 313.408 127.802C313.408 128.188 313.618 128.534 313.886 128.837C314.262 129.599 315.019 130.336 315.307 131.069C315.552 131.709 315.923 132.334 316.059 133.008C316.181 133.589 316.089 134.199 316.196 134.785C316.396 135.855 317.451 136.284 318.301 136.792C318.775 137.08 319.072 137.056 319.585 136.88C320.152 136.68 320.767 136.685 321.324 136.465C323.145 135.728 323.687 133.398 323.716 131.547C323.731 131.464 323.751 131.391 323.76 131.308C323.912 130.444 324.107 129.555 324.151 128.666Z" fill="#12252E"/>
<path d="M296.81 71.5017C296.81 70.569 297.571 69.8023 298.509 69.8023H300.457C301.39 69.8023 302.152 70.569 302.152 71.5017V97.2711C302.152 98.2087 301.39 98.9754 300.457 98.9754H298.509C297.571 98.9754 296.81 98.2087 296.81 97.2711V71.5017Z" fill="#4693B9"/>
<path d="M288.566 78.7149C288.566 77.7822 289.328 77.0204 290.261 77.0204H292.214C293.147 77.0204 293.909 77.7822 293.909 78.7149V97.2716C293.909 98.2092 293.147 98.9759 292.214 98.9759H290.261C289.328 98.9759 288.566 98.2092 288.566 97.2716V78.7149Z" fill="#2A817D"/>
<path d="M280.324 76.5851C280.324 75.6475 281.086 74.8857 282.018 74.8857H283.967C284.899 74.8857 285.666 75.6475 285.666 76.5851V97.271C285.666 98.2086 284.899 98.9753 283.967 98.9753H282.018C281.086 98.9753 280.324 98.2086 280.324 97.271V76.5851Z" fill="#FFD471"/>
<path d="M272.076 87.5975C272.076 86.6599 272.837 85.8981 273.77 85.8981H275.724C276.656 85.8981 277.423 86.6599 277.423 87.5975V97.2714C277.423 98.209 276.656 98.9757 275.724 98.9757H273.77C272.837 98.9757 272.076 98.209 272.076 97.2714V87.5975Z" fill="#98D4FC"/>
<path d="M263.793 82.6654C262.958 81.176 261.777 79.9112 260.37 78.9834L258.983 81.8841C259.755 82.4701 260.414 83.1977 260.917 84.0377L263.793 82.6654Z" fill="#FFD471"/>
<path d="M250.818 94.7905C248.733 93.7112 247.19 91.6749 246.794 89.2186L243.625 89.4725C244.118 93.1008 246.379 96.0992 249.456 97.6619L250.818 94.7905Z" fill="#98D4FC"/>
<path d="M253.759 80.3507C255.253 80.2335 256.689 80.5558 257.919 81.2004L259.286 78.3388C257.563 77.4549 255.58 77.0252 253.509 77.1863C247.752 77.6454 243.406 82.5141 243.528 88.2178L246.697 87.9688C246.707 84.0132 249.749 80.6682 253.759 80.3507Z" fill="#A2DDD0"/>
<path d="M265.161 87.1382C265.068 85.9564 264.785 84.8381 264.351 83.7931L261.484 85.1604C261.762 85.8587 261.933 86.6059 261.997 87.397C262.329 91.6162 259.179 95.3031 254.96 95.6352C253.92 95.7182 252.914 95.5912 251.976 95.2885L250.604 98.1648C252.03 98.6971 253.597 98.9315 255.214 98.7996C261.176 98.3308 265.63 93.1105 265.161 87.1382Z" fill="#4693B9"/>
<path d="M269.008 61.2517H269.081V67.8735H275.693V67.937C275.693 71.6337 272.7 74.6272 269.008 74.6272C265.321 74.6272 262.328 71.6337 262.328 67.937C262.328 64.2452 265.321 61.2517 269.008 61.2517Z" fill="#98D4FC"/>
<path d="M270.586 60.3091C274.224 60.3481 277.164 63.2879 277.198 66.9358H270.586V60.3091Z" fill="#2F627C"/>
<path d="M276.661 132.343C276.661 132.343 276.963 132.094 277.085 131.992C277.359 131.767 277.632 131.538 277.925 131.342C278.228 131.137 278.555 130.976 278.912 130.908C279.244 130.844 279.571 130.849 279.888 130.712C280.343 130.527 280.694 130.18 280.914 129.755C280.973 129.887 281.08 129.985 281.246 129.936C281.373 129.892 281.432 129.799 281.461 129.682C281.539 129.775 281.666 129.794 281.817 129.658C282.12 129.399 282.184 128.876 282.115 128.51C281.944 127.568 280.968 127.128 280.098 127.358C280.284 126.986 280.557 126.679 280.792 126.342C280.919 126.156 281.202 125.761 281.09 125.512C280.831 124.935 279.83 126.259 279.698 126.474C279.444 126.879 279.215 127.24 278.926 127.616C278.58 128.071 278.37 128.442 277.93 128.788C277.037 129.492 276.055 130.131 275.064 130.693C275.049 130.703 275.86 132.124 276.661 132.343Z" fill="#FFA18A"/>
<path d="M266.46 192.32C266.543 193.956 266.88 195.504 266.807 197.17C266.665 200.358 265.737 203.425 264.824 206.423H262.109C262.148 204.7 262.211 202.966 262.202 201.242C262.197 199.572 261.943 197.907 262.035 196.242C262.079 195.426 262.167 194.62 262.128 193.805C262.099 192.955 261.962 192.106 261.845 191.266C261.659 189.952 261.518 188.633 261.757 187.325H267.143L267.119 187.369C266.748 188.985 266.372 190.631 266.46 192.32Z" fill="#FFA18A"/>
<path d="M254.163 192.32C254.08 193.956 253.743 195.504 253.816 197.17C253.953 200.358 254.881 203.425 255.799 206.423H258.509C258.475 204.7 258.411 202.966 258.416 201.242C258.431 199.572 258.68 197.907 258.587 196.242C258.538 195.426 258.455 194.62 258.489 193.805C258.523 192.955 258.66 192.106 258.777 191.266C258.968 189.952 259.105 188.633 258.86 187.325H253.479L253.503 187.369C253.879 188.985 254.251 190.631 254.163 192.32Z" fill="#FFA18A"/>
<path d="M256.723 133.95C256.493 133.696 256.273 133.471 256.088 133.178C255.624 132.456 255.15 131.738 254.481 131.176L248.651 133.169L248.592 133.266C248.245 134.082 248.177 135.01 248.201 135.879C248.235 136.924 248.45 137.984 248.856 138.936C248.968 139.204 249.442 140.166 249.901 140.342C249.993 140.669 250.086 140.987 250.179 141.309C250.282 141.675 250.35 142.1 250.501 142.447L256.41 140.43C256.288 140.015 256.146 139.6 255.99 139.195C256.347 138.721 256.659 138.203 256.718 137.608C256.752 137.232 256.654 136.88 256.562 136.519C256.4 135.898 256.366 135.41 256.747 134.868C256.884 134.668 257.011 134.507 256.923 134.248C256.884 134.136 256.806 134.043 256.723 133.95Z" fill="#FFA18A"/>
<path d="M236.153 158.069C236.514 156.706 237.481 155.525 238.267 154.387C239.058 153.244 239.864 152.116 240.733 151.037C242.511 148.82 244.528 146.974 246.955 145.489C247.697 145.03 248.454 144.547 248.976 143.824C249.386 143.258 249.65 142.618 250.178 142.135C250.9 141.485 251.823 141.143 252.766 140.904C253.84 140.391 256.233 139.971 256.287 139.966C258.206 139.849 258.772 139.932 260.574 139.214C262.396 138.482 265.194 136.856 266.669 135.601C269.555 133.139 272.949 131.46 276.333 129.814C276.621 130.688 277.978 132.011 277.978 132.011C275.034 134.326 272.993 137.569 269.989 139.82C268.353 141.041 266.844 142.135 265.711 143.878C265.306 144.493 264.964 145.148 264.647 145.812C264.051 148.185 263.817 150.641 263.983 153.098C264.178 156.164 265.033 159.036 266.268 161.839C267.46 164.525 268.363 167.186 268.856 170.097C269.359 173.075 269.677 176.098 269.911 179.121C270.111 181.68 270.224 184.248 270.258 186.817C263.802 188.521 257.136 188.746 250.514 188.165C250.28 183.545 250.441 178.916 251.027 174.33C251.354 171.767 251.921 169.252 252.292 166.688C252.697 163.948 252.512 161.16 251.76 158.494C251.017 155.857 249.948 153.327 248.6 150.944C247.36 152.531 246.08 154.094 244.723 155.598C244.015 156.384 243.258 157.146 242.428 157.805C245.455 158.963 248.595 159.793 251.804 160.276C251.804 160.276 251.061 161.077 250.705 163.577C250.705 163.577 247.208 162.952 245.446 162.752C243.868 162.571 242.281 162.518 240.709 162.298C238.501 161.995 235.391 160.906 236.153 158.069Z" fill="#A2DDD0"/>
<path d="M246.848 136.499C246.975 137.378 247.155 138.301 247.492 139.136C247.932 140.24 248.84 140.821 249.905 141.109C249.841 141.299 249.788 141.49 249.739 141.69C249.617 142.222 249.514 142.774 249.519 143.321C249.529 144.093 249.856 144.957 250.618 145.27C251.375 145.572 252.234 145.192 252.761 144.635C253.675 143.663 253.699 142.232 252.986 141.221C253.553 140.987 254.031 140.523 254.383 140.025C254.788 139.458 255.052 138.785 255.14 138.091C255.242 137.324 255.018 136.582 255.042 135.811C255.062 134.976 255.486 134.233 255.721 133.452C255.862 132.949 255.911 132.441 255.887 131.933C255.989 131.528 256.033 129.174 253.347 128.432C250.413 127.616 248.43 129.013 247.448 130.244C246.696 131.181 246.174 132.036 246.174 133.794C246.174 135.024 246.735 135.713 246.848 136.499Z" fill="#12252E"/>
<path d="M250.764 163.221C251.013 163.265 251.262 163.372 251.453 163.548C251.609 163.69 251.741 163.875 251.936 163.973C252.249 164.129 252.547 163.875 252.649 163.587C252.722 163.372 252.717 163.138 252.742 162.918C252.771 162.664 252.864 162.42 252.879 162.156C252.908 161.687 252.825 161.004 252.244 160.667L252.268 160.833C252.185 160.935 252.058 160.882 251.936 160.862C251.751 160.828 251.707 160.789 251.541 160.701L251.531 160.691C251.306 161.023 251.121 161.434 250.999 161.81C250.867 162.2 250.764 163.221 250.764 163.221Z" fill="#FFA18A"/>
<path d="M254.466 202.024C254.427 201.741 254.383 201.448 254.329 201.169C254.31 201.057 254.3 201.008 254.3 201.008C255.56 201.252 257.244 201.155 258.446 201.072C258.446 201.076 258.47 201.482 258.49 202.024H254.466Z" fill="#98D4FC"/>
<path d="M258.578 207.84C258.544 206.878 258.666 205.896 258.71 204.934C258.759 203.924 258.637 201.907 258.637 201.897C257.416 201.985 255.697 202.082 254.412 201.833C254.412 201.833 254.422 201.887 254.442 201.999C254.613 202.918 254.745 203.855 254.837 204.798C254.876 205.203 254.911 205.618 254.93 206.033C254.959 206.512 255.038 207.068 254.94 207.542C254.823 208.201 254.315 208.738 254.364 209.451C254.398 210.013 254.803 210.379 255.184 210.682C255.643 211.058 255.995 211.668 256.527 211.918C257.03 212.147 257.606 212.049 258.085 211.791C258.656 211.493 258.729 210.873 258.798 210.213C258.886 209.388 258.602 208.655 258.578 207.84Z" fill="#12252E"/>
<path d="M266.138 202.126C266.177 201.843 266.221 201.55 266.274 201.267C266.294 201.159 266.304 201.111 266.304 201.111C265.044 201.355 263.359 201.262 262.158 201.174C262.158 201.179 262.138 201.589 262.114 202.126H266.138Z" fill="#98D4FC"/>
<path d="M261.826 210.213C261.894 210.873 261.962 211.493 262.539 211.791C263.017 212.049 263.593 212.147 264.092 211.918C264.629 211.668 264.98 211.058 265.439 210.682C265.815 210.379 266.221 210.013 266.26 209.451C266.309 208.738 265.806 208.201 265.679 207.542C265.586 207.068 265.659 206.512 265.688 206.033C265.718 205.618 265.742 205.203 265.786 204.798C265.874 203.855 266.011 202.918 266.182 201.999C266.196 201.887 266.211 201.833 266.211 201.833C264.922 202.082 263.208 201.985 261.987 201.897C261.982 201.907 261.865 203.924 261.914 204.934C261.958 205.896 262.075 206.878 262.041 207.84C262.016 208.655 261.738 209.388 261.826 210.213Z" fill="#12252E"/>
</svg>
