<svg width="330" height="20" viewBox="0 0 330 20" fill="none" xmlns="http://www.w3.org/2000/svg">
<path d="M308.705 10.2167C308.255 10.2329 307.801 10.244 307.36 10.2683C307.074 10.2835 306.951 10.239 306.76 10.2157C306.696 10.2077 306.628 10.1915 306.569 10.1935C306.124 10.2097 305.678 10.2279 305.233 10.2461C305.096 10.2855 305.01 10.3381 304.801 10.3573C304.596 10.3755 304.355 10.3755 304.128 10.3846C303.828 10.3957 303.528 10.4069 303.228 10.417C303.078 10.422 302.955 10.4412 302.905 10.4776C302.896 10.4837 302.996 10.4989 303.051 10.508C303.233 10.5383 303.41 10.5727 303.61 10.5959C303.801 10.6182 304.037 10.5818 304.242 10.6101C304.701 10.6738 304.705 10.6728 305.055 10.6606C305.355 10.6495 305.655 10.6374 305.955 10.6293C306.015 10.6273 306.083 10.6424 306.146 10.6505C306.337 10.6728 306.46 10.7233 306.742 10.7041C306.955 10.689 307.192 10.6859 307.415 10.6778C307.601 10.7072 307.774 10.7405 307.974 10.7638C308.16 10.786 308.215 10.8032 308.115 10.8325C308.024 10.8598 307.896 10.871 307.728 10.873C307.578 10.874 307.428 10.8831 307.278 10.8882C307.201 10.8912 307.128 10.8932 307.055 10.8963C306.769 10.9074 306.769 10.9074 306.246 10.8427C306.042 10.8174 305.81 10.8528 305.615 10.8285C305.483 10.8123 305.369 10.7881 305.242 10.7709C305.187 10.7638 305.101 10.7628 305.033 10.7648C304.805 10.7719 304.578 10.7769 304.36 10.7901C304.205 10.7992 304.114 10.8275 304.133 10.8558C304.137 10.8669 304.246 10.8831 304.31 10.8841C304.455 10.8861 304.61 10.872 304.751 10.8791C304.887 10.8861 305.028 10.9064 305.128 10.9286C305.333 10.9751 305.564 10.9337 305.76 10.9458C305.964 10.9589 306.133 10.9994 306.328 11.0237C306.378 11.0297 306.474 11.0196 306.551 11.0166C306.774 11.0095 306.996 11.0034 307.219 10.9964C307.406 11.0257 307.605 11.052 307.774 11.0853C308.078 11.146 308.406 11.1693 308.801 11.1399C309.024 11.1238 309.242 11.1298 309.419 11.1693C309.601 11.2097 309.81 11.2057 310.042 11.1976C310.256 11.1895 310.474 11.1672 310.692 11.1955C311.165 11.2582 311.169 11.2613 311.728 11.237C311.897 11.2299 312.024 11.2279 312.151 11.2512C312.269 11.2724 312.397 11.2906 312.519 11.3108C312.742 11.3037 312.969 11.2967 313.192 11.2886C313.478 11.2775 313.638 11.2916 313.706 11.3482C313.747 11.3826 313.765 11.414 313.865 11.4372C313.983 11.4655 314.11 11.4645 314.283 11.4564C314.447 11.4493 314.565 11.4382 314.633 11.4018C314.66 11.3867 314.715 11.3725 314.765 11.3604C314.806 11.3513 314.869 11.3371 314.906 11.3391C314.974 11.3432 315.065 11.3543 315.088 11.3674C315.31 11.4898 315.31 11.4908 315.538 11.5262C315.788 11.5656 316.047 11.601 316.274 11.6455C316.479 11.6849 316.683 11.6678 316.906 11.6678C317.074 11.6678 317.183 11.6941 317.17 11.7203C317.16 11.7355 317.097 11.7577 317.042 11.7598C316.597 11.78 316.147 11.7972 315.697 11.8113C315.642 11.8134 315.574 11.7952 315.51 11.7861C315.383 11.7679 315.269 11.7395 315.133 11.7335C314.997 11.7274 314.838 11.7426 314.688 11.7476C314.538 11.7527 314.379 11.7658 314.242 11.7578C314.106 11.7497 313.997 11.7203 313.869 11.7011C313.81 11.692 313.729 11.6789 313.679 11.6819C313.347 11.7062 313.101 11.6728 312.865 11.6283C312.815 11.6192 312.728 11.6132 312.665 11.6152C312.138 11.6324 311.615 11.6526 311.088 11.6718C310.874 11.6799 310.701 11.6445 310.656 11.5848C310.633 11.5515 310.587 11.5181 310.587 11.4847C310.587 11.4241 310.337 11.3907 310.156 11.3978C309.856 11.4079 309.551 11.416 309.256 11.4311C309.015 11.4433 308.81 11.4311 308.646 11.3947C308.456 11.3533 308.237 11.3614 308.019 11.3725C307.856 11.3806 307.81 11.414 307.819 11.4979C307.828 11.5656 307.751 11.5869 307.455 11.598C307.083 11.6121 306.705 11.6263 306.328 11.6374C306.269 11.6394 306.201 11.6223 306.142 11.6132C306.014 11.595 305.901 11.5656 305.764 11.5596C305.628 11.5525 305.469 11.5677 305.319 11.5737C305.169 11.5788 305.01 11.5929 304.874 11.5859C304.737 11.5788 304.623 11.5484 304.501 11.5292C304.442 11.5201 304.369 11.507 304.31 11.509C304.01 11.5171 303.71 11.5292 303.41 11.5404C303.073 11.5525 303.073 11.5525 302.596 11.4898C302.378 11.4615 302.16 11.4837 301.946 11.4918C301.719 11.4999 301.505 11.504 301.328 11.4635C301.21 11.4372 301.078 11.421 300.937 11.4261C300.56 11.4382 300.187 11.4534 299.81 11.4655C299.746 11.4676 299.66 11.4625 299.61 11.4534C299.369 11.4109 299.132 11.3776 298.796 11.3988C298.505 11.417 298.191 11.418 297.901 11.4352C297.741 11.4443 297.669 11.4767 297.7 11.5019C297.719 11.5151 297.814 11.5302 297.878 11.5302C298.023 11.5313 298.182 11.5161 298.319 11.5222C298.601 11.5343 298.741 11.6192 299.11 11.596C299.328 11.5818 299.555 11.5768 299.782 11.5727C299.841 11.5717 299.905 11.5909 299.969 11.601C300.151 11.6283 300.31 11.6637 300.573 11.6455C300.792 11.6314 301.023 11.6273 301.246 11.6192C301.601 11.6061 301.601 11.6071 302.06 11.6688C302.278 11.6981 302.496 11.6748 302.71 11.6678C302.869 11.6627 303.019 11.6526 303.146 11.6668C303.342 11.688 303.483 11.7365 303.723 11.7335C303.951 11.7304 304.173 11.7163 304.401 11.7112C304.542 11.7082 304.674 11.7244 304.787 11.7517C304.905 11.779 305.033 11.7911 305.187 11.785C305.41 11.777 305.637 11.7669 305.864 11.7618C305.928 11.7608 306.001 11.7699 306.06 11.778C306.187 11.7962 306.31 11.8174 306.433 11.8366C306.655 11.8306 306.883 11.8285 307.101 11.8164C307.269 11.8073 307.387 11.8113 307.524 11.8316C307.696 11.8589 307.837 11.9074 308.119 11.8842C308.26 11.873 308.424 11.8761 308.565 11.8659C308.737 11.8528 308.856 11.8579 308.978 11.8882C309.21 11.9458 309.501 11.9468 309.801 11.9246C310.128 11.9003 310.374 11.9286 310.619 11.9731C310.878 12.0196 310.878 12.0186 311.078 12.1309C311.138 12.1632 311.306 12.1784 311.447 12.1723C311.683 12.1622 311.888 12.1673 312.06 12.2057C312.242 12.2472 312.46 12.2421 312.683 12.231C312.978 12.2158 313.274 12.2027 313.515 12.2613C313.633 12.2896 313.76 12.2967 313.919 12.2896C314.369 12.2714 314.824 12.2603 315.265 12.2381C315.533 12.2239 315.688 12.2563 315.869 12.2836C316.115 12.321 316.383 12.3543 316.383 12.4342C316.383 12.4474 316.447 12.4625 316.501 12.4726C316.62 12.4939 316.747 12.5121 316.87 12.5323C317.051 12.5626 317.229 12.5879 317.479 12.5717C317.697 12.5586 317.929 12.5545 318.151 12.5454C318.374 12.5363 318.579 12.5313 318.779 12.5697C319.011 12.6132 319.256 12.6546 319.52 12.687C319.706 12.7103 319.952 12.6708 320.152 12.7022C320.274 12.7214 320.392 12.7436 320.524 12.7598C320.579 12.7669 320.665 12.7618 320.738 12.7598C320.888 12.7558 321.043 12.7527 321.188 12.7426C321.356 12.7315 321.483 12.7335 321.611 12.7568C321.729 12.778 321.847 12.8073 321.983 12.8134C322.188 12.8225 322.415 12.7821 322.62 12.8286C322.724 12.8518 322.856 12.8741 322.993 12.8811C323.129 12.8882 323.288 12.8731 323.434 12.8741C323.497 12.8741 323.574 12.8902 323.611 12.9034C323.633 12.9105 323.602 12.9297 323.57 12.9398C323.529 12.9519 323.47 12.9681 323.411 12.9701C322.961 12.9883 322.511 13.0035 322.061 13.0207C321.793 13.0308 321.793 13.0308 321.252 12.9671C321.124 12.9519 320.983 12.955 320.824 12.962C320.611 12.9711 320.392 12.9883 320.17 12.9701C319.879 12.9014 319.52 12.8953 319.138 12.9216C318.979 12.9327 318.833 12.9327 318.715 12.9135C318.465 12.8751 318.201 12.8397 317.979 12.7942C317.806 12.7588 317.724 12.7558 317.651 12.8043C317.629 12.8195 317.606 12.8356 317.61 12.8498C317.638 12.9004 317.688 12.9499 317.715 13.0005C317.724 13.0146 317.688 13.0308 317.665 13.046C317.592 13.0884 317.497 13.0854 317.338 13.05C317.179 13.0146 316.988 12.9914 316.733 13.0075C316.515 13.0217 316.279 13.0197 316.06 13.0348C315.724 13.0571 315.488 13.0247 315.247 12.9813C315.197 12.9722 315.11 12.9671 315.047 12.9691C314.369 12.9924 313.697 13.0187 313.019 13.0419C312.874 13.047 312.742 13.0318 312.628 13.0045C312.51 12.9772 312.378 12.9631 312.233 12.9681C311.633 12.9893 311.033 13.0086 310.433 13.0348C310.187 13.046 309.992 13.0328 309.824 12.9974C309.697 12.9711 309.578 12.963 309.419 12.9661C309.246 12.9691 309.124 12.9792 309.037 13.0086C308.956 13.0369 309.015 13.0541 309.196 13.0763C309.392 13.1006 309.574 13.1319 309.76 13.1602C309.91 13.1562 310.06 13.1481 310.206 13.1491C310.269 13.1491 310.328 13.1673 310.392 13.1774C310.574 13.2067 310.742 13.2361 311.001 13.2199C311.219 13.2057 311.451 13.2027 311.674 13.1936C311.983 13.1825 311.983 13.1825 312.483 13.2462C312.61 13.2624 312.747 13.2613 312.91 13.2522C313.051 13.2452 313.197 13.2593 313.297 13.2896C313.338 13.3018 313.324 13.322 313.238 13.3888C313.238 13.4383 313.333 13.416 313.365 13.3837C313.415 13.3372 313.319 13.322 313.138 13.3473C313.01 13.3655 312.947 13.3918 312.978 13.413C312.997 13.4241 313.083 13.4383 313.238 13.3888C313.638 13.3281 313.942 13.321 314.233 13.3048C314.406 13.2957 314.515 13.2998 314.651 13.326C314.815 13.3574 314.979 13.3908 315.247 13.3746C315.538 13.3564 315.847 13.3544 316.142 13.3392C316.415 13.325 316.556 13.3695 316.729 13.3958C316.938 13.4272 317.17 13.3918 317.36 13.41C317.56 13.4282 317.701 13.4727 317.933 13.4808C318.27 13.4535 318.483 13.504 318.738 13.5374C318.938 13.5627 319.174 13.5404 319.388 13.5293C319.629 13.5172 319.829 13.5283 319.997 13.5647C320.188 13.6061 320.402 13.597 320.62 13.5879C321.129 13.5677 321.147 13.5647 321.442 13.6203C321.656 13.6607 321.861 13.6425 322.074 13.6375C322.261 13.6648 322.443 13.6941 322.638 13.7184C322.688 13.7244 322.783 13.7143 322.861 13.7113C323.083 13.7032 323.311 13.6951 323.534 13.687C323.684 13.682 323.843 13.6668 323.979 13.6729C324.115 13.68 324.229 13.7093 324.352 13.7285C324.474 13.7477 324.602 13.7669 324.72 13.7871C324.902 13.8175 325.074 13.8428 325.329 13.8276C325.547 13.8144 325.774 13.8104 326.002 13.8013C326.288 13.7902 326.279 13.7932 326.811 13.8539C327.097 13.8872 327.393 13.8468 327.684 13.8428C327.829 13.8407 327.97 13.8519 328.07 13.8812C328.111 13.8933 328.097 13.9135 328.111 13.9307C327.361 13.958 326.606 13.9813 325.865 14.0147C325.579 14.0278 325.429 13.9914 325.275 13.9611C325.02 13.9125 324.684 13.9833 324.443 13.9206C324.297 13.8832 324.088 13.862 323.838 13.8802C323.693 13.8903 323.538 13.8893 323.388 13.8984C323.006 13.9206 322.656 13.9216 322.352 13.8519C322.247 13.8276 322.097 13.8144 321.988 13.7912C321.861 13.7659 321.738 13.7517 321.588 13.7568C320.911 13.7811 320.238 13.8053 319.565 13.8316C319.506 13.8336 319.447 13.8488 319.397 13.8599C319.27 13.8883 319.311 13.9105 319.515 13.9287C319.583 13.9348 319.638 13.9479 319.702 13.958C319.824 13.9772 319.938 14.0076 320.074 14.0147C320.211 14.0217 320.37 14.0076 320.52 14.0025C320.67 13.9975 320.829 13.9823 320.965 13.9884C321.102 13.9954 321.215 14.0248 321.342 14.043C321.402 14.0521 321.474 14.0672 321.533 14.0662C321.833 14.0602 322.129 14.049 322.429 14.0399C322.615 14.0672 322.774 14.1067 322.997 14.1158C323.138 14.1218 323.288 14.1107 323.434 14.1127C323.497 14.1137 323.579 14.1289 323.611 14.1421C323.629 14.1501 323.57 14.1704 323.524 14.1805C323.352 14.2189 323.115 14.2118 322.902 14.224C322.67 14.2371 322.461 14.2331 322.283 14.1936C322.165 14.1673 322.033 14.1532 321.888 14.1582C321.511 14.1714 321.138 14.1866 320.761 14.1977C320.697 14.1997 320.62 14.1906 320.561 14.1835C320.083 14.1218 320.083 14.1198 319.747 14.133C319.251 14.1522 319.252 14.1522 318.92 14.0986C318.856 14.0885 318.788 14.0693 318.733 14.0703C318.206 14.0864 317.683 14.1026 317.16 14.1259C316.988 14.133 316.87 14.133 316.742 14.1067C316.633 14.0844 316.506 14.0591 316.37 14.0531C316.229 14.047 316.074 14.0622 315.924 14.0672C315.774 14.0723 315.615 14.0854 315.483 14.0773C315.347 14.0693 315.229 14.0409 315.11 14.0207C314.988 13.9995 314.856 14.0005 314.688 14.0086C314.169 14.0318 314.165 14.0288 313.651 13.9661C313.592 13.959 313.515 13.9509 313.451 13.953C313.074 13.9651 312.701 13.9803 312.324 13.9924C312.178 13.9975 312.038 13.9843 311.938 13.955C311.897 13.9429 311.91 13.9226 311.883 13.8832C311.851 13.8741 311.887 13.8903 311.897 13.9054C311.965 13.9034 312.047 13.9054 312.097 13.8974C312.224 13.8781 312.287 13.8529 312.256 13.8316C312.237 13.8205 312.151 13.8063 312.097 13.8063C311.997 13.8063 311.91 13.8286 311.883 13.8832C311.597 13.9166 311.292 13.9236 310.997 13.9398C310.824 13.9499 310.715 13.9449 310.578 13.9186C310.415 13.8862 310.246 13.8549 309.978 13.8711C309.687 13.8893 309.378 13.8923 309.078 13.9065C308.733 13.9226 308.583 13.8316 308.292 13.8336C307.992 13.8357 307.692 13.8529 307.392 13.865C307.128 13.8751 307.128 13.8751 306.583 13.8094C306.383 13.7851 306.146 13.8205 305.951 13.7952C305.819 13.779 305.705 13.7548 305.578 13.7376C305.524 13.7305 305.437 13.7305 305.369 13.7325C304.992 13.7447 304.61 13.7528 304.246 13.775C303.833 13.8013 303.519 13.773 303.223 13.7133C302.851 13.7245 302.473 13.7305 302.105 13.7497C301.837 13.7639 301.682 13.7305 301.501 13.7032C301.437 13.6941 301.383 13.6789 301.314 13.6749C301.246 13.6709 301.164 13.6789 301.091 13.682C300.791 13.6931 300.482 13.6982 300.191 13.7164C299.832 13.7396 299.696 13.6567 299.419 13.6466C299.232 13.6961 299.132 13.7639 298.764 13.7689C298.464 13.773 298.164 13.7892 297.864 13.8003C297.714 13.8053 297.564 13.8114 297.414 13.8165C297.173 13.8256 297.06 13.865 297.11 13.9257C297.137 13.959 297.16 13.9924 297.182 14.0258C297.228 14.0854 297.114 14.136 296.923 14.1431C296.396 14.1623 295.873 14.1825 295.346 14.1997C295.205 14.2047 295.068 14.1876 294.955 14.1603C294.837 14.1329 294.705 14.1208 294.559 14.1259C294.032 14.1451 293.509 14.1653 292.982 14.1825C292.923 14.1845 292.846 14.1744 292.787 14.1663C292.659 14.1481 292.537 14.1269 292.414 14.1077C292.114 14.1168 291.818 14.1228 291.523 14.135C291.046 14.1532 291.046 14.1542 290.696 14.0986C290.632 14.0885 290.568 14.0693 290.509 14.0703C290.282 14.0743 290.059 14.0844 289.832 14.0935C289.164 14.1198 289.164 14.1198 288.968 14.0895C288.791 14.0612 288.632 14.0268 288.364 14.043C288.073 14.0612 287.764 14.0672 287.464 14.0773C287.241 14.0844 287.018 14.0925 286.795 14.0945C286.736 14.0955 286.673 14.0763 286.609 14.0662C286.427 14.0349 286.25 14.0096 286 14.0268C285.854 14.0369 285.7 14.0389 285.55 14.044C285.159 14.0581 285.159 14.0581 284.518 13.9975C284.454 13.9914 284.377 13.9843 284.313 13.9873C283.786 14.0055 283.263 14.0258 282.736 14.043C282.672 14.045 282.595 14.0389 282.532 14.0339C281.813 13.9752 281.813 13.9752 281.05 14.0035C280.759 14.0136 280.75 14.0177 280.445 13.9641C280.309 13.9408 280.195 13.9297 280.036 13.9368C279.436 13.9611 278.831 13.9772 278.236 14.0056C277.968 14.0177 277.813 13.9873 277.631 13.96C277.568 13.9509 277.5 13.9307 277.445 13.9317C276.845 13.951 276.245 13.9742 275.645 13.9934C275.59 13.9954 275.522 13.9752 275.458 13.9661C275.336 13.9479 275.218 13.9206 275.081 13.9145C274.94 13.9085 274.786 13.9236 274.631 13.9287C274.254 13.9418 274.254 13.9408 273.817 13.8812C273.758 13.8731 273.681 13.862 273.622 13.864C273.022 13.8842 272.417 13.9014 271.822 13.9307C271.481 13.9469 271.249 13.9176 271.008 13.8751C270.958 13.866 270.872 13.862 270.808 13.864C270.131 13.8872 269.458 13.9135 268.781 13.9368C268.64 13.9418 268.504 13.9247 268.39 13.8984C268.208 13.8569 267.995 13.862 267.767 13.8711C267.245 13.8923 267.24 13.8913 266.931 13.8428C266.867 13.8326 266.813 13.8195 266.744 13.8144C266.681 13.8094 266.599 13.8124 266.531 13.8144C266.231 13.8246 265.931 13.8357 265.631 13.8468C265.331 13.8579 265.026 13.864 264.731 13.8812C264.367 13.9024 264.194 13.8367 263.94 13.8063C263.567 13.8195 263.185 13.8276 262.817 13.8488C262.535 13.865 262.403 13.8205 262.217 13.7972C262.153 13.7892 262.085 13.772 262.026 13.774C261.349 13.7962 260.671 13.8205 259.999 13.8478C259.835 13.8539 259.726 13.8458 259.59 13.8215C259.285 13.7669 259.271 13.7689 258.762 13.7892C258.54 13.7983 258.326 13.8064 258.135 13.7649C257.967 13.7275 257.762 13.7184 257.521 13.7305C257.226 13.7457 256.921 13.7538 256.621 13.7639C256.321 13.775 256.021 13.7902 255.721 13.7952C255.48 13.8003 255.335 13.7528 255.144 13.7285C255.085 13.7214 255.003 13.7204 254.935 13.7224C254.635 13.7315 254.326 13.7386 254.035 13.7558C253.68 13.777 253.485 13.7214 253.235 13.6891C253.18 13.682 253.089 13.686 253.021 13.6891C252.494 13.7073 251.971 13.7275 251.444 13.7467C251.257 13.7194 251.066 13.6931 250.88 13.6658C250.58 13.6759 250.28 13.687 249.98 13.6971C249.753 13.7052 249.521 13.7083 249.307 13.7234C249.03 13.7437 248.894 13.6961 248.707 13.6729C248.644 13.6648 248.575 13.6476 248.516 13.6496C248.139 13.6607 247.762 13.6729 247.389 13.6901C247.034 13.7073 246.894 13.6163 246.603 13.6173C246.303 13.6183 245.993 13.6314 245.703 13.6496C245.366 13.6709 245.13 13.6385 244.889 13.595C244.839 13.5859 244.753 13.5809 244.689 13.5829C244.312 13.595 243.939 13.6102 243.562 13.6223C243.498 13.6243 243.421 13.6193 243.357 13.6132C242.639 13.5536 242.639 13.5526 242.325 13.5647C242.102 13.5728 241.875 13.5829 241.648 13.5879C241.584 13.59 241.507 13.5809 241.448 13.5728C240.975 13.5111 240.975 13.5101 240.634 13.5222C240.334 13.5333 240.034 13.5445 239.734 13.5556C239.548 13.5283 239.357 13.502 239.17 13.4747C238.798 13.4878 238.416 13.4979 238.048 13.5161C237.875 13.5242 237.761 13.5212 237.629 13.4959C237.466 13.4656 237.302 13.4302 237.029 13.4474C236.738 13.4656 236.429 13.4676 236.134 13.4828C235.779 13.501 235.634 13.409 235.348 13.41C235.047 13.411 234.738 13.4241 234.447 13.4423C234.111 13.4636 233.875 13.4312 233.634 13.3877C233.584 13.3786 233.497 13.3736 233.434 13.3756C232.606 13.4049 231.784 13.4342 230.956 13.4656C230.447 13.4848 230.447 13.4858 229.479 13.4302C229.411 13.4262 229.338 13.4221 229.27 13.4241C228.97 13.4332 228.661 13.4403 228.37 13.4575C228.015 13.4787 227.82 13.4241 227.57 13.3908C227.515 13.3837 227.429 13.3877 227.356 13.3898C227.129 13.3968 226.906 13.4059 226.679 13.414C226.379 13.4252 226.079 13.4363 225.779 13.4474C225.592 13.4211 225.402 13.3938 225.215 13.3675C224.842 13.3807 224.461 13.3877 224.092 13.409C223.811 13.4251 223.679 13.3827 223.492 13.3584C223.429 13.3503 223.361 13.3331 223.301 13.3341C222.624 13.3564 221.947 13.3796 221.274 13.408C220.997 13.4201 220.87 13.3746 220.683 13.3513C220.62 13.3442 220.547 13.3311 220.488 13.3331C220.038 13.3473 219.588 13.3645 219.138 13.3817C218.883 13.3918 218.883 13.3918 218.329 13.3291C218.265 13.322 218.192 13.3149 218.129 13.317C216.701 13.3675 215.278 13.4211 213.851 13.4717C213.706 13.4767 213.574 13.4615 213.46 13.4342C213.342 13.4069 213.21 13.3928 213.065 13.3978C212.465 13.4191 211.86 13.4383 211.265 13.4646C211.019 13.4757 210.824 13.4626 210.655 13.4272C210.528 13.4009 210.41 13.3908 210.251 13.3968C209.951 13.409 209.651 13.4191 209.351 13.4302C209.051 13.4413 208.751 13.4525 208.451 13.4636C208.151 13.4747 207.846 13.4808 207.551 13.498C207.187 13.5192 207.01 13.4565 206.76 13.4252C206.31 13.4403 205.86 13.4555 205.414 13.4717C204.814 13.4929 204.214 13.5162 203.614 13.5364C203.56 13.5384 203.491 13.5202 203.428 13.5111C203.241 13.4858 203.105 13.4504 202.828 13.4616C201.482 13.5151 200.128 13.5606 198.778 13.6132C198.496 13.6243 198.373 13.5809 198.182 13.5576C198.118 13.5505 198.046 13.5364 197.987 13.5384C197.237 13.5637 196.487 13.592 195.737 13.6193C195.432 13.6304 195.432 13.6304 194.923 13.5677C194.864 13.5606 194.786 13.5515 194.723 13.5536C193.745 13.5879 192.773 13.6243 191.795 13.6597C191.65 13.6648 191.518 13.6506 191.4 13.6233C191.286 13.596 191.15 13.5809 191.009 13.5859C190.109 13.6183 189.204 13.6496 188.309 13.685C188.068 13.6951 187.868 13.686 187.695 13.6496C187.572 13.6233 187.45 13.6122 187.295 13.6183C185.945 13.6678 184.595 13.7154 183.245 13.7679C182.986 13.778 182.804 13.7588 182.64 13.7255C182.509 13.6992 182.395 13.6941 182.231 13.6982C182.059 13.7032 181.954 13.7143 181.859 13.7447C181.736 13.7841 181.659 13.8337 181.368 13.8367C181.068 13.8397 180.763 13.8519 180.468 13.8691C180.186 13.8862 180.054 13.8407 179.877 13.8134C179.745 13.7942 179.622 13.7912 179.454 13.8003C179.299 13.8084 179.204 13.8256 179.113 13.8579C178.913 13.9267 178.895 13.9267 178.649 13.8832C178.518 13.8599 178.399 13.8417 178.254 13.8458C177.654 13.866 177.054 13.8883 176.454 13.9115C176.108 13.9247 176.104 13.9267 175.845 13.8761C175.717 13.8508 175.595 13.8387 175.445 13.8448C173.795 13.9054 172.145 13.9641 170.494 14.0278C170.24 14.0379 170.067 14.0167 169.885 13.9863C169.826 13.9762 169.767 13.9621 169.699 13.958C169.631 13.954 169.554 13.958 169.481 13.96C168.281 14.0035 167.076 14.045 165.881 14.0935C165.608 14.1046 165.462 14.0723 165.276 14.046C165.212 14.0369 165.158 14.0227 165.09 14.0187C165.021 14.0157 164.94 14.0227 164.867 14.0258C163.667 14.0693 162.462 14.1107 161.267 14.1593C160.98 14.1704 160.858 14.1279 160.671 14.1057C160.608 14.0976 160.539 14.0824 160.48 14.0844C160.103 14.0955 159.73 14.1107 159.353 14.1239C158.453 14.1572 157.553 14.1886 156.653 14.223C156.307 14.2361 156.157 14.1461 155.866 14.1501C155.489 14.1552 155.116 14.1754 154.739 14.1896C154.439 14.2007 154.139 14.2108 153.839 14.223C153.544 14.2341 153.544 14.2341 152.807 14.1754C152.744 14.1704 152.666 14.1633 152.603 14.1653C151.553 14.2027 150.498 14.2401 149.453 14.2806C149.212 14.2897 149.012 14.2846 148.839 14.2472C148.716 14.2209 148.589 14.2078 148.439 14.2138C146.862 14.2715 145.289 14.3291 143.711 14.3857C143.652 14.3878 143.575 14.3777 143.516 14.3696C143.389 14.3514 143.266 14.3301 143.143 14.3109C143.052 14.3342 142.934 14.3554 142.875 14.3817C142.793 14.4171 142.684 14.4272 142.511 14.4333C142.339 14.4393 142.23 14.4373 142.093 14.411C141.929 14.3787 141.761 14.3534 141.493 14.3635C139.843 14.4272 138.193 14.4848 136.543 14.5475C136.27 14.5576 136.143 14.5131 135.952 14.4899C135.888 14.4828 135.815 14.4717 135.756 14.4737C135.079 14.497 134.406 14.5223 133.729 14.5465C131.852 14.6153 129.974 14.681 128.102 14.7538C127.761 14.767 127.529 14.7417 127.288 14.6982C127.238 14.6891 127.152 14.684 127.088 14.6861C124.46 14.7811 121.833 14.8772 119.21 14.9732C119.069 14.9783 118.933 14.9621 118.819 14.9358C118.701 14.9085 118.569 14.8954 118.424 14.9004C117.224 14.9439 116.024 14.9874 114.824 15.0319C114.524 15.043 114.519 15.044 114.21 14.9955C114.146 14.9854 114.078 14.9662 114.028 14.9682C113.924 14.9732 113.824 14.9985 113.751 15.0329C113.678 15.0693 113.564 15.0794 113.396 15.0865C113.224 15.0935 113.11 15.0905 112.978 15.0663C112.81 15.0359 112.655 15.0066 112.383 15.0167C108.932 15.1461 105.482 15.2705 102.032 15.3989C101.755 15.409 101.627 15.3666 101.437 15.3433C101.373 15.3362 101.309 15.3261 101.241 15.3241C101.168 15.3221 101.091 15.3281 101.018 15.3312C95.3909 15.5364 89.7634 15.7427 84.1358 15.948C83.7995 15.9601 83.804 15.9601 83.4358 16.0531C83.3903 16.0643 83.3312 16.0794 83.2675 16.0814C81.5447 16.1462 79.8174 16.2089 78.0901 16.2715C77.34 16.2988 76.59 16.3272 75.84 16.3535C75.5718 16.3626 75.5718 16.3626 74.9309 16.4718C74.8763 16.4809 74.8126 16.493 74.749 16.495C71.7488 16.6052 68.7487 16.7154 65.744 16.8236C65.5076 16.8317 65.3167 16.8499 65.2076 16.8985C65.1303 16.9328 65.0303 16.9531 64.8803 16.9591C62.7802 17.036 60.6802 17.1138 58.5756 17.1887C58.3255 17.1978 58.1755 17.2261 58.0527 17.2686C58.0118 17.2827 57.9754 17.2989 57.9163 17.309C57.8618 17.3181 57.78 17.3211 57.7118 17.3242C55.9117 17.3899 54.1117 17.4576 52.3071 17.5203C52.0389 17.5294 51.9297 17.5668 51.7979 17.6063C51.7524 17.6194 51.7206 17.6376 51.6615 17.6467C51.6024 17.6548 51.516 17.6548 51.4433 17.6568C49.9432 17.7114 48.4432 17.767 46.9431 17.8217C46.6522 17.8166 46.5885 17.8752 46.4476 17.9106C46.3976 17.9228 46.3613 17.9389 46.3022 17.947C46.2386 17.9551 46.1567 17.9541 46.0794 17.9561C44.8793 17.9996 43.6793 18.0461 42.4747 18.0866C42.1974 18.0957 42.1429 18.1472 41.9928 18.1826C41.9428 18.1938 41.8929 18.2109 41.8338 18.214C41.0838 18.2433 40.3338 18.2706 39.5837 18.2969C39.3337 18.306 39.3337 18.305 38.8928 18.4051C38.8428 18.4162 38.7836 18.4283 38.72 18.4314C37.5972 18.4738 36.4699 18.5143 35.3426 18.5557C35.1971 18.5608 35.0971 18.5851 35.0244 18.6195C34.9517 18.6538 34.8471 18.6761 34.7017 18.6811C33.8016 18.7145 32.9015 18.7489 32.0015 18.7792C31.7515 18.7873 31.5879 18.8126 31.4788 18.8581C31.3969 18.8925 31.2969 18.9096 31.1378 18.9157C30.2378 18.9481 29.3378 18.9835 28.4332 19.0118C28.1695 19.0199 28.0331 19.0542 27.924 19.0967C27.8377 19.1311 27.7376 19.1432 27.5694 19.1493C25.9194 19.2079 24.2648 19.2666 22.6193 19.3313C22.342 19.3424 22.201 19.307 22.0192 19.2818C21.7601 19.2464 21.5192 19.2079 21.5192 19.1291C21.5192 19.1169 21.4419 19.1028 21.3874 19.0927C20.9828 19.0168 20.9828 19.0168 20.9192 18.9359C20.8828 18.8864 20.8419 18.8358 20.8101 18.7853C20.751 18.7024 20.6055 18.6811 20.1873 18.6963C20.0373 18.7014 19.8873 18.7084 19.7373 18.7125C19.5145 18.7195 19.3464 18.6862 19.3054 18.6255C19.2827 18.5921 19.2555 18.5588 19.2328 18.5254C19.46 18.5173 19.4554 18.5163 19.8555 18.394C20.0236 18.3424 20.0237 18.3424 19.701 18.2908C19.5782 18.2716 19.46 18.2504 19.3282 18.2322C19.2691 18.2241 19.1919 18.219 19.1282 18.2211C18.7509 18.2332 18.3782 18.2473 18.0054 18.2615C17.4054 18.2837 17.4053 18.2837 16.7962 18.1806C16.7462 18.1725 16.6689 18.1574 16.678 18.1493C16.728 18.1119 16.8508 18.0957 17.0053 18.0916C17.2326 18.0856 17.4553 18.0754 17.6781 18.0674C17.8281 18.0623 17.9781 18.0562 18.1281 18.0512C18.269 18.0128 18.4145 17.9753 18.5464 17.9359C18.7555 17.8752 18.7554 17.8732 18.469 17.8307C18.2872 17.8024 18.0917 17.7772 17.9053 17.7509C17.6826 17.759 17.4553 17.7681 17.2326 17.7751C16.9508 17.7842 16.8371 17.765 16.7644 17.6993C16.7007 17.6417 16.778 17.5921 16.9962 17.58C17.2189 17.5679 17.4281 17.5598 17.5418 17.5082C17.6509 17.4586 17.8418 17.4394 18.0781 17.4354C18.2281 17.4324 18.3781 17.4253 18.5282 17.4192C18.7236 17.4111 18.8282 17.3596 18.7873 17.3019C18.7646 17.2645 18.7191 17.2332 18.5418 17.2251C17.7554 17.1897 17.7463 17.1907 17.3553 17.1219C17.319 17.1159 17.2918 17.0977 17.3054 17.0886C17.3281 17.0734 17.3781 17.0511 17.4327 17.0481C17.9554 17.0259 18.4782 17.0057 19.0009 16.9905C19.1737 16.9854 19.301 16.9783 19.36 16.9409C19.4419 16.8894 19.4055 16.8418 19.2464 16.8064C19.1964 16.7953 19.1145 16.7812 19.06 16.7822C18.4599 16.8004 17.8645 16.8236 17.2644 16.8418C17.2099 16.8439 17.1099 16.8267 17.0872 16.8135C17.0418 16.7893 17.1099 16.7569 17.269 16.7458C17.4781 16.7306 17.6917 16.7296 17.8327 16.679C18.0281 16.6072 18.269 16.5415 18.4872 16.4728C18.5236 16.4606 18.5827 16.4374 18.5691 16.4353C18.4555 16.4131 18.3236 16.3959 18.2054 16.3747C18.0054 16.3393 18.0054 16.2898 18.0508 16.2422C18.0872 16.2038 18.2236 16.1886 18.3918 16.1886C18.4645 16.1886 18.5554 16.1886 18.6145 16.1795C18.769 16.1573 18.8191 16.129 18.7418 16.1077C18.6963 16.0956 18.6146 16.0784 18.56 16.0804C17.5872 16.1138 16.6098 16.1462 15.6416 16.1876C15.3552 16.1998 15.2235 16.1613 15.0508 16.134C14.9189 16.1128 14.7961 16.1047 14.6325 16.1199C14.4779 16.134 14.328 16.1259 14.2325 16.0926C14.1552 16.0653 14.2916 16.042 14.6598 16.0157C14.728 16.0107 14.8052 16.0076 14.8552 15.9975C15.3825 15.8883 15.3825 15.8873 15.7462 15.8732C16.1007 15.86 16.1008 15.859 16.2872 15.8004C16.3735 15.7731 16.4689 15.7457 16.5507 15.7174C16.5826 15.7063 16.6372 15.6861 16.619 15.68C16.519 15.6487 16.3826 15.6416 16.2235 15.6487C15.8689 15.6659 15.4508 15.6517 15.2644 15.7478C15.1917 15.7842 15.078 15.7943 14.9144 15.8004C13.2688 15.859 11.6233 15.9217 9.97317 15.9783C9.70498 15.9874 9.58232 16.0248 9.47777 16.0663C9.38685 16.1007 9.28683 16.1108 9.11409 16.1168C8.94135 16.1229 8.80492 16.1259 8.70491 16.0926C8.64582 16.0724 8.69584 16.044 8.83221 16.0157C9.02767 15.9753 8.99129 15.9247 8.92765 15.8772C8.88219 15.8459 8.74128 15.8236 8.59127 15.8256C8.36853 15.8297 8.15495 15.8408 7.96857 15.8004C7.85948 15.7771 7.72308 15.7609 7.60035 15.7407C7.36397 15.6992 7.12759 15.6568 6.79575 15.6841C6.56847 15.674 6.40937 15.6376 6.22755 15.6092C5.92299 15.5627 5.89571 15.5557 6.1139 15.5061C6.35937 15.4505 6.16842 15.3777 6.30479 15.3231C6.45025 15.2644 6.65032 15.2129 6.8276 15.1583C6.87306 15.1441 6.91399 15.131 6.95945 15.1168C6.8549 15.0966 6.75946 15.0713 6.63672 15.0572C6.47762 15.039 6.3958 15.0167 6.40489 14.954C6.37307 14.9449 6.38661 14.9682 6.42298 14.9742C6.46389 14.9803 6.56397 14.9753 6.61397 14.9682C6.74125 14.949 6.80482 14.9237 6.773 14.9024C6.75482 14.8913 6.66852 14.8772 6.61397 14.8772C6.51397 14.8772 6.42761 14.8994 6.40034 14.954C5.89122 14.9955 5.36384 15.0157 4.83654 15.0319C4.782 15.0339 4.71385 15.0137 4.65021 15.0036C4.44111 14.9692 4.44108 14.9702 3.82742 14.9601C3.76378 14.9591 3.67746 14.9449 3.64564 14.9308C3.51381 14.8691 3.51839 14.8013 3.45475 14.7356C3.57294 14.6931 3.69104 14.6517 3.81377 14.6102C4.05923 14.5263 4.3775 14.4525 4.56842 14.3605C4.52751 14.3109 4.47295 14.2614 4.67296 14.2209C5.24117 14.1704 5.23666 14.1704 5.39121 14.1218C5.83214 13.9843 6.2685 13.8458 6.72761 13.7103C6.85035 13.6749 6.85036 13.6557 6.63217 13.6405C6.56399 13.6365 6.49116 13.6355 6.41843 13.6375C6.19114 13.6446 5.96387 13.6628 5.74113 13.6587C5.51839 13.6557 5.35475 13.6112 5.17292 13.5839C4.98655 13.5556 4.80018 13.5263 4.61381 13.4969C4.40016 13.5 4.18656 13.5283 3.97291 13.4828C3.80927 13.4474 3.60473 13.4221 3.41835 13.3928C3.55927 13.3159 3.82296 13.2573 4.02751 13.1895C4.21388 13.1279 4.21833 13.1289 4.71835 13.0814C4.95473 13.0591 5.03655 12.9448 4.83654 12.9115C4.59562 12.871 4.34112 12.8336 4.09565 12.7952C3.88201 12.7982 3.66386 12.8255 3.4593 12.78C3.30021 12.7457 3.11834 12.7224 2.85469 12.7355C2.40922 12.7578 1.95466 12.7689 1.50464 12.7871C1.35009 12.7932 1.18185 12.7891 1.11367 12.7548C1.06821 12.7305 1.20004 12.6971 1.35005 12.69C1.57733 12.6799 1.78187 12.6678 1.89551 12.6172C2.0046 12.5667 2.20459 12.5515 2.44097 12.5444C2.50461 12.5424 2.57739 12.5303 2.60921 12.5181C2.77285 12.4595 2.95469 12.4089 3.30471 12.411C3.45017 12.3907 3.5274 12.3655 3.48194 12.3412C3.45467 12.328 3.35926 12.3109 3.30471 12.3129C2.92742 12.323 2.55014 12.3331 2.18194 12.3513C2.00921 12.3594 1.87731 12.3614 1.76822 12.3311C1.69094 12.3109 1.73185 12.2835 1.87731 12.2542C2.00459 12.2289 2.04099 12.1996 2.0319 12.1652C2.00917 12.0854 1.87278 12.0621 1.43639 12.0672C1.12274 12.0712 1.04546 12.0581 0.977275 11.9893C0.959092 11.9731 0.913715 11.9509 0.945535 11.9398C1.141 11.871 1.26829 11.7861 1.63649 11.7537C1.78195 11.7416 1.93644 11.7416 2.02735 11.7153C2.11826 11.689 2.20013 11.6587 2.29559 11.6334C2.41377 11.603 2.49552 11.5747 2.44097 11.5555C2.35005 11.5211 2.20464 11.5181 2.03645 11.5302C1.89099 11.5404 1.73644 11.5414 1.58643 11.5474C1.31824 11.5586 1.1001 11.5323 1.06828 11.4878C0.981909 11.3705 0.890969 11.2542 0.813693 11.1369C0.804601 11.1228 0.827268 11.1045 0.863633 11.0924C0.990912 11.0499 1.12733 11.0095 1.25916 10.968C1.41371 10.9205 1.65922 10.9296 1.86832 10.9205C2.16379 10.9074 2.16369 10.9084 2.55916 10.8113C2.71371 10.7729 2.98192 10.7881 3.14102 10.7537C3.19102 10.7426 3.2683 10.7244 3.25466 10.7142C3.23648 10.7011 3.14561 10.691 3.07743 10.6849C3.01379 10.6788 2.93653 10.6758 2.86834 10.6789C2.04103 10.7082 1.21829 10.7395 0.390976 10.7678C0.250061 10.7729 0.0955035 10.7506 0.0455011 10.7193C-0.00450128 10.69 0.00909134 10.6546 0 10.6212C0.131824 10.5798 0.281774 10.5413 0.395416 10.4968C0.481783 10.4625 0.581806 10.4473 0.754541 10.4453C0.981825 10.4422 1.20458 10.4301 1.45914 10.421C1.93189 10.2734 2.39552 10.1187 2.90463 9.97104C3.10919 9.91138 3.05927 9.85071 3.10018 9.78701C3.14109 9.72836 3.44563 9.73747 3.65019 9.72028C3.81383 9.70612 3.86831 9.67376 3.80467 9.65152C3.7683 9.63837 3.68652 9.6232 3.62289 9.6232C3.47288 9.6232 3.32288 9.6323 3.17287 9.63736C3.02286 9.64241 2.85014 9.63939 2.7274 9.65658C2.60921 9.67275 2.53189 9.70712 2.45462 9.73645C2.36825 9.76881 2.25469 9.77993 2.08195 9.78196C1.85921 9.78398 1.63649 9.79307 1.41375 9.80015C1.16829 9.76072 0.913675 9.7223 0.6773 9.68084C0.631844 9.67275 0.622703 9.6495 0.627249 9.63433C0.63634 9.5949 0.568173 9.57062 0.418166 9.55141C0.290887 9.53523 0.186328 9.51198 0.0681407 9.49176C0.159054 9.46446 0.259094 9.43816 0.331825 9.40884C0.490923 9.34715 0.690955 9.30267 1.03643 9.3047C1.1728 9.26526 1.28186 9.21672 1.45914 9.18942C1.62733 9.16313 1.91372 9.18941 2.041 9.12976C2.10464 9.10043 2.20015 9.06706 2.32289 9.05493C2.51835 9.03572 2.7729 9.04584 2.88654 8.98922C2.95473 8.95686 3.05469 8.92753 3.18652 8.91944C3.33653 8.91034 3.49104 8.90832 3.60014 8.88911C3.65923 8.879 3.72288 8.86282 3.72288 8.84866C3.72288 8.83956 3.63203 8.8254 3.5684 8.81934C3.5093 8.81226 3.43194 8.80721 3.36375 8.80923C3.13647 8.81529 2.91373 8.82642 2.68645 8.83248C2.62281 8.8345 2.5501 8.82743 2.48192 8.82136C2.28191 8.80518 2.29552 8.78496 2.45462 8.74856C2.61372 8.71317 2.72742 8.66766 2.85924 8.6262C3.00471 8.61912 3.18651 8.62216 3.28651 8.60295C3.4547 8.5716 3.57286 8.5261 3.70923 8.48666C3.85923 8.4806 4.01378 8.47858 4.15469 8.46746C4.21379 8.46341 4.24108 8.44116 4.29109 8.42802C4.382 8.40274 4.45934 8.36634 4.58207 8.35421C4.78208 8.33601 5.02754 8.34308 5.14573 8.28747C5.21391 8.25511 5.31842 8.22074 5.4457 8.21872C5.80027 8.21467 5.95028 8.15905 6.1321 8.10647C6.26847 8.06703 6.55941 8.08726 6.70941 8.04782C6.80942 8.02255 6.88219 7.99119 6.9822 7.96693C7.02311 7.95682 7.10945 7.95177 7.17763 7.94873C7.55038 7.93357 7.92765 7.92244 8.3004 7.90626C8.35949 7.90323 8.41408 7.88807 8.45954 7.87593C8.555 7.84964 8.61403 7.81324 8.73221 7.79605C8.8504 7.77886 9.01857 7.77886 9.16403 7.77381C9.63223 7.75864 9.66864 7.76267 9.88228 7.67673C10.055 7.60696 10.4778 7.65651 10.6187 7.57966C10.7006 7.53517 10.8505 7.49877 11.1187 7.49371C11.496 7.48664 11.8687 7.46742 12.246 7.45428C12.5824 7.44214 12.5779 7.44214 12.9415 7.3481C13.1052 7.30563 13.3461 7.31171 13.5598 7.30362C13.7871 7.29553 13.9961 7.2834 14.1052 7.23284C14.2143 7.18329 14.4143 7.16711 14.6461 7.16003C14.8598 7.15295 15.1008 7.15801 15.2689 7.11757C15.6781 7.0205 15.6735 7.01948 15.9599 7.00937C16.4099 6.99319 16.8599 6.97701 17.3099 6.95982C17.61 6.9487 17.9236 6.94668 18.2054 6.92443C18.41 6.90825 18.5009 6.85163 18.6327 6.8122C19.0054 6.79703 19.3782 6.78186 19.7509 6.7677C20.2737 6.74748 20.8009 6.72928 21.3282 6.71007C21.5555 6.67164 21.5874 6.58671 21.9693 6.58266C22.1965 6.58064 22.4193 6.5675 22.6466 6.55941C23.0238 6.54525 23.3966 6.52705 23.7739 6.51997C24.0603 6.51491 24.1102 6.46031 24.2602 6.42593C24.3102 6.41379 24.3557 6.39661 24.4148 6.39358C25.0057 6.36526 25.6148 6.3592 26.1921 6.31774C26.2512 6.3137 26.3057 6.29246 26.3194 6.27729C26.3285 6.2692 26.2512 6.25404 26.2012 6.24696C26.1421 6.23888 26.0648 6.23078 26.0012 6.23281C24.1238 6.30055 22.2465 6.36931 20.3692 6.43706C20.1055 6.44717 20.1055 6.44616 19.4646 6.55738C19.41 6.56648 19.3463 6.57659 19.2781 6.57963C18.9781 6.59176 18.6736 6.59885 18.3781 6.61401C18.1372 6.62615 17.9372 6.614 17.7645 6.5776C17.6418 6.55131 17.5144 6.54323 17.3599 6.54525C17.1872 6.54828 17.0736 6.55941 16.9736 6.58671C16.8417 6.62412 16.7735 6.67265 16.4963 6.68277C15.2189 6.72624 13.9415 6.77478 12.6687 6.82129C12.4914 6.80714 12.4051 6.78591 12.4505 6.76063C12.4778 6.74546 12.5324 6.72524 12.5869 6.72321C13.1097 6.70198 13.637 6.68378 14.1597 6.66356C14.2324 6.66053 14.3324 6.66254 14.3734 6.65243C14.5734 6.60692 14.6462 6.53311 15.0235 6.52806C15.2417 6.52502 15.4644 6.50986 15.6735 6.4957C15.7326 6.49166 15.7871 6.47042 15.8008 6.45526C15.8053 6.44717 15.7326 6.43199 15.678 6.42492C15.478 6.39559 15.2462 6.43099 15.0462 6.41077C14.978 6.40369 14.8825 6.39358 14.8689 6.38144C14.8598 6.37032 14.9371 6.35212 14.9916 6.34099C15.0416 6.33088 15.1098 6.32179 15.1779 6.31875C15.778 6.2955 16.3781 6.27123 16.9781 6.25303C17.2236 6.24595 17.3963 6.22066 17.5054 6.17415C17.5872 6.13977 17.6872 6.12158 17.8418 6.11652C18.8918 6.07911 19.9418 6.03765 20.9964 6.00327C21.2601 5.99518 21.3965 5.96182 21.5056 5.91834C21.592 5.88396 21.692 5.87182 21.8602 5.86576C23.3648 5.81318 24.8603 5.75453 26.3649 5.70397C26.6422 5.69487 26.724 5.65139 26.865 5.61398C26.915 5.60084 26.9467 5.58466 27.0103 5.57657C27.074 5.56848 27.1558 5.56948 27.2331 5.56746C28.4331 5.52398 29.6333 5.47747 30.8379 5.43703C31.1197 5.42793 31.1742 5.37736 31.3196 5.34197C31.3696 5.33085 31.4151 5.31266 31.4742 5.30962C32.3743 5.27524 33.2743 5.24289 34.1743 5.20952C34.7743 5.18727 35.3744 5.16503 35.9744 5.14379C36.2699 5.13368 36.2699 5.13266 36.6699 5.0366C36.7153 5.02548 36.779 5.01233 36.8381 5.0093C38.5655 4.94459 40.2882 4.88292 42.0156 4.81921C42.1611 4.81416 42.2656 4.79089 42.3383 4.75651C42.4111 4.72213 42.5157 4.69888 42.6566 4.69382C44.0067 4.64326 45.3567 4.59372 46.7113 4.5462C46.9568 4.53811 47.1295 4.51384 47.2386 4.46833C47.3204 4.43395 47.4204 4.41576 47.5749 4.4107C48.925 4.36217 50.2751 4.31059 51.6298 4.26408C51.8889 4.25498 52.0161 4.2206 52.1434 4.18016C52.1888 4.166 52.2252 4.14274 52.2798 4.14072C52.9525 4.11241 53.6207 4.08308 54.298 4.06387C54.5798 4.05578 54.6753 4.01331 54.789 3.97287C54.8799 3.94051 54.9845 3.92939 55.1572 3.92534C55.5345 3.91624 55.9072 3.89906 56.2754 3.88187C56.33 3.87884 56.3982 3.85659 56.4027 3.84244C56.4118 3.81615 56.3072 3.79794 56.1345 3.78884C54.3344 3.85457 52.5298 3.92029 50.7297 3.98601C50.4342 3.99713 50.4342 3.99714 50.0342 4.0932C49.9888 4.10432 49.9251 4.11747 49.8614 4.1205C48.1341 4.18421 46.4113 4.2469 44.684 4.3106C44.5385 4.31566 44.434 4.33891 44.3612 4.37329C44.2885 4.40767 44.1839 4.43093 44.0429 4.43598C42.3929 4.49665 40.7428 4.55834 39.0882 4.61597C38.8427 4.62406 38.67 4.64731 38.561 4.69382C38.4791 4.7282 38.3791 4.74641 38.2246 4.75146C36.6472 4.80809 35.0744 4.86774 33.4925 4.92234C33.3334 4.9274 33.2152 4.89807 33.2243 4.87077C33.2289 4.85662 33.297 4.83337 33.3515 4.83135C34.1743 4.79798 34.9926 4.7636 35.8199 4.73832C36.0972 4.73023 36.1789 4.68574 36.3199 4.64832C36.3653 4.63518 36.4017 4.61799 36.4608 4.61091C36.5244 4.60282 36.6063 4.60384 36.6835 4.60181C38.6336 4.53002 40.5838 4.45722 42.5384 4.38947C42.8202 4.37936 42.8747 4.32981 43.0202 4.29442C43.0702 4.28228 43.1157 4.26409 43.1748 4.26207C43.7748 4.2378 44.3748 4.21656 44.9748 4.19533C46.0249 4.1569 47.0749 4.11848 48.1295 4.08005C48.4341 4.06893 48.4341 4.06893 48.825 3.97388C48.8705 3.96276 48.9342 3.94861 48.9932 3.94659C51.7706 3.84446 54.5481 3.74233 57.3255 3.64122C57.471 3.63616 57.5755 3.6129 57.6482 3.57853C57.7209 3.54516 57.8255 3.52089 57.9664 3.51482C61.7211 3.37731 65.4713 3.23978 69.226 3.10429C69.4715 3.09519 69.6442 3.07395 69.7533 3.02643C69.8306 2.99205 69.9351 2.97385 70.0897 2.96778C74.2171 2.81712 78.3446 2.66646 82.4766 2.51479C85.254 2.41367 88.0314 2.31053 90.8089 2.21144C91.0634 2.20234 91.1997 2.17099 91.327 2.12953C91.3679 2.11538 91.4089 2.09212 91.4634 2.0901C92.0589 2.06482 92.6543 2.04156 93.2498 2.01831C93.4362 2.04561 93.6226 2.0719 93.8089 2.09921C93.9498 2.06078 94.0863 2.02134 94.2272 1.98292C95.1273 1.9536 96.0136 1.90809 96.9228 1.89394C96.9818 1.89293 97.0455 1.91214 97.1091 1.92225C97.5318 1.98596 97.7728 1.9809 98.041 1.89596C98.1364 1.86563 98.2182 1.83833 98.3637 1.83327C98.8137 1.81507 99.2684 1.80294 99.7139 1.7817C99.9548 1.77058 100.155 1.78069 100.327 1.81709C100.45 1.84338 100.578 1.85451 100.728 1.84844C101.555 1.81811 102.378 1.78878 103.205 1.75642C103.264 1.7544 103.318 1.7372 103.364 1.72507C103.459 1.69878 103.541 1.67047 103.632 1.64317C103.755 1.66036 103.891 1.67351 103.991 1.69576C104.119 1.72205 104.237 1.72204 104.409 1.71496C107.71 1.59261 111.014 1.4733 114.314 1.34994C114.596 1.33982 114.719 1.3823 114.91 1.40454C114.974 1.41263 115.037 1.42274 115.105 1.42476C115.178 1.42678 115.255 1.42072 115.328 1.41769C117.806 1.32668 120.283 1.23668 122.76 1.14568C123.088 1.13355 123.088 1.13355 123.574 1.19624C123.633 1.20433 123.71 1.21343 123.774 1.2104C124.901 1.17096 126.029 1.1285 127.151 1.08805C127.297 1.08299 127.42 1.09917 127.552 1.12243C127.811 1.16793 127.829 1.16793 128.02 1.1012C128.111 1.06985 128.206 1.05063 128.356 1.04153C128.52 1.03142 128.652 1.03446 128.779 1.05266C128.961 1.07794 129.093 1.1204 129.37 1.10928C130.57 1.06176 131.774 1.02232 132.97 0.973789C133.243 0.962667 133.388 0.997044 133.57 1.02232C133.634 1.03142 133.693 1.04558 133.761 1.04861C133.829 1.05165 133.911 1.04456 133.984 1.04153C135.484 0.986926 136.988 0.933345 138.484 0.874698C138.766 0.863575 138.888 0.907047 139.079 0.929292C139.143 0.937381 139.216 0.951545 139.275 0.949523C140.175 0.918177 141.079 0.884799 141.979 0.851431C142.302 0.839297 142.302 0.840308 142.793 0.901989C142.852 0.910078 142.93 0.918169 142.993 0.916147C144.043 0.878734 145.098 0.840309 146.148 0.801886C146.471 0.789752 146.471 0.789754 147.402 0.842334C147.471 0.846379 147.543 0.852454 147.612 0.850431C148.812 0.806952 150.016 0.764477 151.216 0.717964C151.457 0.708864 151.657 0.716951 151.83 0.753352C151.953 0.779642 152.08 0.790771 152.23 0.784704C153.58 0.735157 154.935 0.687635 156.28 0.635055C156.539 0.624943 156.707 0.64718 156.889 0.676503C156.948 0.686615 157.007 0.700774 157.076 0.704819C157.144 0.708863 157.221 0.704816 157.294 0.701782C158.644 0.652236 159.998 0.605725 161.344 0.552133C161.617 0.541011 161.762 0.575388 161.944 0.600667C162.008 0.609767 162.076 0.627969 162.13 0.626958C162.658 0.609768 163.185 0.594606 163.708 0.569327C163.99 0.555171 164.112 0.601676 164.303 0.623921C164.367 0.630999 164.44 0.646174 164.499 0.644152C165.626 0.604717 166.753 0.563262 167.876 0.520794C168.035 0.514727 168.153 0.523819 168.281 0.550109C168.449 0.585499 168.644 0.599656 168.89 0.588533C169.413 0.565277 169.94 0.549103 170.467 0.529891C170.776 0.518768 170.776 0.518772 171.722 0.571352C171.79 0.575396 171.863 0.581459 171.931 0.579436C172.831 0.54708 173.735 0.515736 174.631 0.480345C174.872 0.470234 175.072 0.479332 175.245 0.515733C175.367 0.542023 175.49 0.553152 175.645 0.547085C176.472 0.51675 177.295 0.486413 178.122 0.456078C178.422 0.444956 178.722 0.425739 179.022 0.425739C179.24 0.42675 179.399 0.475284 179.595 0.499551C179.649 0.506629 179.74 0.498549 179.813 0.496527C180.863 0.458103 181.918 0.422709 182.963 0.37923C183.236 0.368107 183.381 0.402484 183.563 0.427763C183.627 0.436864 183.695 0.455065 183.75 0.454054C184.127 0.442932 184.5 0.427763 184.877 0.414618C185.327 0.398439 185.781 0.386305 186.227 0.36406C186.591 0.345859 186.727 0.433827 187.018 0.43686C187.241 0.439894 187.468 0.422707 187.691 0.414618C188.141 0.398439 188.591 0.38024 189.041 0.366084C189.2 0.361028 189.323 0.344843 189.373 0.308441C189.382 0.301363 189.304 0.286202 189.254 0.277102C188.65 0.173964 188.65 0.173959 188.041 0.196205C187.663 0.210361 187.291 0.22452 186.913 0.236653C186.85 0.238676 186.777 0.230587 186.713 0.22452C186.532 0.20733 186.55 0.187109 186.704 0.150708C186.859 0.114306 186.977 0.0698193 187.109 0.028362C187.295 0.054652 187.477 0.0809326 187.663 0.107223C187.813 0.102167 187.963 0.0961088 188.113 0.0910531C188.864 0.064763 189.614 0.0374599 190.364 0.0131922C190.418 0.0111698 190.486 0.0313959 190.55 0.0415075C190.732 0.0708309 190.895 0.0961029 191.159 0.0849802C191.832 0.0556567 192.509 0.0344225 193.182 0.00914359C193.477 -0.00197911 193.477 -0.00197812 193.996 0.0607135C194.055 0.0677916 194.132 0.0758813 194.196 0.073859C194.873 0.0506024 195.546 0.0253265 196.223 0.00105879C196.368 -0.00399698 196.509 0.00914754 196.614 0.038471C196.655 0.0506049 196.646 0.070824 196.818 0.236653C197.355 0.371137 197.723 0.356988 198.096 0.344854C198.255 0.339798 198.396 0.334737 198.5 0.314514C198.555 0.303392 198.623 0.287211 198.623 0.274066C198.623 0.263954 198.523 0.247773 198.459 0.24575C198.009 0.225527 197.582 0.268002 197.141 0.277102C196.937 0.281147 196.759 0.245756 196.723 0.18812C196.714 0.171942 196.7 0.154753 196.687 0.138574C196.673 0.122396 196.664 0.105207 196.65 0.0890288C196.473 0.083973 196.368 0.102171 196.291 0.13655C196.228 0.164862 196.137 0.197219 196.014 0.212387C195.891 0.228565 195.723 0.225537 195.573 0.230593C195.427 0.235649 195.268 0.248792 195.132 0.241714C194.996 0.233625 194.886 0.204296 194.759 0.186096C194.7 0.176995 194.627 0.163855 194.568 0.165878C194.046 0.183067 193.527 0.20025 193.009 0.222496C192.736 0.23463 192.6 0.192168 192.427 0.165878C192.291 0.145654 192.155 0.150704 192.132 0.197217C192.073 0.308444 192.282 0.354955 192.745 0.33372C193.127 0.31552 193.473 0.312495 193.773 0.381254C193.814 0.390354 193.909 0.394398 193.968 0.392375C194.341 0.380241 194.709 0.365073 195.082 0.352939C195.15 0.350916 195.223 0.354955 195.287 0.358999C196.214 0.413602 196.214 0.414618 196.528 0.402484C196.678 0.396417 196.823 0.391361 196.809 0.237666C197.096 0.0728473 197.55 0.0617266 197.991 0.0374589C198.278 0.0222916 198.4 0.0667844 198.587 0.0900409C198.65 0.0981302 198.719 0.114306 198.778 0.112283C199.755 0.0789152 200.728 0.0435199 201.7 0.00610716C201.864 4.02337e-05 201.982 0.00610815 202.11 0.0323982C202.273 0.0657663 202.455 0.087005 202.714 0.0748711C203.232 0.0506034 203.76 0.0354395 204.287 0.0152164C204.555 0.00510489 204.555 0.00509453 205.096 0.0677861C205.155 0.0748642 205.232 0.0829539 205.296 0.0809316C205.823 0.063742 206.346 0.0425142 206.869 0.0243134C207.014 0.0192576 207.146 0.0334123 207.26 0.0607135C207.373 0.0880147 207.51 0.102169 207.651 0.0971136C208.178 0.0789128 208.701 0.0586961 209.224 0.0404953C209.287 0.038473 209.364 0.0455506 209.424 0.0526287C209.978 0.11532 209.978 0.11531 210.233 0.105198C210.605 0.090031 210.987 0.0829609 211.355 0.0627378C211.715 0.0425147 211.901 0.101157 212.146 0.133514C212.819 0.110257 213.496 0.0910501 214.165 0.0627378C214.437 0.0506039 214.583 0.083969 214.765 0.110259C214.828 0.119359 214.892 0.138573 214.951 0.137562C215.178 0.133518 215.401 0.122397 215.624 0.114308C215.847 0.106218 216.074 0.0981302 216.297 0.0900409C216.551 0.119364 216.719 0.188122 217.083 0.164865C217.301 0.150709 217.533 0.147676 217.756 0.139587C217.979 0.131497 218.206 0.123409 218.429 0.11532C218.579 0.110264 218.733 0.107226 218.879 0.0981257C219.147 0.0829584 219.279 0.132511 219.47 0.154756C219.533 0.161834 219.606 0.17396 219.665 0.171938C220.115 0.157782 220.57 0.145649 221.01 0.122392C221.351 0.104192 221.583 0.13453 221.824 0.176999C221.874 0.186099 221.96 0.191154 222.024 0.189132C222.551 0.171942 223.074 0.150702 223.597 0.132502C223.738 0.127446 223.874 0.143624 223.988 0.169914C224.106 0.197215 224.238 0.21037 224.383 0.205314C224.906 0.187113 225.433 0.166884 225.956 0.148683C226.02 0.146661 226.097 0.154752 226.156 0.162841C226.665 0.225533 226.665 0.226545 226.965 0.214411C227.038 0.211378 227.115 0.209347 227.188 0.206314C227.561 0.192158 227.947 0.187109 228.311 0.162841C228.729 0.13554 229.034 0.169921 229.329 0.227556C229.702 0.215423 230.084 0.208343 230.447 0.18812C230.72 0.172953 230.865 0.211375 231.047 0.236653C231.111 0.245754 231.179 0.263955 231.234 0.261932C231.761 0.244743 232.288 0.229581 232.806 0.204302C233.088 0.190146 233.211 0.235639 233.402 0.258896C233.466 0.266985 233.534 0.281149 233.593 0.279126C233.893 0.271037 234.193 0.258897 234.493 0.247775C234.843 0.23463 234.843 0.23564 235.307 0.29732C235.525 0.326644 235.743 0.303386 235.957 0.296308C236.184 0.288219 236.398 0.282154 236.579 0.323611C236.693 0.349901 236.829 0.36608 236.97 0.362036C237.27 0.352935 237.575 0.343839 237.87 0.328672C238.107 0.316538 238.311 0.324623 238.484 0.362036C238.607 0.388326 238.734 0.401479 238.884 0.395412C239.557 0.371144 240.234 0.345856 240.907 0.322599C240.966 0.320577 241.048 0.329681 241.102 0.338781C241.23 0.356982 241.352 0.377201 241.475 0.397424C241.771 0.388323 242.075 0.384289 242.366 0.370133C242.675 0.355977 242.957 0.350919 243.198 0.406533C243.248 0.418667 243.321 0.435847 243.38 0.434836C243.607 0.430791 243.83 0.420683 244.052 0.412593C244.275 0.404504 244.502 0.396416 244.725 0.388327C244.984 0.413606 245.148 0.486408 245.512 0.463151C245.73 0.448995 245.962 0.445962 246.184 0.437872C246.407 0.429783 246.634 0.420684 246.857 0.413606C246.93 0.411583 247.012 0.406525 247.075 0.410569C247.144 0.414614 247.203 0.428773 247.262 0.438884C247.444 0.468208 247.612 0.497535 247.871 0.480345C248.089 0.466189 248.321 0.463155 248.544 0.454054C248.848 0.442932 248.848 0.442933 249.353 0.506636C249.557 0.532926 249.789 0.498549 249.985 0.520794C250.116 0.535961 250.23 0.561235 250.357 0.578424C250.412 0.585502 250.498 0.588531 250.562 0.586509C250.862 0.577409 251.166 0.568313 251.462 0.553145C251.703 0.541012 251.903 0.553144 252.071 0.589546C252.194 0.615836 252.316 0.626964 252.471 0.620897C253.221 0.592585 253.971 0.568309 254.717 0.536964C254.971 0.525841 255.176 0.543035 255.317 0.579436C255.558 0.642128 255.898 0.568315 256.148 0.618873C256.303 0.650219 256.458 0.686622 256.739 0.671455C257.258 0.645165 257.785 0.631001 258.308 0.6128C258.494 0.640101 258.68 0.667408 258.871 0.69471C259.171 0.683587 259.471 0.672457 259.771 0.662346C259.994 0.654256 260.221 0.645157 260.444 0.638079C260.517 0.636057 260.594 0.632011 260.662 0.637067C260.73 0.642123 260.785 0.655271 260.849 0.665382C261.162 0.714929 261.162 0.715945 261.681 0.695722C261.903 0.686621 262.117 0.680554 262.303 0.721001C262.476 0.758413 262.681 0.765487 262.917 0.754364C263.362 0.734141 263.813 0.718975 264.267 0.704819C264.408 0.699763 264.54 0.716953 264.658 0.743243C264.835 0.7847 265.053 0.780657 265.276 0.769534C265.572 0.755378 265.863 0.741225 266.113 0.797849C266.163 0.809983 266.24 0.827163 266.294 0.826152C266.667 0.818063 267.044 0.812001 267.408 0.792789C267.772 0.773577 267.949 0.836266 268.199 0.866601C268.572 0.853456 268.949 0.840309 269.322 0.827164C269.395 0.824131 269.481 0.815036 269.545 0.820092C269.813 0.841326 269.967 0.917161 270.336 0.893904C270.549 0.880759 270.781 0.876719 271.004 0.873686C271.063 0.872675 271.14 0.889856 271.181 0.903001C271.204 0.910079 271.181 0.92929 271.154 0.939401C271.072 0.967713 270.972 0.994011 270.899 1.02333C270.89 1.02738 270.976 1.04557 271.026 1.05366C271.149 1.07186 271.29 1.06884 271.454 1.06075C271.595 1.05367 271.74 1.06782 271.84 1.09816C271.881 1.11029 271.867 1.13051 271.781 1.19725C271.781 1.2468 271.876 1.22455 271.908 1.19219C271.958 1.14568 271.863 1.13051 271.681 1.15579C271.554 1.17399 271.49 1.20028 271.522 1.22152C271.54 1.23264 271.626 1.2468 271.781 1.19725C272.181 1.13658 272.481 1.12546 272.781 1.11434C272.858 1.11131 272.949 1.10119 273.004 1.10726C273.199 1.13152 273.381 1.16085 273.572 1.18815C273.79 1.18209 273.995 1.16691 274.208 1.20635C274.508 1.26196 274.522 1.25691 274.813 1.24578C274.963 1.23972 275.113 1.23467 275.263 1.22961C275.413 1.22456 275.531 1.23972 275.663 1.26298C275.931 1.3105 275.954 1.3105 276.131 1.24578C276.236 1.20635 276.309 1.19321 276.44 1.21141C276.877 1.27309 276.881 1.27713 277.254 1.25893C277.563 1.24376 277.854 1.23972 278.081 1.29735C278.236 1.3378 278.286 1.3287 278.409 1.28623C278.736 1.17399 278.886 1.17601 279.5 1.25691C279.786 1.29533 280.081 1.25388 280.372 1.24882C280.618 1.24478 280.791 1.26904 280.809 1.33274C280.822 1.37218 280.863 1.40049 281.027 1.41364C281.091 1.41869 281.168 1.42577 281.231 1.42375C281.609 1.41161 281.982 1.39746 282.359 1.3833C282.55 1.37622 282.654 1.32871 282.618 1.26601C282.577 1.19928 282.65 1.175 282.922 1.15579C283.086 1.14467 283.218 1.1467 283.35 1.1649C283.495 1.18512 283.454 1.20332 283.327 1.23972C283.023 1.32871 283.059 1.3833 283.45 1.44498C283.586 1.46621 283.695 1.48543 283.727 1.51678C283.745 1.53296 283.727 1.55419 283.768 1.56632C283.991 1.63407 284.3 1.67756 284.645 1.70991C284.977 1.68261 285.204 1.72811 285.459 1.76451C285.659 1.79282 285.895 1.76856 286.109 1.75845C286.35 1.74732 286.55 1.75541 286.723 1.79282C286.845 1.81911 286.973 1.83124 287.123 1.82619C287.423 1.81506 287.727 1.80799 288.023 1.79181C288.277 1.77765 288.468 1.79788 288.627 1.83226C288.827 1.87574 289.05 1.84641 289.259 1.85248C289.541 1.85956 289.682 1.94954 290.05 1.92528C290.268 1.91112 290.496 1.90607 290.723 1.90202C290.782 1.90101 290.855 1.9182 290.905 1.93034C291.146 1.98595 291.427 1.98292 291.737 1.96674C291.95 1.95562 292.159 1.94551 292.368 1.98393C292.714 2.04865 293.096 2.10527 293.459 2.16493C293.509 2.21145 293.473 2.26604 293.732 2.29334C293.868 2.3075 293.996 2.32874 294.1 2.35199C294.228 2.3793 294.346 2.38638 294.509 2.3793C294.805 2.36514 295.114 2.3621 295.405 2.3439C295.673 2.32772 295.841 2.3611 296.005 2.39244C296.137 2.41772 296.26 2.42985 296.419 2.41165C296.582 2.39446 296.7 2.40558 296.832 2.43288C297.019 2.47029 297.032 2.46625 297.65 2.47738C297.714 2.47839 297.791 2.49355 297.828 2.50669C297.846 2.51377 297.805 2.534 297.773 2.54412C297.732 2.55625 297.669 2.5704 297.61 2.57343C296.937 2.59972 296.259 2.62298 295.587 2.64927C295.519 2.6523 295.446 2.65939 295.396 2.6695C295.341 2.68062 295.273 2.69578 295.273 2.70993C295.273 2.72005 295.364 2.73218 295.428 2.73926C295.628 2.76252 295.864 2.72713 296.06 2.75342C296.191 2.77061 296.3 2.79487 296.432 2.81105C296.487 2.81813 296.573 2.81712 296.641 2.8151C296.869 2.80802 297.091 2.79791 297.319 2.79184C297.382 2.79083 297.455 2.80095 297.514 2.80904C297.95 2.86971 297.951 2.8697 298.328 2.85656C298.478 2.8515 298.637 2.83633 298.778 2.8424C298.914 2.84847 299.032 2.87577 299.155 2.89296C299.41 2.92936 299.651 2.96475 299.669 3.04362C299.678 3.07396 299.828 3.10024 299.978 3.10226C300.123 3.10429 300.278 3.09317 300.428 3.08711C300.782 3.07497 300.782 3.07497 301.242 3.13665C301.369 3.15384 301.505 3.15586 301.669 3.14575C301.732 3.1417 301.81 3.14575 301.878 3.15081C302.101 3.16598 302.101 3.18518 301.955 3.22158C301.751 3.27518 301.769 3.28023 302.342 3.32574C302.56 3.34293 302.728 3.37529 302.91 3.4036C303.205 3.4491 303.201 3.44909 303.005 3.50875C302.96 3.52189 302.919 3.53605 302.873 3.55021C302.742 3.58964 302.637 3.63211 302.364 3.63616C302.064 3.6402 301.764 3.65638 301.464 3.66751C301.173 3.67863 301.096 3.70289 301.123 3.77165C301.155 3.85456 301.214 3.86366 301.737 3.86265C301.887 3.86265 302.019 3.87074 302.132 3.89804C302.078 3.9304 301.978 3.95568 301.832 3.96174C301.46 3.97691 301.082 3.99006 300.71 4.00321C300.41 4.01433 300.11 4.02545 299.81 4.03657C299.623 4.04365 299.505 4.09623 299.555 4.15488C299.582 4.18825 299.605 4.22161 299.628 4.25498C299.678 4.32172 299.773 4.33891 300.078 4.33588C300.155 4.33487 300.228 4.32677 300.301 4.32879C300.596 4.33587 300.737 4.4198 301.091 4.40261C301.387 4.38845 301.696 4.38542 301.987 4.36722C302.255 4.35104 302.405 4.38745 302.592 4.41475C302.655 4.42385 302.723 4.44305 302.778 4.44204C303.155 4.43092 303.533 4.41981 303.901 4.40059C304.074 4.39251 304.178 4.39857 304.314 4.42284C304.642 4.48148 304.651 4.47845 305.137 4.46025C305.492 4.44609 305.496 4.44811 305.951 4.50979C306.078 4.52698 306.215 4.52698 306.378 4.51889C306.592 4.50878 306.815 4.4926 307.037 4.50777C307.105 4.51182 307.192 4.52395 307.215 4.5371C307.228 4.5462 307.165 4.56844 307.11 4.57552C306.71 4.6281 306.242 4.619 305.805 4.64024C305.669 4.6463 305.533 4.62709 305.419 4.59979C305.301 4.57249 305.174 4.56137 305.019 4.56643C304.719 4.57755 304.414 4.58462 304.119 4.6008C303.864 4.61496 303.687 4.5917 303.51 4.56035C303.451 4.55024 303.383 4.53103 303.323 4.53204C302.651 4.55226 301.973 4.57249 301.305 4.6008C301.037 4.61294 300.882 4.58058 300.701 4.55328C300.637 4.54418 300.573 4.52497 300.514 4.52598C300.287 4.53002 300.064 4.54114 299.837 4.54923C299.01 4.57957 298.187 4.6099 297.359 4.63821C297.305 4.64024 297.237 4.619 297.173 4.6099C297.05 4.5917 296.923 4.57451 296.796 4.55732C296.569 4.56541 296.346 4.57552 296.119 4.58158C295.955 4.58563 295.809 4.59979 295.787 4.63821C295.773 4.66349 295.923 4.68675 296.082 4.68472C296.237 4.6827 296.391 4.67057 296.519 4.68371C297.15 4.74842 297.15 4.74944 297.546 4.73629C297.891 4.72416 297.855 4.71404 298.16 4.76966C298.291 4.79392 298.41 4.80809 298.56 4.80202C298.932 4.78786 299.31 4.77371 299.687 4.76157C299.746 4.75955 299.823 4.76966 299.882 4.77775C300.328 4.83842 300.328 4.84044 300.696 4.82527C301.178 4.80707 301.196 4.80202 301.519 4.8637C301.742 4.90617 301.946 4.87684 302.16 4.87482C302.405 4.91426 302.673 4.94965 302.896 4.99414C303.16 5.04672 303.437 5.03761 303.737 5.02245C303.96 5.01132 304.178 5.00728 304.36 5.04874C304.533 5.08716 304.742 5.09121 304.978 5.0811C305.192 5.072 305.41 5.05278 305.633 5.07503C305.692 5.08109 305.783 5.09627 305.778 5.10537C305.774 5.11952 305.714 5.13975 305.655 5.14582C305.237 5.18727 304.778 5.18626 304.337 5.20547C304.278 5.2085 304.201 5.19738 304.142 5.18929C304.014 5.17109 303.892 5.14986 303.769 5.13065C303.546 5.13671 303.319 5.13873 303.101 5.15086C302.933 5.15996 302.805 5.15896 302.682 5.13469C302.569 5.11245 302.446 5.08514 302.31 5.07806C302.173 5.07099 302.014 5.08615 301.864 5.09222C301.714 5.09829 301.542 5.09525 301.423 5.11143C301.305 5.12761 301.232 5.163 301.155 5.19131C301.069 5.22266 300.951 5.23278 300.778 5.23581C300.619 5.23884 300.492 5.23479 300.373 5.20648C300.323 5.19435 300.255 5.18524 300.187 5.17715C300.123 5.17008 300.051 5.15895 299.991 5.16097C299.314 5.18423 298.641 5.20952 297.964 5.23379C297.628 5.24592 297.632 5.24591 296.932 5.18625C296.869 5.1812 296.791 5.17412 296.728 5.17614C296.35 5.18828 295.978 5.20244 295.6 5.21659C295.219 5.23075 295.223 5.22872 294.573 5.16502C294.455 5.15289 294.282 5.16907 294.141 5.16705C293.846 5.16199 293.7 5.07705 293.355 5.09323C293.059 5.10739 292.75 5.11042 292.455 5.12862C292.187 5.1448 292.032 5.10941 291.85 5.08211C291.787 5.07301 291.718 5.05279 291.664 5.05481C290.986 5.07705 290.314 5.10233 289.414 5.10537C289.191 5.10537 289.291 5.1266 289.436 5.13368C289.646 5.1448 289.714 5.12357 289.6 5.08312C289.518 5.05481 289.4 5.04065 289.305 5.04772C289.255 5.05177 289.191 5.07099 289.414 5.10537C289.65 5.14379 289.636 5.16502 289.677 5.17715C289.777 5.20648 289.918 5.21861 290.064 5.21457C290.291 5.20749 290.514 5.19738 290.741 5.19131C290.805 5.18929 290.882 5.19637 290.941 5.20446C291.441 5.26715 291.446 5.2712 291.978 5.24693C292.146 5.23985 292.268 5.23985 292.4 5.25906C292.582 5.28535 292.714 5.32984 292.991 5.31568C293.359 5.29647 293.737 5.28536 294.114 5.27423C294.173 5.27221 294.237 5.29041 294.305 5.2985C294.491 5.32277 294.628 5.36827 294.905 5.34906C295.119 5.33389 295.35 5.32984 295.578 5.3268C295.637 5.32579 295.728 5.34197 295.755 5.35512C295.809 5.37838 295.741 5.40568 295.587 5.42489C295.523 5.43298 295.437 5.43096 295.364 5.43399C295.064 5.44511 294.764 5.45724 294.464 5.46634C294.305 5.4714 294.155 5.48657 294.137 5.52399C294.123 5.54926 294.287 5.57151 294.441 5.56948C294.668 5.56645 294.896 5.55836 295.114 5.54522C295.5 5.52297 295.837 5.52904 296.15 5.59274C296.373 5.63723 296.359 5.62106 296.596 5.75251C296.655 5.78588 296.832 5.78891 296.987 5.78688C297.36 5.78183 297.532 5.797 297.5 5.82834C297.46 5.86677 297.328 5.8789 297.16 5.88395C296.859 5.89204 296.56 5.90519 296.259 5.91631C296.187 5.91935 296.105 5.92541 296.037 5.92339C295.969 5.92137 295.905 5.90923 295.846 5.90013C295.719 5.88092 295.609 5.85159 295.473 5.84451C295.337 5.83744 295.178 5.85261 295.028 5.85867C294.878 5.86373 294.719 5.8789 294.582 5.87182C294.446 5.86474 294.332 5.83441 294.209 5.81621C294.15 5.80711 294.078 5.79295 294.018 5.79396C293.718 5.80205 293.418 5.8152 293.118 5.82531C292.75 5.83845 292.75 5.83845 292.305 5.77576C292.177 5.75756 292.046 5.75858 291.878 5.76667C291.514 5.78284 291.509 5.7798 290.846 5.72116C290.782 5.71509 290.705 5.70801 290.641 5.71105C289.964 5.7343 289.291 5.75958 288.618 5.78385C288.041 5.80508 288.041 5.80509 287.723 5.90621C287.486 5.98103 287.482 5.98103 287.714 6.01541C287.9 6.04372 288.068 6.08517 288.273 6.10034C288.464 6.1145 288.7 6.069 288.909 6.11551C289.014 6.13877 289.15 6.16405 289.282 6.16809C289.491 6.17315 289.714 6.14382 289.914 6.18831C290.014 6.21056 290.164 6.23382 290.291 6.23483C290.514 6.23685 290.741 6.22067 290.964 6.21359C291.032 6.21157 291.109 6.21157 291.173 6.21662C291.241 6.22269 291.3 6.23483 291.359 6.24494C291.541 6.27932 291.737 6.29549 291.973 6.2783C292.359 6.24999 292.705 6.26415 293.005 6.32886C293.046 6.33796 293.146 6.33898 293.209 6.33493C293.373 6.32482 293.514 6.32381 293.637 6.34302C293.687 6.35111 293.759 6.36526 293.75 6.37436C293.737 6.38953 293.682 6.40975 293.623 6.41481C293.196 6.44919 292.737 6.45324 292.296 6.47144C292.237 6.47346 292.164 6.46031 292.105 6.45121C291.978 6.43301 291.868 6.40268 291.732 6.3956C291.596 6.38852 291.437 6.40167 291.287 6.40672C291.137 6.41178 290.977 6.42695 290.841 6.42088C290.705 6.4138 290.577 6.38852 290.468 6.36627C290.341 6.34099 290.218 6.33797 290.05 6.34808C289.832 6.36123 289.605 6.36324 289.382 6.37032C289.259 6.35111 289.136 6.32987 289.009 6.31167C288.95 6.30257 288.877 6.29145 288.814 6.29246C288.514 6.30055 288.214 6.31268 287.914 6.3238C287.614 6.33492 287.614 6.33493 287.105 6.27224C287.045 6.26517 286.968 6.25708 286.904 6.2591C286.527 6.27123 286.154 6.28639 285.777 6.29852C285.632 6.30358 285.5 6.28942 285.382 6.26212C285.268 6.23482 285.132 6.21965 284.991 6.22471C284.391 6.24594 283.791 6.26617 283.191 6.29145C282.95 6.30156 282.745 6.29246 282.582 6.25606C282.391 6.2146 282.177 6.22472 281.954 6.23281C281.45 6.25303 281.445 6.25201 281.122 6.20044C281.059 6.19033 280.995 6.17112 280.936 6.17213C280.413 6.18729 279.886 6.20145 279.368 6.22572C279.095 6.23887 278.95 6.20348 278.768 6.17719C278.704 6.16809 278.636 6.14888 278.581 6.1509C278.204 6.16202 277.827 6.17213 277.459 6.19236C277.09 6.21258 276.949 6.11855 276.672 6.11956C276.295 6.12057 275.922 6.14383 275.549 6.15798C275.249 6.16911 274.949 6.18022 274.649 6.19135C274.349 6.20247 274.049 6.21156 273.749 6.22471C273.59 6.23179 273.472 6.22269 273.34 6.19741C273.172 6.16404 272.972 6.13776 272.79 6.10742C272.513 6.06394 272.513 6.06394 272.177 6.07607C272.104 6.07911 272.027 6.08112 271.954 6.08416C271.404 6.1064 271.404 6.10439 270.704 6.04068C270.672 6.03765 270.59 6.04878 270.558 6.05687C270.463 6.08316 270.376 6.11146 270.29 6.13876C270.167 6.12259 270.017 6.11349 269.936 6.09023C269.704 6.02451 269.34 6.1145 269.104 6.04978C269.017 6.02551 268.867 6.00428 268.731 5.99821C268.59 5.99215 268.431 6.0063 268.285 6.01237C267.908 6.02754 267.908 6.02653 267.585 6.11652C267.422 6.16101 267.185 6.15292 266.972 6.16303C266.749 6.17415 266.535 6.18022 266.349 6.13876C266.181 6.10135 265.976 6.09225 265.735 6.10439C265.44 6.11956 265.135 6.12865 264.835 6.13775C264.772 6.13977 264.694 6.13472 264.631 6.12865C263.935 6.069 263.935 6.06799 263.599 6.08113C263.449 6.0872 263.294 6.08921 263.149 6.09832C262.903 6.11449 262.717 6.09326 262.54 6.0609C262.481 6.05079 262.412 6.03159 262.353 6.0326C262.053 6.03766 261.758 6.04675 261.462 6.05585C261.235 6.06293 261.008 6.06698 260.79 6.08113C260.426 6.10439 260.249 6.03866 259.999 6.00832C259.626 6.02147 259.249 6.03057 258.876 6.04877C258.703 6.05686 258.59 6.05383 258.458 6.02956C258.29 5.99923 258.135 5.96485 257.862 5.98002C257.499 6.00024 257.117 6.00732 256.744 6.01945C256.494 5.98811 256.312 5.9244 255.953 5.94765C255.735 5.96181 255.503 5.96484 255.28 5.97293C254.98 5.98406 254.68 5.99418 254.38 6.00631C254.058 6.01844 254.062 6.01541 253.567 5.95575C253.28 5.92036 252.985 5.95979 252.694 5.96586C252.466 5.97092 252.353 6.01743 252.407 6.07709C252.462 6.13674 252.339 6.18326 252.13 6.19135C251.607 6.21056 251.08 6.23077 250.557 6.24796C250.494 6.24999 250.416 6.24291 250.357 6.23583C249.798 6.17213 249.798 6.17315 249.548 6.18225C249.175 6.19742 248.794 6.2055 248.425 6.22471C248.171 6.23785 247.984 6.21663 247.821 6.18225C247.694 6.15596 247.575 6.14989 247.412 6.15596C245.612 6.22371 243.812 6.2864 242.016 6.35616C241.748 6.36628 241.593 6.33696 241.411 6.30966C241.348 6.30056 241.289 6.28134 241.225 6.28134C241.075 6.28134 240.925 6.29044 240.775 6.29651C240.102 6.32078 239.43 6.3501 238.752 6.3683C238.466 6.37639 238.389 6.4229 238.266 6.46133C238.17 6.49065 238.061 6.50278 237.893 6.50683C237.729 6.51087 237.611 6.50581 237.484 6.47952C237.32 6.44514 237.134 6.42391 236.879 6.43806C236.584 6.45424 236.284 6.46133 235.979 6.47245C235.825 6.47751 235.707 6.4957 235.657 6.5321C235.647 6.53817 235.743 6.55334 235.798 6.56244C235.979 6.59278 236.152 6.62817 236.357 6.6494C236.566 6.67064 236.793 6.64636 237.011 6.64029C237.088 6.63827 237.161 6.63221 237.234 6.63322C237.302 6.63423 237.384 6.63929 237.434 6.64839C237.67 6.69389 237.92 6.72524 238.248 6.69794C238.529 6.71108 238.675 6.795 239.034 6.77276C239.252 6.75961 239.48 6.75355 239.707 6.74849C239.766 6.74748 239.83 6.76568 239.893 6.77478C240.075 6.80006 240.22 6.84051 240.493 6.82332C240.784 6.80512 241.093 6.80209 241.389 6.78793C241.552 6.77984 241.671 6.78692 241.798 6.81321C241.961 6.84658 242.148 6.87185 242.402 6.85567C242.621 6.84151 242.852 6.83848 243.075 6.82938C243.366 6.81826 243.366 6.81927 243.884 6.88196C243.943 6.88904 244.021 6.89713 244.084 6.89511C244.462 6.88297 244.834 6.8678 245.212 6.85567C245.357 6.85061 245.498 6.86376 245.598 6.89308C245.639 6.90522 245.625 6.92545 245.639 6.94264C244.889 6.96994 244.139 6.99319 243.393 7.02656C243.111 7.03971 242.984 6.99825 242.798 6.97499C242.734 6.9669 242.666 6.94971 242.607 6.95174C242.08 6.96893 241.557 6.98712 241.034 7.00937C240.87 7.01644 240.748 7.0124 240.625 6.98308C240.311 6.90522 239.93 6.94769 239.575 6.95881C239.302 6.9669 239.216 6.99825 239.248 7.06498C239.289 7.14386 239.452 7.16812 239.87 7.15397C240.02 7.14891 240.17 7.14183 240.32 7.13778C240.466 7.13374 240.598 7.14688 240.716 7.17419C240.83 7.20149 240.966 7.21564 241.107 7.2116C241.407 7.2025 241.711 7.1934 242.002 7.17823C242.243 7.1661 242.443 7.17621 242.611 7.21362C242.798 7.25508 243.016 7.24598 243.234 7.23688C243.743 7.21665 243.748 7.21767 244.066 7.26823C244.13 7.27834 244.193 7.29755 244.253 7.29654C244.775 7.28138 245.303 7.26823 245.816 7.24396C246.084 7.23183 246.239 7.26418 246.416 7.29047C246.48 7.29957 246.544 7.3198 246.603 7.31777C246.98 7.30665 247.357 7.29552 247.725 7.27631C247.898 7.26721 248.003 7.27328 248.144 7.29754C248.48 7.3572 248.489 7.35518 248.966 7.33597C249.112 7.3299 249.271 7.31878 249.407 7.32687C249.544 7.33496 249.653 7.36429 249.78 7.38249C249.839 7.39058 249.912 7.40169 249.975 7.39967C250.275 7.39158 250.575 7.37945 250.875 7.36833C251.157 7.35721 251.157 7.35822 251.685 7.42091C251.898 7.4472 252.121 7.42495 252.335 7.41686C252.567 7.40776 252.776 7.40777 252.953 7.4472C253.13 7.48664 253.344 7.48461 253.571 7.47652C253.785 7.46843 254.003 7.44619 254.221 7.4735C254.721 7.53619 254.721 7.53719 255.03 7.52505C255.48 7.50786 255.926 7.49169 256.38 7.47652C256.439 7.4745 256.517 7.48664 256.576 7.49473C256.703 7.51293 256.812 7.54325 256.949 7.55033C257.085 7.55842 257.244 7.54629 257.389 7.54022C257.858 7.52101 257.889 7.51394 258.203 7.58067C258.467 7.63527 258.794 7.5564 259.04 7.6191C259.181 7.65449 259.371 7.68279 259.635 7.66561C259.853 7.65145 260.08 7.6474 260.308 7.63931C260.667 7.62617 260.667 7.62719 261.121 7.68786C261.181 7.69595 261.258 7.70605 261.317 7.70403C261.617 7.69594 261.922 7.68887 262.212 7.67067C262.553 7.64943 262.771 7.68786 263.026 7.72527C263.226 7.7546 263.462 7.73032 263.676 7.72021C263.908 7.7101 264.117 7.71313 264.29 7.75256C264.472 7.79301 264.685 7.78796 264.913 7.77987C265.126 7.77279 265.344 7.74953 265.563 7.77784C266.031 7.84053 266.031 7.84053 266.372 7.8284C266.672 7.81728 266.972 7.80515 267.272 7.79706C267.331 7.79504 267.404 7.80818 267.463 7.81728C267.59 7.83548 267.699 7.86582 267.835 7.8729C267.972 7.87997 268.131 7.86683 268.281 7.86178C268.431 7.85672 268.59 7.84155 268.726 7.84762C268.863 7.85368 268.99 7.87897 269.099 7.90121C269.226 7.9275 269.345 7.93053 269.517 7.92042C269.735 7.90727 269.963 7.90424 270.185 7.89716C270.308 7.91638 270.436 7.93558 270.554 7.95682C270.676 7.97906 270.808 7.97704 270.976 7.96996C271.536 7.9457 271.54 7.94873 272.008 8.01142C272.222 8.03974 272.445 8.01648 272.658 8.0094C272.886 8.00131 273.099 7.99727 273.277 8.03771C273.449 8.07614 273.663 8.08119 273.89 8.06905C274.036 8.06097 274.19 8.05592 274.34 8.05289C274.408 8.05187 274.49 8.05592 274.54 8.06401C274.781 8.10647 275.018 8.1449 275.349 8.1176C275.64 8.12569 275.786 8.2086 276.136 8.19242C276.431 8.17827 276.74 8.17523 277.031 8.15702C277.299 8.14085 277.49 8.16917 277.627 8.20456C277.872 8.26725 278.218 8.18231 278.463 8.24399C278.604 8.27939 278.786 8.3077 279.059 8.29253C279.359 8.27635 279.454 8.29758 279.54 8.36128C279.59 8.39768 279.581 8.42701 279.491 8.45532C279.4 8.48465 279.3 8.47959 279.154 8.44623C278.986 8.40881 278.786 8.40172 278.545 8.40981C278.309 8.4179 278.163 8.36533 277.968 8.34511C277.772 8.32388 277.54 8.35927 277.336 8.33196C276.854 8.26826 276.854 8.26826 276.527 8.2804C276.304 8.28848 276.072 8.29253 275.854 8.30669C275.595 8.32388 275.427 8.29253 275.249 8.26421C275.186 8.2541 275.122 8.23489 275.068 8.2359C274.545 8.25107 274.017 8.26523 273.499 8.2905C273.227 8.30365 273.081 8.26725 272.899 8.24197C272.836 8.23287 272.767 8.21467 272.713 8.21669C272.263 8.23085 271.817 8.24905 271.367 8.26624C271.281 8.29354 271.186 8.31982 271.104 8.34915C271.017 8.37948 270.899 8.39263 270.727 8.39162C270.44 8.39162 270.158 8.43409 269.872 8.3805C269.576 8.3259 269.554 8.32893 269.267 8.34207C268.904 8.35926 268.517 8.35522 268.176 8.39466C268.117 8.40173 268.054 8.42094 268.054 8.43509C268.049 8.44419 268.145 8.45734 268.204 8.46543C268.404 8.4897 268.635 8.45431 268.835 8.47959C268.967 8.49577 269.076 8.52003 269.208 8.53722C269.263 8.5443 269.345 8.54329 269.417 8.54228C269.495 8.54127 269.567 8.5342 269.64 8.53521C269.708 8.53622 269.781 8.54228 269.836 8.55138C270.086 8.5898 270.349 8.6252 270.572 8.6707C270.79 8.71519 270.995 8.68486 271.213 8.68283C272.086 8.75361 272.086 8.75462 272.672 8.73238C272.818 8.72732 272.967 8.72126 273.118 8.72227C273.181 8.72227 273.24 8.74046 273.304 8.75057C273.486 8.78091 273.658 8.80821 273.913 8.79203C274.131 8.77788 274.363 8.77484 274.586 8.76574C274.886 8.75462 274.886 8.75462 275.395 8.81832C275.522 8.8345 275.659 8.83249 275.822 8.8244C275.963 8.81732 276.108 8.83249 276.208 8.86181C276.249 8.87394 276.236 8.89417 276.249 8.91136C275.799 8.92753 275.345 8.93866 274.908 8.96292C274.627 8.97809 274.499 8.93461 274.313 8.91136C274.249 8.90326 274.181 8.88608 274.122 8.8881C273.677 8.90327 273.231 8.92045 272.786 8.94067C272.731 8.94269 272.663 8.96595 272.658 8.98011C272.649 9.0064 272.763 9.03168 272.927 9.03066C273.145 9.02965 273.358 9.01246 273.554 9.05392C273.718 9.09032 273.922 9.10651 274.163 9.09033C274.308 9.08123 274.463 9.08123 274.609 9.07314C274.995 9.04887 275.345 9.05392 275.636 9.12268C275.858 9.14088 276.077 9.1237 276.29 9.1146C276.449 9.10752 276.604 9.10043 276.718 9.11965C276.959 9.16009 277.195 9.20054 277.527 9.17324C277.886 9.20155 278.159 9.26121 278.459 9.30974C278.6 9.333 278.709 9.34615 278.872 9.33099C278.94 9.32492 279.022 9.32491 279.095 9.32188C279.245 9.31682 279.404 9.30165 279.54 9.30772C279.677 9.3148 279.791 9.34412 279.913 9.36233C279.972 9.37143 280.04 9.38659 280.1 9.38558C280.327 9.38052 280.55 9.37041 280.772 9.36233C280.995 9.35525 281.218 9.34817 281.441 9.3411C281.627 9.36739 281.818 9.39368 282.004 9.41997C282.304 9.40885 282.604 9.39772 282.9 9.3876C283.232 9.37547 283.232 9.37648 283.709 9.43917C283.922 9.46749 284.15 9.44928 284.354 9.43614C284.695 9.4149 284.923 9.45333 285.164 9.49378C285.214 9.50187 285.304 9.50692 285.364 9.50288C285.6 9.48872 285.804 9.49984 285.977 9.53725C286.1 9.56354 286.223 9.57569 286.373 9.57063C286.895 9.55142 287.418 9.53119 287.941 9.514C288.005 9.51198 288.077 9.52108 288.136 9.52917C288.6 9.59085 288.605 9.59388 288.945 9.5777C289.25 9.56355 289.532 9.55748 289.773 9.61309C289.823 9.62522 289.9 9.64242 289.955 9.64141C290.327 9.63129 290.705 9.62017 291.073 9.60298C291.241 9.59489 291.359 9.59793 291.491 9.62119C291.659 9.65051 291.809 9.6859 292.087 9.67276C292.855 9.63534 292.859 9.6414 293.768 9.71117C293.832 9.71622 293.918 9.70814 293.991 9.7041C294.146 9.69398 294.259 9.70814 294.396 9.7314C294.7 9.78398 294.709 9.78095 295 9.76982C295.223 9.76072 295.455 9.7587 295.673 9.74353C296.009 9.72129 296.232 9.76073 296.482 9.79814C296.682 9.82746 296.914 9.80319 297.128 9.79409C297.359 9.78398 297.569 9.78701 297.741 9.82543C297.86 9.85172 297.987 9.86589 298.137 9.86083C298.66 9.84263 299.182 9.8224 299.705 9.8042C299.769 9.80218 299.846 9.81027 299.905 9.81735C300.423 9.88004 300.423 9.88307 300.937 9.85982C301.101 9.85274 301.237 9.85072 301.36 9.87195C301.478 9.89217 301.605 9.91138 301.728 9.93059C301.951 9.92352 302.178 9.9215 302.396 9.90936C302.564 9.90026 302.682 9.90431 302.814 9.92555C302.987 9.95285 303.133 10.0004 303.405 9.9771C303.546 9.96598 303.71 9.96902 303.851 9.95891C304.019 9.94576 304.133 9.95385 304.264 9.98014C304.428 10.0115 304.596 10.0438 304.86 10.0277C305.151 10.0095 305.46 10.0064 305.755 9.99227C305.919 9.98418 306.033 9.99227 306.165 10.0186C306.328 10.0519 306.515 10.0732 306.769 10.06C307.287 10.0347 307.292 10.0398 307.796 10.1035C307.924 10.1197 308.06 10.1177 308.224 10.1096C308.365 10.1025 308.51 10.1177 308.61 10.147C308.706 10.1793 308.696 10.1996 308.705 10.2167ZM268.199 1.09715C268.049 1.1022 267.899 1.10827 267.681 1.0203C267.667 1.00513 267.676 0.986934 267.645 0.973789C267.572 0.946488 267.458 0.927277 267.322 0.924244C267.076 0.920199 266.781 0.954572 266.785 0.980862C266.79 1.00311 266.867 1.02232 267.017 1.04052C267.081 1.04759 267.131 1.05973 267.19 1.06782C267.363 1.09108 267.499 1.13659 267.749 1.11333C267.704 1.05064 267.726 1.08198 267.749 1.11333C267.726 1.15175 267.794 1.17906 267.958 1.19018C268.004 1.19321 268.072 1.19118 268.108 1.18512C268.249 1.16287 268.272 1.13254 268.167 1.05266C268.149 1.06581 268.163 1.08906 268.204 1.09512C268.245 1.10119 268.345 1.09614 268.395 1.08906C268.522 1.06985 268.585 1.04457 268.554 1.02333C268.535 1.01221 268.449 0.998056 268.395 0.998056C268.299 0.998056 268.213 1.0203 268.199 1.09715ZM304.955 12.8235C304.623 12.8427 304.242 12.8356 303.91 12.8751C303.851 12.8822 303.792 12.9004 303.787 12.9145C303.783 12.9236 303.874 12.9368 303.928 12.9438C304.051 12.96 304.187 12.955 304.346 12.9499C304.587 12.9428 304.728 12.9893 304.914 13.0126C304.974 13.0197 305.051 13.0247 305.114 13.0227C305.483 13.0106 305.846 12.9974 306.214 12.9833C306.278 12.9802 306.346 12.9732 306.401 12.9641C306.583 12.9347 306.565 12.9155 306.387 12.8933C306.192 12.869 306.037 12.8286 305.837 12.8093C305.551 12.782 305.26 12.8185 304.955 12.8235ZM279.141 13.5617C278.918 13.5697 278.699 13.5778 278.477 13.5859C278.404 13.589 278.327 13.59 278.259 13.594C278.118 13.6011 278.013 13.6223 277.945 13.6557C278.049 13.682 278.177 13.6971 278.318 13.6941C278.54 13.688 278.759 13.6749 278.981 13.6719C279.222 13.6678 279.363 13.7133 279.55 13.7366C279.609 13.7437 279.681 13.7447 279.75 13.7457C280.086 13.7497 280.291 13.6971 280.227 13.6233C280.181 13.5657 280.009 13.5313 279.8 13.5384C279.581 13.5455 279.359 13.5536 279.141 13.5617ZM306.51 11.329C306.565 11.3118 306.624 11.2997 306.651 11.2845C306.733 11.233 306.701 11.1945 306.551 11.1541C306.369 11.1045 306.146 11.1379 305.942 11.143C305.892 11.144 305.837 11.1652 305.81 11.1784C305.792 11.1875 305.792 11.2067 305.819 11.2117C306.042 11.2522 306.278 11.2896 306.51 11.329ZM267.076 8.34207C266.858 8.35016 266.635 8.35623 266.417 8.36735C266.363 8.37039 266.313 8.3896 266.281 8.40274C266.222 8.42701 266.285 8.46037 266.472 8.46341C266.685 8.46745 266.908 8.45027 267.131 8.44218C267.413 8.43207 267.581 8.39465 267.476 8.36229C267.376 8.33095 267.24 8.32488 267.076 8.34207ZM27.7967 6.18124C27.9422 6.17618 28.0922 6.17213 28.2376 6.16505C28.374 6.15798 28.4786 6.13573 28.5468 6.10236C28.4332 6.07607 28.3059 6.06192 28.165 6.06495C27.9422 6.07102 27.724 6.07911 27.5059 6.08922C27.3695 6.09529 27.2377 6.11753 27.2059 6.15191C27.1741 6.1782 27.4785 6.19337 27.7967 6.18124ZM247.853 6.02552C247.912 6.03462 247.971 6.05282 248.03 6.05282C248.175 6.05282 248.325 6.04675 248.462 6.03664C248.521 6.03259 248.566 6.01439 248.594 6.00024C248.612 5.99114 248.607 5.97496 248.58 5.96687C248.448 5.91834 247.921 5.93553 247.834 5.99114C247.825 6.00125 247.848 6.01439 247.853 6.02552ZM233.511 0.48843C233.525 0.504609 233.529 0.520785 233.547 0.536964C233.584 0.567298 233.684 0.589548 233.829 0.604715C233.943 0.579436 234.002 0.551129 233.997 0.520794C233.993 0.504615 233.979 0.488427 233.961 0.472248C233.925 0.441913 233.825 0.419676 233.679 0.404509C233.566 0.428776 233.511 0.457084 233.511 0.48843ZM317.015 13.7376C316.974 13.7507 316.933 13.7639 316.888 13.776C317.01 13.8053 317.124 13.8144 317.211 13.7983C317.265 13.7881 317.297 13.773 317.338 13.7598C317.215 13.7305 317.106 13.7224 317.015 13.7376ZM314.188 13.8751C314.247 13.8842 314.301 13.8963 314.365 13.9024C314.469 13.9125 314.565 13.8953 314.638 13.8589C314.578 13.8498 314.524 13.8377 314.46 13.8316C314.356 13.8215 314.26 13.8387 314.188 13.8751ZM315.979 13.6901C315.947 13.7143 316.01 13.7346 316.179 13.7518C316.22 13.7386 316.274 13.7265 316.301 13.7123C316.347 13.6891 316.269 13.6678 316.106 13.6516C316.06 13.6638 316.019 13.6769 315.979 13.6901ZM306.383 12.6C306.351 12.6243 306.414 12.6445 306.583 12.6617C306.624 12.6486 306.678 12.6364 306.705 12.6223C306.751 12.599 306.674 12.5778 306.51 12.5616C306.465 12.5738 306.424 12.5869 306.383 12.6ZM293.309 5.44511C293.268 5.45826 293.228 5.4714 293.182 5.48354C293.305 5.51286 293.418 5.52196 293.505 5.50578C293.559 5.49567 293.591 5.4805 293.632 5.46736C293.509 5.43803 293.4 5.42995 293.309 5.44511ZM280.786 1.64923C280.895 1.65631 280.986 1.64216 281.063 1.60475C281.004 1.59565 280.95 1.58351 280.886 1.57745C280.781 1.56733 280.686 1.58453 280.613 1.62093C280.672 1.63104 280.731 1.64013 280.786 1.64923ZM274.136 1.41161C274.095 1.42476 274.054 1.43791 274.008 1.45004C274.131 1.47936 274.245 1.48846 274.331 1.47228C274.386 1.46217 274.418 1.447 274.458 1.43386C274.336 1.40453 274.227 1.39746 274.136 1.41161ZM229.038 0.487418C228.997 0.500563 228.956 0.513708 228.911 0.525842C229.034 0.555166 229.147 0.564263 229.234 0.548085C229.288 0.537973 229.32 0.522805 229.361 0.50966C229.238 0.480337 229.129 0.473262 229.038 0.487418ZM4.48652 8.71417C4.42742 8.70507 4.36838 8.69598 4.31384 8.68587C4.18201 8.71317 4.14111 8.73845 4.21384 8.75766C4.2593 8.76979 4.32743 8.77687 4.38653 8.78597C4.5229 8.75867 4.5547 8.7344 4.48652 8.71417Z" fill="#00B666"/>
<path d="M30.8537 5.14326C30.3309 5.16248 29.8128 5.18674 29.29 5.19887C29.0127 5.20494 28.9128 5.24842 28.7992 5.28886C28.7082 5.32122 28.6037 5.33133 28.4355 5.3374C27.0172 5.38694 25.6035 5.43953 24.1898 5.49109C24.0125 5.47795 23.9261 5.45672 23.9671 5.43144C23.9898 5.41627 24.0443 5.39504 24.0989 5.39302C25.0671 5.3556 26.0308 5.31717 27.0035 5.28785C27.2808 5.27976 27.3581 5.23527 27.499 5.19887C27.5445 5.18674 27.5809 5.16854 27.64 5.16146C27.6991 5.15337 27.7854 5.15438 27.8627 5.15236C29.4264 5.09472 30.9902 5.0381 32.5539 4.98047C32.7312 4.99361 32.8175 5.01484 32.7766 5.04012C32.7539 5.05529 32.6993 5.07653 32.6448 5.07855C32.0447 5.09978 31.4492 5.12102 30.8537 5.14326Z" fill="#00B666"/>
<path d="M317.073 10.5272C316.837 10.5394 316.537 10.5565 316.292 10.4979C316.173 10.4696 316.046 10.4605 315.891 10.4666C315.669 10.4767 315.441 10.4848 315.214 10.4908C315.155 10.4918 315.078 10.4807 315.019 10.4716C314.891 10.4534 314.782 10.4231 314.646 10.415C314.51 10.4069 314.346 10.4291 314.205 10.4241C314.019 10.417 313.941 10.3897 313.991 10.3644C314.019 10.3503 314.073 10.33 314.132 10.327C314.973 10.2896 314.978 10.2896 315.214 10.326C315.396 10.3543 315.564 10.3857 315.823 10.3685C316.042 10.3543 316.273 10.3513 316.496 10.3422C316.805 10.33 316.805 10.3311 317.305 10.3948C317.433 10.4109 317.569 10.4099 317.733 10.4008C317.873 10.3938 318.01 10.4099 318.123 10.4372C318.051 10.4716 317.946 10.4939 317.805 10.4999C317.578 10.51 317.355 10.5171 317.073 10.5272Z" fill="#00B666"/>
<path d="M308.707 10.2177C309.28 10.1964 309.857 10.1782 310.43 10.154C310.666 10.1439 310.853 10.155 311.016 10.1894C311.194 10.2268 311.394 10.2237 311.612 10.2167C311.748 10.2126 311.88 10.2288 311.971 10.2571C312.007 10.2682 311.998 10.2885 312.012 10.3046C311.512 10.3228 311.007 10.342 310.503 10.3582C310.444 10.3602 310.371 10.3501 310.316 10.342C310.193 10.3249 310.089 10.2945 309.957 10.2885C309.675 10.2743 309.393 10.3016 309.107 10.3066C308.971 10.3087 308.839 10.2935 308.748 10.2662C308.712 10.2531 308.721 10.2338 308.707 10.2177Z" fill="#00B666"/>
<path d="M101.723 1.52275C102.318 1.5005 102.914 1.47928 103.509 1.45703C103.687 1.47119 103.768 1.49141 103.732 1.51669C103.709 1.53185 103.655 1.55309 103.6 1.55511C102.409 1.60061 101.218 1.64409 100.032 1.68757C99.8547 1.67341 99.7729 1.65319 99.8093 1.62791C99.832 1.61274 99.8866 1.59151 99.9411 1.58949C100.532 1.56623 101.127 1.54499 101.723 1.52275Z" fill="#00B666"/>
<path d="M9.95921 7.14231C9.69102 7.14434 9.40924 7.18175 9.10923 7.15344C9.05014 7.14838 8.96829 7.1322 8.97284 7.1231C8.98193 7.10793 9.03649 7.08871 9.09558 7.08265C9.35468 7.05737 9.67746 7.05434 9.80928 6.98356C9.87292 6.94716 9.99111 6.93503 10.1502 6.92795C10.3184 6.91986 10.4365 6.92289 10.5684 6.94412C10.7411 6.97142 10.8866 7.02198 11.1593 6.99569C11.173 7.01187 11.2047 7.03007 11.1911 7.04524C11.1774 7.0604 11.1184 7.07456 11.0639 7.08568C11.0139 7.0958 10.9456 7.10489 10.882 7.10793C10.582 7.12006 10.282 7.13018 9.95921 7.14231Z" fill="#00B666"/>
<path d="M246.372 6.93767C246.594 6.92958 246.826 6.92553 247.044 6.91138C247.217 6.90026 247.326 6.90733 247.463 6.9316C247.694 6.97406 247.708 6.97003 248.276 6.97609C248.34 6.9771 248.417 6.99226 248.454 7.00541C248.476 7.01249 248.444 7.03171 248.417 7.04182C248.376 7.05497 248.317 7.07215 248.263 7.07215C247.903 7.07518 247.54 7.13485 247.19 7.06609C247.013 7.03171 246.817 7.01552 246.576 7.03069C246.431 7.03979 246.276 7.04384 246.126 7.04788C245.981 7.05193 245.831 7.0408 245.74 7.01047C245.608 6.96598 245.685 6.94879 245.922 6.95183C246.072 6.95385 246.222 6.94273 246.372 6.93767Z" fill="#00B666"/>
<path d="M328.755 13.9095C329.041 13.8994 329.327 13.8872 329.618 13.8791C329.677 13.8771 329.75 13.8883 329.805 13.8953C330.023 13.9257 329.991 13.9772 330 14.0227C330.005 14.0702 329.5 14.1087 329.286 14.0763C329.05 14.0399 328.836 13.9985 328.509 14.0207C328.382 14.0288 328.232 14.0106 328.15 13.9813C328.027 13.9388 328.095 13.9216 328.327 13.9246C328.464 13.9267 328.609 13.9155 328.755 13.9095Z" fill="#00B666"/>
<path d="M184.438 0.146525C184.734 0.135402 185.029 0.118221 185.325 0.11721C185.498 0.116199 185.584 0.14956 185.543 0.173828C185.52 0.188996 185.466 0.21023 185.411 0.212253C184.82 0.23652 184.229 0.256747 183.638 0.278992C183.466 0.264836 183.379 0.243605 183.42 0.219338C183.443 0.20417 183.497 0.183947 183.552 0.180913C183.848 0.166757 184.143 0.157648 184.438 0.146525Z" fill="#00B666"/>
<path d="M323.088 10.6164C323.374 10.6063 323.665 10.5911 323.952 10.5861C324.102 10.584 324.22 10.6073 324.238 10.6336C324.247 10.6457 324.174 10.667 324.115 10.672C323.706 10.7064 323.265 10.7104 322.838 10.7276C322.701 10.7327 322.556 10.7165 322.474 10.6882C322.351 10.6447 322.42 10.6285 322.652 10.6316C322.797 10.6326 322.942 10.6215 323.088 10.6164Z" fill="#00B666"/>
<path d="M253.876 7.07547C254.022 7.07041 254.172 7.05726 254.313 7.06131C254.463 7.06636 254.558 7.09569 254.604 7.12501C254.654 7.15838 254.649 7.18973 254.604 7.21804C254.531 7.26658 254.458 7.26456 254.29 7.2322C254.031 7.18164 254.013 7.1877 253.499 7.18973C253.44 7.18973 253.367 7.17456 253.322 7.16141C253.254 7.14119 253.29 7.10985 253.449 7.09165C253.567 7.0785 253.731 7.08052 253.876 7.07547Z" fill="#00B666"/>
<path d="M312.438 10.2869C312.652 10.2788 312.865 10.2657 313.079 10.2657C313.229 10.2646 313.347 10.2879 313.361 10.3132C313.365 10.3253 313.297 10.3455 313.242 10.3516C312.983 10.3789 312.692 10.3809 312.411 10.39C312.279 10.3941 312.133 10.3779 312.051 10.3496C311.929 10.3071 312.002 10.2879 312.224 10.294C312.292 10.296 312.365 10.2899 312.438 10.2869Z" fill="#00B666"/>
<path d="M278.812 9.04467C278.493 9.0568 278.193 9.04164 278.216 9.01535C278.248 8.98097 278.38 8.95872 278.516 8.95265C278.734 8.94254 278.952 8.93445 279.175 8.92838C279.316 8.92434 279.443 8.9395 279.557 8.9658C279.489 8.99815 279.384 9.02141 279.248 9.02849C279.107 9.03556 278.957 9.03961 278.812 9.04467Z" fill="#00B666"/>
<path d="M276.727 8.91579C276.941 8.9077 277.154 8.89456 277.368 8.89456C277.518 8.89355 277.636 8.91681 277.65 8.94208C277.654 8.95422 277.586 8.97444 277.532 8.98051C277.272 9.00781 276.981 9.00983 276.7 9.01893C276.568 9.02298 276.422 9.0068 276.341 8.97848C276.218 8.93602 276.291 8.91681 276.513 8.92288C276.582 8.9249 276.654 8.91883 276.727 8.91579Z" fill="#00B666"/>
<path d="M251.301 7.06721C251.515 7.05912 251.728 7.04596 251.942 7.04495C252.092 7.04394 252.21 7.06721 252.224 7.09249C252.228 7.10462 252.16 7.12383 252.106 7.13091C251.847 7.15821 251.556 7.16024 251.274 7.16934C251.142 7.17338 250.997 7.1572 250.915 7.12889C250.792 7.08642 250.865 7.0672 251.087 7.07327C251.156 7.07529 251.228 7.06923 251.301 7.06721Z" fill="#00B666"/>
<path d="M250.108 7.00729C250.335 6.9992 250.408 6.99414 250.481 6.99414C250.617 6.99414 250.758 7.00628 250.84 7.0356C250.963 7.07807 250.89 7.09021 250.667 7.09223C250.381 7.09425 250.099 7.11549 249.813 7.11954C249.663 7.12156 249.544 7.09728 249.535 7.072C249.531 7.05987 249.599 7.03863 249.654 7.03459C249.844 7.01942 250.054 7.01032 250.108 7.00729Z" fill="#00B666"/>
<path d="M274.877 1.05964C274.732 1.0647 274.577 1.07886 274.441 1.0738C274.259 1.06672 274.186 1.03943 274.232 1.01415C274.259 0.999991 274.309 0.979769 274.364 0.976735C274.655 0.962579 274.95 0.953471 275.241 0.943359C275.414 0.958527 275.491 0.979759 275.446 1.00504C275.418 1.01919 275.368 1.03841 275.314 1.04245C275.173 1.05256 275.023 1.05459 274.877 1.05964Z" fill="#00B666"/>
<path d="M98.4603 1.64263C98.6012 1.64162 98.7284 1.65477 98.8375 1.68004C98.7693 1.7124 98.6694 1.73364 98.533 1.74274C98.4648 1.74678 98.3876 1.74981 98.3148 1.75082C98.1739 1.75284 98.0466 1.73869 97.9375 1.71341C98.0057 1.68105 98.1102 1.65982 98.242 1.65072C98.3102 1.64667 98.3876 1.64567 98.4603 1.64263Z" fill="#00B666"/>
<path d="M321.535 10.6125C321.531 10.5832 321.808 10.5498 322.058 10.5508C322.19 10.5518 322.326 10.566 322.403 10.5933C322.522 10.6347 322.453 10.6509 322.231 10.6479C322.094 10.6458 321.949 10.663 321.812 10.66C321.658 10.659 321.567 10.6368 321.535 10.6125Z" fill="#00B666"/>
<path d="M255.198 7.19646C255.193 7.18534 255.17 7.1722 255.184 7.16209C255.27 7.10647 255.793 7.08928 255.93 7.13782C255.952 7.14692 255.961 7.16208 255.943 7.17118C255.916 7.18534 255.866 7.20354 255.811 7.20758C255.67 7.21769 255.525 7.22275 255.38 7.22376C255.316 7.22376 255.257 7.20657 255.198 7.19646Z" fill="#00B666"/>
<path d="M11.5823 6.97966C11.0459 7.00089 11.0368 6.99886 11.1323 6.9483C11.2187 6.9028 11.3778 6.8755 11.6096 6.8755C11.6778 6.8755 11.7505 6.87348 11.8096 6.87753C11.8732 6.88258 11.9642 6.89269 11.9778 6.90482C12.0051 6.92808 11.9278 6.95336 11.7914 6.97055C11.7323 6.97864 11.655 6.97662 11.5823 6.97966Z" fill="#00B666"/>
<path d="M105.175 1.49892C105.016 1.51611 104.88 1.51005 104.78 1.47769C104.68 1.44533 104.839 1.4069 105.116 1.3978C105.189 1.39578 105.266 1.3877 105.335 1.39174C105.403 1.39478 105.471 1.4069 105.512 1.41903C105.585 1.43926 105.539 1.46657 105.394 1.48982C105.335 1.49892 105.248 1.4969 105.175 1.49892Z" fill="#00B666"/>
<path d="M320.588 10.5384C320.629 10.5253 320.67 10.5121 320.715 10.5C320.884 10.5172 320.957 10.5374 320.911 10.5607C320.884 10.5748 320.829 10.587 320.788 10.6001C320.62 10.5829 320.551 10.5617 320.588 10.5384Z" fill="#00B666"/>
<path d="M18.7734 18.4903C18.7734 18.4782 18.8371 18.459 18.8871 18.4549C18.9825 18.4479 19.1007 18.462 19.1825 18.4903C19.2961 18.5308 19.228 18.552 19.0189 18.5409C18.8735 18.5328 18.7734 18.5126 18.7734 18.4903Z" fill="#00B666"/>
<path d="M257.047 6.25567C257.106 6.26477 257.165 6.27387 257.22 6.28398C257.142 6.32139 257.047 6.33757 256.947 6.32746C256.883 6.32139 256.829 6.30925 256.77 6.30015C256.847 6.26274 256.938 6.24859 257.047 6.25567Z" fill="#00B666"/>
<path d="M255.474 6.21061C255.565 6.19545 255.674 6.20354 255.802 6.23287C255.761 6.24601 255.724 6.26118 255.674 6.27129C255.588 6.28747 255.474 6.27937 255.352 6.24904C255.388 6.2369 255.429 6.22376 255.474 6.21061Z" fill="#00B666"/>
<path d="M254.269 6.25602C254.329 6.26512 254.388 6.27423 254.442 6.28434C254.365 6.32175 254.274 6.33792 254.169 6.32781C254.106 6.32174 254.051 6.30961 253.992 6.30051C254.069 6.26309 254.16 6.24793 254.269 6.25602Z" fill="#00B666"/>
<path d="M253.384 6.20214C253.453 6.22237 253.416 6.24663 253.284 6.27393C253.225 6.26483 253.157 6.25776 253.111 6.24563C253.038 6.22642 253.075 6.20113 253.211 6.17383C253.266 6.18394 253.325 6.19304 253.384 6.20214Z" fill="#00B666"/>
</svg>
