<svg width="1920" height="1941" viewBox="0 0 1920 1941" fill="none" xmlns="http://www.w3.org/2000/svg">
<g opacity="0.3">
<path d="M1072.73 1187.63C1064.29 1194.65 1055.67 1201 1046.97 1206.61C1028.72 1218.36 1009.96 1226.93 991.203 1232.07C971.043 1237.61 950.678 1239.24 930.673 1236.92C890.464 1232.26 857.281 1214.22 825.189 1196.78C818.886 1193.36 812.37 1189.82 805.952 1186.46C762.193 1163.6 718.136 1148.33 671.268 1139.79C577.774 1122.76 472.066 1129.79 365.569 1160.12C242.408 1195.2 129.108 1255.89 46.5386 1331.03C-1.99016 1375.19 -50.8738 1451.85 -50.4091 1512.93C-50.1325 1549.18 -31.6529 1574.28 3.03179 1585.53L2.81789 1585.88C-15.3707 1579.98 -29.1565 1570.36 -38.1539 1557.3C-46.4075 1545.31 -50.661 1530.42 -50.7932 1513.04C-51.0043 1485.39 -40.917 1452.34 -21.6225 1417.45C-3.79218 1385.22 20.3349 1354.45 46.3187 1330.8C89.5311 1291.48 140.922 1256.2 199.066 1225.92C251.773 1198.48 307.792 1176.23 365.566 1159.77C472.125 1129.42 577.894 1122.39 671.441 1139.43C718.338 1147.98 762.419 1163.25 806.204 1186.13C812.625 1189.48 819.143 1193.02 825.443 1196.45C857.509 1213.88 890.67 1231.9 930.821 1236.55C969.655 1241.06 1008.69 1230.88 1046.82 1206.32C1099.64 1172.3 1147.65 1111.6 1175.23 1043.94C1214.98 946.448 1218.45 849.792 1221.8 756.318C1222.39 739.934 1223 722.993 1223.8 706.457C1225.87 663.523 1229.85 606.8 1242.41 548.779C1255.24 489.473 1275.01 437.296 1302.85 389.263C1319.88 359.862 1340.83 332.177 1365.11 306.977C1387.53 283.699 1413.52 261.784 1442.37 241.835C1491.85 207.618 1551.14 177.933 1623.61 151.081C1766.32 98.2136 1915.82 53.7644 2067.98 18.9728C2212.61 -14.0964 2360.92 -38.7538 2508.79 -54.3185L2508.72 -53.9572C2202.18 -21.6951 1904.41 47.4012 1623.65 151.415C1465.03 210.18 1363.19 285.785 1303.17 389.353C1242.1 494.716 1229.12 603.98 1224.18 706.363C1223.38 722.894 1222.77 739.834 1222.18 756.219C1218.83 849.722 1215.36 946.409 1175.58 1043.97C1162.73 1075.5 1144.74 1106.72 1123.55 1134.26C1112.36 1148.8 1100.35 1162.21 1087.87 1174.11C1082.91 1178.86 1077.85 1183.37 1072.73 1187.63Z" fill="#00B666"/>
<path d="M1069.88 1167.4C1048.35 1185.31 1025.92 1198.91 1003.18 1207.83C977.827 1217.78 952.187 1221.84 926.969 1219.91C924.737 1219.74 922.481 1219.52 920.259 1219.25C880.36 1214.5 846.992 1197.21 814.724 1180.49C808.201 1177.11 801.456 1173.61 794.812 1170.3C755.247 1150.6 715.955 1136.91 674.69 1128.47C669.609 1127.43 664.434 1126.45 659.303 1125.58C565.521 1109.6 459.782 1117.68 353.516 1148.94C230.27 1185.24 117.378 1246.98 35.6374 1322.8C-12.1189 1367.15 -60.4058 1443.9 -60.3007 1504.81C-60.2374 1541.28 -42.3191 1566.93 -8.48798 1579.01L-8.7091 1579.35C-26.4414 1573.02 -39.8552 1563.06 -48.5705 1549.73C-56.5749 1537.5 -60.6523 1522.42 -60.6847 1504.92C-60.7348 1477.18 -50.7268 1444.17 -31.7477 1409.45C-14.2067 1377.36 9.64226 1346.51 35.4096 1322.59C78.2114 1282.89 129.303 1247.14 187.262 1216.32C239.762 1188.41 295.696 1165.63 353.509 1148.6C459.836 1117.32 565.635 1109.24 659.473 1125.23C664.605 1126.1 669.785 1127.07 674.868 1128.12C716.16 1136.57 755.474 1150.26 795.059 1169.98C801.707 1173.28 808.451 1176.78 814.977 1180.16C847.227 1196.87 880.57 1214.15 920.413 1218.89C922.628 1219.16 924.884 1219.38 927.112 1219.55C979.23 1223.55 1028.32 1201.98 1069.98 1167.32C1070.21 1167.13 1070.43 1166.94 1070.66 1166.75C1070.4 1166.96 1070.14 1167.18 1069.88 1167.4ZM1078.62 1159.84C1116.15 1126.17 1147.07 1082.05 1167.91 1037.36C1212.73 940.812 1220.89 842.511 1228.79 747.444C1229.11 743.528 1229.44 739.616 1229.76 735.704C1230.48 727.116 1231.34 716.942 1232.28 706.628C1236.48 660.368 1242.55 605.562 1255.7 549.841C1269.68 490.552 1289.67 438.557 1316.81 390.884C1333.49 361.601 1353.79 333.862 1377.15 308.436C1398.78 284.88 1423.76 262.527 1451.38 242.005C1499.1 206.554 1556.08 175.256 1625.58 146.322C1693.32 118.088 1750.66 96.8614 1806.02 79.5229C1884.46 54.9836 1963.18 36.414 2029.84 21.4826C2184.94 -13.0686 2344.29 -38.3525 2503.47 -53.6669L2503.39 -53.308C2344.23 -37.9948 2184.9 -12.7145 2029.81 21.833C1963.17 36.7613 1884.46 55.3276 1806.04 79.8631C1750.69 97.1983 1693.37 118.419 1625.64 146.65C1474.23 209.678 1376.2 287.314 1317.14 390.974C1255.87 498.597 1241.41 610.299 1232.66 706.551C1231.72 716.868 1230.86 727.037 1230.15 735.627C1229.82 739.536 1229.49 743.451 1229.17 747.367C1221.27 842.464 1213.11 940.801 1168.25 1037.42C1157.1 1061.34 1143.29 1084.45 1127.21 1106.13C1112.23 1126.3 1095.92 1144.33 1078.62 1159.84Z" fill="#00B666"/>
<path d="M1068.12 1146.78C1065.53 1148.93 1062.92 1151.03 1060.3 1153.07C1038.21 1170.28 1015.31 1183.23 992.225 1191.58C966.976 1200.71 941.512 1204.31 916.539 1202.27C914.318 1202.08 912.066 1201.85 909.851 1201.58C870.281 1196.74 836.742 1180.19 804.314 1164.19C797.555 1160.86 790.563 1157.41 783.674 1154.15C743.519 1135.12 703.976 1122.01 662.776 1114.09C657.68 1113.11 652.487 1112.19 647.337 1111.38C553.269 1096.46 447.498 1105.59 341.463 1137.78C218.136 1175.29 105.651 1238.08 24.7345 1314.58C-20.7847 1357.71 -69.9047 1433.07 -70.1898 1496.63C-70.3547 1533.35 -53.0001 1559.58 -20.0043 1572.49L-20.2346 1572.83C-37.5218 1566.07 -50.561 1555.74 -58.997 1542.15C-66.7567 1529.65 -70.6489 1514.37 -70.5705 1496.73C-70.4452 1468.92 -60.513 1435.96 -41.8486 1401.41C-24.5942 1369.47 -1.02597 1338.56 24.5087 1314.37C66.9051 1274.29 117.696 1238.07 175.467 1206.72C227.765 1178.34 283.609 1155.03 341.456 1137.44C447.554 1105.23 553.383 1096.1 647.506 1111.02C652.658 1111.84 657.854 1112.75 662.954 1113.74C704.176 1121.67 743.743 1134.78 783.918 1153.83C790.809 1157.09 797.801 1160.54 804.56 1163.87C836.973 1179.86 870.487 1196.39 910.008 1201.23C912.224 1201.5 914.467 1201.73 916.684 1201.91C1018.16 1210.22 1112.3 1121.94 1160.58 1030.77C1211.06 934.743 1224.16 834.042 1236.84 736.657L1236.97 735.657C1238.19 726.221 1239.46 716.466 1240.76 706.797C1254.44 604.782 1272.66 496.479 1330.78 392.498C1347.11 363.325 1366.76 335.528 1389.19 309.886C1410.05 286.034 1434.01 263.249 1460.39 242.165C1506.4 205.404 1561.08 172.495 1627.56 141.554C1697.37 108.983 1752 86.9866 1804.69 70.2314C1879.8 46.4055 1958.16 30.0649 2027.29 15.6494C2181.48 -16.1429 2339.9 -39.2487 2498.14 -53.0302L2498.06 -52.6712C2339.83 -38.8905 2181.43 -15.7856 2027.26 16.0005C1958.13 30.4155 1879.79 46.7526 1804.7 70.572C1752.03 87.3184 1697.42 109.309 1627.63 141.868C1483.54 208.936 1389.31 288.6 1331.1 392.58C1273.02 496.494 1254.8 604.751 1241.13 706.728C1239.83 716.397 1238.57 726.155 1237.34 735.588L1237.21 736.588C1230.9 785.119 1224.37 835.3 1213.21 884.554C1200.66 939.905 1183.56 987.756 1160.91 1030.84C1137.1 1075.79 1104.39 1116.6 1068.12 1146.78Z" fill="#00B666"/>
<path d="M2492.73 -52.0417C2335.43 -39.7909 2177.96 -18.8615 2024.71 10.1627C2018.24 11.4114 2011.74 12.6538 2005.23 13.9025C1938.94 26.5911 1870.4 39.7111 1803.37 61.2729C1738.39 82.2458 1679.08 111.362 1629.62 137.08C1492.99 207.914 1402.57 289.609 1345.07 394.179C1286.12 501.627 1265.88 615.444 1249.61 706.899C1248.63 712.388 1247.67 717.877 1246.7 723.373C1245.98 727.43 1245.27 731.49 1244.55 735.547C1235.31 787.646 1226.56 834.629 1213.15 882.025C1197.82 936.17 1178.33 982.696 1153.57 1024.27C1130.36 1063.23 1100.36 1098.59 1067.71 1125.76C1061.76 1130.71 1055.73 1135.39 1049.62 1139.77C1027.34 1155.76 1004.35 1167.73 981.294 1175.35C956.138 1183.66 930.842 1186.78 906.101 1184.63C903.887 1184.44 901.643 1184.2 899.432 1183.92C860.208 1178.99 826.523 1163.19 793.949 1147.91C786.933 1144.62 779.675 1141.22 772.524 1138C731.765 1119.63 691.964 1107.11 650.852 1099.7C645.736 1098.78 640.525 1097.93 635.361 1097.17C541.003 1083.31 435.203 1093.49 329.402 1126.6C205.994 1165.34 93.9213 1229.17 13.8239 1306.35C-40.863 1359.2 -79.4763 1434.05 -80.081 1488.36C-80.4924 1525.36 -63.7014 1552.19 -31.5301 1565.96L-31.7676 1566.3C-48.6125 1559.09 -61.2882 1548.4 -69.443 1534.52C-76.9524 1521.74 -80.6588 1506.24 -80.4638 1488.46C-80.1551 1460.58 -70.2947 1427.68 -51.9449 1393.32C-34.9745 1361.55 -11.7013 1330.59 13.5948 1306.15C55.5839 1265.68 106.073 1229 163.656 1197.11C215.748 1168.27 271.511 1144.43 329.39 1126.26C435.257 1093.12 541.114 1082.94 635.529 1096.81C640.698 1097.57 645.912 1098.42 651.027 1099.34C692.165 1106.75 731.984 1119.29 772.764 1137.66C779.918 1140.88 787.174 1144.28 794.192 1147.57C826.747 1162.84 860.412 1178.63 899.588 1183.55C901.797 1183.83 904.036 1184.07 906.244 1184.27C1012.66 1193.52 1105.81 1103.8 1153.25 1024.17C1209.84 929.155 1228.08 826.324 1244.17 735.593C1244.89 731.534 1245.6 727.477 1246.32 723.42C1247.29 717.926 1248.26 712.435 1249.24 706.946C1258.52 654.743 1268.04 603.605 1282.27 551.929C1298.65 492.501 1319.08 440.872 1344.74 394.094C1360.73 365.018 1379.73 337.17 1401.23 311.322C1421.32 287.163 1444.26 263.945 1469.41 242.31C1513.77 204.155 1566.15 169.631 1629.53 136.77C1679 111.046 1738.35 81.9151 1803.36 60.9324C1870.42 39.3587 1938.97 26.2376 2005.27 13.5456C2011.78 12.2996 2018.28 11.0545 2024.76 9.80584C2178.02 -19.2217 2335.5 -40.1522 2492.82 -52.404L2492.73 -52.0417Z" fill="#00B666"/>
<path d="M2487.4 -51.4097C2328.05 -40.4799 2171.52 -21.7312 2022.16 4.32529C2013.23 5.8855 2004.06 7.45256 1995.2 8.97034C1931.73 19.8413 1866.1 31.0801 1802.05 51.9744C1738.14 72.907 1680.03 104.319 1631.62 132.291C1502.59 206.558 1415.98 290.284 1359.03 395.778C1304.82 496.52 1282.05 599.126 1260.02 698.353L1257.6 709.248C1255.69 717.854 1253.72 726.75 1251.75 735.5C1229.44 834.505 1204.58 930.582 1146.23 1017.69C1132.07 1038.83 1115.99 1058.68 1098.45 1076.72C1079.61 1096.09 1059.57 1112.82 1038.88 1126.43C1016.42 1141.23 993.357 1152.22 970.344 1159.1C945.302 1166.59 920.175 1169.24 895.67 1166.98C893.457 1166.77 891.221 1166.52 889.021 1166.24C850.161 1161.23 816.355 1146.18 783.663 1131.62C776.368 1128.37 768.821 1125.01 761.386 1121.84C720.007 1104.15 679.956 1092.2 638.941 1085.31C633.815 1084.45 628.585 1083.66 623.398 1082.96C528.754 1070.15 422.926 1081.38 317.35 1115.42C193.862 1155.38 82.1956 1220.27 2.91778 1298.13C-50.7924 1351.07 -88.9879 1425.87 -89.9598 1480.02C-90.6326 1517.33 -74.4107 1544.79 -43.0495 1559.44L-43.2943 1559.77C-59.7047 1552.11 -72.0184 1541.04 -79.8927 1526.86C-87.151 1513.8 -90.6678 1498.07 -90.3438 1480.13C-89.8393 1452.17 -80.0454 1419.35 -62.0173 1385.21C-45.3333 1353.61 -22.3538 1322.61 2.68415 1297.93C44.2678 1257.09 94.4523 1219.94 151.852 1187.51C203.741 1158.2 259.414 1133.83 317.331 1115.09C422.966 1081.02 528.857 1069.79 623.557 1082.6C628.745 1083.3 633.981 1084.1 639.107 1084.96C680.145 1091.85 720.218 1103.81 761.617 1121.51C769.052 1124.68 776.601 1128.04 783.896 1131.29C816.57 1145.84 850.36 1160.88 889.175 1165.89C891.367 1166.17 893.601 1166.42 895.811 1166.63C1000.16 1176.24 1093.43 1095.94 1145.92 1017.57C1204.22 930.539 1229.07 834.501 1251.37 735.539C1253.34 726.789 1255.32 717.893 1257.23 709.287L1259.65 698.392C1270.46 649.685 1281.63 599.32 1296.92 548.401C1314.23 490.732 1334.44 440.784 1358.7 395.704C1374.34 366.712 1392.7 338.807 1413.26 312.768C1432.59 288.285 1454.51 264.632 1478.41 242.466C1521.18 202.802 1571.25 166.672 1631.49 131.997C1679.93 104.014 1738.07 72.5826 1802.02 51.6396C1866.11 30.7307 1931.76 19.4882 1995.24 8.61613C2004.1 7.09833 2013.27 5.52907 2022.21 3.97124C2171.58 -22.0886 2328.12 -40.8408 2487.48 -51.7687L2487.4 -51.4097Z" fill="#00B666"/>
<path d="M2482.07 -50.774C2322.91 -41.3551 2167.31 -24.7792 2019.61 -1.50609C2008.51 0.243748 1997.08 1.97204 1986.02 3.64386C1925.09 12.8582 1862.08 22.3873 1800.71 42.6866C1737.3 63.7584 1680.66 97.3876 1633.61 127.51C1512.39 204.795 1429.58 290.551 1373 397.387C1323.73 490.752 1298.63 585.859 1274.36 677.836C1271.8 687.515 1269.16 697.523 1266.56 707.249C1263.52 718.671 1261.17 727.375 1258.95 735.465C1247.07 778.785 1232.28 829.59 1212.65 877.952C1191.83 929.201 1167.71 972.76 1138.89 1011.12C1123.73 1031.29 1106.9 1050.07 1088.84 1066.93C1069.46 1085.03 1049.03 1100.57 1028.14 1113.11C1005.5 1126.7 982.374 1136.7 959.392 1142.86C934.472 1149.53 909.52 1151.71 885.234 1149.34C883.04 1149.12 880.808 1148.87 878.608 1148.57C840.142 1143.48 806.242 1129.18 773.455 1115.34C765.851 1112.13 757.989 1108.82 750.241 1105.69C708.225 1088.67 667.922 1077.3 627.021 1070.93C621.877 1070.13 616.631 1069.39 611.425 1068.75C516.495 1057 410.635 1069.28 305.289 1104.25C181.725 1145.43 70.4687 1211.36 -7.99023 1289.91C-52.5519 1334.7 -98.2331 1408.25 -99.8377 1471.59C-100.791 1509.25 -85.1412 1537.37 -54.5761 1552.91L-54.8269 1553.24C-70.8108 1545.12 -82.7618 1533.65 -90.3525 1519.16C-97.358 1505.78 -100.679 1489.81 -100.219 1471.69C-99.5089 1443.67 -89.7768 1410.95 -72.0723 1377.03C-55.6688 1345.61 -32.9953 1314.6 -8.22585 1289.7C32.9523 1248.48 82.836 1210.86 140.044 1177.9C191.728 1148.12 247.316 1123.22 305.268 1103.91C410.674 1068.92 516.594 1056.64 611.58 1068.39C616.786 1069.03 622.039 1069.77 627.185 1070.57C668.106 1076.95 708.431 1088.33 750.468 1105.35C758.222 1108.48 766.083 1111.79 773.688 1115C806.455 1128.83 840.34 1143.13 878.763 1148.21C880.961 1148.5 883.187 1148.76 885.38 1148.98C972.612 1157.49 1067.27 1105.9 1138.59 1010.97C1203.18 925.011 1233.28 827.739 1258.58 735.476C1260.8 727.386 1263.14 718.684 1266.19 707.263C1268.78 697.536 1271.43 687.528 1273.98 677.85C1285.93 632.57 1298.29 585.75 1313.81 538.622C1331.35 485.329 1350.61 439.101 1372.66 397.306C1387.99 368.378 1405.69 340.421 1425.31 314.208C1443.88 289.379 1464.79 265.294 1487.43 242.617C1528.66 201.331 1576.43 163.585 1633.46 127.222C1680.54 97.0863 1737.22 63.4297 1800.69 42.3419C1862.09 22.03 1925.12 12.4999 1986.07 3.28194C1997.13 1.6101 2008.56 -0.118318 2019.66 -1.86818C2167.37 -25.1395 2322.98 -41.7187 2482.15 -51.1411L2482.07 -50.774Z" fill="#00B666"/>
<path d="M2476.73 -50.138C2317.76 -42.2374 2163.11 -27.8394 2017.06 -7.33971C2004.64 -5.59368 1991.78 -3.91853 1979.35 -2.29504C1920.13 5.43767 1858.89 13.4307 1799.38 33.3919C1736.13 54.7151 1681.09 90.5138 1635.6 122.721C1523.96 201.412 1442.63 291.782 1386.96 398.99C1342.75 484.484 1316.35 571.602 1290.83 655.854C1285.67 672.872 1280.34 690.468 1275.04 707.427C1271.79 717.804 1268.89 726.963 1266.15 735.43C1253.41 774.788 1235.78 826.328 1212.38 875.925C1188.87 925.758 1162.43 967.834 1131.54 1004.55C1097.85 1044.6 1058.37 1077.54 1017.38 1099.79C994.589 1112.17 971.393 1121.19 948.434 1126.62C923.646 1132.48 898.873 1134.19 874.8 1131.71C872.613 1131.48 870.389 1131.21 868.196 1130.91C830.156 1125.75 796.195 1112.19 763.356 1099.08C755.411 1095.91 747.2 1092.63 739.099 1089.54C696.43 1073.21 655.871 1062.42 615.107 1056.55C609.946 1055.81 604.683 1055.13 599.46 1054.55C504.242 1043.86 398.353 1057.19 293.24 1093.09C169.602 1135.48 58.7539 1202.47 -18.8894 1281.69C-71.4027 1335.51 -107.896 1408.41 -109.698 1463.08C-110.952 1501.12 -95.8729 1529.93 -66.0906 1546.4L-66.3505 1546.72C-81.9146 1538.12 -93.5097 1526.24 -100.814 1511.42C-107.566 1497.73 -110.684 1481.49 -110.082 1463.17C-109.158 1435.11 -99.4827 1402.48 -82.1029 1368.82C-65.9818 1337.6 -43.6189 1306.59 -19.1335 1281.49C21.6392 1239.89 71.2239 1201.81 128.242 1168.3C179.723 1138.05 235.227 1112.63 293.212 1092.75C398.386 1056.83 504.335 1043.49 599.612 1054.19C604.836 1054.77 610.101 1055.45 615.267 1056.19C656.052 1062.06 696.631 1072.86 739.323 1089.2C747.423 1092.29 755.636 1095.57 763.581 1098.74C796.403 1111.85 830.349 1125.4 868.351 1130.56C870.544 1130.85 872.761 1131.12 874.947 1131.35C961.108 1140.23 1056.93 1092.76 1131.27 1004.39C1199.04 923.819 1235.97 827.505 1265.79 735.43C1268.52 726.966 1271.43 717.807 1274.67 707.433C1279.97 690.476 1285.31 672.879 1290.46 655.864C1315.99 571.595 1342.39 484.458 1386.63 398.926C1401.63 370.033 1418.69 342.021 1437.35 315.664C1455.19 290.457 1475.07 265.937 1496.44 242.786C1536.19 199.732 1581.65 160.374 1635.44 122.463C1680.96 90.2337 1736.04 54.4018 1799.36 33.0594C1858.91 13.083 1920.17 5.08599 1979.41 -2.64811C1991.85 -4.2716 2004.7 -5.94914 2017.12 -7.69517C2163.18 -28.1955 2317.85 -42.5968 2476.83 -50.4982L2476.73 -50.138Z" fill="#00B666"/>
<path d="M2471.4 -49.5042C2312.63 -43.137 2158.91 -30.9122 2014.51 -13.1728C2001.24 -11.5441 1987.45 -10.0329 1974.12 -8.57585C1916.14 -2.22983 1856.19 4.32899 1798.05 24.1003C1734.72 45.7493 1681.4 83.6841 1637.59 117.939C1534.15 198.445 1456.74 290.904 1400.93 400.596C1361.89 477.648 1335.29 556.192 1309.56 632.149C1300.72 658.267 1292.36 682.938 1283.51 707.603C1279.91 717.639 1276.59 726.728 1273.35 735.391C1252.44 791.265 1232.99 835.273 1212.11 873.889C1185.93 922.335 1157.17 962.926 1124.2 997.98C1111.4 1011.58 1097.93 1024.26 1084 1035.85C1059.3 1056.41 1033.12 1073.56 1006.62 1086.47C958.66 1109.82 910.798 1119.11 864.364 1114.07C862.17 1113.82 859.956 1113.54 857.78 1113.24C820.201 1108.01 786.229 1095.21 753.373 1082.82C745.048 1079.68 736.445 1076.44 727.954 1073.38C684.609 1057.73 643.795 1047.52 603.189 1042.16C598.011 1041.48 592.731 1040.86 587.49 1040.34C491.986 1030.71 386.065 1045.08 281.182 1081.91C157.471 1125.53 47.0329 1193.56 -29.7949 1273.46C-82.0565 1328.07 -117.291 1399.11 -119.552 1454.44C-121.126 1492.9 -106.621 1522.44 -77.6114 1539.87L-77.8786 1540.19C-93.0261 1531.09 -104.267 1518.79 -111.285 1503.62C-117.781 1489.58 -120.692 1473.07 -119.932 1454.54C-118.784 1426.44 -109.164 1393.94 -92.1111 1360.55C-76.2718 1329.54 -54.2271 1298.54 -30.0403 1273.27C10.3271 1231.28 59.6109 1192.73 116.438 1158.69C167.719 1127.97 223.135 1102.03 281.153 1081.57C386.098 1044.72 492.079 1030.34 587.641 1039.97C592.883 1040.5 598.164 1041.12 603.347 1041.8C643.976 1047.16 684.812 1057.38 728.173 1073.04C736.665 1076.09 745.273 1079.33 753.594 1082.47C786.433 1094.86 820.391 1107.66 857.938 1112.88C860.112 1113.18 862.323 1113.46 864.515 1113.7C951.226 1123.12 1045.79 1080.87 1123.94 997.788C1198.34 918.697 1241.04 820.753 1272.99 735.369C1276.23 726.709 1279.55 717.622 1283.15 707.586C1292 682.924 1300.36 658.255 1309.2 632.137C1334.93 556.167 1361.54 477.608 1400.59 400.527C1415.29 371.628 1431.71 343.562 1449.39 317.103C1466.51 291.477 1485.37 266.522 1505.45 242.936C1543.75 197.955 1586.91 156.984 1637.4 117.687C1681.25 83.4024 1734.62 45.4343 1798.02 23.7606C1856.21 3.97139 1916.18 -2.58893 1974.18 -8.93636C1987.52 -10.3961 2001.31 -11.9047 2014.57 -13.533C2158.98 -31.2729 2312.71 -43.4961 2471.5 -49.864L2471.4 -49.5042Z" fill="#00B666"/>
<path d="M2466.07 -48.869C2305.26 -43.9768 2156.72 -34.2088 2011.96 -19.0073C1998.15 -17.5549 1984.37 -16.3459 1969.78 -15.0627C1912.75 -10.0523 1853.79 -4.8688 1796.72 14.8096C1732.8 36.9655 1679.16 79.0044 1639.58 113.154C1544.71 194.625 1471.21 289.175 1414.89 402.205C1381.2 470.135 1355.53 539.399 1330.71 606.385C1317.67 641.59 1305.35 674.839 1291.98 707.786C1288.02 717.568 1284.28 726.589 1280.55 735.358C1257.44 789.682 1235.6 833.053 1211.84 871.857C1182.99 918.955 1151.92 958.061 1116.85 991.41C1098.83 1008.55 1079.69 1024.07 1059.96 1037.54C1039.07 1051.81 1017.5 1063.79 995.854 1073.14C947.872 1093.88 900.125 1101.71 853.932 1096.43C851.746 1096.17 849.54 1095.89 847.37 1095.58C810.305 1090.3 776.372 1078.24 743.555 1066.58C734.799 1063.47 725.745 1060.26 716.815 1057.23C672.774 1042.28 631.71 1032.64 591.274 1027.78C586.076 1027.16 580.778 1026.6 575.526 1026.13C479.736 1017.56 373.786 1032.98 269.133 1070.74C172.632 1105.7 84.47 1155.39 14.2888 1213.78C-5.55166 1230.29 -23.941 1247.48 -40.6942 1265.24C-91.8654 1319.74 -126.677 1390.58 -129.386 1445.71C-131.296 1484.63 -117.374 1514.93 -89.1273 1533.35L-89.4036 1533.66C-104.145 1524.06 -115.031 1511.31 -121.759 1495.78C-127.998 1481.39 -130.693 1464.57 -129.772 1445.81C-128.39 1417.68 -118.822 1385.33 -102.099 1352.23C-86.3137 1320.99 -65.1666 1290.85 -40.9474 1265.06C-0.985454 1222.69 47.9995 1183.67 104.637 1149.09C155.71 1117.91 211.043 1091.43 269.096 1070.4C373.809 1032.63 479.821 1017.19 575.67 1025.77C580.924 1026.24 586.228 1026.79 591.428 1027.42C631.883 1032.28 672.968 1041.92 717.03 1056.88C725.96 1059.9 735.018 1063.12 743.775 1066.23C776.578 1077.88 810.497 1089.94 847.531 1095.21C849.699 1095.52 851.905 1095.81 854.086 1096.06C940.466 1105.94 1036.15 1067.72 1116.62 991.191C1198.05 913.756 1246.82 813.769 1280.2 735.309C1283.93 726.541 1287.67 717.523 1291.63 707.743C1305 674.804 1317.32 641.555 1330.36 606.355C1355.18 539.361 1380.85 470.085 1414.55 402.131C1443.55 343.938 1476.23 291.917 1514.47 243.089C1551.35 195.999 1592.21 153.416 1639.38 112.911C1666.24 89.739 1689.19 72.0811 1711.61 57.3363C1740.55 38.2996 1768.38 24.2762 1796.7 14.462C1853.81 -5.23452 1912.81 -10.4173 1969.86 -15.4322C1984.45 -16.7125 1998.23 -17.9267 2012.04 -19.3737C2156.8 -34.5754 2305.35 -44.3443 2466.17 -49.237L2466.07 -48.869Z" fill="#00B666"/>
<path d="M2460.74 -48.2327C2300.12 -44.9169 2152.49 -37.2626 2009.41 -24.8404C1995.25 -23.6125 1981.06 -22.6763 1966.05 -21.6846C1909.77 -17.9693 1851.58 -14.1328 1795.39 5.51514C1731.13 28.0913 1679.43 72.3396 1641.57 108.364C1555.72 189.674 1486.14 286.316 1428.85 403.806C1400.71 461.792 1377.18 520.93 1354.43 578.123C1336.44 623.334 1319.45 666.036 1300.45 707.954C1296.16 717.431 1291.89 726.639 1287.75 735.314C1262.78 787.576 1237.86 831.569 1211.55 869.809C1180.05 915.597 1146.67 953.222 1109.5 984.832C1090.59 1000.91 1070.67 1015.35 1050.32 1027.73C1028.98 1040.71 1007.03 1051.5 985.076 1059.8C937.163 1077.93 889.526 1084.32 843.49 1078.78C841.322 1078.51 839.12 1078.22 836.948 1077.9C800.462 1072.58 766.64 1061.28 733.931 1050.36C724.677 1047.27 715.104 1044.07 705.663 1041.07C660.906 1026.81 619.59 1017.75 579.35 1013.39C574.134 1012.83 568.819 1012.33 563.55 1011.92C467.474 1004.4 361.492 1020.88 257.068 1059.56C133.219 1105.62 23.5937 1175.75 -51.6069 1257.01C-101.665 1311.35 -136.054 1381.95 -139.219 1436.86C-141.488 1476.27 -128.153 1507.38 -100.657 1526.82L-100.939 1527.13C-115.273 1517 -125.809 1503.79 -132.246 1487.88C-138.221 1473.1 -140.699 1455.97 -139.603 1436.95C-137.983 1408.82 -128.463 1376.62 -112.072 1343.85C-96.5695 1312.85 -75.7496 1282.76 -51.8622 1256.82C-12.3003 1214.08 36.3784 1174.59 92.8251 1139.48C143.7 1107.83 198.945 1080.83 257.028 1059.22C361.513 1020.52 467.556 1004.03 563.687 1011.56C568.959 1011.97 574.28 1012.46 579.498 1013.03C619.76 1017.39 661.093 1026.45 705.87 1040.72C715.314 1043.72 724.884 1046.92 734.143 1050.01C766.838 1060.93 800.645 1072.22 837.106 1077.54C839.276 1077.86 841.478 1078.15 843.64 1078.42C931.401 1088.97 1025.75 1055.65 1109.29 984.594C1177.08 926.943 1233.67 847.712 1287.4 735.253C1291.53 726.581 1295.81 717.379 1300.1 707.901C1319.09 665.994 1336.08 623.296 1354.06 578.091C1376.82 520.89 1400.35 461.742 1428.5 403.74C1457.39 344.502 1488.45 292.006 1523.47 243.246C1558.95 193.85 1597.5 149.656 1641.34 108.143C1679.24 72.0785 1731 27.7807 1795.36 5.1707C1851.61 -14.4962 1909.83 -18.3371 1966.13 -22.0541C1981.15 -23.0429 1995.33 -23.9817 2009.48 -25.2092C2152.57 -37.6343 2300.21 -45.2866 2460.84 -48.6003L2460.74 -48.2327Z" fill="#00B666"/>
<path d="M2455.41 -47.5986C2294.99 -45.8698 2148.27 -40.3366 2006.86 -30.6762C1992.5 -29.6966 1978.05 -29.0621 1962.75 -28.3943C1907.09 -25.9605 1849.53 -23.4416 1794.06 -3.7818C1729.4 19.2469 1679.67 65.6878 1643.57 103.573C1566.3 184.3 1502.52 280.208 1442.82 405.409C1420.49 452.441 1400.35 500.416 1380.87 546.811C1357.21 603.16 1334.87 656.386 1308.93 708.131C1304.26 717.456 1299.56 726.59 1294.95 735.274C1267.81 786.399 1240.44 829.736 1211.26 867.761C1194.92 889.059 1177.8 908.889 1160.36 926.699C1141.76 945.696 1122.18 963.042 1102.16 978.258C1061.53 1009.13 1018.51 1032.08 974.308 1046.46C926.57 1062 879.049 1066.94 833.062 1061.13C830.893 1060.85 828.699 1060.55 826.539 1060.23C790.716 1054.88 757.097 1044.35 724.589 1034.17C714.746 1031.09 704.572 1027.9 694.525 1024.92C649.026 1011.35 607.456 1002.88 567.437 999.005C562.201 998.498 556.865 998.063 551.584 997.707C455.22 991.247 349.21 1008.77 245.019 1048.38C121.103 1095.67 11.8894 1166.84 -62.5062 1248.79C-142.001 1336.73 -183.593 1465.54 -112.171 1520.3L-112.463 1520.6C-130.33 1506.91 -141.924 1488.41 -146.929 1465.64C-151.501 1444.84 -150.537 1420.88 -144.06 1394.44C-138.039 1369.85 -127.578 1344.24 -112.971 1318.33C-99.0784 1293.68 -81.7185 1269.57 -62.7679 1248.61C-23.6115 1205.48 24.7684 1165.53 81.0273 1129.87C131.701 1097.76 186.862 1070.23 244.978 1048.06C349.23 1008.42 455.302 990.888 551.723 997.349C557.01 997.705 562.346 998.14 567.586 998.646C607.623 1002.52 649.215 1011 694.734 1024.57C704.78 1027.55 714.955 1030.74 724.799 1033.82C757.298 1044 790.903 1054.53 826.707 1059.87C828.863 1060.19 831.054 1060.5 833.221 1060.78C921.602 1071.93 1017.05 1042.53 1101.98 978.006C1173.88 923.373 1236.89 843.954 1294.62 735.202C1299.22 726.521 1303.92 717.392 1308.59 708.066C1334.53 656.335 1356.87 603.117 1380.52 546.775C1400 500.376 1420.15 452.395 1442.48 405.355C1502.2 280.103 1566.01 184.152 1643.32 103.381C1667.58 77.9234 1688.98 58.4307 1710.68 42.0343C1738.42 21.073 1765.68 5.97879 1794.03 -4.11585C1849.56 -23.7999 1907.15 -26.3183 1962.84 -28.7541C1978.14 -29.4244 1992.59 -30.0561 2006.94 -31.0353C2148.37 -40.6964 2295.09 -46.23 2455.51 -47.9568L2455.41 -47.5986Z" fill="#00B666"/>
<path d="M2450.08 -46.9661C2289.86 -46.8417 2144.05 -43.4194 2004.31 -36.5133C1989.85 -35.7982 1975.23 -35.4873 1959.75 -35.1619C1904.6 -33.9931 1847.57 -32.7855 1792.73 -13.0774C1726.86 10.6955 1677.19 62.1481 1645.56 98.7819C1559.53 198.007 1501.85 310.275 1456.79 407.011C1440.63 441.83 1425.17 477.342 1410.21 511.687C1380.21 580.583 1351.87 645.656 1317.41 708.303C1312.34 717.518 1307.21 726.576 1302.16 735.233C1272.83 785.369 1243.01 828.048 1210.99 865.704C1174.68 908.392 1135.6 944.046 1094.82 971.68C1052.92 1000.07 1008.75 1020.74 963.54 1033.11C916.118 1046.1 868.713 1049.59 822.634 1043.49C820.479 1043.2 818.289 1042.88 816.132 1042.56C781.087 1037.21 747.804 1027.46 715.613 1018.02C705.066 1014.93 694.158 1011.74 683.389 1008.76C636.481 995.722 595.853 988.053 555.528 984.615C550.275 984.168 544.927 983.791 539.623 983.494C442.968 978.099 336.926 996.675 232.963 1037.21C108.982 1085.72 0.174508 1157.94 -73.4127 1240.57C-152.473 1329.69 -192.898 1456.25 -123.691 1513.77L-123.988 1514.07C-141.158 1499.8 -152.271 1480.94 -157.021 1458.01C-161.37 1437 -160.346 1412.97 -153.969 1386.58C-148.024 1361.98 -137.722 1336.38 -123.351 1310.49C-109.668 1285.83 -92.4877 1261.59 -73.6744 1240.38C-34.9202 1196.87 13.1575 1156.46 69.2235 1120.27C119.697 1087.69 174.773 1059.63 232.92 1036.88C336.943 996.317 443.044 977.733 539.752 983.137C545.057 983.436 550.411 983.812 555.666 984.258C596.012 987.694 636.659 995.372 683.587 1008.41C694.356 1011.39 705.266 1014.59 715.813 1017.68C747.995 1027.11 781.268 1036.86 816.293 1042.21C818.45 1042.53 820.634 1042.85 822.79 1043.14C912.363 1054.99 1008.91 1029.51 1094.66 971.412C1171.56 919.301 1239.33 842.016 1301.83 735.141C1306.88 726.489 1312.02 717.433 1317.08 708.223C1351.53 645.592 1379.86 580.53 1409.86 511.644C1424.82 477.299 1440.28 441.782 1456.44 406.957C1486.74 341.91 1513.78 289.989 1541.51 243.566C1574.15 188.917 1608.1 141.503 1645.29 98.6106C1667.91 72.4107 1689.15 51.3995 1710.22 34.3778C1737.35 12.4613 1764.32 -3.17232 1792.7 -13.4116C1847.61 -33.1467 1904.67 -34.354 1959.86 -35.5223C1975.33 -35.8501 1989.95 -36.1584 2004.4 -36.8756C2144.15 -43.7848 2289.97 -47.2021 2450.19 -47.3298L2450.08 -46.9661Z" fill="#00B666"/>
<path d="M2444.74 -46.3325C2284.74 -47.8202 2139.84 -46.5168 2001.76 -42.3492C1987.28 -41.9114 1972.57 -41.936 1956.99 -41.9637C1902.27 -42.0549 1845.7 -42.1511 1791.4 -22.3722C1725.01 1.90548 1677.51 55.6634 1647.55 93.9911C1573.42 188.479 1523.62 292.382 1470.75 408.613C1461.24 429.605 1451.75 450.996 1442.58 471.687C1407.29 551.261 1370.81 633.538 1325.88 708.478C1320.42 717.585 1314.86 726.575 1309.35 735.196C1278.26 783.787 1245.07 827.004 1210.69 863.648C1171.75 905.161 1130.29 939.294 1087.46 965.112C1044.44 991.044 999.124 1009.43 952.757 1019.77C905.835 1030.23 858.541 1032.28 812.192 1025.86C810.044 1025.56 807.863 1025.23 805.712 1024.9C771.609 1019.58 738.831 1010.62 707.133 1001.96C695.711 998.843 683.903 995.617 672.241 992.62C624.526 980.307 583.651 973.199 543.604 970.248C538.347 969.861 532.976 969.543 527.648 969.303C430.71 964.95 324.643 984.572 220.905 1026.04C96.8628 1075.77 -11.5335 1149.04 -84.3209 1232.35C-160.18 1319.47 -203.798 1445.43 -135.218 1507.26L-135.521 1507.55C-151.995 1492.7 -162.625 1473.46 -167.12 1450.39C-171.251 1429.17 -170.162 1405.06 -163.888 1378.74C-152.311 1330.17 -123.407 1276.75 -84.5892 1232.17C-46.2383 1188.28 1.53843 1147.4 57.4147 1110.67C107.69 1077.62 162.676 1049.04 220.853 1025.72C324.649 984.22 430.78 964.589 527.774 968.936C533.107 969.176 538.478 969.493 543.741 969.88C583.807 972.835 624.7 979.945 672.431 992.264C684.095 995.263 695.907 998.487 707.328 1001.61C739.019 1010.26 771.79 1019.22 805.875 1024.54C808.023 1024.88 810.202 1025.2 812.35 1025.5C905.08 1038.35 1000.17 1017.36 1087.33 964.824C1168.04 916.172 1242.63 838.882 1309.03 735.091C1314.54 726.473 1320.1 717.49 1325.55 708.389C1370.46 633.475 1406.94 551.208 1442.22 471.65C1451.4 450.958 1460.88 429.567 1470.4 408.573C1493.54 357.694 1520.73 298.801 1550.52 243.731C1581.68 186.125 1613.32 137.1 1647.26 93.8488C1668.58 66.5741 1689.02 44.6165 1709.76 26.7301C1735.9 4.17055 1763.35 -12.4546 1791.36 -22.6959C1815.68 -31.5566 1842.88 -37.2082 1874.51 -39.9722C1902.43 -42.4139 1930.22 -42.3644 1957.1 -42.3194C1972.67 -42.2915 1987.38 -42.2669 2001.85 -42.7043C2139.94 -46.8722 2284.84 -48.176 2444.86 -46.6887L2444.74 -46.3325Z" fill="#00B666"/>
<path d="M2439.41 -45.6983C2279.61 -48.8106 2135.62 -49.6232 1999.21 -48.182C1984.76 -48.0276 1970.02 -48.3965 1954.41 -48.7863C1900.07 -50.1389 1843.88 -51.5402 1790.07 -31.6638C1739.82 -13.0473 1693.85 26.4902 1649.54 89.2062C1587.48 176.774 1545.76 271.588 1501.59 371.975C1496.1 384.476 1490.41 397.397 1484.72 410.222C1482.5 415.248 1480.27 420.281 1478.05 425.309C1435.86 520.822 1392.22 619.585 1334.36 708.655C1328.51 717.661 1322.52 726.578 1316.56 735.157C1283.27 782.996 1247.56 825.531 1210.42 861.577C1168.82 901.94 1124.98 934.562 1080.13 958.53C1036.11 982.051 989.636 998.159 941.999 1006.41C895.826 1014.4 848.649 1015.01 801.772 1008.21C799.632 1007.9 797.458 1007.56 795.312 1007.22C762.395 1001.97 730.384 993.836 699.423 985.976C686.887 982.791 673.919 979.501 661.11 976.454C612.558 964.874 571.439 958.324 531.701 955.85C526.421 955.522 521.038 955.263 515.692 955.082C418.46 951.797 312.359 972.467 208.853 1014.87C84.7546 1065.82 -23.2388 1140.13 -95.2231 1224.12C-169.014 1310.46 -212.147 1436.74 -146.733 1500.73L-147.044 1501.02C-162.821 1485.59 -172.972 1465.99 -177.208 1442.76C-181.117 1421.33 -179.97 1397.15 -173.792 1370.89C-162.385 1322.38 -133.846 1268.83 -95.4907 1223.95C-57.542 1179.68 -10.0694 1138.33 45.6158 1101.07C95.6886 1067.55 150.593 1038.44 208.801 1014.54C312.367 972.118 418.531 951.431 515.808 954.723C521.154 954.904 526.547 955.162 531.827 955.491C571.585 957.968 612.723 964.515 661.292 976.101C674.104 979.145 687.07 982.441 699.61 985.623C730.561 993.483 762.568 1001.61 795.472 1006.86C797.618 1007.2 799.787 1007.54 801.927 1007.85C897.244 1021.67 993.403 1004.51 1080.02 958.223C1165.52 912.534 1245 837.439 1316.25 735.026C1322.21 726.452 1328.19 717.54 1334.04 708.539C1391.89 619.501 1435.51 520.755 1477.7 425.261C1479.92 420.228 1482.14 415.2 1484.37 410.174C1490.06 397.35 1495.74 384.428 1501.24 371.929C1545.42 271.522 1587.15 176.682 1649.24 89.0748C1669.25 60.7403 1688.91 37.8415 1709.3 19.0675C1734.83 -4.42966 1762 -21.6089 1790.03 -31.9976C1814.13 -40.8996 1841.13 -46.3102 1872.58 -48.5379C1900.32 -50.5009 1927.88 -49.8144 1954.54 -49.1506C1970.14 -48.7632 1984.88 -48.3938 1999.32 -48.5479C2135.74 -49.9894 2279.73 -49.1772 2439.53 -46.0625L2439.41 -45.6983Z" fill="#00B666"/>
<path d="M2434.08 -45.0634C2286.95 -49.4425 2139.78 -52.4562 1996.66 -54.0167C1982.12 -54.1326 1967.21 -54.8503 1951.43 -55.608C1900.11 -58.078 1841.94 -60.8748 1788.74 -40.9547C1738.06 -21.9368 1693.17 19.0732 1651.52 84.4196C1601.94 162.047 1568.53 243.326 1533.16 329.379C1522.08 356.326 1510.63 384.196 1498.68 411.828C1477.86 460.101 1454.97 511.887 1428.77 563.513C1400.71 618.803 1372.59 666.337 1342.82 708.837C1336.57 717.766 1330.15 726.61 1323.74 735.124C1288.3 782.221 1250.07 824.05 1210.11 859.449C1165.87 898.633 1119.67 929.761 1072.77 951.961C985.979 992.728 891.287 1005.72 791.329 990.578C789.196 990.254 787.03 989.909 784.891 989.563C753.538 984.447 722.697 977.19 692.871 970.17C678.832 966.867 664.316 963.449 649.961 960.312C600.539 949.467 559.173 943.482 519.78 941.476C514.477 941.207 509.077 941.007 503.719 940.885C406.206 938.644 300.076 960.368 196.799 1003.7C72.639 1055.87 -34.941 1131.23 -106.127 1215.9C-179.691 1303.57 -221.218 1427.32 -158.254 1494.21L-158.573 1494.49C-173.655 1478.47 -183.319 1458.5 -187.303 1435.13C-190.989 1413.48 -189.782 1389.23 -183.708 1363.04C-177.986 1338.36 -168.16 1312.77 -154.506 1286.98C-141.248 1261.95 -125.065 1237.97 -106.404 1215.73C-68.855 1171.08 -21.6833 1129.26 33.8089 1091.46C83.6851 1057.48 138.5 1027.84 196.739 1003.37C300.076 960.017 406.269 938.281 503.834 940.518C509.194 940.643 514.602 940.84 519.905 941.109C559.318 943.119 600.703 949.105 650.142 959.951C664.499 963.091 679.015 966.509 693.056 969.815C722.88 976.832 753.715 984.089 785.056 989.204C787.194 989.555 789.361 989.895 791.491 990.222C891.372 1005.35 985.982 992.374 1072.69 951.644C1161.81 909.456 1248.53 834.536 1323.45 734.979C1329.85 726.471 1336.27 717.629 1342.52 708.708C1409.09 613.688 1455.99 509.925 1498.33 411.788C1510.27 384.156 1521.73 356.291 1532.8 329.344C1568.18 243.273 1601.6 161.976 1651.21 84.3116C1692.92 18.8633 1737.9 -22.2228 1788.7 -41.2859C1812.52 -50.208 1839.26 -55.3657 1870.43 -57.059C1897.91 -58.5515 1925.19 -57.2365 1951.56 -55.9703C1967.34 -55.2125 1982.24 -54.4945 1996.77 -54.3806C2139.9 -52.8203 2287.07 -49.8067 2434.2 -45.4252L2434.08 -45.0634Z" fill="#00B666"/>
<path d="M2428.75 -44.428C2282.57 -50.3009 2136.33 -55.4899 1994.1 -59.8506C1979.77 -60.2682 1965.01 -61.3338 1949.37 -62.4598C1898.25 -66.1473 1840.29 -70.3261 1787.41 -50.2497C1736.27 -30.8167 1692.47 11.6687 1653.5 79.629C1612.65 150.802 1584.13 227.029 1556.55 300.75C1542.72 337.714 1528.42 375.939 1512.64 413.431C1487.75 472.63 1465.32 520.652 1442.05 564.566C1413.36 618.713 1383.67 665.963 1351.29 709.01C1344.65 717.848 1337.8 726.621 1330.94 735.084C1295.2 779.172 1256.74 818.43 1216.54 851.881C1214.31 853.739 1212.08 855.573 1209.83 857.394C1162.89 895.512 1114.3 925.114 1065.42 945.381C1041.8 955.131 1017.26 962.982 992.472 968.711C969.177 974.098 944.942 977.777 920.441 979.648C876.36 983.015 830.709 980.821 780.889 972.938C778.748 972.597 776.608 972.251 774.471 971.894C745.327 967.035 716.334 960.73 688.296 954.632C672.111 951.113 655.375 947.471 638.81 944.155C587.793 933.924 547.406 928.657 507.853 927.091C502.533 926.881 497.115 926.739 491.74 926.676C393.948 925.495 287.79 948.268 184.742 992.523C60.5262 1045.92 -46.6456 1122.33 -117.034 1207.67C-188.559 1294.49 -229.643 1418.55 -169.776 1487.69L-170.101 1487.96C-197.986 1455.76 -206.117 1409.84 -193.617 1355.18C-187.967 1330.47 -178.3 1304.89 -164.886 1279.14C-151.833 1254.08 -135.827 1229.98 -117.31 1207.51C-80.1671 1162.47 -33.2944 1120.19 22.0048 1081.85C71.6826 1047.41 126.413 1017.24 184.677 992.198C287.79 947.916 394.011 925.132 491.863 926.311C497.24 926.378 502.666 926.516 507.986 926.726C547.559 928.296 587.962 933.562 638.995 943.799C655.562 947.118 672.301 950.757 688.483 954.278C716.519 960.375 745.506 966.68 774.644 971.537C776.781 971.893 778.917 972.242 781.056 972.581C886.922 989.332 979.921 980.328 1065.37 945.056C1183.58 896.044 1274.89 803.735 1330.66 734.926C1337.51 726.469 1344.36 717.703 1351 708.868C1425.47 609.861 1476.31 498.954 1512.29 413.395C1528.07 375.911 1542.37 337.689 1556.2 300.73C1583.78 226.993 1612.31 150.748 1653.18 79.5414C1670.62 49.1314 1688.68 24.3428 1708.38 3.76479C1732.69 -21.6128 1759.26 -39.8967 1787.37 -50.5761C1811.05 -59.5671 1837.68 -64.497 1868.77 -65.6504C1896.16 -66.6651 1923.28 -64.7106 1949.52 -62.8177C1965.14 -61.6914 1979.9 -60.6255 1994.23 -60.2101C2136.46 -55.8494 2282.69 -50.6604 2428.88 -44.7902L2428.75 -44.428Z" fill="#00B666"/>
<path d="M2423.41 -43.7936L1991.55 -65.6835C1977.45 -66.3993 1962.86 -67.8072 1947.42 -69.2966C1896.46 -74.2146 1838.69 -79.7861 1786.08 -59.5413C1735.2 -39.9611 1691.26 5.25134 1655.49 74.8441C1621.11 141.746 1597.61 212.218 1574.88 280.372C1560.07 324.797 1544.75 370.732 1526.61 415.039C1472.08 548.21 1412.19 649.893 1338.14 735.045C1307.42 770.368 1274.8 802.425 1240.82 830.698C1230.52 839.268 1220.1 847.484 1209.57 855.343C1159.89 892.409 1108.92 920.49 1058.08 938.805C1010.96 955.777 962.415 964.777 909.69 966.304C867.588 967.525 823.346 964.029 770.461 955.299C742.549 950.693 714.555 945.071 687.483 939.634C626.216 927.333 562.865 914.612 495.946 912.703C393.305 909.778 281.523 933.518 172.683 981.353C48.4163 1035.97 -58.3494 1113.42 -127.94 1199.45C-195.316 1282.74 -240.753 1406.42 -181.299 1481.17L-181.629 1481.43C-208.203 1448.02 -215.776 1401.65 -203.529 1347.33C-192.455 1298.21 -165.71 1245.64 -128.218 1199.29C-91.4745 1153.87 -44.9027 1111.12 10.2003 1072.25C59.6776 1037.34 114.325 1006.65 172.62 981.03C226.475 957.361 281.432 939.46 335.971 927.824C390.964 916.092 444.829 910.88 496.064 912.339C563.008 914.247 626.378 926.969 687.659 939.274C714.729 944.709 742.721 950.328 770.627 954.934C847.789 967.674 950.19 977.312 1058.05 938.463C1181.73 893.91 1278.49 803.156 1337.87 734.866C1411.88 649.76 1471.74 548.12 1526.25 415.002C1544.39 370.713 1559.7 324.78 1574.52 280.363C1597.25 212.196 1620.75 141.706 1655.16 74.7701C1690.99 5.05794 1735.02 -40.2461 1786.03 -59.8748C1809.59 -68.9381 1836.12 -73.6414 1867.15 -74.2488C1894.46 -74.7814 1921.46 -72.1785 1947.56 -69.6598C1963.01 -68.1703 1977.59 -66.7645 1991.69 -66.0483L2423.55 -44.1586L2423.41 -43.7936Z" fill="#00B666"/>
<path d="M2407.04 -59.4737C2292.61 -70.4077 2196.86 -76.8692 2105.71 -79.809C2061.45 -81.253 2016.95 -81.8906 1973.43 -81.7047C1960.27 -81.6492 1946.83 -82.0635 1932.61 -82.5032C1896.87 -83.6107 1859.92 -84.7542 1823.8 -78.3694C1804.39 -74.9562 1787.25 -69.814 1771.41 -62.6498C1722.67 -40.7653 1682.32 5.14377 1651.49 73.8013C1635.51 109.315 1623.45 144.639 1613.76 174.508C1603.5 206.13 1594.7 238.91 1586.19 270.613C1573.96 316.179 1561.31 363.296 1543.82 409.274C1533.21 437.283 1521.32 464.315 1508.48 489.621C1482.79 540.25 1451.63 590.281 1415.86 638.325C1393.7 667.935 1370.07 696.044 1345.62 721.865C1324.54 744.109 1302.44 765.212 1279.93 784.592C1246.24 813.599 1211.11 839.097 1175.53 860.372C1137.69 882.992 1099.05 900.997 1060.68 913.88C1026.47 925.368 991.524 933.064 953.856 937.403C883.684 945.513 818.85 941.325 770.206 936.77C746.259 934.471 722.403 931.657 699.331 928.936C632.894 921.095 570.141 913.691 502.184 917.129C446.899 920.102 389.701 930.56 332.167 948.22C287.953 961.79 242.945 980.25 198.392 1003.08C187.783 1008.53 177.116 1014.24 166.701 1020.08C121.872 1045.22 74.2425 1076.93 25.1375 1114.33C-24.4098 1151.98 -64.2418 1188.21 -96.6219 1225.08C-114.949 1245.89 -131.062 1268.03 -144.524 1290.89C-192.049 1371.59 -201.588 1448.63 -170.041 1496.96L-170.471 1497.27C-178.881 1484.39 -184.502 1469.48 -187.185 1452.97C-189.732 1437.28 -189.648 1420.03 -186.939 1401.71C-181.816 1367.11 -167.289 1328.74 -144.928 1290.77C-131.447 1267.88 -115.307 1245.7 -96.9509 1224.85C-64.5355 1187.95 -24.6728 1151.69 24.9156 1114.01C74.0467 1076.59 121.703 1044.86 166.563 1019.71C176.989 1013.87 187.659 1008.14 198.277 1002.7C242.863 979.846 287.909 961.371 332.158 947.791C389.732 930.119 446.978 919.652 502.294 916.683C570.293 913.242 633.06 920.65 699.519 928.49C722.587 931.214 746.441 934.026 770.383 936.325C819.003 940.879 883.808 945.063 953.937 936.956C991.566 932.622 1026.47 924.936 1060.64 913.46C1135.73 888.245 1209.42 844.792 1279.67 784.305C1302.16 764.941 1324.24 743.851 1345.31 721.626C1369.74 695.822 1393.35 667.734 1415.49 638.148C1451.24 590.133 1482.38 540.133 1508.05 489.535C1520.88 464.247 1532.77 437.231 1543.37 409.244C1560.85 363.293 1573.49 316.186 1585.72 270.635C1594.24 238.927 1603.04 206.14 1613.3 174.505C1623 144.62 1635.07 109.281 1651.05 73.741C1664.78 43.1717 1680.69 16.7121 1698.33 -4.90958C1719.99 -31.4683 1744.55 -51.0306 1771.32 -63.0484C1787.22 -70.2333 1804.4 -75.3911 1823.85 -78.8147C1860.03 -85.2079 1897.01 -84.0635 1932.77 -82.9576C1946.99 -82.5176 1960.42 -82.1032 1973.57 -82.158C2017.1 -82.347 2061.61 -81.7097 2105.87 -80.2637C2197.03 -77.3218 2292.79 -70.8583 2407.23 -59.925L2407.04 -59.4737Z" fill="#00B666"/>
<path d="M2390.66 -75.1587C2279.88 -90.9255 2181.31 -99.2339 2089.31 -100.556C2044.42 -101.237 1999.33 -100.286 1955.31 -97.7286C1943.63 -97.0489 1931.87 -96.6579 1919.41 -96.2407C1882.12 -94.9906 1843.56 -93.6977 1806.85 -84.459C1788.29 -79.8218 1771.9 -73.7077 1756.74 -65.7607C1698.65 -35.3363 1665.27 26.3534 1647.48 72.7514C1634.85 105.586 1625.69 138.441 1616.67 172.008C1608.76 201.39 1602.84 230.853 1596.57 262.042C1587.27 308.337 1577.64 356.208 1561.03 403.503C1551.22 431.632 1539.23 458.876 1525.39 484.477C1499.6 532.168 1467.26 579.453 1426.51 629.037C1403.7 656.785 1379 683.586 1353.09 708.691C1331.21 729.854 1308.44 749.857 1285.4 768.144C1251.12 795.358 1215.38 819.256 1179.14 839.181C1141.09 860.105 1102.1 876.854 1063.26 888.958C1029.24 899.566 993.995 906.929 955.514 911.473C885.66 919.766 819.649 919.451 769.946 918.247C751.547 917.801 733.27 917.156 715.591 916.531C645.186 914.045 578.684 911.693 508.423 921.555C455.912 928.926 401.907 943.149 347.915 963.825C307.063 979.468 266.566 999.418 224.112 1024.81C214.316 1030.67 204.481 1036.79 194.883 1043C152.744 1070.28 110.405 1102.56 59.4337 1141.93C22.6371 1170.24 -24.7952 1208.18 -65.3169 1250.7C-84.5466 1270.79 -101.586 1292.08 -115.97 1313.96C-166.609 1391.01 -182.616 1465.32 -158.789 1512.76L-159.322 1513.1C-165.642 1500.52 -169.279 1486.06 -170.143 1470.11C-170.963 1454.9 -169.267 1438.26 -165.11 1420.64C-157.206 1387.16 -140.376 1350.21 -116.435 1313.78C-102.025 1291.86 -84.9526 1270.54 -65.6909 1250.41C-25.1327 1207.85 22.3374 1169.88 59.157 1141.55C110.145 1102.17 152.497 1069.88 194.664 1042.57C204.27 1036.36 214.112 1030.24 223.918 1024.37C266.413 998.955 306.949 978.986 347.847 963.324C401.893 942.627 455.943 928.392 508.507 921.013C578.819 911.144 645.345 913.492 715.775 915.982C733.45 916.607 751.726 917.252 770.123 917.696C819.811 918.896 885.797 919.213 955.612 910.927C994.051 906.391 1029.26 899.035 1063.24 888.44C1139.6 864.638 1214.25 824.034 1285.11 767.768C1308.13 749.495 1330.88 729.513 1352.74 708.37C1378.63 683.288 1403.31 656.511 1426.09 628.787C1466.81 579.245 1499.13 531.999 1524.89 484.351C1538.72 458.781 1550.69 431.573 1560.49 403.475C1577.08 356.221 1586.7 308.37 1596.01 262.095C1602.28 230.893 1608.2 201.426 1616.11 172.026C1625.14 138.441 1634.3 105.573 1646.94 72.705C1658.47 42.6266 1672.53 16.1908 1688.73 -5.8745C1708.38 -32.6287 1731.21 -52.9352 1756.59 -66.2308C1771.81 -74.2041 1788.26 -80.3416 1806.87 -84.9924C1843.65 -94.2454 1882.24 -95.5378 1919.56 -96.7898C1932.01 -97.2068 1943.77 -97.6029 1955.45 -98.2795C1999.49 -100.838 2044.59 -101.787 2089.5 -101.107C2181.51 -99.7816 2280.1 -91.4742 2390.9 -75.7013L2390.66 -75.1587Z" fill="#00B666"/>
<path d="M2374.28 -90.8396C2265.59 -111.612 2167.02 -121.577 2072.92 -121.3C2027.38 -121.212 1981.72 -118.671 1937.19 -113.749C1927.67 -112.699 1917.77 -111.746 1908.19 -110.823C1868.63 -107.019 1827.72 -103.085 1789.91 -90.5506C1772.14 -84.7025 1756.49 -77.6137 1742.07 -68.8785C1686.75 -35.3528 1657.92 26.0735 1643.47 71.6975C1633.63 102.568 1627.09 133.726 1620.76 163.862L1619.58 169.505C1613.82 196.855 1610.18 224.627 1606.33 254.033C1600.19 300.858 1593.85 349.272 1578.24 397.734C1569.23 426.021 1557.14 453.477 1542.3 479.339C1516.43 524.432 1483.01 569.053 1437.14 619.758C1413.42 645.977 1387.66 671.468 1360.55 695.521C1337.87 715.6 1314.42 734.502 1290.85 751.702C1219.51 803.794 1143.81 841.59 1065.84 864.043C1032.14 873.749 996.59 880.785 957.171 885.544C890.512 893.658 828.001 897 769.691 899.724C761.872 900.091 754.126 900.439 746.439 900.785C666.696 904.385 591.377 907.783 514.677 925.982C464.603 937.862 413.795 955.848 363.668 979.435C326.867 996.753 289.63 1018.7 249.837 1046.53C240.872 1052.81 231.866 1059.33 223.069 1065.91C200.955 1082.5 178.301 1101.05 154.317 1120.69C135.052 1136.47 115.134 1152.78 93.7305 1169.54C52.308 1201.79 5.36361 1238.35 -34.0125 1276.34C-54.3284 1295.95 -72.295 1316.37 -87.4142 1337.04C-141.069 1410.41 -163.542 1482.02 -147.53 1528.58L-148.176 1528.93C-152.399 1516.65 -154.054 1502.63 -153.097 1487.24C-152.183 1472.53 -148.881 1456.49 -143.284 1439.57C-132.578 1407.21 -113.434 1371.67 -87.933 1336.8C-72.7813 1316.08 -54.7782 1295.62 -34.4218 1275.98C4.99484 1237.95 51.964 1201.37 93.4029 1169.1C114.791 1152.36 134.712 1136.05 153.97 1120.28C177.964 1100.62 200.624 1082.06 222.76 1065.47C231.565 1058.88 240.581 1052.35 249.552 1046.07C289.394 1018.2 326.675 996.23 363.529 978.889C413.715 955.273 464.579 937.268 514.708 925.375C591.477 907.159 666.833 903.759 746.609 900.159C754.296 899.813 762.044 899.46 769.861 899.098C828.161 896.374 890.652 893.036 957.291 884.924C996.668 880.168 1032.18 873.142 1065.84 863.446C1143.71 841.024 1219.31 803.274 1290.56 751.251C1314.1 734.07 1337.52 715.188 1360.18 695.131C1387.26 671.101 1413 645.635 1436.7 619.445C1482.52 568.791 1515.9 524.222 1541.73 479.189C1556.54 453.382 1568.6 425.978 1577.6 397.739C1593.19 349.339 1599.53 300.952 1605.66 254.156C1609.52 224.737 1613.16 196.95 1618.92 169.579L1620.1 163.936C1626.44 133.785 1632.98 102.609 1642.83 71.7054C1657.32 25.9355 1686.26 -35.694 1741.85 -69.3763C1756.33 -78.1508 1772.04 -85.2685 1789.88 -91.1359C1827.77 -103.698 1868.72 -107.637 1908.32 -111.444C1917.9 -112.364 1927.8 -113.318 1937.32 -114.367C1981.87 -119.29 2027.56 -121.833 2073.12 -121.92C2167.26 -122.197 2265.87 -112.229 2374.58 -91.4486L2374.28 -90.8396Z" fill="#00B666"/>
<path d="M2357.89 -106.522C2252.8 -131.965 2151.41 -143.918 2056.53 -142.042C2010.35 -141.186 1964.11 -137.057 1919.08 -129.772C1912.58 -128.72 1905.89 -127.678 1899.42 -126.668C1856.68 -120.005 1812.48 -113.116 1772.99 -96.6497C1756.01 -89.6244 1741.1 -81.5637 1727.42 -72.0037C1674.94 -35.3325 1650.63 25.8058 1639.47 70.6393C1632.48 98.4118 1628.43 126.199 1624.52 153.071C1623.85 157.72 1623.17 162.365 1622.48 167.002C1618.69 192.479 1617.15 218.701 1615.51 246.461C1612.73 293.656 1609.85 342.456 1595.45 391.968C1586.99 421.044 1575.14 447.942 1559.21 474.21C1525.9 529.15 1484.19 573.93 1447.78 610.49C1423.16 635.215 1396.32 659.397 1368.01 682.362C1344.54 701.346 1320.41 719.146 1296.31 735.268C1224.86 783.087 1148.19 818.032 1068.43 839.131C1035.24 847.913 999.396 854.614 958.837 859.624C917.9 864.724 879.321 868.958 842.009 873.054C816.651 875.835 792.698 878.464 769.452 881.207C681.582 891.572 602.229 902.43 520.946 930.405C473.335 946.794 425.722 968.539 379.429 995.041C346.249 1014.03 313.247 1037.3 275.567 1068.25C267.445 1074.93 259.266 1081.86 251.262 1088.82C239.118 1099.42 226.813 1110.7 213.791 1122.63C188.799 1145.54 160.468 1171.5 128.026 1197.15C115.67 1206.92 102.967 1216.77 90.6782 1226.29C59.0721 1250.78 26.3912 1276.11 -2.71495 1301.99C-24.0882 1321 -42.9837 1340.56 -58.8685 1360.13C-115.415 1429.79 -144.349 1498.68 -136.274 1544.42L-137.031 1544.74C-139.147 1532.76 -138.818 1519.18 -136.058 1504.37C-133.406 1490.15 -128.497 1474.71 -121.471 1458.5C-107.931 1427.26 -86.4771 1393.14 -59.4277 1359.81C-43.5051 1340.2 -24.5699 1320.59 -3.14767 1301.54C25.9892 1275.63 58.6851 1250.29 90.3075 1225.79C102.593 1216.27 115.296 1206.42 127.649 1196.66C160.062 1171.03 188.372 1145.09 213.351 1122.2C226.379 1110.25 238.688 1098.98 250.844 1088.37C258.858 1081.39 267.044 1074.46 275.176 1067.77C312.905 1036.78 345.96 1013.48 379.194 994.453C425.544 967.92 473.22 946.143 520.892 929.736C557.608 917.098 597.047 906.976 641.46 898.788C681.221 891.457 721.436 886.174 769.588 880.493C792.835 877.752 816.788 875.123 842.149 872.339C879.457 868.244 918.036 864.01 958.963 858.913C999.483 853.909 1035.29 847.215 1068.44 838.445C1148.09 817.376 1224.66 782.48 1296.01 734.728C1320.08 718.625 1344.17 700.847 1367.62 681.885C1395.9 658.947 1422.71 634.791 1447.3 610.093C1483.66 573.582 1525.32 528.86 1558.57 474.017C1574.45 447.822 1586.27 420.994 1594.71 391.995C1609.09 342.567 1611.96 293.805 1614.74 246.648C1616.38 218.87 1617.93 192.635 1621.72 167.131C1622.41 162.493 1623.09 157.851 1623.76 153.205C1627.67 126.315 1631.72 98.5098 1638.72 70.7017C1645.98 41.5335 1656.35 15.1158 1669.53 -7.81538C1685.15 -34.9773 1704.52 -56.7484 1727.1 -72.5226C1740.84 -82.1294 1755.82 -90.23 1772.87 -97.2848C1812.46 -113.795 1856.72 -120.693 1899.51 -127.365C1905.98 -128.375 1912.67 -129.416 1919.17 -130.468C1964.23 -137.758 2010.51 -141.887 2056.73 -142.745C2107.11 -143.74 2159.67 -140.846 2212.94 -134.14C2260.03 -128.213 2308.92 -119.15 2358.26 -107.208L2357.89 -106.522Z" fill="#00B666"/>
<path d="M2341.5 -122.21C2238.51 -152.639 2137.12 -166.292 2040.13 -162.789C1993.32 -161.162 1946.5 -155.445 1900.97 -145.801C1898.81 -145.342 1896.64 -144.884 1894.47 -144.425C1847.12 -134.419 1798.15 -124.072 1756.08 -102.759C1739.78 -94.5016 1725.62 -85.4661 1712.78 -75.1414C1663.27 -35.3089 1643.41 25.5394 1635.47 69.5665C1630.73 95.3992 1628.77 121.026 1626.87 145.807C1626.4 151.935 1625.92 158.272 1625.4 164.48C1623.43 188.129 1623.84 212.809 1624.28 238.939C1625.08 286.469 1625.9 335.615 1612.67 386.188C1605.01 415.446 1593.06 442.556 1576.13 469.071C1542.77 521.305 1499.84 563.452 1458.42 601.215C1432.88 624.499 1404.97 647.372 1375.47 669.197C1351.21 687.081 1326.42 703.776 1301.77 718.826C1230.54 762.353 1152.9 794.448 1071.02 814.21C1038.23 822.126 1003.11 828.316 960.508 833.688C879.621 843.991 820.628 852.929 769.232 862.669C667.009 882.042 594.637 903.616 527.246 934.803C482.128 955.682 437.71 981.189 395.218 1010.62C365.739 1031.04 336.778 1055.5 301.323 1089.94C294.064 1097 286.715 1104.33 279.48 1111.71C272.655 1118.69 265.805 1125.88 258.55 1133.49C231.766 1161.61 201.406 1193.48 162.333 1224.75C141.739 1241.23 120.155 1257.41 99.2831 1273.06C75.5627 1290.84 51.0346 1309.23 28.5869 1327.63C6.08048 1346.08 -13.7439 1364.78 -30.3164 1383.21C-89.6013 1449.13 -125 1515.32 -125.007 1560.27L-125.866 1560.52C-125.867 1548.84 -123.555 1535.7 -118.998 1521.47C-114.6 1507.73 -108.088 1492.91 -99.6435 1477.4C-83.2413 1447.28 -59.4707 1414.57 -30.8986 1382.81C-14.2778 1364.33 5.58834 1345.58 28.147 1327.09C50.6143 1308.67 75.1555 1290.27 98.8877 1272.48C119.753 1256.84 141.327 1240.67 161.905 1224.2C200.908 1192.98 231.235 1161.15 257.991 1133.07C265.247 1125.45 272.105 1118.25 278.932 1111.27C286.176 1103.88 293.532 1096.55 300.796 1089.48C336.307 1054.99 365.315 1030.48 394.86 1010.02C437.411 980.551 481.893 955.007 527.074 934.098C594.557 902.868 667.004 881.271 769.316 861.88C820.731 852.137 879.744 843.195 960.652 832.891C1003.22 827.521 1038.3 821.338 1071.05 813.432C1152.82 793.695 1230.35 761.65 1301.48 718.187C1326.09 703.157 1350.86 686.479 1375.08 668.622C1404.55 646.821 1432.42 623.979 1457.93 600.724C1499.29 563.017 1542.15 520.945 1575.43 468.832C1592.3 442.416 1604.21 415.399 1611.84 386.243C1625.04 335.78 1624.22 286.685 1623.42 239.207C1622.98 213.06 1622.57 188.362 1624.54 164.677C1625.06 158.471 1625.55 152.135 1626.01 146.007C1627.91 121.206 1629.88 95.5611 1634.62 69.6854C1639.8 40.9528 1648.33 14.544 1659.95 -8.80792C1673.57 -36.1619 1691.21 -58.6622 1712.36 -75.6814C1725.27 -86.066 1739.5 -95.1464 1755.88 -103.443C1798.08 -124.826 1847.12 -135.19 1894.54 -145.208C1896.71 -145.667 1898.89 -146.125 1901.05 -146.584C1946.62 -156.238 1993.5 -161.961 2040.36 -163.592C2137.44 -167.095 2238.91 -153.433 2341.96 -122.983L2341.5 -122.21Z" fill="#00B666"/>
<path d="M1474.47 587.446C1472.63 588.971 1470.83 590.471 1469.04 591.942C1442.57 613.829 1413.59 635.396 1382.92 656.033C1357.88 672.809 1332.41 688.403 1307.22 702.384C1271.24 722.371 1233 739.88 1193.58 754.433C1155.5 768.485 1115.14 780.212 1073.6 789.287C1032.9 798.181 992.674 803.829 962.175 807.757C890.879 817.027 825.89 829.267 769.011 844.134C676.889 868.214 602.07 898.418 533.548 939.194C492.21 963.793 450.486 993.341 412.758 1024.73C412.174 1025.22 411.592 1025.7 411.01 1026.19C378.666 1053.24 351.553 1083.23 327.077 1111.62C320.714 1119.02 314.191 1126.74 307.693 1134.58C304.139 1138.88 300.599 1143.22 296.853 1147.8C270.441 1180.15 240.501 1216.82 196.633 1252.35C169.915 1273.99 141.26 1294.45 113.546 1314.23C95.6514 1327.01 77.1512 1340.22 59.8789 1353.27C36.1365 1371.21 15.3929 1389.05 -1.77759 1406.3C-63.6138 1468.42 -105.474 1531.91 -113.757 1576.15L-114.698 1576.27C-110.449 1553.58 -98.0438 1526.67 -77.8316 1496.3C-58.5262 1467.29 -32.4329 1435.99 -2.37215 1405.8C14.8454 1388.5 35.6405 1370.61 59.4391 1352.63C76.7277 1339.57 95.2398 1326.35 113.141 1313.57C140.838 1293.8 169.477 1273.36 196.157 1251.75C239.914 1216.3 269.8 1179.7 296.17 1147.41C299.917 1142.82 303.457 1138.48 307.014 1134.18C313.519 1126.33 320.046 1118.6 326.416 1111.2C350.935 1082.76 378.094 1052.71 410.514 1025.6C448.762 993.614 491.196 963.49 533.241 938.472C568.607 917.43 604.963 899.518 644.382 883.719C682.347 868.504 723.122 855.272 769.036 843.274C825.96 828.394 890.997 816.146 962.338 806.87C992.815 802.949 1033.01 797.305 1073.67 788.419C1157.95 770.004 1236.44 740.808 1306.95 701.646C1332.11 687.684 1357.54 672.11 1382.55 655.359C1413.18 634.747 1442.12 613.213 1468.55 591.353C1509.92 557.148 1556.98 516.271 1592.28 463.645C1610.14 437.009 1622.13 409.81 1628.95 380.495C1640.92 329.01 1636.19 279.653 1631.62 231.915C1629.27 207.36 1627.04 184.167 1627.35 162.23C1627.45 155.202 1627.48 148.023 1627.51 141.081C1627.6 117.623 1627.7 93.3722 1630.51 68.6855C1633.65 40.3712 1640.32 13.9664 1650.35 -9.79135C1661.98 -37.3382 1677.87 -60.5613 1697.6 -78.818C1709.77 -90.0872 1723.27 -100.15 1738.86 -109.583C1780.55 -134.804 1830.79 -149.094 1882.91 -162.685C1928.35 -174.536 1977.13 -182.054 2023.98 -184.424C2075.97 -187.125 2129.47 -184.067 2183 -175.333C2230.7 -167.552 2278.69 -155.242 2325.66 -138.744L2325.11 -137.883C2224.24 -173.314 2122.85 -188.671 2023.75 -183.521C1976.96 -181.155 1928.25 -173.651 1882.88 -161.815C1830.86 -148.248 1780.72 -133.986 1739.18 -108.86C1723.67 -99.4777 1710.25 -89.4702 1698.15 -78.271C1661.92 -44.7221 1638.23 7.40409 1631.46 68.5074C1628.65 93.1485 1628.56 117.379 1628.46 140.814C1628.44 147.759 1628.41 154.943 1628.31 161.971C1628 183.868 1630.22 207.043 1632.57 231.573C1634.82 254.996 1637.14 279.216 1637.41 304.132C1637.71 332.379 1635.26 357.329 1629.89 380.418C1623.04 409.863 1610.99 437.183 1593.04 463.945C1577.22 487.548 1558.08 510.364 1534.55 533.702C1514.62 553.456 1493.32 571.763 1474.47 587.446Z" fill="#00B666"/>
<path d="M1527.83 545.066C1511.18 558.921 1494.58 571.505 1479.66 582.677C1452.22 603.22 1422.18 623.476 1390.36 642.878C1364.56 658.538 1338.42 673.031 1312.66 685.952C1242.15 721.361 1164.79 747.011 1076.17 764.373C1037.52 771.947 999.479 777.151 963.834 781.829C893.531 791.149 827.912 805.874 768.79 825.597C681.839 854.604 609.093 892.09 539.855 943.569C500.405 972.901 461.313 1006.85 426.801 1041.75C397.914 1070.95 374.421 1102.98 352.825 1133.29C347.431 1140.88 341.736 1149.01 335.902 1157.44C334.447 1159.55 332.984 1161.69 331.498 1163.85C307.123 1199.35 279.542 1239.52 233.277 1278.01C232.496 1278.66 231.717 1279.3 230.924 1279.95C199.431 1305.76 164.76 1329.09 131.224 1351.65C117.929 1360.59 104.182 1369.84 91.1518 1378.91C65.7038 1396.63 44.6331 1413.14 26.737 1429.39C-38.352 1488.51 -85.4796 1547.8 -102.55 1592.06L-103.53 1591.99C-95.09 1570.11 -78.6661 1543.54 -56.0409 1515.17C-33.7858 1487.27 -5.36895 1457.39 26.1358 1428.78C44.0822 1412.48 65.2052 1395.93 90.7095 1378.17C103.752 1369.09 117.505 1359.84 130.801 1350.89C164.303 1328.35 198.943 1305.05 230.377 1279.29C277.899 1240.35 305.928 1199.52 330.655 1163.5C332.137 1161.35 333.604 1159.21 335.057 1157.1C340.895 1148.66 346.593 1140.53 351.994 1132.93C373.623 1102.57 397.164 1070.48 426.128 1041.2C460.695 1006.25 499.85 972.241 539.365 942.86C573.676 917.348 608.49 895.55 645.793 876.217C684.211 856.307 724.419 839.443 768.719 824.668C827.916 804.923 893.618 790.177 963.993 780.844C999.625 776.17 1037.64 770.97 1076.26 763.401C1164.76 746.062 1242 720.451 1312.4 685.1C1338.12 672.197 1364.22 657.723 1389.99 642.086C1421.76 622.712 1451.77 602.486 1479.16 581.971C1525.26 547.451 1573.26 509.481 1609.1 458.448C1627.96 431.593 1640.05 404.21 1646.05 374.738C1656.73 322.236 1647.49 270.446 1639.33 224.75C1635.22 201.759 1631.34 180.042 1630.14 159.78C1629.71 152.469 1629.17 144.987 1628.65 137.753C1627.02 115.12 1625.33 91.7177 1626.38 67.6776C1627.51 39.7543 1632.33 13.3536 1640.73 -10.7904C1650.38 -38.5205 1664.53 -62.4694 1682.81 -81.9624C1694.23 -94.148 1706.99 -105.193 1721.81 -115.732C1763.22 -145.17 1814.98 -163.443 1864.74 -178.802C1910.68 -192.987 1960.07 -202.137 2007.58 -205.272C2060.37 -208.829 2114.35 -205.689 2168.01 -195.941C2215.99 -187.222 2263.54 -173.29 2309.33 -154.524L2308.69 -153.592C2211.35 -193.48 2107.15 -211.009 2007.34 -204.285C1959.92 -201.159 1910.62 -192.024 1864.77 -177.868C1815.12 -162.546 1763.5 -144.322 1722.26 -115.008C1707.53 -104.532 1694.85 -93.5548 1683.5 -81.4491C1649.76 -45.455 1629.85 7.4086 1627.44 67.4076C1626.38 91.4002 1628.07 114.778 1629.7 137.388C1630.22 144.625 1630.76 152.106 1631.2 159.424C1632.39 179.642 1636.27 201.337 1640.37 224.305C1648.53 270.073 1657.8 321.947 1647.08 374.623C1641.04 404.258 1628.89 431.792 1609.93 458.8C1593.47 482.234 1573.32 504.638 1548.33 527.288C1541.58 533.426 1534.7 539.352 1527.83 545.066Z" fill="#00B666"/>
<path d="M1562.85 520.302C1562.61 520.501 1562.38 520.696 1562.14 520.895C1538.57 540.432 1513.71 557.553 1490.27 573.417C1461.83 592.668 1430.71 611.609 1397.8 629.722C1371.24 644.265 1344.43 657.654 1318.1 669.519C1248.31 700.998 1172.26 723.222 1078.75 739.458C1045.07 745.308 1010.92 749.851 977.896 754.25C973.765 754.798 969.633 755.351 965.5 755.904C894.965 765.43 828.711 782.641 768.586 807.056C686.254 840.493 613.503 886.574 546.176 947.936C509.26 981.583 473.446 1019.4 442.606 1057.29C418.274 1087.19 399.979 1117.91 378.586 1154.95C374.258 1162.47 369.659 1170.53 364.118 1180.3L363.81 1180.85C353.154 1199.75 341.075 1221.16 325.507 1242.76C307.627 1267.56 287.896 1288.76 265.225 1307.56C229.864 1336.87 189.839 1362.05 151.132 1386.4C141.649 1392.37 131.84 1398.54 122.431 1404.57C95.4518 1421.86 73.4793 1437.54 55.2595 1452.5C-11.8268 1507.59 -65.2654 1564.27 -91.3546 1608L-92.3148 1607.71C-79.5367 1586.28 -59.4489 1560.81 -34.226 1534.05C-8.95676 1507.24 21.7869 1478.78 54.6761 1451.78C72.9481 1436.77 94.9749 1421.05 122.012 1403.72C131.427 1397.69 141.237 1391.52 150.723 1385.55C189.382 1361.23 229.357 1336.08 264.633 1306.84C264.79 1306.71 264.95 1306.58 265.107 1306.45C315.49 1264.53 341.732 1218 362.832 1180.59L363.143 1180.04C368.685 1170.26 373.284 1162.2 377.615 1154.68C399.044 1117.57 417.371 1086.81 441.781 1056.81C472.671 1018.85 508.544 980.976 545.523 947.272C578.471 917.245 611.741 891.558 647.245 868.742C685.504 844.155 725.145 823.655 768.434 806.077C828.675 781.614 895.04 764.371 965.69 754.83C969.823 754.277 973.957 753.727 978.088 753.179C1011.1 748.783 1045.24 744.241 1078.89 738.397C1172.28 722.184 1248.23 699.994 1317.89 668.568C1344.19 656.72 1370.96 643.349 1397.48 628.829C1430.35 610.741 1461.42 591.825 1489.82 572.605C1540.69 538.182 1589.38 503.148 1625.98 453.27C1645.83 426.201 1658 398.637 1663.18 369.006C1672.53 315.479 1658.76 263.546 1646.61 217.722C1640.92 196.27 1635.54 176.005 1632.98 157.353C1631.99 150.176 1630.88 142.828 1629.8 135.722C1626.44 113.503 1622.96 90.53 1622.3 66.6912C1621.43 39.1274 1624.41 12.7284 1631.14 -11.7672C1638.82 -39.689 1651.24 -64.3538 1668.06 -85.0748C1678.48 -97.923 1690.22 -109.719 1703.9 -121.104C1704.2 -121.352 1704.5 -121.599 1704.8 -121.847C1747.48 -157.079 1803 -179.39 1846.6 -194.895C1893.05 -211.408 1943.06 -222.199 1991.22 -226.101C2044.81 -230.515 2099.26 -227.294 2153.05 -216.525C2201.32 -206.86 2248.42 -191.303 2293.05 -170.274L2292.31 -169.271C2225.91 -200.558 2119.72 -235.622 1990.97 -225.018C1942.92 -221.129 1893.03 -210.362 1846.69 -193.889C1803.21 -178.432 1747.86 -156.192 1705.39 -121.128C1691.4 -109.588 1679.47 -97.6392 1668.89 -84.5979C1637.74 -46.2047 1621.6 7.39894 1623.44 66.34C1624.1 90.1237 1627.58 113.072 1630.94 135.266C1632.02 142.375 1633.13 149.727 1634.11 156.907C1636.67 175.512 1642.04 195.752 1647.72 217.179C1659.9 263.085 1673.7 315.116 1664.31 368.852C1659.1 398.681 1646.85 426.43 1626.85 453.681C1609.91 476.775 1588.96 498.578 1562.85 520.302Z" fill="#00B666"/>
<path d="M1591.78 501.912C1586.72 506.129 1581.44 510.319 1575.93 514.494C1551.85 532.765 1526.69 548.41 1500.88 564.152C1470.96 582.402 1439.68 599.547 1405.23 616.564C1377.94 629.981 1350.46 642.268 1323.54 653.081C1255.26 680.538 1180.56 699.491 1081.33 714.535C1056.68 718.273 1031.64 721.521 1007.42 724.662C994.238 726.373 980.607 728.137 967.169 729.967C895.919 739.757 829.042 759.452 768.389 788.503C688.25 826.886 617.634 880.456 552.501 952.28C518.09 990.227 485.555 1031.91 458.413 1072.81C436.611 1105.67 421.477 1138.94 405.454 1174.16L404.347 1176.59C401.849 1182.1 399.33 1187.67 396.779 1193.32C395.311 1196.57 393.833 1199.84 392.34 1203.14C383.065 1223.76 372.813 1245.74 358.562 1267.96C342.015 1293.75 322.708 1315.73 299.533 1335.16C260.947 1367.49 216.008 1393.77 172.547 1419.17C166.343 1422.79 159.926 1426.55 153.716 1430.21C124.597 1447.37 102.38 1461.79 83.7851 1475.59C15.1694 1526.52 -44.5914 1580.58 -80.1771 1623.92L-81.0712 1623.4C-45.3923 1579.94 14.488 1525.77 83.2239 1474.75C101.869 1460.91 124.145 1446.46 153.319 1429.26C159.535 1425.6 165.951 1421.84 172.158 1418.22C215.087 1393.13 259.461 1367.19 297.649 1335.42C298.061 1335.07 298.472 1334.73 298.885 1334.38C348.128 1293.11 370.658 1248.67 391.219 1202.98C392.712 1199.68 394.191 1196.41 395.658 1193.16C398.208 1187.51 400.726 1181.94 403.224 1176.43L404.332 1174C420.382 1138.72 435.541 1105.4 457.415 1072.43C484.603 1031.45 517.196 989.696 551.667 951.683C616.964 879.678 687.771 825.965 768.128 787.478C828.932 758.357 895.964 738.615 967.372 728.802C980.811 726.975 994.443 725.205 1007.63 723.496C1031.84 720.359 1056.87 717.111 1081.5 713.374C1180.62 698.35 1255.22 679.424 1323.38 652.017C1350.26 641.216 1377.7 628.949 1404.95 615.55C1439.35 598.558 1470.59 581.44 1500.46 563.215C1545.81 535.553 1602.25 501.129 1642.83 448.063C1663.69 420.782 1675.95 393.04 1680.3 363.251C1688.26 308.684 1669.73 256.673 1653.39 210.786C1646.29 190.852 1639.58 172.022 1635.8 154.91C1634.33 148.243 1632.73 141.411 1631.18 134.804C1625.98 112.643 1620.61 89.7278 1618.2 65.6911C1615.37 38.4477 1616.49 12.053 1621.54 -12.76C1627.26 -40.8766 1637.94 -66.2576 1653.29 -88.1985C1663.14 -102.28 1674.42 -115.29 1687.77 -127.974C1705.64 -144.962 1726.89 -160.378 1752.71 -175.112C1774.56 -187.577 1799.33 -199.318 1828.45 -211.005C1875.4 -229.853 1926.02 -242.279 1974.83 -246.945C2029.24 -252.221 2084.16 -248.915 2138.07 -237.125C2186.63 -226.509 2233.28 -209.324 2276.75 -186.042L2275.91 -184.975C2184.14 -234.124 2077.13 -255.717 1974.58 -245.774C1925.9 -241.122 1875.43 -228.729 1828.61 -209.936C1765.87 -184.755 1721.36 -158.496 1688.5 -127.281C1675.24 -114.682 1664.05 -101.763 1654.26 -87.7806C1617.75 -35.5824 1615.17 24.2467 1619.43 65.2414C1621.84 89.2182 1627.2 112.106 1632.39 134.24C1633.94 140.852 1635.54 147.687 1637.02 154.356C1640.79 171.416 1647.49 190.223 1654.58 210.133C1670.96 256.119 1689.53 308.239 1681.53 363.055C1677.14 393.08 1664.79 421.044 1643.76 448.544C1629.51 467.182 1612.4 484.764 1591.78 501.912Z" fill="#00B666"/>
<path d="M1617.63 486.921C1583.09 515.656 1544.5 536.802 1511.48 554.895C1480.42 571.917 1448.09 587.786 1412.66 603.413C1384.65 615.703 1356.49 626.888 1328.97 636.652C1246.48 665.948 1162.43 679.426 1083.9 689.622C1067.86 691.705 1051.55 693.672 1035.77 695.572C1013.87 698.209 991.224 700.939 968.835 704.04C896.642 714.125 829.136 736.3 768.195 769.945C689.362 813.472 620.873 874.534 558.818 956.621C526.867 998.885 497.612 1044.43 474.215 1088.33C456.167 1122.2 444.755 1155.48 432.674 1190.72C431.817 1193.22 430.961 1195.72 430.094 1198.24L429.627 1199.6C426.694 1208.17 423.659 1217.03 420.551 1225.98C413.138 1247.45 404.471 1270.49 391.39 1293.47C376.205 1320.14 357.38 1342.8 333.832 1362.76C292.5 1397.79 242.94 1424.56 195.016 1450.44C191.656 1452.25 188.312 1454.06 184.987 1455.86C153.407 1472.96 130.987 1486.17 112.294 1498.7C42.8268 1545.25 -23.2628 1596.7 -69.0286 1639.86L-69.819 1639.11C-23.9807 1595.88 42.2055 1544.35 111.766 1497.74C130.512 1485.17 152.98 1471.93 184.617 1454.8C187.942 1453 191.286 1451.2 194.651 1449.38C242.483 1423.55 291.944 1396.83 333.121 1361.94C384.258 1318.6 404.41 1269.02 419.284 1225.94C422.392 1217 425.426 1208.14 428.362 1199.57L428.829 1198.2C429.693 1195.69 430.552 1193.19 431.409 1190.69C443.511 1155.39 454.942 1122.04 473.049 1088.07C496.49 1044.09 525.802 998.456 557.808 956.118C587.229 917.202 617.432 883.736 650.139 853.812C686.626 820.433 726.215 791.866 767.812 768.9C828.945 735.147 896.649 712.905 969.043 702.789C991.447 699.685 1014.1 696.955 1036.01 694.317C1051.78 692.417 1068.08 690.453 1084.11 688.37C1162.57 678.182 1246.52 664.726 1328.85 635.482C1356.34 625.73 1384.46 614.563 1412.43 602.291C1447.81 586.687 1480.08 570.843 1511.1 553.847C1558.73 527.75 1618 495.272 1659.67 442.883C1681.54 415.39 1693.88 387.469 1697.4 357.522C1703.93 301.893 1680.42 249.88 1659.67 203.987C1651.34 185.547 1643.47 168.132 1638.61 152.492C1636.82 146.706 1634.91 140.772 1633.06 135.033C1625.84 112.581 1618.38 89.3608 1614.08 64.7153C1609.29 37.7616 1608.56 11.3668 1611.91 -13.7302C1615.68 -42.0474 1624.63 -68.1444 1638.51 -91.2973C1647.52 -106.333 1658.05 -120.322 1670.72 -134.075C1687.78 -152.6 1709.14 -170.23 1734.22 -186.476C1756.18 -200.703 1781.77 -214.368 1810.27 -227.089C1857.73 -248.267 1908.97 -262.335 1958.43 -267.77C2013.65 -273.906 2069.04 -270.521 2123.09 -257.708C2171.91 -246.133 2218.12 -227.32 2260.44 -201.792L2259.5 -200.666C2169.84 -254.76 2062.84 -278.146 1958.18 -266.514C1908.88 -261.094 1857.81 -247.075 1810.51 -225.969C1749.2 -198.609 1703.76 -168.338 1671.61 -133.424C1659.04 -119.772 1648.58 -105.88 1639.63 -90.9539C1606.62 -35.8674 1608.23 23.801 1615.41 64.1596C1619.69 88.7432 1627.14 111.931 1634.35 134.353C1636.2 140.093 1638.11 146.032 1639.91 151.822C1644.75 167.411 1652.61 184.804 1660.93 203.22C1670.91 225.299 1682.22 250.321 1689.94 276.183C1698.78 305.814 1701.66 332.34 1698.73 357.274C1697.04 371.693 1693.19 385.97 1687.28 399.711C1680.93 414.49 1671.98 429.198 1660.66 443.426C1647.71 459.707 1633.07 474.074 1617.63 486.921Z" fill="#00B666"/>
<path d="M1641.55 474.163C1630.14 483.662 1617.5 492.804 1603.52 501.698C1575.98 519.215 1547.34 533.249 1522.08 545.636C1490.24 561.246 1455.92 576.261 1420.08 590.259C1391.37 601.418 1362.54 611.501 1334.39 620.218C1253.61 645.266 1174.32 655.184 1086.46 664.705C1078.66 665.551 1070.71 666.396 1063.03 667.209C1032.8 670.419 1001.53 673.738 970.499 678.111C897.229 688.508 829.1 713.162 768.002 751.389C690.932 799.606 622.673 870.117 565.133 960.959C535.606 1007.57 509.627 1056.98 490.009 1103.85C475.238 1139.13 467.101 1173.02 458.488 1208.89C457.613 1212.54 456.733 1216.19 455.846 1219.87C453.641 1229.02 451.253 1238.87 448.761 1248.81C443.563 1269.68 436.583 1294.34 424.216 1318.97C410.374 1346.54 392.029 1369.89 368.136 1390.36C324.4 1427.82 270.436 1454.61 218.248 1480.52L216.261 1481.5C190.711 1494.19 163.883 1507.85 140.807 1521.79C70.4714 1564.29 -0.0914581 1611.87 -57.8777 1655.77L-58.5446 1654.81C-0.69759 1610.87 69.928 1563.24 140.327 1520.71C163.47 1506.73 190.343 1493.04 215.932 1480.34L217.918 1479.35C269.992 1453.5 323.842 1426.76 367.367 1389.48C417.633 1346.42 435.523 1296.47 447.366 1248.89C449.86 1238.95 452.241 1229.12 454.448 1219.96C455.337 1216.29 456.216 1212.63 457.092 1208.99C465.721 1173.05 473.873 1139.11 488.691 1103.71C508.345 1056.75 534.373 1007.25 563.955 960.546C590.953 917.928 620.444 879.502 651.606 846.344C687.212 808.46 726.202 776.15 767.494 750.314C828.825 711.942 897.202 687.194 970.721 676.764C1001.78 672.389 1033.06 669.067 1063.31 665.856C1070.99 665.04 1078.93 664.196 1086.74 663.35C1174.51 653.839 1253.72 643.932 1334.35 618.93C1362.46 610.223 1391.25 600.156 1419.92 589.014C1455.7 575.034 1489.97 560.046 1521.76 544.458C1571.61 520.026 1633.64 489.615 1676.54 437.678C1699.42 409.975 1711.85 381.879 1714.53 351.776C1719.57 295.059 1689.58 240.848 1665.49 197.286C1656.1 180.318 1647.23 164.294 1641.45 150.061C1639.62 145.575 1637.72 140.971 1635.88 136.519C1626.31 113.392 1616.42 89.4729 1610 63.7243C1599.91 23.7414 1594.1 -36.1463 1623.75 -94.4013C1631.94 -110.487 1641.74 -125.464 1653.7 -140.184C1684.9 -178.803 1731.48 -213.459 1792.12 -243.187C1840.09 -266.697 1891.93 -282.405 1942.06 -288.61C1998.08 -295.608 2053.95 -292.143 2108.13 -278.303C2132.98 -271.957 2157.38 -263.404 2180.68 -252.888C2202.93 -242.843 2224.28 -230.953 2244.15 -217.552L2243.11 -216.368C2155.58 -275.427 2048.57 -300.606 1941.81 -287.266C1891.87 -281.083 1840.22 -265.435 1792.44 -242.017C1732.07 -212.43 1685.74 -177.965 1654.73 -139.589C1642.86 -124.977 1633.14 -110.116 1625.01 -94.1498C1595.56 -36.2965 1601.36 23.2706 1611.4 63.0557C1617.8 88.7403 1627.68 112.623 1637.24 135.722C1639.08 140.175 1640.98 144.778 1642.81 149.269C1648.57 163.454 1657.42 179.459 1666.8 196.4C1678.92 218.32 1692.67 243.163 1702.51 269.217C1713.81 299.154 1718.21 326.062 1715.95 351.477C1714.66 365.976 1711 380.346 1705.07 394.182C1698.68 409.089 1689.43 423.931 1677.56 438.288C1667.15 450.894 1655.23 462.788 1641.55 474.163Z" fill="#00B666"/>
<path d="M1664.08 462.971C1650.39 474.356 1634.89 485.068 1617.31 495.296C1588.83 511.873 1559 524.889 1532.67 536.372C1499.53 550.83 1464.15 564.533 1427.51 577.099C1398.11 587.132 1368.61 596.11 1339.82 603.78C1260.61 624.906 1183.19 631.618 1101.22 638.728C1097.16 639.08 1093.1 639.43 1089.04 639.785C1050.93 643.11 1011.54 646.545 972.171 652.179C897.743 662.898 828.989 690.029 767.819 732.819C690.982 786.565 624.915 864.779 571.445 965.288C544.699 1015.56 521.388 1070.28 505.804 1119.36C494.036 1156.41 488.931 1191.34 483.527 1228.32C482.886 1232.7 482.245 1237.09 481.589 1241.5C480.284 1250.32 478.716 1260.8 476.967 1271.64C473.748 1291.74 468.577 1318.18 457.02 1344.45C444.502 1372.9 426.652 1396.95 402.444 1417.96C382.502 1435.18 358.258 1451.48 328.32 1467.82C302.617 1481.84 276.525 1493.93 247.529 1507.16C221.001 1519.16 193.115 1531.96 169.307 1544.9C98.783 1583.23 26.0966 1625.89 -46.7342 1671.68L-47.2788 1670.55C25.5932 1624.73 98.3234 1582.05 168.884 1543.7C192.758 1530.72 220.684 1517.9 247.243 1505.88C295.846 1483.71 356.34 1456.13 401.614 1417.04C453.263 1372.21 467.627 1320.77 475.452 1271.86C477.202 1261.03 478.769 1250.56 480.072 1241.74C480.729 1237.33 481.37 1232.94 482.009 1228.56C487.423 1191.52 492.539 1156.53 504.345 1119.35C519.961 1070.18 543.317 1015.36 570.116 964.986C623.748 864.173 690.053 785.7 767.181 731.747C796.754 711.062 828.384 693.846 861.185 680.582C896.38 666.348 933.803 656.314 972.409 650.75C1011.82 645.109 1051.24 641.67 1089.37 638.346C1093.43 637.993 1097.49 637.638 1101.55 637.286C1183.44 630.186 1260.8 623.476 1339.85 602.392C1368.6 594.732 1398.06 585.77 1427.41 575.749C1464 563.199 1499.33 549.519 1532.42 535.082C1584.43 512.393 1649.16 484.154 1693.4 432.488C1717.37 404.501 1729.88 376.223 1731.65 346.047C1735.28 288.193 1699.55 234.162 1670.84 190.747C1660.57 175.218 1650.87 160.552 1644.28 147.647C1642.93 144.984 1641.56 142.31 1640.18 139.623C1627.73 115.351 1614.86 90.2493 1605.91 62.748C1592.95 23.2683 1582.96 -36.5778 1608.99 -97.4905C1616.25 -114.483 1625.31 -130.44 1636.67 -146.277C1652.42 -168.336 1672.81 -189.51 1697.27 -209.211C1719.59 -227.199 1745.4 -244.041 1773.96 -259.27C1822.42 -285.111 1874.88 -302.459 1925.67 -309.436C1982.5 -317.301 2038.85 -313.751 2093.15 -298.888C2118.07 -292.069 2142.4 -282.856 2165.46 -271.504C2187.55 -260.633 2208.54 -247.78 2227.85 -233.296L2226.7 -232.063C2142.55 -295.176 2032.73 -322.856 1925.43 -308.008C1874.85 -301.057 1822.62 -283.785 1774.36 -258.058C1714.87 -226.337 1667.66 -187.499 1637.85 -145.744C1626.57 -130.028 1617.59 -114.194 1610.39 -97.3325C1584.54 -36.8404 1594.49 22.6866 1607.38 61.9696C1616.31 89.397 1629.16 114.462 1641.59 138.703C1642.97 141.389 1644.34 144.066 1645.7 146.729C1652.26 159.588 1661.95 174.235 1672.2 189.739C1700.99 233.28 1736.83 287.467 1733.17 345.692C1732.32 360.238 1728.86 374.699 1722.88 388.663C1716.46 403.688 1706.9 418.662 1694.47 433.171C1685.5 443.64 1675.42 453.537 1664.08 462.971Z" fill="#00B666"/>
<path d="M1685.62 452.907C1670.03 465.879 1651.98 477.782 1631.1 488.897C1601.56 504.622 1570.58 516.573 1543.26 527.115C1508.73 540.438 1472.28 552.829 1434.92 563.948C1404.86 572.859 1374.69 580.73 1345.23 587.352C1272.72 603.666 1202.73 607.974 1128.63 612.535C1116.51 613.28 1103.99 614.053 1091.6 614.87C1048.07 617.753 1011.38 620.792 973.832 626.254C898.192 637.303 828.816 666.909 767.626 714.251C690.737 773.739 626.849 859.66 577.74 969.623C553.345 1024.25 533.397 1082.94 521.576 1134.87C512.67 1173.99 510.492 1210.33 508.187 1248.79C507.901 1253.56 507.614 1258.34 507.312 1263.14C506.782 1271.69 506.056 1282.99 505.152 1294.47C501.399 1342.82 490.336 1398.58 436.734 1445.56C435.06 1447.02 433.361 1448.47 431.65 1449.89C388.88 1485.48 334.931 1509.45 278.778 1532.81L275.267 1534.26C247.403 1545.78 221.083 1556.65 197.791 1568.01C110.016 1610.81 26.9543 1654.39 -35.6016 1687.59L-36.0309 1686.29C26.5421 1653.09 109.625 1609.49 197.433 1566.68C220.786 1555.3 247.137 1544.41 275.037 1532.88L278.545 1531.43C336.754 1507.21 392.594 1482.34 435.844 1444.59C488.851 1398.13 499.805 1342.81 503.533 1294.82C504.438 1283.36 505.161 1272.07 505.693 1263.52C505.993 1258.72 506.279 1253.94 506.564 1249.17C508.875 1210.65 511.054 1174.25 519.989 1135.01C531.832 1082.97 551.82 1024.16 576.262 969.428C598.949 918.625 625.294 872.192 654.559 831.416C688.137 784.63 725.92 744.851 766.848 713.183C828.354 665.595 898.078 635.837 974.072 624.735C1011.68 619.268 1048.4 616.226 1091.97 613.338C1104.36 612.518 1116.89 611.747 1129.01 611C1203.04 606.444 1272.96 602.14 1345.33 585.855C1374.74 579.245 1404.87 571.385 1434.89 562.487C1472.19 551.386 1508.59 539.014 1543.07 525.709C1597.2 504.826 1664.56 478.834 1710.25 427.293C1735.22 399.119 1747.82 370.668 1748.75 340.316C1750.77 281.306 1709.09 227.512 1675.59 184.287C1664.67 170.183 1654.34 156.859 1647.1 145.228L1646.94 144.962C1630.73 118.913 1613.97 91.9763 1601.8 61.77C1591.14 35.4619 1584.83 9.08419 1583.04 -16.6311C1581.02 -45.6257 1584.78 -73.8692 1594.21 -100.582C1600.52 -118.453 1608.83 -135.394 1619.61 -152.37C1648.69 -198.308 1695.78 -240.838 1755.78 -275.358C1779.93 -289.251 1805.36 -301.018 1831.37 -310.342C1857.53 -319.719 1883.74 -326.422 1909.27 -330.271C1966.91 -339.003 2023.74 -335.373 2078.17 -319.479C2127.1 -305.194 2173.22 -280.838 2211.55 -249.048L2210.29 -247.768C2128.25 -315.811 2018.45 -345.33 1909.03 -328.755C1857.84 -321.036 1805.02 -302.139 1756.29 -274.102C1696.62 -239.777 1649.83 -197.524 1620.96 -151.905C1610.26 -135.061 1602.02 -118.257 1595.75 -100.524C1578.14 -50.6502 1580.77 5.16122 1603.35 60.8785C1615.49 91.0066 1632.23 117.904 1648.41 143.918L1648.58 144.183C1655.79 155.774 1666.1 169.078 1677.01 183.163C1710.6 226.522 1752.41 280.479 1750.38 339.905C1749.93 354.538 1746.66 369.092 1740.66 383.153C1734.19 398.316 1724.33 413.42 1711.37 428.056C1703.64 436.769 1695.08 445.035 1685.62 452.907Z" fill="#00B666"/>
<path d="M465.422 1477.98C446.297 1493.89 423.206 1508.5 395.079 1522.49C367.131 1536.41 337.694 1548 310.044 1558.46C305.032 1560.35 300.05 1562.21 295.103 1564.07C270.476 1573.28 247.214 1581.99 226.288 1591.11C142.854 1627.47 64.2098 1663.2 -11.8439 1697.75L-24.4465 1703.47L-24.7658 1702.04L-12.1631 1696.31C63.8978 1661.76 142.552 1626.03 226.003 1589.66C246.985 1580.52 270.275 1571.8 294.933 1562.57C299.877 1560.72 304.858 1558.86 309.866 1556.97C366.623 1535.5 425.743 1511.26 470.092 1472.14C524.54 1423.97 531.58 1364.34 531.631 1317.78C531.654 1305.87 531.482 1294.16 531.329 1285.28C531.249 1280.39 531.154 1275.51 531.059 1270.65C530.278 1230.32 529.54 1192.23 535.653 1150.65C543.727 1095.76 560.336 1032.98 582.432 973.861C602.929 919.013 627.684 868.556 656.013 823.89C688.505 772.657 725.689 729.163 766.53 694.614C827.847 642.462 898.249 610.19 975.753 598.711C1018.73 592.369 1059.95 589.901 1094.6 588.321C1113.46 587.463 1132.5 586.825 1150.91 586.206C1216.09 584.02 1283.49 581.756 1350.83 569.312C1380.92 563.756 1411.72 556.995 1442.39 549.219C1480.31 539.567 1517.77 528.503 1553.74 516.329C1609.95 497.3 1679.9 473.62 1727.11 422.092C1753.1 393.732 1765.77 365.107 1765.87 334.58C1766.21 274.368 1718.31 220.894 1679.83 177.93C1668.45 165.223 1657.7 153.223 1649.95 142.803C1632.48 119.318 1612.61 91.6735 1597.72 60.7829C1585.08 34.6329 1576.9 8.26267 1573.41 -17.5939C1569.47 -46.843 1571.51 -75.8053 1579.45 -103.676C1584.72 -122.145 1592.51 -140.579 1602.59 -158.466C1616.95 -184.018 1636.37 -208.724 1660.31 -231.902C1682.73 -253.608 1708.74 -273.641 1737.61 -291.446C1761.97 -306.462 1787.67 -319.218 1814.01 -329.359C1840.51 -339.563 1867.05 -346.882 1892.88 -351.109C1922.65 -355.997 1952.58 -357.42 1981.83 -355.337C2009.54 -353.364 2036.92 -348.228 2063.21 -340.075C2112.38 -324.822 2158.05 -298.791 2195.26 -264.801L2193.89 -263.476C2113.98 -336.466 2004.18 -367.821 1892.66 -349.506C1841.56 -341.14 1786.71 -320.066 1738.21 -290.158C1678.23 -253.178 1631.85 -207.506 1604.06 -158.08C1594.06 -140.336 1586.34 -122.049 1581.11 -103.726C1566.13 -51.2102 1572.26 3.79968 1599.33 59.7749C1614.17 90.5856 1634.01 118.18 1651.45 141.626C1659.17 152.007 1669.91 163.991 1681.27 176.679C1700.26 197.876 1721.78 221.902 1738.68 248.378C1758.28 279.1 1767.74 307.139 1767.59 334.097C1767.54 348.815 1764.46 363.462 1758.44 377.625C1751.94 392.924 1741.78 408.165 1728.26 422.921C1721.44 430.367 1714.15 437.235 1706.51 443.59C1660.77 481.65 1602.24 501.461 1553.84 517.844C1517.82 530.034 1480.31 541.116 1442.33 550.779C1411.62 558.568 1380.77 565.337 1350.65 570.9C1283.16 583.371 1215.69 585.636 1150.45 587.826C1132.04 588.445 1113.01 589.083 1094.16 589.941C1059.56 591.515 1018.4 593.979 975.498 600.311C898.41 611.726 828.42 643.808 767.442 695.663C671.472 776.849 614.734 891.804 584.038 973.945C561.988 1032.95 545.409 1095.6 537.356 1150.37C531.261 1191.83 531.996 1229.86 532.774 1270.13C532.869 1274.99 532.961 1279.87 533.043 1284.77C533.194 1293.64 533.367 1305.36 533.347 1317.29C533.326 1336.83 532.196 1366.2 522.665 1395.43C518.036 1409.63 511.694 1423.04 503.817 1435.29C495.033 1448.94 484.004 1461.69 471.041 1473.15C469.206 1474.78 467.333 1476.39 465.422 1477.98Z" fill="#00B666"/>
<path d="M499.183 1506.07C480.035 1522 456.813 1536.36 428.456 1549.83C399.099 1563.78 367.924 1574.99 341.302 1584.11C333.118 1586.91 324.92 1589.66 316.989 1592.32C294.822 1599.77 273.88 1606.8 254.781 1614.21C186.192 1640.81 118.307 1667.54 52.6532 1693.4C30.9367 1701.95 8.4833 1710.8 -13.289 1719.35L-13.508 1717.79C8.26435 1709.23 30.7177 1700.39 52.4342 1691.84C118.088 1665.98 185.981 1639.24 254.576 1612.64C273.726 1605.22 294.691 1598.17 316.886 1590.72C324.813 1588.06 333.01 1585.3 341.187 1582.51C396.396 1563.59 459.087 1540.03 504.333 1499.69C559.846 1450.12 563.095 1388.71 559.728 1340.74C558.87 1328.45 557.802 1316.28 556.967 1307.05C556.54 1302.31 556.102 1297.59 555.667 1292.88C551.742 1250.48 548.035 1210.44 551.325 1166.29C555.604 1108.87 568.846 1042.1 588.604 978.299C616.26 889.615 669.525 765.19 766.216 676.056C827.634 619.283 898.702 584.505 977.442 572.697C1012.82 567.398 1049.77 564.505 1097.24 563.319C1121.23 562.718 1145.45 562.627 1168.87 562.536C1229.82 562.301 1292.83 562.062 1356.35 552.783C1387.12 548.29 1418.59 542.632 1449.89 535.965C1487.79 527.878 1526.32 518.12 1564.41 506.966C1622.83 489.72 1695.54 468.26 1743.98 416.911C1770.6 388.831 1783.73 359.208 1783 328.865C1781.59 267.393 1724.9 212.079 1683.5 171.694C1671.88 160.36 1660.91 149.656 1652.81 140.399C1634.79 119.831 1611.78 92.086 1593.65 59.8171C1562.19 3.92898 1552.46 -52.1148 1564.71 -106.753C1568.97 -125.95 1575.99 -145.396 1585.58 -164.544C1599.2 -191.796 1618.14 -218.259 1641.88 -243.199C1664.24 -266.694 1690.34 -288.332 1719.46 -307.515C1744.07 -323.647 1770.05 -337.378 1796.68 -348.332C1823.56 -359.391 1850.42 -367.33 1876.51 -371.932C1906.67 -377.259 1936.92 -378.877 1966.43 -376.735C1994.4 -374.706 2021.92 -369.295 2048.25 -360.653C2097.68 -344.424 2142.88 -316.719 2178.99 -280.535L2177.5 -279.173C2099.73 -357.128 1989.94 -390.322 1876.3 -370.245C1824.76 -361.154 1769.31 -338.41 1720.16 -306.202C1659.68 -266.355 1613.7 -217.268 1587.19 -164.24C1577.68 -145.247 1570.72 -125.961 1566.5 -106.916C1554.32 -52.6396 1564.02 3.07558 1595.32 58.6873C1613.4 90.8691 1636.36 118.557 1654.35 139.087C1662.43 148.308 1673.38 159 1684.98 170.32C1706.38 191.196 1730.64 214.861 1750.14 241.438C1772.84 272.388 1784.19 300.804 1784.82 328.315C1785.17 343.139 1782.3 357.881 1776.26 372.138C1769.71 387.594 1759.25 402.962 1745.17 417.817C1723.38 440.914 1695.11 459.976 1658.73 476.092C1627.1 490.1 1593.81 499.928 1564.45 508.598C1526.3 519.771 1487.71 529.54 1449.76 537.64C1418.41 544.317 1386.89 549.984 1356.08 554.484C1292.44 563.784 1229.35 564.025 1168.35 564.259C1144.93 564.347 1120.71 564.442 1096.75 565.041C1049.36 566.228 1012.49 569.116 977.186 574.402C898.908 586.133 828.287 620.685 767.259 677.097C670.986 765.851 617.908 889.874 590.334 978.292C570.613 1041.97 557.398 1108.59 553.129 1165.89C549.847 1209.92 553.551 1249.91 557.471 1292.23C557.908 1296.95 558.346 1301.68 558.773 1306.41C559.609 1315.65 560.679 1327.83 561.537 1340.13C564.937 1388.52 561.623 1450.52 505.344 1500.77C503.34 1502.55 501.283 1504.32 499.183 1506.07Z" fill="#00B666"/>
<path d="M533.07 1534.06C480.75 1577.59 406.333 1599.8 340.361 1619.49C320.089 1625.54 300.94 1631.25 283.27 1637.31L-2.1323 1735.24L-2.25676 1733.55L283.145 1635.63C300.862 1629.55 320.033 1623.83 340.332 1617.77C408.854 1597.32 486.521 1574.14 538.575 1527.24C595.097 1476.32 594.586 1413.1 587.829 1363.7C585.619 1347.55 583.025 1331.4 580.518 1315.78C573.663 1273.06 566.572 1228.88 566.987 1181.93C567.318 1144.65 571.249 1102.58 578.358 1060.25C586.155 1013.82 597.514 967.718 612.112 923.242C628.209 874.205 647.9 828.336 670.634 786.917C695.782 741.105 724.622 700.86 756.359 667.292C819.938 600.05 894.882 559.468 979.108 546.682C1049.1 536.053 1117.64 537.897 1183.92 539.68C1241.62 541.232 1301.28 542.836 1361.84 536.248C1431.79 528.637 1503.53 515.632 1575.07 497.59C1635.35 482.39 1710.37 463.475 1760.84 411.708C1803.46 367.99 1811.48 322.725 1785.34 273.331C1763.1 231.316 1720.66 194.846 1686.56 165.541C1674.93 155.556 1663.96 146.122 1655.65 137.98C1609.83 93.1008 1579.34 49.9543 1562.43 6.08056C1551.88 -21.2939 1546.69 -49.2069 1547.02 -76.8813C1547.38 -107.794 1554.62 -139.338 1568.54 -170.635C1580.58 -197.711 1597.51 -224.185 1618.86 -249.328C1639.19 -273.261 1663.07 -295.482 1689.84 -315.372C1742.49 -354.491 1802.95 -381.977 1860.1 -392.763C1890.65 -398.532 1921.24 -400.341 1951.01 -398.143C1979.22 -396.059 2006.9 -390.374 2033.27 -381.24C2082.94 -364.032 2127.69 -334.652 2162.67 -296.276L2161.07 -294.877C2086.57 -376.595 1973.98 -412.526 1859.9 -390.986C1738.75 -368.115 1616.94 -275.346 1570.27 -170.4C1524.04 -66.441 1552.47 33.961 1657.2 136.542C1665.48 144.657 1676.44 154.077 1688.05 164.051C1722.23 193.418 1764.77 229.965 1787.1 272.172C1799.26 295.162 1804.08 317.767 1801.41 339.359C1799.91 351.501 1796.02 363.639 1789.84 375.434C1783.27 387.988 1773.92 400.525 1762.05 412.701C1757.2 417.677 1752.03 422.453 1746.53 427.026C1726.5 443.691 1702.09 457.744 1672.48 469.701C1639.12 483.171 1603.57 492.135 1575 499.339C1503.36 517.403 1431.52 530.428 1361.47 538.051C1300.77 544.657 1241.05 543.048 1183.29 541.495C1117.1 539.714 1048.64 537.872 978.826 548.475C895.167 561.179 820.734 601.478 757.594 668.258C629.873 803.341 570.244 1028.96 568.889 1181.42C568.472 1228.24 575.553 1272.35 582.399 1315.02C584.906 1330.64 587.503 1346.8 589.715 1362.97C594.2 1395.77 593.753 1422.29 588.304 1446.44C584.901 1461.52 579.425 1475.73 572.026 1488.67C563.797 1503.07 552.904 1516.43 539.644 1528.38C537.499 1530.3 535.304 1532.2 533.07 1534.06Z" fill="#00B666"/>
</g>
</svg>
