<svg width="193" height="193" viewBox="0 0 193 193" fill="none" xmlns="http://www.w3.org/2000/svg">
<path d="M88.1392 131.06L97.272 121.927C99.1144 120.085 101.901 119.518 104.294 120.56C113.438 124.562 123.738 126.318 134.562 125.265C162.983 122.516 186.063 99.6521 189.098 71.2684C193.251 32.3211 160.677 -0.253355 121.729 3.89584C93.3456 6.93129 70.4778 30.0105 67.733 58.4357C66.6797 69.2599 68.4353 79.5592 72.4335 88.7033C73.4755 91.097 72.9129 93.8832 71.0667 95.7256L5.10243 161.69C3.88674 162.906 3.21094 164.552 3.21094 166.243V183.365C3.21094 186.902 6.09537 189.787 9.63294 189.787H26.7545C28.4459 189.787 30.0882 189.111 31.3077 187.891L37.6013 181.598C38.179 181.02 38.5301 180.19 38.5301 179.351V173.73C38.5301 171.963 39.9723 170.521 41.743 170.521H47.3608C48.2027 170.521 49.0296 170.17 49.6072 169.592L56.8674 162.332C57.445 161.754 57.7961 160.924 57.7961 160.085V154.464C57.7961 152.697 59.2383 151.255 61.009 151.255H66.6268C67.4688 151.255 68.2956 150.904 68.8732 150.326L76.1372 143.062C76.711 142.488 77.0621 141.658 77.0621 140.819V135.198C77.0621 133.431 78.5043 131.989 80.275 131.989H85.8929C86.7348 131.989 87.5616 131.638 88.1392 131.06Z" fill="#E3CB5B"/>
<path d="M176.607 64.5561C176.607 91.1616 155.046 112.723 128.444 112.723C101.839 112.723 80.2773 91.1616 80.2773 64.5561C80.2773 37.9506 101.839 16.3892 128.444 16.3892C155.046 16.3892 176.607 37.9506 176.607 64.5561Z" fill="white"/>
<path d="M134.867 64.5558C134.867 68.1047 131.994 70.9778 128.445 70.9778C124.893 70.9778 122.023 68.1047 122.023 64.5558C122.023 61.0069 124.893 58.1338 128.445 58.1338C131.994 58.1338 134.867 61.0069 134.867 64.5558Z" fill="#C4DDF0"/>
<path d="M128.443 61.3469C130.21 61.3469 131.653 62.7892 131.653 64.5561C131.653 66.3267 130.21 67.769 128.443 67.769C126.673 67.769 125.231 66.3267 125.231 64.5561C125.231 62.7892 126.673 61.3469 128.443 61.3469ZM128.443 74.191C132.619 74.191 136.157 71.4915 137.486 67.769H141.288C143.054 67.769 144.497 66.3267 144.497 64.5561C144.497 62.7892 143.054 61.3469 141.288 61.3469H137.486C136.519 58.6249 134.375 56.4766 131.653 55.5139V45.29C131.653 43.5231 130.21 42.0771 128.443 42.0771C126.673 42.0771 125.231 43.5231 125.231 45.29V55.5139C121.504 56.8429 118.809 60.3804 118.809 64.5561C118.809 69.8756 123.124 74.191 128.443 74.191Z" fill="#373737"/>
<path d="M128.442 19.6017C153.224 19.6017 173.396 39.77 173.396 64.5557C173.396 89.3414 153.224 109.51 128.442 109.51C103.657 109.51 83.4845 89.3414 83.4845 64.5557C83.4845 39.77 103.657 19.6017 128.442 19.6017ZM128.442 115.932C156.777 115.932 179.818 92.8904 179.818 64.5557C179.818 36.2211 156.777 13.1797 128.442 13.1797C100.104 13.1797 77.0625 36.2211 77.0625 64.5557C77.0625 92.8904 100.104 115.932 128.442 115.932Z" fill="#373737"/>
<mask id="mask0_238_956" style="mask-type:luminance" maskUnits="userSpaceOnUse" x="0" y="0" width="193" height="193">
<path d="M0 0H192.694V193H0V0Z" fill="white"/>
</mask>
<g mask="url(#mask0_238_956)">
<path d="M0 183.365C0 188.685 4.31532 193 9.6349 193H26.7565C29.3275 193 31.7476 191.996 33.5787 190.165L39.8761 183.867C41.0654 182.674 41.7449 181.021 41.7449 179.352V173.73H47.3628C49.0428 173.73 50.6889 173.055 51.8782 171.862L59.1421 164.601C60.3314 163.408 61.011 161.755 61.011 160.086V154.464H66.6288C68.3089 154.464 69.9549 153.789 71.1442 152.596L78.4081 145.335C79.5974 144.142 80.277 142.5 80.277 140.82V135.198H85.8948C87.5749 135.198 89.221 134.523 90.4102 133.33L99.543 124.201C100.457 123.283 101.85 122.996 103.005 123.498C112.878 127.81 123.891 129.531 134.877 128.463C164.93 125.552 189.077 101.646 192.286 71.605C194.37 52.0747 187.658 32.9484 173.847 19.1492C160.052 5.33869 140.91 -1.37025 121.391 0.71001C107.834 2.16733 95.2768 7.87578 85.068 17.2313C83.7617 18.4357 83.6749 20.4668 84.8792 21.7731C86.0723 23.0757 88.1148 23.1625 89.4097 21.9732C98.6029 13.5427 109.891 8.40056 122.082 7.09804C139.668 5.20277 156.877 11.2737 169.309 23.6911C181.727 36.1198 187.782 53.332 185.902 70.9141C183.018 97.9462 161.294 119.459 134.251 122.067C124.204 123.057 114.558 121.539 105.576 117.628C101.974 116.034 97.8252 116.835 95.0012 119.659L85.8948 128.776H80.277C76.7394 128.776 73.855 131.661 73.855 135.198L73.8663 140.794L66.6288 148.042H61.011C57.4734 148.042 54.5889 150.931 54.5889 154.464L54.6003 160.06L47.3628 167.308H41.7449C38.2074 167.308 35.3229 170.197 35.3229 173.73L35.3343 179.326L29.0368 185.623C28.4214 186.238 27.6059 186.578 26.7565 186.578H9.6349C7.86422 186.578 6.42201 185.132 6.42201 183.365V166.244C6.42201 165.391 6.7618 164.575 7.37719 163.96L73.3415 97.9953C76.1618 95.175 76.9508 91.0221 75.3727 87.4241C71.4576 78.431 69.9549 68.7848 70.9328 58.7497C71.8842 48.8543 75.486 39.2949 81.3416 31.1022C82.3723 29.66 82.0325 27.6553 80.5903 26.6246C79.1481 25.5976 77.1396 25.9223 76.1127 27.3645C69.6038 36.486 65.6019 47.1214 64.5334 58.123C63.4688 69.1095 65.1866 80.1224 69.5019 89.9952C69.9927 91.1467 69.7284 92.5398 68.7997 93.4572L2.83535 159.422C1.00426 161.253 0 163.673 0 166.244V183.365Z" fill="#373737"/>
</g>
<path d="M128.443 35.655C130.21 35.655 131.652 34.2128 131.652 32.4459V29.233C131.652 27.4661 130.21 26.0239 128.443 26.0239C126.673 26.0239 125.23 27.4661 125.23 29.233V32.4459C125.23 34.2128 126.673 35.655 128.443 35.655Z" fill="#373737"/>
<path d="M103.47 44.123C104.096 44.7498 104.912 45.0631 105.739 45.0631C106.554 45.0631 107.381 44.7498 108.012 44.123C109.265 42.8696 109.265 40.8384 108.012 39.5812L105.739 37.3122C104.485 36.0587 102.454 36.0587 101.201 37.3122C99.9435 38.5656 99.9435 40.5968 101.201 41.854L103.47 44.123Z" fill="#373737"/>
<path d="M99.5411 64.5558C99.5411 62.7889 98.0989 61.3467 96.3283 61.3467H93.1191C91.3485 61.3467 89.9062 62.7889 89.9062 64.5558C89.9062 66.3265 91.3485 67.7687 93.1191 67.7687H96.3283C98.0989 67.7687 99.5411 66.3265 99.5411 64.5558Z" fill="#373737"/>
<path d="M103.47 92.7394C104.285 92.7394 105.112 92.426 105.739 91.7993L108.012 89.5303C109.265 88.2768 109.265 86.2419 108.012 84.9884C106.754 83.735 104.723 83.735 103.47 84.9884L101.201 87.2575C99.9435 88.5147 99.9435 90.5459 101.201 91.7993C101.827 92.426 102.643 92.7394 103.47 92.7394Z" fill="#373737"/>
<path d="M128.443 93.4565C126.673 93.4565 125.23 94.8988 125.23 96.6657V99.8786C125.23 101.645 126.673 103.088 128.443 103.088C130.21 103.088 131.652 101.645 131.652 99.8786V96.6657C131.652 94.8988 130.21 93.4565 128.443 93.4565Z" fill="#373737"/>
<path d="M151.146 91.7993C151.772 92.426 152.599 92.7394 153.415 92.7394C154.245 92.7394 155.061 92.426 155.687 91.7993C156.941 90.5459 156.941 88.5147 155.687 87.2575L153.415 84.9884C152.161 83.735 150.13 83.735 148.877 84.9884C147.619 86.2419 147.619 88.2768 148.877 89.5303L151.146 91.7993Z" fill="#373737"/>
<path d="M160.553 67.7687H163.762C165.533 67.7687 166.975 66.3265 166.975 64.5558C166.975 62.7889 165.533 61.3467 163.762 61.3467H160.553C158.782 61.3467 157.34 62.7889 157.34 64.5558C157.34 66.3265 158.782 67.7687 160.553 67.7687Z" fill="#373737"/>
<path d="M151.146 45.0631C151.972 45.0631 152.788 44.7498 153.415 44.123L155.687 41.854C156.941 40.5968 156.941 38.5656 155.687 37.3122C154.43 36.0587 152.399 36.0587 151.146 37.3122L148.877 39.5812C147.619 40.8384 147.619 42.8696 148.877 44.123C149.503 44.7498 150.33 45.0631 151.146 45.0631Z" fill="#373737"/>
<path d="M74.7967 107.241L16.9987 165.039C15.7452 166.292 15.7452 168.327 16.9987 169.581C17.6254 170.207 18.4409 170.521 19.2677 170.521C20.0945 170.521 20.91 170.207 21.5367 169.581L79.3386 111.783C80.592 110.525 80.592 108.494 79.3386 107.241C78.0814 105.987 76.0502 105.987 74.7967 107.241Z" fill="#373737"/>
</svg>
