<svg width="222" height="216" viewBox="0 0 222 216" fill="none" xmlns="http://www.w3.org/2000/svg">
<path d="M50.2652 18.0055C49.8902 18.0055 49.5256 17.8232 49.3121 17.4794C48.984 16.9534 49.1402 16.2607 49.6662 15.9325C53.1715 13.7294 56.8381 11.7086 60.5673 9.92733C61.1246 9.65649 61.7965 9.89608 62.0673 10.4586C62.3329 11.0159 62.0933 11.6877 61.536 11.9534C57.885 13.6982 54.2912 15.6773 50.859 17.8336C50.6767 17.9534 50.4683 18.0055 50.2652 18.0055ZM72.4527 7.40649C71.984 7.40649 71.5465 7.11483 71.3902 6.64608C71.1871 6.05753 71.4996 5.41691 72.0881 5.21899C75.9996 3.87524 80.0308 2.75024 84.0725 1.87524C84.6819 1.73983 85.2808 2.12524 85.411 2.73462C85.5412 3.33878 85.1558 3.93774 84.5517 4.07316C80.5933 4.93253 76.6454 6.03149 72.8173 7.34399C72.6923 7.38566 72.5725 7.40649 72.4527 7.40649Z" fill="#133487"/>
<mask id="mask0_238_518" style="mask-type:luminance" maskUnits="userSpaceOnUse" x="0" y="122" width="15" height="39">
<path d="M0 122.245H14.1458V160.912H0V122.245Z" fill="white"/>
</mask>
<g mask="url(#mask0_238_518)">
<path d="M12.8164 159.62C12.4154 159.62 12.03 159.407 11.8268 159.026C9.8633 155.386 8.09247 151.589 6.56121 147.745C6.33205 147.172 6.6133 146.516 7.19142 146.287C7.76434 146.058 8.42059 146.339 8.64976 146.917C10.1498 150.677 11.8789 154.391 13.806 157.959C14.0977 158.506 13.8945 159.188 13.3477 159.485C13.181 159.573 12.9987 159.62 12.8164 159.62ZM3.72267 136.766C3.22267 136.766 2.76955 136.433 2.63413 135.933C1.56121 131.943 0.707048 127.839 0.102881 123.745C0.00913194 123.131 0.431007 122.558 1.04559 122.464C1.66017 122.375 2.23309 122.797 2.32163 123.412C2.92059 127.422 3.75392 131.438 4.80601 135.349C4.96747 135.948 4.6133 136.563 4.01434 136.724C3.91538 136.75 3.81642 136.766 3.72267 136.766Z" fill="#133487"/>
</g>
<mask id="mask1_238_518" style="mask-type:luminance" maskUnits="userSpaceOnUse" x="94" y="170" width="101" height="47">
<path d="M94.1445 170.245H194.145V216H94.1445V170.245Z" fill="white"/>
</mask>
<g mask="url(#mask1_238_518)">
<path d="M107.208 216.005C107.197 216.005 107.182 216.005 107.171 216.005C103.291 216.005 99.3744 215.797 95.541 215.386C94.9212 215.318 94.4785 214.766 94.541 214.146C94.6087 213.531 95.1608 213.084 95.7806 213.151C99.5358 213.552 103.369 213.755 107.171 213.755C107.432 213.755 107.692 213.755 107.952 213.75C107.952 213.75 107.958 213.75 107.963 213.75C108.577 213.75 109.077 214.25 109.083 214.87C109.088 215.49 108.588 215.995 107.968 216C107.713 216 107.463 216.005 107.208 216.005ZM120.249 215.214C119.687 215.214 119.202 214.792 119.135 214.224C119.057 213.61 119.494 213.047 120.114 212.974C124.135 212.479 128.171 211.75 132.104 210.802C132.702 210.656 133.312 211.031 133.458 211.636C133.604 212.24 133.234 212.844 132.63 212.99C128.614 213.959 124.494 214.703 120.385 215.203C120.338 215.209 120.291 215.214 120.249 215.214ZM144.15 209.448C143.692 209.448 143.26 209.167 143.093 208.709C142.88 208.125 143.176 207.479 143.76 207.266C147.557 205.87 151.317 204.235 154.932 202.406C155.489 202.125 156.166 202.344 156.442 202.901C156.723 203.453 156.499 204.13 155.947 204.412C152.255 206.281 148.416 207.948 144.536 209.375C144.411 209.422 144.275 209.448 144.15 209.448ZM166.093 198.349C165.729 198.349 165.369 198.172 165.156 197.844C164.812 197.323 164.952 196.63 165.473 196.287C168.848 194.058 172.14 191.604 175.244 189C175.718 188.599 176.426 188.662 176.827 189.141C177.223 189.615 177.161 190.323 176.687 190.724C173.515 193.38 170.161 195.886 166.713 198.162C166.52 198.287 166.307 198.349 166.093 198.349ZM184.932 182.542C184.656 182.542 184.38 182.443 184.161 182.235C183.708 181.808 183.692 181.094 184.119 180.646C186.906 177.703 189.551 174.568 191.979 171.334C192.354 170.834 193.057 170.735 193.557 171.11C194.051 171.479 194.15 172.183 193.781 172.683C191.296 175.99 188.593 179.188 185.749 182.193C185.525 182.427 185.229 182.542 184.932 182.542Z" fill="#133487"/>
</g>
<mask id="mask2_238_518" style="mask-type:luminance" maskUnits="userSpaceOnUse" x="116" y="0" width="79" height="45">
<path d="M116.812 0H194.146V44.9115H116.812V0Z" fill="white"/>
</mask>
<g mask="url(#mask2_238_518)">
<path d="M192.189 43.6095C191.856 43.6095 191.517 43.4585 191.299 43.172C188.835 39.9585 186.153 36.8543 183.335 33.9429C182.903 33.495 182.918 32.7866 183.361 32.3543C183.809 31.922 184.517 31.9325 184.95 32.3804C187.83 35.3543 190.564 38.521 193.08 41.8022C193.46 42.297 193.366 43.0002 192.877 43.3804C192.668 43.5366 192.429 43.6095 192.189 43.6095ZM175.085 25.9377C174.835 25.9377 174.585 25.8543 174.371 25.6825C171.241 23.1095 167.929 20.6929 164.528 18.5002C164.007 18.1616 163.856 17.4689 164.189 16.9481C164.528 16.422 165.22 16.2762 165.746 16.6095C169.22 18.8491 172.601 21.3179 175.799 23.9429C176.278 24.3387 176.351 25.047 175.955 25.5262C175.731 25.797 175.413 25.9377 175.085 25.9377ZM154.418 12.6095C154.252 12.6095 154.08 12.5731 153.924 12.495C150.288 10.7033 146.507 9.10954 142.694 7.75016C142.111 7.54704 141.804 6.90121 142.012 6.31787C142.22 5.72933 142.866 5.42725 143.45 5.63558C147.345 7.021 151.2 8.65121 154.913 10.4793C155.47 10.7502 155.7 11.4272 155.429 11.9845C155.231 12.3804 154.83 12.6095 154.418 12.6095ZM131.252 4.36996C131.168 4.36996 131.085 4.35954 130.996 4.33871C127.059 3.43246 123.017 2.75016 118.986 2.30225C118.366 2.23454 117.924 1.67725 117.991 1.06266C118.059 0.442873 118.616 0.00016284 119.231 0.0678722C123.351 0.526206 127.476 1.22412 131.502 2.15121C132.106 2.28662 132.486 2.89079 132.345 3.49496C132.226 4.01579 131.762 4.36996 131.252 4.36996Z" fill="#133487"/>
</g>
<path d="M185.822 107.703C185.822 110.282 185.697 112.849 185.441 115.417C185.191 117.979 184.811 120.526 184.311 123.052C183.811 125.584 183.181 128.078 182.436 130.547C181.686 133.011 180.822 135.433 179.837 137.818C178.848 140.198 177.749 142.526 176.535 144.797C175.322 147.068 173.999 149.276 172.566 151.422C171.134 153.563 169.603 155.631 167.967 157.625C166.337 159.615 164.608 161.521 162.785 163.344C160.962 165.167 159.056 166.896 157.066 168.532C155.077 170.167 153.009 171.698 150.868 173.131C148.723 174.563 146.52 175.886 144.249 177.099C141.973 178.318 139.65 179.417 137.27 180.401C134.889 181.391 132.467 182.256 130.004 183.006C127.535 183.75 125.04 184.381 122.514 184.881C119.988 185.386 117.441 185.761 114.879 186.016C112.316 186.266 109.743 186.391 107.171 186.391C104.592 186.391 102.025 186.266 99.4622 186.016C96.8997 185.761 94.3529 185.386 91.8268 184.881C89.3008 184.381 86.806 183.75 84.3372 183.006C81.8737 182.256 79.4518 181.391 77.0716 180.401C74.6914 179.417 72.3633 178.318 70.0924 177.099C67.8216 175.886 65.6133 174.563 63.4727 173.131C61.332 171.698 59.2643 170.167 57.2747 168.532C55.2799 166.896 53.3737 165.167 51.556 163.344C49.7331 161.521 48.0039 159.615 46.3685 157.625C44.7383 155.631 43.2018 153.563 41.7747 151.422C40.3424 149.276 39.0195 147.068 37.806 144.797C36.5924 142.526 35.4883 140.198 34.5039 137.818C33.5195 135.433 32.6497 133.011 31.9049 130.547C31.1549 128.078 30.5299 125.584 30.0299 123.052C29.5247 120.526 29.1497 117.979 28.8945 115.417C28.6445 112.849 28.5195 110.282 28.5195 107.703C28.5195 105.125 28.6445 102.552 28.8945 99.9899C29.1497 97.4274 29.5247 94.8805 30.0299 92.3493C30.5299 89.8232 31.1549 87.3285 31.9049 84.8597C32.6497 82.3962 33.5195 79.9691 34.5039 77.5889C35.4883 75.2087 36.5924 72.8805 37.806 70.6097C39.0195 68.3337 40.3424 66.1253 41.7747 63.9847C43.2018 61.8441 44.7383 59.7764 46.3685 57.7816C48.0039 55.792 49.7331 53.8805 51.556 52.0628C53.3737 50.2399 55.2799 48.5107 57.2747 46.8753C59.2643 45.2399 61.332 43.7087 63.4727 42.2764C65.6133 40.8441 67.8216 39.5212 70.0924 38.3024C72.3633 37.0889 74.6914 35.9899 77.0716 35.0003C79.4518 34.016 81.8737 33.1514 84.3372 32.4014C86.806 31.6514 89.3008 31.0264 91.8268 30.5264C94.3529 30.0212 96.8997 29.6462 99.4622 29.391C102.025 29.141 104.592 29.0107 107.171 29.0107C109.743 29.0107 112.316 29.141 114.879 29.391C117.441 29.6462 119.988 30.0212 122.514 30.5264C125.04 31.0264 127.535 31.6514 130.004 32.4014C132.467 33.1514 134.889 34.016 137.27 35.0003C139.65 35.9899 141.973 37.0889 144.249 38.3024C146.52 39.5212 148.723 40.8441 150.868 42.2764C153.009 43.7087 155.077 45.2399 157.066 46.8753C159.056 48.5107 160.962 50.2399 162.785 52.0628C164.608 53.8805 166.337 55.792 167.967 57.7816C169.603 59.7764 171.134 61.8441 172.566 63.9847C173.999 66.1253 175.322 68.3337 176.535 70.6097C177.749 72.8805 178.848 75.2087 179.837 77.5889C180.822 79.9691 181.686 82.3962 182.436 84.8597C183.181 87.3285 183.811 89.8232 184.311 92.3493C184.811 94.8805 185.191 97.4274 185.441 99.9899C185.697 102.552 185.822 105.125 185.822 107.703Z" fill="#CBE4FF"/>
<path d="M8.79297 179.234H20.0638V179.536C21.4284 173.964 26.6003 169.87 32.6055 170.036C33.7982 170.068 37.9128 170.318 38.9023 170.438L71.6471 174.354C76.1419 174.891 79.7201 178.995 79.5898 183.474C79.5638 183.688 79.5221 183.891 79.4805 184.094L85.2565 180.219L99.319 170.781C105.23 166.813 109.533 173.729 109.533 173.729C109.533 173.729 114.194 180.406 107.35 185L79.5065 203.688C78.0482 204.823 76.2044 205.484 74.2201 205.427H23.5169L8.79297 179.234Z" fill="white"/>
<path d="M74.444 206.558C74.3659 206.558 74.2826 206.558 74.2044 206.553H23.5169C22.8919 206.553 22.3919 206.047 22.3919 205.428C22.3919 204.808 22.8919 204.303 23.5169 204.303H74.2201C74.2305 204.303 74.2409 204.303 74.2513 204.303C75.8919 204.349 77.5117 203.818 78.8138 202.803C78.8346 202.787 78.8555 202.771 78.8815 202.756L106.725 184.068C108.491 182.881 109.548 181.448 109.861 179.803C110.392 177 108.632 174.396 108.611 174.37C108.6 174.36 108.59 174.339 108.579 174.323C108.564 174.297 106.689 171.365 103.944 170.782C102.616 170.495 101.309 170.803 99.944 171.719L80.1107 185.032C79.7305 185.282 79.2357 185.282 78.8555 185.032C78.4805 184.776 78.293 184.318 78.3815 183.87C78.4128 183.714 78.4492 183.547 78.4701 183.391C78.5482 179.485 75.444 175.938 71.5169 175.469L38.7721 171.553C37.8451 171.443 33.8086 171.193 32.5742 171.157C27.2201 171.006 22.418 174.646 21.1576 179.803C21.0221 180.355 20.4909 180.719 19.9284 180.651C19.6836 180.62 19.4648 180.516 19.2982 180.36H8.79297C8.17318 180.36 7.66797 179.855 7.66797 179.235C7.66797 178.615 8.17318 178.11 8.79297 178.11H19.3138C21.2201 172.553 26.6367 168.745 32.6367 168.912C33.8242 168.943 37.9805 169.193 39.0378 169.323L71.7826 173.235C76.3294 173.782 80.0273 177.547 80.6315 181.969L98.694 169.849C100.564 168.594 102.496 168.167 104.428 168.584C107.996 169.349 110.246 172.756 110.475 173.11C110.699 173.448 112.746 176.589 112.074 180.204C111.647 182.464 110.272 184.396 107.975 185.933L80.1628 204.599C78.5273 205.865 76.5065 206.558 74.444 206.558Z" fill="#133487"/>
<path d="M71.3165 191.766C70.9363 191.766 70.5613 191.74 70.1759 191.698L48.9051 189.151C48.2905 189.078 47.853 188.521 47.9259 187.901C47.9988 187.287 48.5561 186.849 49.1759 186.922L70.4415 189.464C74.3478 189.933 77.9103 187.198 78.379 183.37C78.5978 181.552 78.0874 179.74 76.9415 178.276C75.754 176.766 74.0509 175.813 72.1447 175.584C71.5249 175.511 71.0874 174.948 71.1603 174.334C71.2332 173.719 71.7905 173.276 72.4103 173.349C74.9155 173.651 77.1551 174.906 78.7072 176.891C80.228 178.828 80.8999 181.224 80.6082 183.641C80.0353 188.318 75.9832 191.766 71.3165 191.766Z" fill="#133487"/>
<path d="M19.8606 186.339C19.3242 186.339 18.8502 185.948 18.7565 185.401C17.7408 179.375 21.0377 174.761 21.1783 174.568C21.5429 174.068 22.246 173.953 22.746 174.318C23.246 174.683 23.3606 175.386 22.996 175.891C22.9492 175.953 20.121 179.974 20.97 185.026C21.0742 185.641 20.6627 186.219 20.0533 186.323C19.9856 186.334 19.9231 186.339 19.8606 186.339Z" fill="#133487"/>
<path d="M62.3939 190.651C62.3835 190.651 62.373 190.651 62.3626 190.651C61.7428 190.63 61.2532 190.115 61.2741 189.495L61.3626 186.365C61.3626 186.333 61.3626 186.302 61.3678 186.271C61.7532 182.865 64.8574 180.401 68.2949 180.776L72.1126 181.198C72.7272 181.266 73.1751 181.823 73.1074 182.437C73.0397 183.057 72.4824 183.5 71.8678 183.432L68.0501 183.01C65.8574 182.771 63.873 184.323 63.6074 186.479L63.5189 189.557C63.5032 190.167 63.0032 190.651 62.3939 190.651Z" fill="#133487"/>
<path d="M102.563 189.073C102.282 189.073 102.006 188.969 101.787 188.76L99.7036 186.766C99.6828 186.745 99.6567 186.719 99.6411 186.698C98.6099 185.536 98.1046 184.042 98.2036 182.49C98.3078 180.938 99.0109 179.521 100.188 178.505L102.839 176.208C103.308 175.802 104.016 175.854 104.422 176.323C104.829 176.792 104.777 177.5 104.308 177.906L101.662 180.203C100.943 180.828 100.511 181.693 100.448 182.641C100.386 183.573 100.688 184.469 101.292 185.177L103.339 187.135C103.787 187.563 103.803 188.276 103.375 188.724C103.157 188.958 102.86 189.073 102.563 189.073Z" fill="#133487"/>
<path d="M40.9642 131.854C39.9902 132.948 39.985 134.599 40.9538 135.698L66.6361 164.656C67.7871 165.948 69.8027 165.948 70.9538 164.656L96.6257 135.854C97.5996 134.76 97.6048 133.109 96.6361 132.01L84.4277 118.182C83.8809 117.557 83.0892 117.203 82.2611 117.203H55.3236C54.4955 117.203 53.709 117.552 53.1621 118.172L40.9642 131.854Z" fill="white"/>
<path d="M68.7962 166.75C67.6504 166.75 66.5567 166.255 65.7962 165.401L40.1139 136.448C38.765 134.917 38.7702 132.625 40.1244 131.104L52.3223 117.422C53.0827 116.568 54.1764 116.078 55.3223 116.078H82.2598C83.4108 116.078 84.5098 116.573 85.2702 117.438L97.4733 131.266C98.8223 132.792 98.8171 135.083 97.4629 136.604L71.791 165.401C71.0306 166.255 69.9369 166.75 68.7962 166.75ZM55.3223 118.328C54.8171 118.328 54.3379 118.542 53.9994 118.917L41.8014 132.604C41.2077 133.271 41.2025 134.281 41.7962 134.953L67.4733 163.906C67.8119 164.286 68.2806 164.5 68.7962 164.5C69.3067 164.5 69.7754 164.286 70.1139 163.906L95.7858 135.104C96.3796 134.438 96.3848 133.427 95.791 132.755L83.5879 118.927C83.2494 118.542 82.765 118.328 82.2598 118.328H55.3223Z" fill="#133487"/>
<path d="M68.7968 166.662C68.7968 166.662 68.7968 166.662 68.7916 166.662C68.3281 166.662 67.9114 166.37 67.7448 165.938L55.5989 134.214C55.375 133.63 55.6666 132.979 56.2448 132.761C56.8281 132.537 57.4739 132.828 57.6979 133.406L68.7968 162.396L79.9166 133.432C80.1406 132.849 80.7916 132.563 81.3698 132.781C81.9479 133.005 82.2396 133.656 82.0156 134.235L69.8437 165.938C69.6771 166.375 69.2604 166.662 68.7968 166.662Z" fill="#133487"/>
<path d="M80.97 134.959C80.5168 134.959 80.0898 134.683 79.9179 134.23L73.6262 117.599C73.4023 117.021 73.6939 116.37 74.2773 116.151C74.8554 115.928 75.5064 116.224 75.7252 116.803L82.022 133.438C82.2408 134.016 81.9491 134.667 81.3658 134.886C81.2356 134.933 81.1002 134.959 80.97 134.959Z" fill="#133487"/>
<path d="M56.6521 134.933C56.5167 134.933 56.3813 134.912 56.2511 134.86C55.6729 134.641 55.3813 133.995 55.6 133.412L61.8657 116.802C62.0844 116.224 62.7354 115.933 63.3136 116.151C63.8969 116.37 64.1886 117.016 63.9698 117.599L57.699 134.209C57.5323 134.657 57.1052 134.933 56.6521 134.933Z" fill="#133487"/>
<path d="M97.2552 134.958H40.2344C39.6146 134.958 39.1094 134.453 39.1094 133.833C39.1094 133.214 39.6146 132.708 40.2344 132.708H97.2552C97.875 132.708 98.375 133.214 98.375 133.833C98.375 134.453 97.875 134.958 97.2552 134.958Z" fill="#133487"/>
<path d="M108.135 143.396C108.135 143.396 93.8014 137.401 84.2285 146.047C72.7077 156.458 79.4212 165.276 79.4212 165.276C79.4212 165.276 87.0358 168.87 94.6139 161.344C100.848 155.151 102.447 146.734 108.135 143.396Z" fill="#71D89D"/>
<path d="M83.9855 167.26C81.0219 167.26 79.0271 166.333 78.9438 166.292C78.7771 166.213 78.6365 166.099 78.5271 165.958C78.449 165.854 76.6417 163.443 76.3813 159.641C76.1469 156.198 77.1886 150.896 83.475 145.213C87.6261 141.463 93.298 139.786 99.8709 140.359C104.772 140.786 108.418 142.297 108.569 142.359C108.965 142.521 109.23 142.896 109.262 143.318C109.288 143.745 109.074 144.151 108.704 144.365C105.881 146.021 104.121 149.114 102.079 152.693C100.34 155.745 98.3709 159.198 95.4073 162.141C91.225 166.297 87.0011 167.219 84.1938 167.255C84.1209 167.26 84.0532 167.26 83.9855 167.26ZM80.1625 164.365C80.7459 164.578 82.2615 165.052 84.2667 165.005C87.7094 164.927 90.9282 163.427 93.824 160.547C96.5688 157.818 98.3761 154.646 100.126 151.578C101.819 148.615 103.433 145.781 105.73 143.76C104.267 143.328 102.095 142.807 99.6105 142.594C93.6209 142.083 88.699 143.526 84.9802 146.885C80.5167 150.917 78.3761 155.12 78.6209 159.375C78.7667 161.922 79.7667 163.74 80.1625 164.365Z" fill="#133487"/>
<path d="M74.0191 169.943C73.6024 169.943 73.2066 169.714 73.0087 169.318C72.7327 168.76 72.9566 168.089 73.5139 167.807C75.3212 166.911 77.0452 165.755 78.6493 164.375C80.8524 162.479 81.7952 160.854 82.7952 159.135C83.3993 158.099 84.0243 157.031 84.9306 155.87C91.7691 147.135 98.1702 145.167 98.4358 145.089C99.0347 144.911 99.6597 145.255 99.8316 145.849C100.009 146.443 99.6702 147.068 99.0764 147.245C99.0191 147.26 93.0556 149.141 86.7014 157.255C85.8889 158.292 85.3316 159.255 84.7379 160.271C83.691 162.073 82.6024 163.938 80.1129 166.083C78.3733 167.578 76.4879 168.839 74.5191 169.823C74.3577 169.901 74.1858 169.943 74.0191 169.943Z" fill="#133487"/>
<path d="M85.5625 51.6667H66.8385C63.026 51.6667 59.9375 54.7604 59.9375 58.5729V92.4062L87.3229 88.5885V64.8646L94.125 58.0625V43.1094L85.5625 51.6667Z" fill="#71D89D"/>
<path d="M59.9375 93.5316C59.6667 93.5316 59.4062 93.4379 59.1979 93.2556C58.9531 93.042 58.8125 92.7348 58.8125 92.4066V58.5733C58.8125 54.1462 62.4115 50.5473 66.8385 50.5473H85.099L93.3281 42.3129C93.651 41.99 94.1302 41.8962 94.5521 42.0681C94.974 42.2452 95.2448 42.6514 95.2448 43.1098V58.0629C95.2448 58.3598 95.1302 58.6462 94.9167 58.8598L88.4479 65.3337V88.5889C88.4479 89.1514 88.0365 89.6254 87.4792 89.7035L60.0938 93.5212C60.0417 93.5316 59.9896 93.5316 59.9375 93.5316ZM66.8385 52.792C63.651 52.792 61.0625 55.3858 61.0625 58.5733V91.115L86.1979 87.615V64.865C86.1979 64.5681 86.3177 64.2816 86.5312 64.0681L93 57.5993V45.8233L86.3594 52.4639C86.151 52.6775 85.8646 52.792 85.5625 52.792H66.8385Z" fill="#133487"/>
<path d="M65.7956 89.7189V64.8647C65.7956 61.4637 63.0404 58.7085 59.6445 58.7085H42.2174C38.4049 58.7085 35.3164 61.797 35.3164 65.6095V92.0054L65.7956 89.7189Z" fill="#FFD255"/>
<path d="M35.3164 93.1304C34.6914 93.1304 34.1914 92.6252 34.1914 92.0054V65.6095C34.1914 61.1825 37.7904 57.5835 42.2174 57.5835H59.6445C63.6549 57.5835 66.9206 60.8491 66.9206 64.8647V89.7189C66.9206 90.3387 66.4206 90.8439 65.7956 90.8439C65.1758 90.8439 64.6758 90.3387 64.6758 89.7189V64.8647C64.6758 62.0887 62.4154 59.8335 59.6445 59.8335H42.2174C39.0299 59.8335 36.4362 62.422 36.4362 65.6095V92.0054C36.4362 92.6252 35.9362 93.1304 35.3164 93.1304Z" fill="#133487"/>
<path d="M42.9375 84.9635V71.875C42.9375 68.474 40.1823 65.7188 36.7812 65.7188H17.4375C14.0365 65.7188 11.2812 68.474 11.2812 71.875V85.099L42.9375 84.9635Z" fill="#71D89D"/>
<path d="M11.2812 86.224C10.9844 86.224 10.6979 86.1042 10.4896 85.8958C10.276 85.6875 10.1562 85.3958 10.1562 85.099V71.875C10.1562 67.8594 13.4219 64.5938 17.4375 64.5938H36.7812C40.7969 64.5938 44.0625 67.8594 44.0625 71.875V84.9635C44.0625 85.5833 43.5625 86.0885 42.9427 86.0885L11.2865 86.224H11.2812ZM17.4375 66.8438C14.6615 66.8438 12.4062 69.099 12.4062 71.875V83.9688L41.8125 83.8438V71.875C41.8125 69.099 39.5573 66.8438 36.7812 66.8438H17.4375Z" fill="#133487"/>
<path d="M106.25 19.0885H114.161L101.849 2.375L89.5417 19.0885H97.4531L95.6875 41.5417L94.6615 57.5208L92.6302 76.6615C92.4479 81.1406 88.9427 84.7292 84.5573 85.0729C84.3281 85.0885 84.0938 85.099 83.8646 85.099H5.125V101.812H81.4531C96.5729 101.812 108.005 91.1771 108.005 76.0156L107.469 44.6719L107.339 37.8542L106.25 19.0885Z" fill="#FFD255"/>
<path d="M81.4531 102.938H5.125C4.50521 102.938 4 102.438 4 101.812V85.099C4 84.4792 4.50521 83.974 5.125 83.974H83.8646C84.0625 83.974 84.2708 83.9688 84.4688 83.9531C88.3229 83.651 91.349 80.4948 91.5104 76.6146C91.5104 76.5885 91.5104 76.5677 91.5156 76.5417L93.5417 57.4271L94.5677 41.4688C94.5677 41.4635 94.5677 41.4583 94.5677 41.4531L96.2396 20.2135H89.5417C89.1146 20.2135 88.7292 19.9792 88.5365 19.599C88.349 19.2188 88.3854 18.7656 88.6354 18.4219L100.948 1.70833C101.156 1.42187 101.495 1.25 101.849 1.25C102.208 1.25 102.547 1.42187 102.755 1.70833L115.068 18.4219C115.318 18.7656 115.354 19.2188 115.167 19.599C114.974 19.9792 114.589 20.2135 114.161 20.2135H107.438L108.464 37.7917C108.464 37.8021 108.464 37.8177 108.464 37.8333L108.594 44.651L109.13 76C109.13 76.0052 109.13 76.0104 109.13 76.0156C109.13 83.6042 106.307 90.4948 101.177 95.4115C96.1198 100.266 89.1146 102.938 81.4531 102.938ZM6.25 100.688H81.4531C96.1875 100.688 106.88 90.3177 106.885 76.026L106.344 44.6875L106.219 37.8958L105.125 19.1562C105.109 18.849 105.219 18.5469 105.432 18.3177C105.641 18.0938 105.938 17.9688 106.25 17.9688H111.938L101.854 4.27083L91.7656 17.9688H97.4531C97.7708 17.9688 98.0677 18.099 98.2812 18.3281C98.4948 18.5573 98.599 18.8646 98.5729 19.1771L96.8125 41.6198L95.7812 57.5938C95.7812 57.6094 95.7812 57.625 95.7812 57.6406L93.7552 76.7448C93.5312 81.7448 89.6198 85.8021 84.6458 86.1927C84.3854 86.2135 84.125 86.224 83.8646 86.224H6.25V100.688Z" fill="#133487"/>
<path d="M36.7826 47.271C36.7826 48.021 36.7096 48.7658 36.5638 49.5002C36.418 50.2397 36.1992 50.9533 35.9128 51.646C35.6263 52.3387 35.2721 53.0002 34.8555 53.6252C34.4388 54.2502 33.9648 54.8283 33.4336 55.3595C32.9023 55.8908 32.3242 56.3647 31.7044 56.7814C31.0794 57.1981 30.418 57.547 29.7253 57.8387C29.0326 58.1252 28.319 58.3387 27.5794 58.4897C26.8451 58.6356 26.1003 58.7085 25.3503 58.7085C24.6003 58.7085 23.8555 58.6356 23.1211 58.4897C22.3867 58.3387 21.668 58.1252 20.9753 57.8387C20.2826 57.547 19.6263 57.1981 19.0013 56.7814C18.3763 56.3647 17.7982 55.8908 17.2669 55.3595C16.7357 54.8283 16.2617 54.2502 15.8451 53.6252C15.4284 53.0002 15.0794 52.3387 14.7878 51.646C14.5013 50.9533 14.2878 50.2397 14.1419 49.5002C13.9909 48.7658 13.918 48.021 13.918 47.271C13.918 46.521 13.9909 45.7762 14.1419 45.0366C14.2878 44.3022 14.5013 43.5887 14.7878 42.896C15.0794 42.1981 15.4284 41.5418 15.8451 40.9168C16.2617 40.2918 16.7357 39.7137 17.2669 39.1825C17.7982 38.6512 18.3763 38.1772 19.0013 37.7606C19.6263 37.3439 20.2826 36.9897 20.9753 36.7033C21.668 36.4168 22.3867 36.1981 23.1211 36.0522C23.8555 35.9064 24.6003 35.8335 25.3503 35.8335C26.1003 35.8335 26.8451 35.9064 27.5794 36.0522C28.319 36.1981 29.0326 36.4168 29.7253 36.7033C30.418 36.9897 31.0794 37.3439 31.7044 37.7606C32.3242 38.1772 32.9023 38.6512 33.4336 39.1825C33.9648 39.7137 34.4388 40.2918 34.8555 40.9168C35.2721 41.5418 35.6263 42.1981 35.9128 42.896C36.1992 43.5887 36.418 44.3022 36.5638 45.0366C36.7096 45.7762 36.7826 46.521 36.7826 47.271Z" fill="white"/>
<path d="M25.349 59.8335C18.4271 59.8335 12.7969 54.1981 12.7969 47.271C12.7969 40.3439 18.4271 34.7085 25.349 34.7085C32.2708 34.7085 37.9062 40.3439 37.9062 47.271C37.9062 54.1981 32.2708 59.8335 25.349 59.8335ZM25.349 36.9585C19.6667 36.9585 15.0417 41.5835 15.0417 47.271C15.0417 52.9585 19.6667 57.5835 25.349 57.5835C31.0312 57.5835 35.6562 52.9585 35.6562 47.271C35.6562 41.5835 31.0312 36.9585 25.349 36.9585Z" fill="#133487"/>
<path d="M11.2812 79.792V106.188C11.2812 109.099 13.6406 111.464 16.5573 111.464C19.4688 111.464 21.8333 109.099 21.8333 106.188V79.792H11.2812Z" fill="#71D89D"/>
<path d="M16.5573 112.589C13.026 112.589 10.1562 109.719 10.1562 106.188V79.792C10.1562 79.1722 10.6615 78.667 11.2812 78.667C11.901 78.667 12.4062 79.1722 12.4062 79.792V106.188C12.4062 108.474 14.2656 110.339 16.5573 110.339C18.849 110.339 20.7083 108.474 20.7083 106.188V79.792C20.7083 79.1722 21.2135 78.667 21.8333 78.667C22.4531 78.667 22.9583 79.1722 22.9583 79.792V106.188C22.9583 109.719 20.0833 112.589 16.5573 112.589Z" fill="#133487"/>
<path d="M61.6966 40.0991C61.6966 40.8491 61.6185 41.5939 61.4727 42.3283C61.3268 43.0679 61.1133 43.7814 60.8216 44.4741C60.5352 45.1668 60.1862 45.8283 59.7695 46.4533C59.3529 47.0783 58.8789 47.6564 58.3477 48.1877C57.8164 48.7189 57.2383 49.1929 56.6133 49.6095C55.9883 50.0262 55.332 50.3752 54.6393 50.6668C53.9466 50.9533 53.2279 51.1668 52.4935 51.3179C51.7591 51.4637 51.0143 51.5366 50.2643 51.5366C49.5143 51.5366 48.7695 51.4637 48.0352 51.3179C47.2956 51.1668 46.582 50.9533 45.8893 50.6668C45.1966 50.3752 44.5352 50.0262 43.9102 49.6095C43.2904 49.1929 42.7122 48.7189 42.181 48.1877C41.6497 47.6564 41.1758 47.0783 40.7591 46.4533C40.3424 45.8283 39.9883 45.1668 39.7018 44.4741C39.4154 43.7814 39.1966 43.0679 39.0508 42.3283C38.9049 41.5939 38.832 40.8491 38.832 40.0991C38.832 39.3491 38.9049 38.6043 39.0508 37.8647C39.1966 37.1304 39.4154 36.4168 39.7018 35.7241C39.9883 35.0262 40.3424 34.37 40.7591 33.745C41.1758 33.12 41.6497 32.5418 42.181 32.0106C42.7122 31.4793 43.2904 31.0054 43.9102 30.5887C44.5352 30.172 45.1966 29.8179 45.8893 29.5314C46.582 29.245 47.2956 29.0262 48.0352 28.8804C48.7695 28.7345 49.5143 28.6616 50.2643 28.6616C51.0143 28.6616 51.7591 28.7345 52.4935 28.8804C53.2279 29.0262 53.9466 29.245 54.6393 29.5314C55.332 29.8179 55.9883 30.172 56.6133 30.5887C57.2383 31.0054 57.8164 31.4793 58.3477 32.0106C58.8789 32.5418 59.3529 33.12 59.7695 33.745C60.1862 34.37 60.5352 35.0262 60.8216 35.7241C61.1133 36.4168 61.3268 37.1304 61.4727 37.8647C61.6185 38.6043 61.6966 39.3491 61.6966 40.0991Z" fill="white"/>
<path d="M50.2643 52.6616C43.3424 52.6616 37.707 47.0262 37.707 40.0991C37.707 33.172 43.3424 27.5366 50.2643 27.5366C57.1862 27.5366 62.8164 33.172 62.8164 40.0991C62.8164 47.0262 57.1862 52.6616 50.2643 52.6616ZM50.2643 29.7866C44.5768 29.7866 39.957 34.4116 39.957 40.0991C39.957 45.7866 44.582 50.4116 50.2643 50.4116C55.9466 50.4116 60.5716 45.7866 60.5716 40.0991C60.5716 34.4116 55.9466 29.7866 50.2643 29.7866Z" fill="#133487"/>
<path d="M87.1966 33.0625C87.1966 33.8125 87.1237 34.5573 86.9727 35.2917C86.8268 36.026 86.6133 36.7448 86.3268 37.4375C86.0352 38.1302 85.6862 38.7917 85.2695 39.4167C84.8529 40.0365 84.3789 40.6146 83.8477 41.1458C83.3164 41.6771 82.7383 42.151 82.1133 42.5677C81.4883 42.9896 80.832 43.3385 80.1393 43.625C79.4466 43.9115 78.7279 44.1302 77.9935 44.276C77.2591 44.4219 76.5143 44.4948 75.7643 44.4948C75.0143 44.4948 74.2695 44.4219 73.5352 44.276C72.7956 44.1302 72.082 43.9115 71.3893 43.625C70.6966 43.3385 70.0352 42.9896 69.4102 42.5677C68.7904 42.151 68.2122 41.6771 67.681 41.1458C67.1497 40.6146 66.6758 40.0365 66.2591 39.4167C65.8424 38.7917 65.4883 38.1302 65.2018 37.4375C64.9154 36.7448 64.6966 36.026 64.5508 35.2917C64.4049 34.5573 64.332 33.8125 64.332 33.0625C64.332 32.3073 64.4049 31.5677 64.5508 30.8281C64.6966 30.0938 64.9154 29.375 65.2018 28.6823C65.4883 27.9896 65.8424 27.3333 66.2591 26.7083C66.6758 26.0833 67.1497 25.5052 67.681 24.974C68.2122 24.4427 68.7904 23.9688 69.4102 23.5521C70.0352 23.1354 70.6966 22.7813 71.3893 22.4948C72.082 22.2083 72.7956 21.9896 73.5352 21.8438C74.2695 21.6979 75.0143 21.625 75.7643 21.625C76.5143 21.625 77.2591 21.6979 77.9935 21.8438C78.7279 21.9896 79.4466 22.2083 80.1393 22.4948C80.832 22.7813 81.4883 23.1354 82.1133 23.5521C82.7383 23.9688 83.3164 24.4427 83.8477 24.974C84.3789 25.5052 84.8529 26.0833 85.2695 26.7083C85.6862 27.3333 86.0352 27.9896 86.3268 28.6823C86.6133 29.375 86.8268 30.0938 86.9727 30.8281C87.1237 31.5677 87.1966 32.3073 87.1966 33.0625Z" fill="white"/>
<path d="M75.7643 45.6198C68.8424 45.6198 63.207 39.9844 63.207 33.0625C63.207 26.1354 68.8424 20.5 75.7643 20.5C82.6862 20.5 88.3164 26.1354 88.3164 33.0625C88.3164 39.9844 82.6862 45.6198 75.7643 45.6198ZM75.7643 22.75C70.082 22.75 65.457 27.375 65.457 33.0625C65.457 38.7448 70.082 43.375 75.7643 43.375C81.4466 43.375 86.0716 38.7448 86.0716 33.0625C86.0716 27.375 81.4466 22.75 75.7643 22.75Z" fill="#133487"/>
<path d="M92.7643 59.417L107.103 45.0785C109.249 42.9274 109.15 39.4066 106.874 37.3858C104.785 35.5264 101.603 35.6201 99.6237 37.5993L85.8945 51.3389L92.7643 59.417Z" fill="#71D89D"/>
<path d="M92.7643 60.5418C92.4779 60.5418 92.1914 60.4324 91.9727 60.2137C91.5352 59.7762 91.5352 59.0627 91.9727 58.6252L106.306 44.2814C107.124 43.4637 107.556 42.3752 107.525 41.2137C107.488 40.0574 106.993 38.9949 106.129 38.2293C104.483 36.7658 101.978 36.8387 100.421 38.396L86.6914 52.1304C86.2487 52.5731 85.5404 52.5731 85.0977 52.1304C84.6602 51.6929 84.6602 50.9793 85.0977 50.5418L98.832 36.8022C101.228 34.4064 105.087 34.2918 107.618 36.547C108.952 37.7293 109.717 39.3647 109.77 41.1512C109.822 42.9324 109.155 44.6095 107.895 45.8699L93.5612 60.2137C93.3424 60.4324 93.056 60.5418 92.7643 60.5418Z" fill="#133487"/>
<mask id="mask3_238_518" style="mask-type:luminance" maskUnits="userSpaceOnUse" x="160" y="119" width="62" height="41">
<path d="M160.812 119.578H222V159.578H160.812V119.578Z" fill="white"/>
</mask>
<g mask="url(#mask3_238_518)">
<path d="M161.605 119.995H201.637C212.257 119.995 220.871 128.614 220.871 139.239C220.871 149.87 212.262 158.484 201.637 158.489L161.605 158.495V119.995Z" fill="white"/>
</g>
<mask id="mask4_238_518" style="mask-type:luminance" maskUnits="userSpaceOnUse" x="159" y="118" width="63" height="43">
<path d="M159.48 118.245H222.001V160.912H159.48V118.245Z" fill="white"/>
</mask>
<g mask="url(#mask4_238_518)">
<path d="M161.604 159.62C160.984 159.62 160.484 159.115 160.484 158.495C160.484 157.875 160.984 157.37 161.604 157.37L201.635 157.365C211.625 157.36 219.745 149.235 219.745 139.24C219.745 129.25 211.62 121.12 201.635 121.12H161.604C160.984 121.12 160.484 120.615 160.484 119.995C160.484 119.375 160.984 118.87 161.604 118.87H201.635C212.859 118.87 221.995 128.011 221.995 139.24C221.995 150.474 212.865 159.61 201.635 159.615L161.604 159.62Z" fill="#133487"/>
</g>
<path d="M175.069 56.4585H138.652C128.027 56.4585 119.418 65.0731 119.418 75.7033C119.418 86.3335 128.027 94.9481 138.652 94.9481L175.069 94.9585V56.4585Z" fill="white"/>
<path d="M175.069 96.0835L138.652 96.0731C127.423 96.0731 118.293 86.9325 118.293 75.7033C118.293 64.4741 127.428 55.3335 138.652 55.3335H175.069C175.694 55.3335 176.194 55.8387 176.194 56.4585C176.194 57.0783 175.694 57.5835 175.069 57.5835H138.652C128.668 57.5835 120.543 65.7137 120.543 75.7033C120.543 85.6929 128.663 93.8231 138.652 93.8283L175.069 93.8335C175.694 93.8335 176.194 94.3387 176.194 94.9585C176.194 95.5783 175.694 96.0835 175.069 96.0835Z" fill="#133487"/>
<path d="M220.23 66.443L209.934 56.8545C209.694 56.6305 209.319 56.6305 209.079 56.8545L198.783 66.443C198.324 66.8649 198.605 67.6722 199.21 67.6722H201.918V77.9118C201.918 89.8805 192.225 99.5785 180.262 99.5785H152.798C134.194 99.5785 119.105 114.672 119.105 133.287V156.104C119.105 157.422 120.178 158.495 121.496 158.495L132.408 158.485C133.725 158.485 134.793 157.417 134.793 156.094V137.36C134.793 125.162 144.678 115.271 156.871 115.271H183.913C202.522 115.271 217.605 100.183 217.605 81.568V67.6722H219.803C220.408 67.6722 220.689 66.8649 220.23 66.443Z" fill="#71D89D"/>
<mask id="mask5_238_518" style="mask-type:luminance" maskUnits="userSpaceOnUse" x="116" y="54" width="106" height="107">
<path d="M116.812 54.2451H222V160.912H116.812V54.2451Z" fill="white"/>
</mask>
<g mask="url(#mask5_238_518)">
<path d="M121.495 159.62C120.557 159.62 119.677 159.256 119.01 158.589C118.349 157.928 117.984 157.042 117.984 156.105V133.287C117.984 123.985 121.604 115.235 128.177 108.657C134.755 102.079 143.5 98.4536 152.797 98.4536H180.26C191.583 98.4536 200.797 89.2401 200.797 77.9119V68.7974H199.208C198.479 68.7974 197.833 68.3494 197.562 67.6567C197.276 66.938 197.458 66.1359 198.016 65.6151L208.312 56.0317C208.979 55.4119 210.031 55.4119 210.698 56.0317L220.995 65.6151V65.6203C221.552 66.1359 221.734 66.938 221.448 67.6567C221.177 68.3494 220.531 68.7974 219.802 68.7974H218.729V81.5682C218.729 90.8703 215.109 99.6151 208.531 106.198C201.958 112.777 193.214 116.396 183.911 116.396H156.87C145.318 116.396 135.917 125.803 135.917 137.36V156.094C135.917 158.032 134.344 159.61 132.406 159.61L121.5 159.62H121.495ZM152.797 100.704C134.839 100.704 120.229 115.323 120.229 133.287V156.105C120.229 156.443 120.359 156.761 120.599 157C120.839 157.24 121.156 157.37 121.495 157.37L132.406 157.36C133.104 157.36 133.667 156.792 133.667 156.094V137.36C133.667 124.563 144.078 114.152 156.87 114.152H183.911C201.87 114.152 216.479 99.5317 216.479 81.5682V67.6724C216.479 67.0526 216.984 66.5474 217.604 66.5474H218.698L209.505 57.9953L200.312 66.5474H201.917C202.542 66.5474 203.042 67.0526 203.042 67.6724V77.9119C203.042 90.4797 192.823 100.704 180.26 100.704H152.797Z" fill="#133487"/>
</g>
<path d="M179.561 141.131V137.365C179.561 136.662 178.993 136.094 178.296 136.094H175.53C175.129 133.995 174.342 132.167 173.259 130.511L175.02 128.735C175.509 128.24 175.509 127.438 175.014 126.948L172.259 124.177C171.754 123.672 170.931 123.683 170.436 124.203L168.863 125.881C167.202 124.782 164.868 123.974 163.467 123.558V121.266C163.467 120.563 162.9 119.995 162.202 119.995H157.738C157.04 119.995 156.473 120.563 156.473 121.266V123.558C154.374 123.974 152.691 124.771 151.035 125.875L149.353 124.157C148.863 123.657 148.051 123.651 147.556 124.151L144.801 126.922C144.311 127.417 144.311 128.214 144.796 128.709L146.577 130.511C145.493 132.167 144.723 133.995 144.316 136.094H141.645C140.947 136.094 140.379 136.662 140.379 137.365V141.131C140.379 141.828 140.947 142.396 141.645 142.396H144.342C144.764 144.495 145.556 146.271 146.639 147.917L144.832 149.735C144.342 150.229 144.342 151.026 144.837 151.521L147.598 154.292C148.103 154.797 148.915 154.787 149.41 154.276L151.113 152.5C152.754 153.573 154.374 154.354 156.473 154.766V157.229C156.473 157.927 157.04 158.495 157.738 158.495H162.202C162.9 158.495 163.467 157.927 163.467 157.229V154.766C164.868 154.354 167.139 153.578 168.78 152.506L170.514 154.292C171.009 154.797 171.822 154.802 172.322 154.297L175.056 151.537C175.546 151.042 175.546 150.245 175.056 149.756L173.228 147.917C174.311 146.271 175.087 144.495 175.504 142.396H178.296C178.993 142.396 179.561 141.828 179.561 141.131Z" fill="#FFD255"/>
<path d="M162.202 159.62H157.738C156.421 159.62 155.348 158.547 155.348 157.229V155.667C153.952 155.308 152.671 154.761 151.29 153.938L150.217 155.052C149.77 155.521 149.165 155.782 148.52 155.787C147.874 155.802 147.264 155.547 146.806 155.089L144.04 152.318C143.113 151.386 143.108 149.875 144.035 148.943L145.212 147.756C144.415 146.401 143.832 145.006 143.447 143.521H141.645C140.327 143.521 139.254 142.448 139.254 141.131V137.365C139.254 136.047 140.327 134.974 141.645 134.974H143.41C143.79 133.448 144.368 132.026 145.155 130.672L143.999 129.495C143.082 128.568 143.082 127.058 144.004 126.131L146.759 123.36C147.207 122.907 147.811 122.657 148.452 122.657C148.452 122.657 148.457 122.657 148.462 122.657C149.103 122.657 149.707 122.912 150.16 123.37L151.202 124.438C152.582 123.604 153.915 123.037 155.348 122.662V121.266C155.348 119.943 156.421 118.87 157.738 118.87H162.202C163.52 118.87 164.592 119.943 164.592 121.266V122.735C165.754 123.11 167.306 123.693 168.665 124.448L169.618 123.433C170.066 122.959 170.676 122.693 171.327 122.683C171.978 122.672 172.592 122.922 173.051 123.386L175.811 126.151C176.733 127.078 176.738 128.594 175.816 129.526L174.681 130.672C175.478 132.037 176.056 133.459 176.436 134.974H178.296C179.613 134.974 180.686 136.047 180.686 137.365V141.131C180.686 142.448 179.613 143.521 178.296 143.521H176.4C176.02 145.021 175.441 146.417 174.65 147.756L175.853 148.959C176.775 149.886 176.775 151.401 175.853 152.328L173.118 155.094C172.665 155.547 172.066 155.797 171.421 155.797C171.421 155.797 171.415 155.797 171.41 155.797C170.764 155.797 170.16 155.537 169.707 155.073L168.592 153.927C167.249 154.667 165.728 155.229 164.592 155.594V157.229C164.592 158.547 163.52 159.62 162.202 159.62ZM151.113 151.375C151.327 151.375 151.54 151.438 151.728 151.558C153.467 152.693 154.947 153.323 156.686 153.662C157.212 153.766 157.598 154.229 157.598 154.766V157.229C157.598 157.308 157.66 157.37 157.738 157.37H162.202C162.28 157.37 162.342 157.308 162.342 157.229V154.766C162.342 154.266 162.676 153.828 163.155 153.688C164.342 153.339 166.582 152.599 168.165 151.563C168.613 151.271 169.212 151.334 169.587 151.719L171.322 153.506C171.348 153.537 171.384 153.552 171.421 153.552C171.462 153.552 171.493 153.537 171.525 153.506L174.259 150.745C174.316 150.693 174.316 150.604 174.259 150.547L172.431 148.709C172.056 148.328 171.993 147.74 172.29 147.292C173.342 145.709 174.03 144.032 174.405 142.177C174.509 141.651 174.967 141.271 175.504 141.271H178.296C178.374 141.271 178.436 141.209 178.436 141.131V137.365C178.436 137.287 178.374 137.219 178.296 137.219H175.535C174.993 137.219 174.53 136.839 174.431 136.308C174.072 134.443 173.379 132.745 172.322 131.125C172.03 130.683 172.087 130.094 172.462 129.719L174.217 127.943C174.275 127.886 174.275 127.797 174.217 127.74L171.462 124.974C171.431 124.943 171.395 124.933 171.358 124.933C171.316 124.933 171.285 124.948 171.254 124.974L169.681 126.651C169.306 127.047 168.697 127.12 168.243 126.818C166.655 125.766 164.368 125 163.15 124.636C162.671 124.495 162.342 124.058 162.342 123.558V121.266C162.342 121.183 162.28 121.12 162.202 121.12H157.738C157.66 121.12 157.598 121.183 157.598 121.266V123.558C157.598 124.094 157.217 124.558 156.691 124.662C154.921 125.016 153.363 125.677 151.655 126.813C151.202 127.11 150.608 127.047 150.228 126.662L148.551 124.943C148.525 124.917 148.488 124.901 148.452 124.901C148.41 124.901 148.379 124.917 148.353 124.943L145.598 127.714C145.54 127.771 145.54 127.86 145.598 127.917L147.374 129.719C147.749 130.094 147.806 130.683 147.514 131.125C146.467 132.724 145.785 134.422 145.421 136.308C145.316 136.839 144.853 137.219 144.316 137.219H141.645C141.566 137.219 141.504 137.287 141.504 137.365V141.131C141.504 141.209 141.566 141.271 141.645 141.271H144.342C144.879 141.271 145.342 141.651 145.447 142.177C145.811 144.006 146.509 145.677 147.577 147.292C147.874 147.74 147.811 148.328 147.436 148.709L145.629 150.526C145.577 150.584 145.577 150.672 145.629 150.729L148.395 153.5C148.426 153.526 148.457 153.542 148.499 153.542C148.535 153.542 148.572 153.526 148.598 153.495L150.306 151.719C150.52 151.495 150.816 151.375 151.113 151.375Z" fill="#133487"/>
<path d="M198.26 149.927C197.64 149.927 197.14 149.422 197.14 148.802V132.193L192.755 136.083C192.286 136.495 191.577 136.453 191.166 135.99C190.755 135.526 190.796 134.813 191.26 134.401L197.515 128.849C197.848 128.557 198.317 128.484 198.723 128.667C199.124 128.849 199.385 129.25 199.385 129.693V148.802C199.385 149.422 198.88 149.927 198.26 149.927Z" fill="#133487"/>
<path d="M203.645 149.927H192.879C192.259 149.927 191.754 149.422 191.754 148.802C191.754 148.182 192.259 147.677 192.879 147.677H203.645C204.264 147.677 204.764 148.182 204.764 148.802C204.764 149.422 204.264 149.927 203.645 149.927Z" fill="#133487"/>
<path d="M157.359 77.5887V73.8283C157.359 73.1252 157.922 72.5575 158.625 72.5575H161.385C161.792 70.4585 162.573 68.6304 163.656 66.9689L161.901 65.1981C161.411 64.7033 161.411 63.9012 161.901 63.4116L164.661 60.6408C165.167 60.1356 165.99 60.146 166.479 60.6668L168.057 62.3439C169.714 61.2397 172.052 60.4377 173.448 60.021V57.7241C173.448 57.0262 174.016 56.4585 174.719 56.4585H179.182C179.88 56.4585 180.448 57.0262 180.448 57.7241V60.021C182.547 60.4377 184.229 61.2345 185.885 62.3335L187.562 60.62C188.057 60.1147 188.87 60.1147 189.365 60.6147L192.12 63.3856C192.609 63.8804 192.609 64.672 192.12 65.1668L190.344 66.9689C191.427 68.6304 192.198 70.4585 192.604 72.5575H195.271C195.974 72.5575 196.536 73.1252 196.536 73.8231V77.5887C196.536 78.2918 195.974 78.8595 195.271 78.8595H192.573C192.156 80.9585 191.365 82.7345 190.276 84.3752L192.083 86.1981C192.578 86.6929 192.578 87.4897 192.083 87.9845L189.318 90.7554C188.818 91.2606 188 91.2502 187.51 90.7397L185.802 88.9637C184.167 90.0366 182.547 90.8179 180.448 91.2293V93.6929C180.448 94.3908 179.88 94.9585 179.182 94.9585H174.719C174.016 94.9585 173.448 94.3908 173.448 93.6929V91.2293C172.052 90.8179 169.776 90.0366 168.141 88.9689L166.406 90.7502C165.911 91.2606 165.094 91.2658 164.599 90.7606L161.859 88.0002C161.37 87.5054 161.37 86.7085 161.865 86.2137L163.693 84.3752C162.604 82.7345 161.833 80.9585 161.417 78.8595H158.625C157.922 78.8595 157.359 78.2918 157.359 77.5887Z" fill="#FFD255"/>
<path d="M179.177 96.0835H174.719C173.396 96.0835 172.328 95.0106 172.328 93.6929V92.0575C171.188 91.6929 169.667 91.1304 168.323 90.3908L167.208 91.5366C166.76 92.0002 166.156 92.2606 165.505 92.2606C164.859 92.2606 164.255 92.0158 163.797 91.5522L161.062 88.7918C160.141 87.8647 160.141 86.3491 161.068 85.422L162.266 84.2137C161.479 82.8804 160.901 81.4793 160.516 79.9845H158.625C157.307 79.9845 156.234 78.9116 156.234 77.5887V73.8283C156.234 72.5054 157.307 71.4325 158.625 71.4325H160.484C160.865 69.9168 161.443 68.5002 162.24 67.1356L161.104 65.9845C160.182 65.0575 160.182 63.5418 161.109 62.6147L163.865 59.8491C164.318 59.396 164.917 59.146 165.557 59.146C165.568 59.146 165.578 59.146 165.594 59.146C166.245 59.1564 166.849 59.422 167.297 59.896L168.25 60.9116C169.609 60.1512 171.167 59.5731 172.328 59.1929V57.7241C172.328 56.4064 173.396 55.3335 174.719 55.3335H179.177C180.5 55.3335 181.568 56.4064 181.568 57.7241V59.1252C183.005 59.5002 184.333 60.0679 185.719 60.9012L186.76 59.8335C187.214 59.3752 187.812 59.12 188.458 59.1147C188.464 59.1147 188.464 59.1147 188.469 59.1147C189.109 59.1147 189.708 59.3647 190.161 59.8231L192.917 62.5939C193.833 63.521 193.839 65.0314 192.922 65.9585L191.76 67.1304C192.552 68.4897 193.125 69.9116 193.505 71.4325H195.271C196.589 71.4325 197.661 72.5054 197.661 73.8283V77.5939C197.661 78.9116 196.589 79.9845 195.271 79.9845H193.469C193.089 81.4689 192.505 82.8647 191.703 84.2189L192.88 85.4064C193.807 86.3335 193.807 87.8491 192.875 88.7814L190.115 91.5522C189.656 92.0106 189.047 92.2606 188.401 92.2502C187.75 92.245 187.146 91.9845 186.698 91.5158L185.625 90.4012C184.25 91.2241 182.969 91.771 181.568 92.1252V93.6929C181.568 95.0106 180.5 96.0835 179.177 96.0835ZM168.141 87.8439C168.349 87.8439 168.563 87.9012 168.755 88.0262C170.396 89.0991 172.807 89.87 173.766 90.1512C174.245 90.2866 174.573 90.7293 174.573 91.2293V93.6929C174.573 93.771 174.635 93.8335 174.719 93.8335H179.177C179.26 93.8335 179.323 93.771 179.323 93.6929V91.2293C179.323 90.6877 179.703 90.2293 180.229 90.1252C181.969 89.7866 183.453 89.1564 185.188 88.021C185.641 87.7241 186.24 87.7918 186.615 88.1825L188.318 89.9585C188.344 89.9897 188.38 90.0002 188.422 90.0054C188.464 90.0054 188.495 89.9897 188.526 89.9585L191.286 87.1929C191.344 87.1356 191.344 87.047 191.286 86.9897L189.479 85.172C189.104 84.7918 189.047 84.1981 189.339 83.7554C190.411 82.1408 191.109 80.4689 191.474 78.6408C191.578 78.1147 192.036 77.7345 192.573 77.7345H195.271C195.349 77.7345 195.417 77.672 195.417 77.5887V73.8283C195.417 73.745 195.349 73.6825 195.271 73.6825H192.604C192.062 73.6825 191.604 73.3022 191.5 72.771C191.135 70.8856 190.448 69.1877 189.401 67.5887C189.115 67.146 189.172 66.5575 189.542 66.1825L191.323 64.3804C191.375 64.3231 191.375 64.2345 191.323 64.1772L188.568 61.4064C188.542 61.3804 188.505 61.3647 188.469 61.3647C188.427 61.3647 188.396 61.3804 188.365 61.4064L186.688 63.12C186.312 63.5054 185.714 63.5731 185.266 63.271C183.552 62.1356 182 61.4741 180.229 61.1252C179.703 61.021 179.323 60.5575 179.323 60.021V57.7241C179.323 57.646 179.26 57.5835 179.182 57.5835H174.719C174.635 57.5835 174.573 57.646 174.573 57.7241V60.021C174.573 60.521 174.245 60.9585 173.771 61.0991C172.547 61.4637 170.266 62.2241 168.677 63.2762C168.219 63.5835 167.615 63.5106 167.24 63.1147L165.661 61.4377C165.635 61.4116 165.599 61.396 165.562 61.396C165.557 61.396 165.557 61.396 165.557 61.396C165.521 61.396 165.484 61.4064 165.458 61.4377L162.698 64.2033C162.646 64.2606 162.646 64.3491 162.698 64.4012L164.458 66.1772C164.828 66.5575 164.891 67.1408 164.599 67.5887C163.542 69.2085 162.849 70.9064 162.49 72.771C162.385 73.3022 161.927 73.6825 161.385 73.6825H158.625C158.547 73.6825 158.484 73.745 158.484 73.8231V77.5887C158.484 77.672 158.547 77.7345 158.625 77.7345H161.417C161.948 77.7345 162.411 78.1147 162.516 78.6356C162.885 80.495 163.578 82.1668 164.63 83.7554C164.922 84.1981 164.865 84.7918 164.49 85.172L162.661 87.0106C162.604 87.0627 162.604 87.1512 162.661 87.2085L165.396 89.9689C165.422 90.0002 165.458 90.0158 165.495 90.0106C165.536 90.0106 165.573 90.0002 165.599 89.9689L167.333 88.1825C167.552 87.9585 167.844 87.8439 168.141 87.8439Z" fill="#133487"/>
<path d="M147.694 86.3857H136.059C135.434 86.3857 134.934 85.8857 134.934 85.266V80.042C134.934 77.0316 137.382 74.5837 140.387 74.5837H143.361C145.132 74.5837 146.569 73.1462 146.569 71.3753V70.4847C146.569 68.7191 145.132 67.2764 143.361 67.2764H140.387C138.621 67.2764 137.178 68.7191 137.178 70.4847C137.178 71.1097 136.678 71.6097 136.059 71.6097C135.434 71.6097 134.934 71.1097 134.934 70.4847C134.934 67.4795 137.382 65.0264 140.387 65.0264H143.361C146.371 65.0264 148.819 67.4795 148.819 70.4847V71.3753C148.819 74.3857 146.371 76.8337 143.361 76.8337H140.387C138.621 76.8337 137.178 78.2712 137.178 80.042V84.141H147.694C148.314 84.141 148.819 84.641 148.819 85.266C148.819 85.8857 148.314 86.3857 147.694 86.3857Z" fill="#133487"/>
<path d="M157.093 147.729C156.479 147.729 155.89 147.469 155.479 147.016L149.692 140.583C148.89 139.693 148.958 138.323 149.848 137.521C150.739 136.719 152.109 136.786 152.911 137.677L157.031 142.255L165.307 132.38C166.078 131.458 167.447 131.339 168.364 132.109C169.281 132.88 169.401 134.25 168.635 135.167L158.755 146.953C158.348 147.437 157.76 147.719 157.13 147.729C157.119 147.729 157.104 147.729 157.093 147.729Z" fill="white"/>
<path d="M157.094 148.854C156.162 148.854 155.272 148.458 154.647 147.766L148.855 141.339C147.641 139.99 147.751 137.901 149.1 136.682C149.751 136.094 150.594 135.797 151.475 135.844C152.35 135.886 153.162 136.271 153.751 136.927L157.001 140.542L164.449 131.656C165.615 130.266 167.693 130.078 169.089 131.245C170.48 132.417 170.662 134.495 169.495 135.891L159.615 147.677C159.006 148.406 158.105 148.839 157.152 148.854C157.136 148.854 157.115 148.854 157.094 148.854ZM151.303 138.089C151.042 138.089 150.798 138.182 150.605 138.354C150.173 138.74 150.141 139.406 150.527 139.833L156.318 146.261C156.516 146.479 156.798 146.604 157.094 146.604H157.105C157.412 146.599 157.699 146.464 157.891 146.234L167.772 134.443C168.141 134 168.084 133.339 167.641 132.969C167.204 132.599 166.542 132.656 166.173 133.099L157.063 143.969L152.079 138.432C151.891 138.224 151.636 138.104 151.355 138.089C151.339 138.089 151.318 138.089 151.303 138.089Z" fill="#133487"/>
<path d="M173.989 84.4951C173.375 84.4951 172.791 84.2347 172.38 83.7763L166.588 77.3493C165.786 76.4586 165.859 75.0836 166.75 74.2815C167.64 73.4795 169.01 73.5524 169.812 74.443L173.932 79.0159L182.208 69.1409C182.979 68.219 184.344 68.0993 185.265 68.8701C186.182 69.6409 186.302 71.0107 185.531 71.9274L175.651 83.719C175.25 84.1982 174.656 84.4795 174.031 84.4951C174.015 84.4951 174.005 84.4951 173.989 84.4951Z" fill="white"/>
<path d="M173.99 85.6201C173.058 85.6201 172.167 85.2191 171.547 84.5263L165.756 78.0993C164.542 76.7503 164.646 74.6618 165.995 73.4482C166.651 72.8597 167.495 72.5576 168.37 72.6045C169.25 72.6513 170.058 73.0368 170.646 73.6878L173.901 77.3024L181.349 68.417C182.511 67.0263 184.594 66.8441 185.985 68.0107C187.375 69.1774 187.563 71.2607 186.396 72.6513L176.516 84.4378C175.901 85.1722 175.006 85.5993 174.052 85.6149C174.032 85.6201 174.011 85.6201 173.99 85.6201ZM168.198 74.8493C167.943 74.8493 167.693 74.943 167.5 75.1201C167.073 75.5055 167.037 76.167 167.427 76.5941L173.214 83.0211C173.412 83.2451 173.698 83.3701 173.99 83.3701H174.006C174.313 83.3649 174.599 83.2295 174.792 82.9951L184.672 71.2086C185.042 70.7659 184.985 70.1045 184.542 69.7347C184.099 69.3649 183.438 69.4222 183.068 69.8649L173.964 80.7295L168.98 75.193C168.792 74.9847 168.537 74.8649 168.256 74.8493C168.235 74.8493 168.219 74.8493 168.198 74.8493Z" fill="#133487"/>
</svg>
