<svg width="687" height="837" viewBox="0 0 687 837" fill="none" xmlns="http://www.w3.org/2000/svg">
<g opacity="0.2">
<path d="M595.672 316.809C597.274 322.788 597.131 330.481 595.02 341.239C589.149 369.863 558.14 405.911 525.336 443.988C507.332 464.939 488.702 486.574 474.206 507.188C446.567 539.021 433.667 583.892 421.148 627.328C412.016 659.062 403.358 689.035 389.488 714.168L389.457 714.22C378.536 733.23 365.979 744.121 351.096 747.507C322.054 754.127 288.419 731.014 249.475 704.206L245.729 701.64C216.748 681.796 178.534 657.373 121.873 622.367L117.199 619.362C67.8631 587.683 6.4568 548.229 -40.4002 488.362C-143.276 370.869 -123.43 238.597 -77.542 186.22C-22.6406 129.708 47.6438 114.488 191.209 127.97C340.928 142.256 476.28 226.491 527.51 262.049C545.397 277.426 559.932 286.175 570.544 292.535C583.961 300.637 592.748 305.895 595.672 316.809ZM384.513 711.717C398.081 687.137 406.636 657.45 415.717 626.031C428.37 582.086 441.465 536.603 469.731 504.086C484.216 483.433 502.951 461.683 521.028 440.669C553.341 403.111 583.87 367.622 589.487 340.399C594.675 313.593 587.808 309.455 567.418 297.157C556.638 290.67 541.839 281.777 523.836 266.302C473.177 231.193 338.837 147.547 190.454 133.377C48.9596 120.07 -20.0979 134.832 -73.4428 189.767C-117.942 240.61 -136.977 369.697 -36.0484 484.96C10.3739 544.212 71.3477 583.395 120.315 614.871L124.978 617.836C181.691 652.871 219.959 677.323 249.002 697.237L252.749 699.802C290.595 725.873 323.291 748.334 349.835 742.297C363.101 739.258 374.413 729.26 384.513 711.717Z" fill="#A7CEFC"/>
<path d="M559.826 335.144C562.041 343.409 561.614 352.899 559.929 366.252L559.909 366.516C553.972 392.878 529.62 419.014 503.868 446.643C486.251 465.512 468.091 485.043 453.485 506.589C428.849 538.048 412.657 573.652 396.994 608.039C386.496 631.151 376.559 652.994 364.456 672.966L364.195 673.337C327.422 717.251 301.336 699.814 253.955 668.213C248.806 664.776 243.382 661.155 237.61 657.412C227.495 649.715 216.326 641.612 204.482 633.002C151.817 594.775 79.6967 542.366 10.4108 459.738C-66.7227 356.721 -57.202 258.61 -13.5799 207.012C32.2872 154.727 103.409 151.195 226.964 163.029C352.853 178.539 448.861 242.697 500.431 277.174L506.182 281.009C541.183 307.54 555.525 319.094 559.826 335.144ZM554.354 365.596C558.896 329.157 554.212 324.434 502.803 285.355L497.21 281.607C446.03 247.412 350.741 183.75 226.282 168.373C104.798 156.714 34.9569 159.989 -9.21911 210.359C-51.4429 260.292 -60.3699 355.749 14.952 456.371C83.7193 538.406 155.544 590.551 207.956 628.673C219.8 637.283 230.969 645.386 241.02 653.014C246.634 656.671 252.058 660.292 257.249 663.718C304.683 695.347 326.379 709.833 359.741 670.144C371.615 650.491 381.427 628.853 391.852 605.976C407.609 571.263 423.957 535.402 448.895 503.562C463.626 481.81 481.963 462.103 499.716 443.068C524.872 416.071 548.661 390.517 554.354 365.596Z" fill="#A7CEFC"/>
<path d="M529.988 350.708C532.815 361.261 531.493 372.109 528.046 386.106C520.664 409.931 498.482 433.422 475.046 458.28C461.094 473.028 446.703 488.323 434.147 504.761C413.869 528.473 398.049 554.386 382.708 579.398C370.124 599.929 358.27 619.319 345.052 635.633L344.843 635.861C308.755 671.421 282.214 651.782 234.01 616.102L233.45 615.693L225.201 608.915C178.367 570.287 114.21 517.378 56.4138 436.832C-7.22638 340.521 10.7035 263.553 45.3241 226.881C82.2418 187.702 143.429 178.489 256.513 195.065C335.69 207.996 413.129 242.982 486.669 299.011C513.382 321.14 525.945 335.621 529.988 350.708ZM340.691 632.286C353.627 616.262 365.398 597.067 377.815 576.752C393.239 551.547 409.237 525.456 429.682 501.528C442.289 484.947 456.837 469.567 470.895 454.704C493.923 430.342 515.645 407.32 522.615 384.809C530.537 352.926 526.534 339.162 483.026 303.212C410.236 247.8 333.661 213.184 255.473 200.418C144.546 184.168 84.8372 192.856 49.3921 230.479C13.4765 268.53 3.13882 346.13 61.0517 433.826C118.403 513.717 182.222 566.373 228.866 604.794L237.453 611.825C285.994 647.759 308.217 664.211 340.691 632.286Z" fill="#A7CEFC"/>
<path d="M502.12 362.217C505.281 374.014 504.009 386.224 499.01 400.809L498.989 400.901C490.631 423.095 469.552 444.828 447.283 467.825C436.952 478.463 426.319 489.483 416.446 500.988C401.69 516.769 388.599 533.393 375.989 549.459C360.49 569.18 345.835 587.858 330.447 601.614C297.085 627.369 271.292 609.681 232.674 577.539C195.286 543.777 140.682 490.759 97.7073 419.359C62.006 349.751 59.9395 291 91.8031 253.777C126.119 213.618 194.738 202.929 280.084 224.443C379.094 244.403 448.718 299.244 467.671 315.583C487.136 333.16 498.142 347.371 502.12 362.217ZM493.682 399.227C502.977 371.964 500.888 353.086 463.807 319.629C445.149 303.555 376.434 249.416 278.666 229.726C195.446 208.76 128.935 218.755 96.1327 257.175C65.7826 292.659 68.1414 349.311 102.726 416.767C145.276 487.421 199.467 540.076 236.549 573.533C276.277 606.625 298.164 619.812 326.902 597.618C341.736 584.311 356.224 565.85 371.588 546.295C384.302 530.115 397.413 513.399 412.284 497.545C422.147 486 432.905 474.946 443.267 464.256C465.055 441.646 485.706 420.329 493.682 399.227Z" fill="#A7CEFC"/>
<path d="M476.335 371.408C479.69 383.927 478.284 396.646 472.506 411.011L472.298 411.41C436.087 470.183 339.572 554.059 320.615 570.277L320.154 570.572C291.182 587.023 267.979 573.629 235.309 543.205C205.853 514.198 164.59 466.982 135.051 406.603C109.679 350.527 110.917 303.104 138.525 272.999C169.203 239.577 227.329 231.701 298.002 251.34C365.342 267.271 420.207 302.629 449.067 330.419C463.869 345.031 472.776 358.127 476.335 371.408ZM467.365 408.948C478.308 381.459 472.248 361.193 445.023 334.298C416.702 307.009 362.776 272.302 296.436 256.576C228.827 237.793 171.402 245.267 142.708 276.523C116.625 304.929 115.7 350.333 140.187 404.281C169.396 463.931 210.246 510.613 239.353 539.326C270.596 568.455 291.259 580.594 317.195 566.076C371.651 519.488 439.625 453.839 467.365 408.948Z" fill="#A7CEFC"/>
<path d="M452.611 380.087C456.202 393.489 454.651 406.333 447.981 417.539C421.764 462.236 356.396 518.973 314.083 541.879C304.105 546.445 293.228 546.65 281.706 542.599C246.19 530.096 203.983 476.166 168.81 398.288C151.841 353.593 155.545 315.874 179.238 291.979C206.086 264.916 254.167 259.172 311.098 276.215C383.429 298.851 435.452 335.185 450.364 373.378C451.281 375.626 452.02 377.88 452.611 380.087ZM168.506 379.189C169.99 384.726 171.821 390.385 174.042 396.155C208.555 472.575 249.589 525.487 283.745 537.451C293.878 541.015 303.241 540.871 311.616 537.036C353.059 514.578 417.382 458.809 443.13 414.882C450.008 403.277 450.703 389.586 445.131 375.339C430.795 338.626 380.03 303.46 309.321 281.335C255.328 265.183 208.211 270.496 183.275 295.628C164.189 314.891 159.12 344.16 168.506 379.189Z" fill="#A7CEFC"/>
<path d="M429.193 385.027C432.526 397.466 431.264 409.545 425.411 420.273C404.663 458.517 351.067 503.112 310.741 515.637L310.657 515.66C273.145 525.926 226.297 474.486 199.344 393.374C189.055 358.5 194.334 329.175 214.308 310.706C237.197 289.521 275.724 285.391 320.045 299.362C374.036 316.848 413.919 346.157 426.764 377.808C427.735 380.257 428.559 382.66 429.193 385.027ZM309.176 510.466C348.284 498.266 400.301 454.998 420.436 417.822C426.621 406.488 426.984 393.403 421.522 379.901C409.243 349.689 370.606 321.509 318.142 304.516C275.885 291.196 239.395 294.867 218.094 314.595C199.751 331.594 194.933 358.947 204.663 391.734C230.266 468.649 275.22 519.736 309.176 510.466Z" fill="#A7CEFC"/>
<path d="M406.838 389.081C409.752 399.955 408.87 410.599 404.125 420.257C387.607 454.142 344.49 486.639 309.929 491.298C276.615 495.235 240.207 451.363 227.025 391.59C221.632 365.253 227.679 343.162 243.992 329.33C262.689 313.482 292.341 310.483 325.302 321.175C363.93 333.876 393.399 356.385 404.143 381.374C405.283 383.95 406.15 386.513 406.838 389.081ZM234.776 399.533C248.818 451.937 280.563 489.318 309.34 485.908C341.601 481.564 383.535 449.857 399.077 418.04C404.185 407.554 404.145 395.652 398.964 383.536C388.806 359.895 360.542 338.526 323.388 326.29C292.397 316.231 264.791 318.811 247.632 333.343C232.929 345.798 227.565 366.072 232.504 390.38C233.237 393.452 233.97 396.524 234.776 399.533Z" fill="#A7CEFC"/>
<path d="M385.378 392.596C387.722 401.343 387.206 409.996 383.829 418.04C372.088 445.915 339.506 468.536 311.191 468.468C283.138 468.2 257.334 434.689 252.444 392.262C250.407 373.412 256.25 357.612 268.908 347.769C283.24 336.618 304.626 334.5 327.583 341.939C353.815 350.521 373.826 366.103 382.451 384.693C383.686 387.286 384.668 389.947 385.378 392.596ZM311.358 463.047C337.067 463.126 367.879 441.624 378.635 416.12C382.459 407.054 382.01 396.982 377.346 386.964C369.414 369.952 350.111 354.997 325.701 347.002C304.618 340.179 285.217 341.98 272.402 351.908C261.302 360.516 256.216 374.608 258.052 391.534C262.523 430.718 286.458 462.795 311.358 463.047Z" fill="#A7CEFC"/>
<path d="M364.558 395.809C366.182 401.868 366.114 408.165 363.965 414.246C356.94 434.534 334.41 449.172 313.786 446.915C293.235 444.594 276.226 421.241 275.888 394.797C275.72 382.585 280.577 372.338 289.483 365.952C299.299 358.935 313.122 357.468 327.358 361.911C346.913 368.068 360.666 381.284 364.558 395.809ZM358.679 412.651C364.743 395.157 349.906 374.706 325.539 367.043C313.072 363.158 301.097 364.303 292.799 370.268C285.4 375.562 281.374 384.209 281.51 394.623C281.832 418.491 296.652 439.55 314.553 441.548C332.673 443.531 352.46 430.574 358.679 412.651Z" fill="#A7CEFC"/>
<path d="M344.208 399.284C345.09 402.574 345.152 405.998 344.258 409.377C341.196 420.949 329.06 428.544 317.16 426.271C305.406 424.045 296.724 411.62 297.833 398.636C298.363 392.387 301.359 387.112 306.331 383.844C311.565 380.378 318.528 379.501 325.403 381.486C335.121 384.344 342.068 391.299 344.208 399.284ZM304.145 406.578C306.091 413.841 311.581 419.724 318.41 421.033C327.365 422.72 336.537 416.994 338.817 408.211C341.151 399.458 334.334 389.802 323.659 386.728C318.342 385.185 313.321 385.756 309.427 388.348C305.91 390.666 303.778 394.463 303.385 399.041C303.222 401.622 303.5 404.171 304.145 406.578Z" fill="#A7CEFC"/>
</g>
</svg>
