<svg width="195" height="151" viewBox="0 0 195 151" fill="none" xmlns="http://www.w3.org/2000/svg">
<mask id="mask0_238_752" style="mask-type:luminance" maskUnits="userSpaceOnUse" x="0" y="95" width="40" height="56">
<path d="M0 95.3828H39.5566V150.563H0V95.3828Z" fill="white"/>
</mask>
<g mask="url(#mask0_238_752)">
<path d="M39.3117 96.3418L31.3018 115.075L16.1751 150.463H0.0976562L23.2342 96.3418H39.3117Z" fill="#73A97F"/>
</g>
<path d="M96.3808 70.8877L88.371 89.621L62.3861 150.463H46.3125L80.365 70.8877H96.3808Z" fill="#73A97F"/>
<path d="M130.374 150.463H114.297L172.968 13.3213H189.045L130.374 150.463Z" fill="#73A97F"/>
<path d="M130.431 150.463H114.353L88.3106 89.6825L80.3008 70.9492H96.3782L130.431 150.463Z" fill="#E5F2E1"/>
<path d="M62.4484 150.463H46.371V150.402L31.302 115.137L23.2344 96.3418H39.3118L54.3808 131.611L62.3868 150.344L62.4484 150.463Z" fill="#E5F2E1"/>
<mask id="mask1_238_752" style="mask-type:luminance" maskUnits="userSpaceOnUse" x="163" y="0" width="32" height="25">
<path d="M163.711 0H194.361V24.4376H163.711V0Z" fill="white"/>
</mask>
<g mask="url(#mask1_238_752)">
<path d="M194.269 24.0257L164.25 9.27619L185.901 0L194.269 24.0257Z" fill="#73A97F"/>
</g>
<path d="M116.077 143.504V148.319C116.077 149.331 115.246 150.163 114.237 150.163H79.4727C78.4643 150.163 77.6367 149.331 77.6367 148.319V143.504C77.6367 142.492 78.4643 141.66 79.4727 141.66H114.237C115.246 141.66 116.077 142.492 116.077 143.504Z" fill="#73A97F"/>
<path d="M114.177 150.225H79.4123C78.3461 150.225 77.4531 149.332 77.4531 148.262V143.443C77.4531 142.372 78.3461 141.479 79.4123 141.479H114.177C115.243 141.479 116.136 142.372 116.136 143.443V148.262C116.136 149.389 115.243 150.225 114.177 150.225ZM79.4123 141.718C78.4038 141.718 77.634 142.492 77.634 143.504V148.319C77.634 149.332 78.4038 150.105 79.4123 150.105H114.177C115.185 150.105 115.955 149.332 115.955 148.319V143.504C115.955 142.492 115.185 141.718 114.177 141.718H79.4123Z" fill="#3A5545"/>
<path d="M84.2773 141.66H80.5977V150.224H84.2773V141.66Z" fill="#FBFEF9"/>
<path d="M84.2765 150.224H80.5968C80.5391 150.224 80.5391 150.162 80.5391 150.162V141.598C80.5391 141.541 80.5968 141.541 80.5968 141.541H84.2765C84.3342 141.541 84.3342 141.598 84.3342 141.598V150.162C84.3342 150.205 84.315 150.224 84.2765 150.224ZM80.6584 150.105H84.1572V141.718H80.6584V150.105Z" fill="#3A5545"/>
<path d="M86.832 141.66H84.9922V150.224H86.832V141.66Z" fill="#FBFEF9"/>
<path d="M86.8311 150.224H84.9913C84.9297 150.224 84.9297 150.162 84.9297 150.162V141.598C84.9297 141.541 84.9913 141.541 84.9913 141.541H86.8311C86.8888 141.541 86.8888 141.598 86.8888 141.598V150.162C86.8888 150.205 86.8696 150.224 86.8311 150.224ZM85.049 150.105H86.7118V141.718H85.049V150.105Z" fill="#3A5545"/>
<path d="M154.64 143.504V148.319C154.64 149.331 153.808 150.163 152.8 150.163H118.035C117.027 150.163 116.195 149.331 116.195 148.319V143.504C116.195 142.492 117.027 141.66 118.035 141.66H152.8C153.808 141.66 154.64 142.492 154.64 143.504Z" fill="#73A97F"/>
<path d="M152.798 150.225H118.033C116.963 150.225 116.074 149.332 116.074 148.262V143.443C116.074 142.372 116.963 141.479 118.033 141.479H152.798C153.864 141.479 154.757 142.372 154.757 143.443V148.262C154.757 149.389 153.864 150.225 152.798 150.225ZM118.033 141.718C117.025 141.718 116.251 142.492 116.251 143.504V148.319C116.251 149.332 117.025 150.105 118.033 150.105H152.798C153.806 150.105 154.576 149.332 154.576 148.319V143.504C154.576 142.492 153.806 141.718 152.798 141.718H118.033Z" fill="#3A5545"/>
<path d="M122.898 141.66H119.219V150.224H122.898V141.66Z" fill="#FBFEF9"/>
<path d="M122.901 150.224H119.222C119.164 150.224 119.164 150.162 119.164 150.162V141.598C119.164 141.541 119.222 141.541 119.222 141.541H122.901C122.959 141.541 122.959 141.598 122.959 141.598V150.162C122.959 150.224 122.901 150.224 122.901 150.224ZM119.283 150.105H122.782V141.718H119.283V150.105Z" fill="#3A5545"/>
<path d="M125.449 141.66H123.613V150.224H125.449V141.66Z" fill="#FBFEF9"/>
<path d="M125.448 150.224H123.612C123.551 150.224 123.551 150.162 123.551 150.162V141.598C123.551 141.541 123.612 141.541 123.612 141.541H125.448C125.51 141.541 125.51 141.598 125.51 141.598V150.162C125.51 150.224 125.448 150.224 125.448 150.224ZM123.67 150.105H125.333V141.718H123.67V150.105Z" fill="#3A5545"/>
<path d="M118.331 134.82V139.635C118.331 140.648 117.5 141.479 116.491 141.479H81.7266C80.7181 141.479 79.8867 140.648 79.8867 139.635V134.82C79.8867 133.808 80.7181 132.977 81.7266 132.977H116.491C117.5 132.977 118.331 133.808 118.331 134.82Z" fill="#73A97F"/>
<path d="M116.435 141.599H81.6701C80.6001 141.599 79.7109 140.709 79.7109 139.636V134.82C79.7109 133.75 80.6001 132.857 81.6701 132.857H116.435C117.501 132.857 118.39 133.75 118.39 134.82V139.636C118.39 140.709 117.501 141.599 116.435 141.599ZM81.6701 133.034C80.6617 133.034 79.888 133.808 79.888 134.82V139.636C79.888 140.648 80.6617 141.422 81.6701 141.422H116.435C117.443 141.422 118.213 140.648 118.213 139.636V134.82C118.213 133.808 117.443 133.034 116.435 133.034H81.6701Z" fill="#3A5545"/>
<path d="M86.5352 132.977H82.8555V141.541H86.5352V132.977Z" fill="#FBFEF9"/>
<path d="M86.5343 141.599H82.8546C82.7969 141.599 82.7969 141.541 82.7969 141.541V132.977C82.7969 132.919 82.8546 132.919 82.8546 132.919H86.5343C86.592 132.919 86.592 132.977 86.592 132.977V141.541C86.592 141.541 86.592 141.599 86.5343 141.599ZM82.9123 141.421H86.415V133.034H82.9123V141.421Z" fill="#3A5545"/>
<path d="M89.0821 132.977H87.2461V141.541H89.0821V132.977Z" fill="#FBFEF9"/>
<path d="M89.0812 141.599H87.2452C87.1836 141.599 87.1836 141.541 87.1836 141.541V132.977C87.1836 132.919 87.2452 132.919 87.2452 132.919H89.0812C89.1428 132.919 89.1428 132.977 89.1428 132.977V141.541C89.1428 141.541 89.1428 141.599 89.0812 141.599ZM87.3029 141.421H88.9619V133.034H87.3029V141.421Z" fill="#3A5545"/>
<path d="M156.89 134.82V139.635C156.89 140.648 156.062 141.479 155.054 141.479H120.289C119.281 141.479 118.449 140.648 118.449 139.635V134.82C118.449 133.808 119.281 132.977 120.289 132.977H155.054C156.062 132.977 156.89 133.808 156.89 134.82Z" fill="#73A97F"/>
<path d="M155.056 141.599H120.291C119.221 141.599 118.332 140.709 118.332 139.636V134.82C118.332 133.75 119.221 132.857 120.291 132.857H155.056C156.122 132.857 157.011 133.75 157.011 134.82V139.636C156.953 140.709 156.122 141.599 155.056 141.599ZM120.291 133.034C119.283 133.034 118.509 133.808 118.509 134.82V139.636C118.509 140.648 119.283 141.422 120.291 141.422H155.056C156.064 141.422 156.834 140.648 156.834 139.636V134.82C156.834 133.808 156.064 133.034 155.056 133.034H120.291Z" fill="#3A5545"/>
<path d="M125.152 132.977H121.477V141.541H125.152V132.977Z" fill="#FBFEF9"/>
<path d="M125.151 141.599H121.476C121.414 141.599 121.414 141.541 121.414 141.541V132.977C121.414 132.919 121.476 132.919 121.476 132.919H125.151C125.213 132.919 125.213 132.977 125.213 132.977V141.541L125.151 141.599ZM121.533 141.421H125.036V133.034H121.533V141.421Z" fill="#3A5545"/>
<path d="M127.703 132.977H125.863V141.541H127.703V132.977Z" fill="#FBFEF9"/>
<path d="M127.702 141.599H125.862C125.805 141.599 125.805 141.541 125.805 141.541V132.977C125.805 132.919 125.862 132.919 125.862 132.919H127.702C127.764 132.919 127.764 132.977 127.764 132.977V141.541L127.702 141.599ZM125.924 141.421H127.583V133.034H125.924V141.421Z" fill="#3A5545"/>
<path d="M112.339 126.256V131.075C112.339 132.084 111.507 132.919 110.499 132.919H75.7344C74.726 132.919 73.8984 132.084 73.8984 131.075V126.256C73.8984 125.244 74.726 124.413 75.7344 124.413H110.499C111.507 124.413 112.339 125.244 112.339 126.256Z" fill="#73A97F"/>
<path d="M110.497 133.035H75.7327C74.6665 133.035 73.7773 132.146 73.7773 131.075V126.256C73.7773 125.186 74.6665 124.293 75.7327 124.293H110.497C111.567 124.293 112.456 125.186 112.456 126.256V131.075C112.456 132.146 111.567 133.035 110.497 133.035ZM75.7327 124.474C74.7242 124.474 73.9544 125.244 73.9544 126.256V131.075C73.9544 132.084 74.7242 132.858 75.7327 132.858H110.497C111.506 132.858 112.279 132.084 112.279 131.075V126.256C112.279 125.244 111.506 124.474 110.497 124.474H75.7327Z" fill="#3A5545"/>
<path d="M80.5977 124.413H76.9219V132.977H80.5977V124.413Z" fill="#FBFEF9"/>
<path d="M80.6007 133.035H76.9249C76.8633 133.035 76.8633 132.977 76.8633 132.977V124.413C76.8633 124.355 76.9249 124.355 76.9249 124.355H80.6007C80.6623 124.355 80.6623 124.413 80.6623 124.413V132.977C80.6623 132.977 80.6623 133.035 80.6007 133.035ZM76.9826 132.858H80.4814V124.474H76.9826V132.858Z" fill="#3A5545"/>
<path d="M83.1523 124.413H81.3125V132.977H83.1523V124.413Z" fill="#FBFEF9"/>
<path d="M83.1515 133.035H81.3116C81.2539 133.035 81.2539 132.977 81.2539 132.977V124.413C81.2539 124.355 81.3116 124.355 81.3116 124.355H83.1515C83.2092 124.355 83.2092 124.413 83.2092 124.413V132.977C83.2092 132.977 83.2092 133.035 83.1515 133.035ZM81.3732 132.858H83.0322V124.474H81.3732V132.858Z" fill="#3A5545"/>
<path d="M123.788 117.692V122.511C123.788 123.52 122.957 124.355 121.948 124.355H87.1836C86.1751 124.355 85.3438 123.52 85.3438 122.511V117.692C85.3438 116.68 86.1751 115.849 87.1836 115.849H121.948C122.957 115.791 123.788 116.622 123.788 117.692Z" fill="#73A97F"/>
<path d="M121.95 124.413H87.1857C86.1195 124.413 85.2266 123.52 85.2266 122.45V117.634C85.2266 116.564 86.1195 115.671 87.1857 115.671H121.95C123.02 115.671 123.909 116.564 123.909 117.634V122.45C123.909 123.581 123.02 124.413 121.95 124.413ZM87.1857 115.91C86.1773 115.91 85.4075 116.68 85.4075 117.692V122.511C85.4075 123.52 86.1773 124.293 87.1857 124.293H121.95C122.959 124.293 123.732 123.52 123.732 122.511V117.692C123.732 116.68 122.959 115.91 121.95 115.91H87.1857Z" fill="#3A5545"/>
<path d="M92.0508 115.791H88.3711V124.355H92.0508V115.791Z" fill="#FBFEF9"/>
<path d="M92.0499 124.413H88.3702C88.3125 124.413 88.3125 124.355 88.3125 124.355V115.791C88.3125 115.729 88.3702 115.729 88.3702 115.729H92.0499C92.1077 115.729 92.1077 115.791 92.1077 115.791V124.355C92.1077 124.394 92.0884 124.413 92.0499 124.413ZM88.4318 124.294H91.9306V115.91H88.4318V124.294Z" fill="#3A5545"/>
<path d="M94.6016 115.791H92.7617V124.355H94.6016V115.791Z" fill="#FBFEF9"/>
<path d="M94.6007 124.413H92.7609C92.7031 124.413 92.7031 124.355 92.7031 124.355V115.791C92.7031 115.729 92.7609 115.729 92.7609 115.729H94.6007C94.6584 115.729 94.6584 115.791 94.6584 115.791V124.355C94.6584 124.394 94.6392 124.413 94.6007 124.413ZM92.8186 124.294H94.4814V115.91H92.8186V124.294Z" fill="#3A5545"/>
<mask id="mask2_238_752" style="mask-type:luminance" maskUnits="userSpaceOnUse" x="114" y="115" width="5" height="11">
<path d="M118.387 115.09H114.445V125.929H118.387V115.09Z" fill="white"/>
</mask>
<g mask="url(#mask2_238_752)">
<mask id="mask3_238_752" style="mask-type:luminance" maskUnits="userSpaceOnUse" x="115" y="115" width="3" height="10">
<path d="M115.434 115.325H117.404V124.944H115.434V115.325Z" fill="white"/>
</mask>
<g mask="url(#mask3_238_752)">
<path d="M117.328 115.791H115.488V124.355H117.328V115.791Z" fill="#FBFEF9"/>
</g>
<mask id="mask4_238_752" style="mask-type:luminance" maskUnits="userSpaceOnUse" x="115" y="115" width="3" height="10">
<path d="M115.078 115.325H117.403V124.944H115.078V115.325Z" fill="white"/>
</mask>
<g mask="url(#mask4_238_752)">
<path d="M117.327 124.413H115.487C115.43 124.413 115.43 124.355 115.43 124.355V115.791C115.43 115.729 115.487 115.729 115.487 115.729H117.327C117.385 115.729 117.385 115.791 117.385 115.791V124.355C117.385 124.394 117.366 124.413 117.327 124.413ZM115.607 124.294H117.27V115.91H115.607V124.294Z" fill="#3A5545"/>
</g>
</g>
<path d="M162.171 117.692V122.511C162.171 123.52 161.339 124.355 160.331 124.355H125.566C124.558 124.355 123.73 123.52 123.73 122.511V117.692C123.73 116.68 124.558 115.849 125.566 115.849H160.331C161.339 115.791 162.171 116.622 162.171 117.692Z" fill="#73A97F"/>
<path d="M160.333 124.413H125.569C124.502 124.413 123.613 123.52 123.613 122.45V117.634C123.613 116.564 124.502 115.671 125.569 115.671H160.333C161.403 115.671 162.292 116.564 162.292 117.634V122.45C162.235 123.581 161.403 124.413 160.333 124.413ZM125.569 115.91C124.56 115.91 123.79 116.68 123.79 117.692V122.511C123.79 123.52 124.56 124.293 125.569 124.293H160.333C161.342 124.293 162.115 123.52 162.115 122.511V117.692C162.115 116.68 161.342 115.91 160.333 115.91H125.569Z" fill="#3A5545"/>
<path d="M130.375 115.791H126.695V124.355H130.375V115.791Z" fill="#FBFEF9"/>
<path d="M130.374 124.413H126.694C126.637 124.413 126.637 124.355 126.637 124.355V115.791C126.637 115.729 126.694 115.729 126.694 115.729H130.374C130.432 115.729 130.432 115.791 130.432 115.791V124.355C130.493 124.413 130.432 124.413 130.374 124.413ZM126.814 124.294H130.313V115.91H126.814V124.294Z" fill="#3A5545"/>
<path d="M132.984 115.791H131.145V124.355H132.984V115.791Z" fill="#FBFEF9"/>
<path d="M132.984 124.413H131.144C131.086 124.413 131.086 124.355 131.086 124.355V115.791C131.086 115.729 131.144 115.729 131.144 115.729H132.984C133.041 115.729 133.041 115.791 133.041 115.791V124.355C133.041 124.413 132.984 124.413 132.984 124.413ZM131.205 124.294H132.864V115.91H131.205V124.294Z" fill="#3A5545"/>
<path d="M156.952 109.19V114.005C156.952 115.017 156.121 115.849 155.112 115.849H120.348C119.339 115.849 118.508 115.017 118.508 114.005V109.19C118.508 108.178 119.339 107.346 120.348 107.346H155.112C156.121 107.346 156.952 108.178 156.952 109.19Z" fill="#73A97F"/>
<path d="M155.114 115.968H120.35C119.284 115.968 118.391 115.075 118.391 114.005V109.19C118.391 108.12 119.284 107.227 120.35 107.227H155.114C156.181 107.227 157.073 108.12 157.073 109.19V114.005C157.073 115.075 156.181 115.968 155.114 115.968ZM120.35 107.404C119.341 107.404 118.572 108.178 118.572 109.19V114.005C118.572 115.018 119.341 115.791 120.35 115.791H155.114C156.123 115.791 156.893 115.018 156.893 114.005V109.19C156.893 108.178 156.123 107.404 155.114 107.404H120.35Z" fill="#3A5545"/>
<path d="M125.215 107.346H121.535V115.91H125.215V107.346Z" fill="#FBFEF9"/>
<path d="M125.214 115.968H121.534C121.477 115.968 121.477 115.91 121.477 115.91V107.346C121.477 107.284 121.534 107.284 121.534 107.284H125.214C125.272 107.284 125.272 107.346 125.272 107.346V115.91L125.214 115.968ZM121.596 115.791H125.095V107.403H121.596V115.791Z" fill="#3A5545"/>
<path d="M127.766 107.346H125.926V115.91H127.766V107.346Z" fill="#FBFEF9"/>
<path d="M127.765 115.968H125.925C125.863 115.968 125.863 115.91 125.863 115.91V107.346C125.863 107.284 125.925 107.284 125.925 107.284H127.765C127.822 107.284 127.822 107.346 127.822 107.346V115.91C127.822 115.91 127.822 115.968 127.765 115.968ZM125.983 115.791H127.645V107.403H125.983V115.791Z" fill="#3A5545"/>
<path d="M118.627 109.247V114.066C118.627 115.074 117.796 115.91 116.787 115.91H81.9648C80.9564 115.91 80.125 115.074 80.125 114.066V109.247C80.125 108.235 80.9564 107.403 81.9648 107.403H116.729C117.796 107.403 118.627 108.235 118.627 109.247Z" fill="#73A97F"/>
<path d="M116.732 116.025H81.967C80.8969 116.025 80.0078 115.136 80.0078 114.066V109.247C80.0078 108.177 80.8969 107.284 81.967 107.284H116.732C117.798 107.284 118.687 108.177 118.687 109.247V114.066C118.687 115.136 117.798 116.025 116.732 116.025ZM81.967 107.465C80.9585 107.465 80.1849 108.235 80.1849 109.247V114.066C80.1849 115.075 80.9585 115.848 81.967 115.848H116.732C117.74 115.848 118.51 115.075 118.51 114.066V109.247C118.51 108.235 117.74 107.465 116.732 107.465H81.967Z" fill="#3A5545"/>
<path d="M86.832 107.403H83.1523V115.967H86.832V107.403Z" fill="#FBFEF9"/>
<path d="M86.8312 116.026H83.1515C83.0937 116.026 83.0938 115.968 83.0938 115.968V107.404C83.0938 107.346 83.1515 107.346 83.1515 107.346H86.8312C86.8889 107.346 86.8889 107.404 86.8889 107.404V115.968C86.8889 115.968 86.8889 116.026 86.8312 116.026ZM83.2092 115.849H86.7118V107.466H83.2092V115.849Z" fill="#3A5545"/>
<path d="M89.379 107.403H87.543V115.967H89.379V107.403Z" fill="#FBFEF9"/>
<path d="M89.378 116.026H87.5421C87.4805 116.026 87.4805 115.968 87.4805 115.968V107.404C87.4805 107.346 87.5421 107.346 87.5421 107.346H89.378C89.4396 107.346 89.4396 107.404 89.4396 107.404V115.968C89.4396 115.968 89.4396 116.026 89.378 116.026ZM87.5998 115.849H89.2626V107.466H87.5998V115.849Z" fill="#3A5545"/>
<path d="M151.077 126.256V131.075C151.077 132.084 150.246 132.919 149.237 132.919H114.473C113.464 132.919 112.633 132.084 112.633 131.075V126.256C112.633 125.244 113.464 124.413 114.473 124.413H149.237C150.246 124.413 151.077 125.244 151.077 126.256Z" fill="#73A97F"/>
<path d="M149.239 133.035H114.475C113.409 133.035 112.516 132.146 112.516 131.075V126.256C112.516 125.186 113.409 124.293 114.475 124.293H149.239C150.309 124.293 151.198 125.186 151.198 126.256V131.075C151.137 132.146 150.309 133.035 149.239 133.035ZM114.475 124.474C113.466 124.474 112.697 125.244 112.697 126.256V131.075C112.697 132.084 113.466 132.858 114.475 132.858H149.239C150.248 132.858 151.018 132.084 151.018 131.075V126.256C151.018 125.244 150.248 124.474 149.239 124.474H114.475Z" fill="#3A5545"/>
<path d="M119.281 124.413H115.602V132.977H119.281V124.413Z" fill="#FBFEF9"/>
<path d="M119.28 133.035H115.601C115.543 133.035 115.543 132.977 115.543 132.977V124.413C115.543 124.355 115.601 124.355 115.601 124.355H119.28C119.338 124.355 119.338 124.413 119.338 124.413V132.977C119.396 132.977 119.338 133.035 119.28 133.035ZM115.72 132.858H119.219V124.474H115.72V132.858Z" fill="#3A5545"/>
<path d="M121.828 124.413H119.988V132.977H121.828V124.413Z" fill="#FBFEF9"/>
<path d="M121.831 133.035H119.991C119.934 133.035 119.934 132.977 119.934 132.977V124.413C119.934 124.355 119.991 124.355 119.991 124.355H121.831C121.893 124.355 121.893 124.413 121.893 124.413V132.977C121.95 132.977 121.893 133.035 121.831 133.035ZM120.111 132.858H121.773V124.474H120.111V132.858Z" fill="#3A5545"/>
<mask id="mask5_238_752" style="mask-type:luminance" maskUnits="userSpaceOnUse" x="142" y="123" width="3" height="11">
<path d="M144.991 123.958H142.035V133.812H144.991V123.958Z" fill="white"/>
</mask>
<g mask="url(#mask5_238_752)">
<mask id="mask6_238_752" style="mask-type:luminance" maskUnits="userSpaceOnUse" x="142" y="124" width="3" height="10">
<path d="M142.27 124.078H144.871V133.3H142.27V124.078Z" fill="white"/>
</mask>
<g mask="url(#mask6_238_752)">
<path d="M144.613 124.413H142.773V132.977H144.613V124.413Z" fill="#FBFEF9"/>
<path d="M144.612 133.035H142.773C142.715 133.035 142.715 132.977 142.715 132.977V124.413C142.715 124.355 142.773 124.355 142.773 124.355H144.612C144.67 124.355 144.67 124.413 144.67 124.413V132.977L144.612 133.035ZM142.83 132.858H144.493V124.474H142.83V132.858Z" fill="#3A5545"/>
</g>
</g>
<mask id="mask7_238_752" style="mask-type:luminance" maskUnits="userSpaceOnUse" x="144" y="123" width="3" height="11">
<path d="M146.96 123.958H144.004V133.812H146.96V123.958Z" fill="white"/>
</mask>
<g mask="url(#mask7_238_752)">
<mask id="mask8_238_752" style="mask-type:luminance" maskUnits="userSpaceOnUse" x="144" y="124" width="2" height="10">
<path d="M144.637 124.078H145.976V133.3H144.637V124.078Z" fill="white"/>
</mask>
<g mask="url(#mask8_238_752)">
<path d="M145.862 124.413H144.969V132.977H145.862V124.413Z" fill="#FBFEF9"/>
<path d="M145.861 133.035H144.968C144.91 133.035 144.91 132.977 144.91 132.977V124.413C144.91 124.355 144.968 124.355 144.968 124.355H145.861C145.919 124.355 145.919 124.413 145.919 124.413V132.977C145.919 132.977 145.919 133.035 145.861 133.035ZM145.029 132.858H145.799V124.474H145.029V132.858Z" fill="#3A5545"/>
</g>
</g>
<path d="M72.8891 117.157L77.2193 119.178C79.471 120.19 81.0144 122.746 81.3108 126.495C81.6688 130.359 80.6603 134.82 78.7012 138.804C78.5819 138.985 78.5241 139.22 78.4048 139.4C78.3471 139.52 78.2855 139.697 78.1662 139.816C77.6927 140.709 77.2193 141.54 76.6265 142.372C75.1408 144.631 73.3626 146.537 71.3457 147.903C68.2587 150.043 65.3527 150.52 63.1587 149.508L58.8286 147.487C56.573 146.475 55.0296 143.919 54.7332 140.174C54.3175 135.594 55.8032 130.24 58.4706 125.721C60.1334 122.865 62.2696 120.429 64.6406 118.762C67.7276 116.622 70.6336 116.145 72.8891 117.157Z" fill="#73A97F"/>
<path d="M65.7119 150.043C64.8189 150.043 63.9914 149.866 63.16 149.508L58.8298 147.488C56.455 146.418 54.9731 143.8 54.6767 140.113C54.261 135.713 55.6852 130.302 58.4141 125.664C60.1346 122.688 62.2709 120.31 64.5841 118.643C67.5479 116.503 70.5155 115.968 72.8904 117.038L77.2205 119.059C79.5338 120.133 81.0157 122.746 81.3737 126.376C81.7278 130.182 80.7809 134.524 78.7602 138.747C78.7024 138.924 78.5831 139.101 78.4638 139.339C78.406 139.459 78.3483 139.578 78.2867 139.697C77.8133 140.59 77.2783 141.479 76.7433 142.253C75.2036 144.574 73.3638 146.475 71.4662 147.846C69.5071 149.331 67.4902 150.043 65.7119 150.043ZM70.3385 116.742C68.5563 116.742 66.6588 117.454 64.6419 118.824C62.3286 120.429 60.254 122.865 58.5334 125.779C55.8045 130.421 54.4381 135.771 54.8538 140.175C55.1501 143.743 56.632 146.356 58.9491 147.43L63.2793 149.451C65.5926 150.521 68.4409 149.986 71.4046 147.903C73.3022 146.537 75.0843 144.632 76.6278 142.372C77.159 141.599 77.694 140.767 78.1674 139.817C78.229 139.697 78.2867 139.578 78.3483 139.401C78.4638 139.162 78.5254 138.985 78.6447 138.804C80.6616 134.643 81.5507 130.302 81.2543 126.553C80.8964 122.985 79.4722 120.367 77.159 119.297L72.8288 117.277C72.059 116.919 71.2276 116.742 70.3385 116.742Z" fill="#3A5545"/>
<path d="M76.6844 142.315L70.6914 139.578L71.9385 136.903L78.1662 139.817L76.6844 142.315Z" fill="#FBFEF9"/>
<path d="M72.4136 135.891L78.7029 138.804C78.5836 138.985 78.5258 139.22 78.4065 139.401L72.1172 136.487L72.4136 135.891Z" fill="#FBFEF9"/>
<path d="M74.6093 136.368C78.4622 127.981 77.6924 119.417 72.8888 117.219C68.0813 115.018 61.0222 119.952 57.1654 128.339C53.3087 136.722 54.0823 145.229 58.8859 147.488C63.7511 149.69 70.7525 144.694 74.6093 136.368Z" fill="#FBFEF9"/>
<path d="M61.3762 148.084C60.4871 148.084 59.6557 147.903 58.8859 147.545C56.5149 146.475 55.0291 143.862 54.7328 140.174C54.3787 136.545 55.2678 132.322 57.1076 128.277C60.9644 119.894 68.0812 114.898 72.8887 117.157C77.75 119.416 78.5237 128.042 74.6669 136.425C71.403 143.442 65.945 148.084 61.3762 148.084ZM70.3945 116.741C65.8873 116.741 60.4871 121.379 57.2269 128.339C55.3871 132.38 54.498 136.602 54.8521 140.174C55.21 143.742 56.6303 146.356 58.9475 147.43C63.6933 149.628 70.6909 144.693 74.5476 136.368C78.4044 128.042 77.6346 119.478 72.8271 117.276C72.0573 116.918 71.2259 116.741 70.3945 116.741Z" fill="#3A5545"/>
<path d="M72.9488 135.594C76.0319 128.874 75.4391 121.915 71.5247 120.133C67.6679 118.347 61.9752 122.331 58.8883 129.113C55.8052 135.833 56.3979 142.788 60.3124 144.574C64.2269 146.356 69.8041 142.315 72.9488 135.594Z" fill="#FCB68F"/>
<path d="M62.2685 145.051C61.5564 145.051 60.9021 144.932 60.2516 144.631C58.3502 143.742 57.1647 141.66 56.8683 138.685C56.6297 135.771 57.284 132.322 58.7659 129.05C60.2516 125.779 62.4456 123.046 64.8166 121.321C67.2492 119.597 69.624 119.178 71.5216 120.013C73.4192 120.902 74.6085 122.984 74.9049 125.96C75.1397 128.873 74.4892 132.322 73.0035 135.594C70.3938 141.302 65.9443 145.051 62.2685 145.051ZM69.5047 119.774C68.0806 119.774 66.5371 120.367 64.9359 121.441C62.5649 123.104 60.4287 125.84 58.9468 129.112C57.4611 132.38 56.749 135.771 57.0454 138.685C57.284 141.598 58.4695 143.623 60.3093 144.512C60.9021 144.812 61.6142 144.932 62.2685 144.932C65.8866 144.932 70.2745 141.183 72.8264 135.594C74.3083 132.322 75.0204 128.931 74.724 126.017C74.4892 123.104 73.2999 121.083 71.4639 120.19C70.8711 119.893 70.2168 119.774 69.5047 119.774Z" fill="#3A5545"/>
<path d="M63.0966 131.729C62.7425 132.561 62.5654 133.153 62.6231 133.869C62.6847 134.643 63.0388 134.878 63.6316 134.462C64.9364 133.511 64.4052 129.705 66.7763 127.98C67.9618 127.149 68.8509 127.326 69.2666 128.696L70.5137 127.803L70.633 129.112L69.4475 129.943C69.4475 130.894 69.2089 132.145 68.7354 133.215L67.6077 133.096C68.0233 132.026 68.2004 131.19 68.1427 130.421C68.0811 129.528 67.6654 129.347 67.0726 129.766C65.6485 130.775 66.1219 134.643 63.8702 136.248C62.6847 137.079 61.8533 136.783 61.4954 135.594L60.2521 136.487L60.1328 135.178L61.3761 134.343C61.3761 133.334 61.734 132.38 62.1497 131.491L63.0966 131.729Z" fill="#FBFEF9"/>
<path d="M167.095 146.002L163.358 148.973C161.402 150.521 158.496 150.759 154.994 149.331C151.376 147.903 147.877 144.932 145.206 141.421C145.086 141.244 144.967 141.063 144.851 140.886C144.732 140.767 144.671 140.648 144.613 140.528C144.02 139.697 143.543 138.866 143.069 138.03C141.765 135.652 140.875 133.215 140.517 130.837C139.986 127.088 140.933 124.293 142.831 122.807L146.572 119.832C148.527 118.289 151.433 118.05 154.936 119.478C159.205 121.202 163.3 124.948 166.087 129.347C167.869 132.145 169.054 135.117 169.47 138.03C169.943 141.66 168.997 144.454 167.095 146.002Z" fill="#73A97F"/>
<path d="M159.322 150.282C158.017 150.282 156.535 149.985 154.992 149.331C151.493 147.903 147.991 145.109 145.204 141.364C145.085 141.244 144.965 141.063 144.788 140.829C144.669 140.709 144.611 140.59 144.55 140.471C143.957 139.635 143.426 138.804 142.948 137.911C141.586 135.475 140.754 132.977 140.4 130.656C139.865 127.03 140.697 124.174 142.771 122.569L146.509 119.597C148.526 117.988 151.551 117.869 154.934 119.239C159.026 120.902 163.24 124.589 166.085 129.17C167.925 132.084 169.11 135.059 169.468 137.853C170.003 141.479 169.172 144.335 167.093 145.94L163.356 148.915C162.232 149.866 160.866 150.282 159.322 150.282ZM150.542 118.523C148.999 118.523 147.636 118.943 146.57 119.774L142.829 122.746C140.812 124.293 140.042 127.149 140.516 130.717C140.874 133.034 141.705 135.532 143.068 137.911C143.541 138.746 144.018 139.578 144.611 140.409C144.73 140.528 144.788 140.648 144.907 140.767C145.027 140.944 145.204 141.125 145.262 141.302C148.052 144.989 151.493 147.784 154.992 149.212C158.314 150.578 161.281 150.401 163.24 148.854L166.978 145.94C168.995 144.397 169.765 141.541 169.291 137.973C168.875 135.178 167.748 132.203 165.908 129.347C163.06 124.828 158.906 121.141 154.815 119.478C153.333 118.824 151.847 118.523 150.542 118.523Z" fill="#3A5545"/>
<path d="M143.012 137.973L148.173 133.928L150.009 136.249L144.613 140.529L143.012 137.973Z" fill="#FBFEF9"/>
<path d="M150.664 137.08L145.206 141.364C145.086 141.183 144.967 141.006 144.852 140.829L150.31 136.545L150.664 137.08Z" fill="#FBFEF9"/>
<path d="M149.24 138.804C154.937 146.06 162.885 149.273 167.038 146.002C171.191 142.73 170.006 134.166 164.309 126.968C158.613 119.713 150.664 116.503 146.511 119.774C142.358 123.046 143.605 131.549 149.24 138.804Z" fill="#FBFEF9"/>
<path d="M163.061 147.368C161.756 147.368 160.275 147.071 158.731 146.417C155.352 145.051 151.968 142.372 149.239 138.865C146.51 135.355 144.671 131.429 144.197 127.803C143.662 124.173 144.493 121.321 146.572 119.712C148.589 118.107 151.614 117.988 154.994 119.358C158.377 120.725 161.756 123.4 164.485 126.91C167.214 130.42 169.054 134.343 169.528 137.972C170.063 141.598 169.231 144.454 167.157 146.059C166.029 146.891 164.605 147.368 163.061 147.368ZM150.544 118.523C149.001 118.523 147.638 118.943 146.572 119.774C144.551 121.321 143.781 124.173 144.255 127.742C144.79 131.31 146.572 135.236 149.301 138.746C152.03 142.252 155.409 144.931 158.731 146.24C162.053 147.606 165.02 147.429 166.98 145.882C168.935 144.335 169.766 141.479 169.293 137.911C168.758 134.343 166.98 130.42 164.251 126.91C161.522 123.4 158.138 120.725 154.817 119.416C153.335 118.823 151.849 118.523 150.544 118.523Z" fill="#3A5545"/>
<path d="M150.72 137.676C155.289 143.504 161.755 146.121 165.077 143.442C168.46 140.767 167.452 133.927 162.883 128.042C158.314 122.211 151.848 119.597 148.526 122.272C145.146 124.947 146.155 131.845 150.72 137.676Z" fill="#FCB68F"/>
<path d="M161.818 144.574C160.748 144.574 159.563 144.335 158.316 143.8C155.587 142.73 152.858 140.529 150.664 137.676C146.095 131.787 145.087 124.89 148.47 122.211C150.129 120.902 152.562 120.787 155.29 121.915C158.019 122.985 160.748 125.186 162.946 128.042C167.511 133.927 168.52 140.829 165.14 143.504C164.251 144.216 163.123 144.574 161.818 144.574ZM151.73 121.322C150.487 121.322 149.417 121.676 148.528 122.33C145.206 124.948 146.214 131.787 150.722 137.615C152.919 140.409 155.648 142.611 158.316 143.681C160.987 144.751 163.358 144.693 164.963 143.385C168.285 140.767 167.276 133.927 162.765 128.1C160.571 125.306 157.842 123.104 155.171 122.034C153.986 121.557 152.8 121.322 151.73 121.322Z" fill="#3A5545"/>
<path d="M158.611 130.656C158.018 129.944 157.545 129.528 156.952 129.289C156.24 128.993 155.882 129.231 156.001 129.944C156.24 131.549 159.858 132.8 160.274 135.713C160.451 137.141 159.858 137.853 158.553 137.615L158.792 139.1L157.602 138.627L157.425 137.199C156.594 136.783 155.586 136.01 154.873 135.117L155.466 134.166C156.24 134.997 156.89 135.594 157.602 135.833C158.434 136.187 158.792 135.952 158.672 135.178C158.434 133.454 154.758 132.084 154.342 129.409C154.161 127.981 154.816 127.326 156.001 127.565L155.766 126.079L156.952 126.553L157.187 128.042C158.08 128.516 158.792 129.231 159.385 130.001L158.611 130.656Z" fill="#FBFEF9"/>
<path d="M120.039 90.1791L126.105 87.6118L131.39 100.16L125.324 102.727L120.039 90.1791Z" fill="#FCB68F"/>
<path d="M143.426 107.404H123.253C123.134 107.404 122.957 107.284 122.957 107.165V105.976C123.019 103.597 123.253 100.21 124.027 100.268H124.085C125.27 100.387 126.279 101.992 128.415 100.922C130.551 99.8519 130.551 98.7203 131.798 99.6133C132.984 100.506 134.762 101.815 137.553 102.469C137.61 102.469 137.73 102.527 137.849 102.527C137.968 102.527 138.084 102.589 138.203 102.589C140.994 103.243 143.365 102.589 143.603 105.799C143.661 106.453 143.661 106.869 143.661 107.046C143.723 107.284 143.603 107.404 143.426 107.404Z" fill="#3A5545"/>
<path d="M123.315 105.799C123.253 105.799 123.195 105.737 123.195 105.68C123.195 105.622 123.253 105.56 123.315 105.56L143.187 105.441C143.245 105.441 143.307 105.503 143.307 105.56C143.307 105.622 143.245 105.68 143.187 105.68L123.315 105.799Z" fill="#3A5545" fill-opacity="0.3"/>
<path d="M94.067 83.3774L97.8621 90.9293L88.3126 100.802L83.3281 95.448C87.3619 91.345 90.5682 88.3735 94.067 83.3774Z" fill="#FCB68F"/>
<path d="M96.9739 107.227L88.787 107.404C88.3135 107.404 87.8978 107.227 87.6015 106.869L79.7109 96.6379C79.7109 96.6379 79.8303 96.5224 80.8387 95.8065C82.7363 94.3785 85.5268 92.5348 85.9387 93.1314L86.0003 93.1891C86.593 94.1437 85.9387 95.9258 88.0172 96.9381C90.0918 97.9465 90.9848 97.2345 91.0425 98.7202C91.1003 102.408 92.1703 103.42 92.7053 104.313C92.8208 104.432 92.9401 104.49 93.1171 104.49C94.0101 104.313 96.7968 103.659 97.0355 105.202L97.0932 107.046C97.1509 107.107 97.0932 107.227 96.9739 107.227Z" fill="#3A5545"/>
<path d="M89.6178 106.392C89.2637 106.392 88.9058 106.215 88.6671 105.918L80.8382 95.9261C80.7804 95.8684 80.8382 95.8068 80.8382 95.7491C80.8959 95.6875 80.9575 95.7491 81.0152 95.7491L88.848 105.737C89.0251 105.976 89.3214 106.095 89.6756 106.095L96.854 105.976C96.9156 105.976 96.9733 106.038 96.9733 106.095C96.9733 106.157 96.9156 106.215 96.854 106.215L89.6756 106.334L89.6178 106.392Z" fill="#3A5545" fill-opacity="0.3"/>
<path d="M101.363 54.2373C101.186 53.3443 101.005 53.6445 100.89 51.1465H81.0133C80.1241 55.4266 80.0664 57.3896 80.0664 62.0277C80.0664 66.6658 83.8616 71.3039 88.134 71.3039H109.608C113.88 71.3039 117.379 67.7359 117.379 63.2787V62.2048C117.379 57.8053 113.88 54.1795 109.608 54.1795L101.363 54.2373Z" fill="#3A5545"/>
<path d="M98.1003 58.4592C97.3882 58.4592 96.9148 58.4592 96.6762 58.4015C95.5484 58.2206 95.61 54.2368 95.61 53.7595C95.61 53.7018 95.6677 53.644 95.7293 53.644C95.787 53.644 95.8448 53.7018 95.8448 53.7595C95.8448 55.4261 96.0257 58.0435 96.7377 58.1628C97.7462 58.3399 106.287 57.9819 106.349 57.9819C106.407 57.9819 106.464 58.0435 106.464 58.1012C106.464 58.1628 106.407 58.2206 106.349 58.2206C106.049 58.2206 100.772 58.4592 98.1003 58.4592Z" fill="#3A5545" fill-opacity="0.3"/>
<path d="M119.515 100.148L106.702 67.4391C104.924 64.1674 105.516 57.0313 108.661 55.2492C108.661 55.2492 112.04 51.8004 116.786 58.875L130.135 95.1522C129.781 96.1029 126.278 100.98 119.515 100.148Z" fill="#3A5545"/>
<path d="M96.2599 98.2468C89.4971 95.5679 87.3032 91.2878 87.7766 89.9791L103.023 62.6239C108.719 57.7472 121.413 67.5007 115.009 73.0279L96.2599 98.2468Z" fill="#3A5545"/>
<path d="M111.627 77.4889H111.57C111.508 77.4311 111.508 77.3695 111.57 77.3118C111.627 77.2541 115.661 71.9001 117.62 67.1426C117.62 67.0811 117.74 67.0811 117.74 67.0811C117.797 67.0811 117.797 67.1426 117.797 67.2004C115.842 71.9578 111.804 77.3118 111.747 77.3695C111.708 77.4504 111.67 77.4889 111.627 77.4889Z" fill="#3A5545" fill-opacity="0.3"/>
<path d="M80.7792 50.9072H101.006C101.006 50.9072 101.068 52.4507 101.068 52.7509C101.068 53.0473 80.7177 53.0473 80.5983 52.7509C80.479 52.5123 80.7792 50.9072 80.7792 50.9072Z" fill="#3A5545"/>
<path d="M88.5508 50.9072H89.2629V53.105H88.5508V50.9072Z" fill="#E5F2E1"/>
<path d="M99.7031 50.9072H100.415V52.9896H99.7031V50.9072Z" fill="#E5F2E1"/>
<path d="M96.5575 52.9894H93.8901C93.7131 52.9894 93.5938 52.8701 93.5938 52.6892V51.2612C93.5938 51.0842 93.7131 50.9648 93.8901 50.9648H96.5575C96.7384 50.9648 96.8539 51.0842 96.8539 51.2612V52.6892C96.8539 52.8701 96.6768 52.9894 96.5575 52.9894ZM93.8901 51.2035V52.6315H96.5575V51.2035H93.8901Z" fill="#E5F2E1"/>
<path d="M95.2523 52.097H93.9474C93.8897 52.097 93.8281 52.0355 93.8281 51.9777C93.8281 51.9161 93.8897 51.8584 93.9474 51.8584H95.2523C95.3139 51.8584 95.3716 51.9161 95.3716 51.9777C95.3716 52.0355 95.3139 52.097 95.2523 52.097Z" fill="#E5F2E1"/>
<path d="M88.43 19.5649H93.1759L93.4107 22.8944C93.4107 23.2523 93.1759 23.5487 92.818 23.5487H88.7842C88.43 23.5487 88.1914 23.2523 88.1914 22.8944L88.43 19.5649Z" fill="#FCB68F"/>
<path d="M93.179 19.5649L93.3561 22.3593H93.1175C91.6356 22.4209 90.2114 22.4787 88.668 19.5649H93.179Z" fill="#3A5545" fill-opacity="0.3"/>
<path d="M94.4189 16.116C94.4189 16.116 95.0732 21.7664 91.6321 21.7664C88.3104 21.47 87.8947 18.8527 87.6561 18.2561C87.4213 17.6633 87.2442 15.5194 87.2442 15.5194C86.944 12.5479 93.5913 8.38327 94.4189 16.116Z" fill="#FCB68F"/>
<path d="M89.9758 13.0832C89.9758 13.0832 91.3961 14.9269 92.2275 14.4496C93.0589 13.9762 93.0589 13.7953 93.0589 13.7953C93.0589 13.7953 94.0673 14.9269 94.0673 15.2849C94.0673 16.0585 93.948 16.4742 94.483 16.8283L94.5408 17.1863C94.5408 17.1863 95.4337 17.9022 95.9072 16.7128C95.9072 16.7128 97.2697 16.8899 96.6192 15.8199C96.6192 15.8199 97.5084 15.1655 97.0349 14.4496C97.0349 14.4496 97.9241 12.9061 96.854 12.4866C96.854 12.4866 97.3313 10.8238 95.9072 10.8816C96.142 10.2272 95.0758 9.2765 94.1867 9.8731C94.1867 9.8731 93.5323 8.44511 92.1082 9.21876C92.1082 9.21876 90.8649 7.91009 89.9142 9.09944C89.9142 9.09944 88.5517 8.8608 88.4901 9.81152C88.4901 9.81152 86.9466 9.33808 86.7696 10.5852C86.1191 10.4659 85.8227 10.7622 85.9997 11.2972C85.2261 11.5975 84.9913 11.9516 85.5263 12.8446C84.6333 13.0832 85.1106 14.0339 85.4647 14.0339C84.872 14.5689 84.9297 14.9846 85.407 15.4619C84.9297 15.8776 85.2261 16.5935 85.7611 16.6513C85.584 17.2479 86.1768 17.7213 86.5925 17.3633C86.5925 17.3633 87.3046 18.6143 88.0166 17.3633C88.6671 16.4742 89.0251 16.8283 88.848 15.1039L89.9758 13.0832Z" fill="#3A5545"/>
<path d="M94.6036 14.7493C94.4227 14.9841 94.3072 15.2228 94.0109 15.2228C93.5336 15.2228 93.5336 14.4491 93.4143 14.4491C93.2372 14.4491 93.2988 14.9264 92.8831 14.8687C92.8215 14.8687 92.706 14.8071 92.5867 14.5107C92.3481 14.63 92.3481 14.8071 91.9324 14.7493C91.6937 14.7493 91.5783 14.5684 91.4589 14.095C91.2203 14.2143 91.101 14.5107 90.7469 14.5107C90.4505 14.5107 90.2734 14.1527 90.2734 13.8564C90.2734 13.6177 90.3889 13.2598 90.6275 13.2598C91.0432 13.2598 93.4758 13.7948 93.83 13.9757C94.1879 14.1527 94.4227 14.4491 94.6036 14.7493Z" fill="#3A5545"/>
<path d="M88.4911 16.2928H88.6681C88.9645 16.2928 89.2031 16.1735 89.2031 15.8771C89.2031 15.8194 89.2031 15.7 89.1454 15.5807C89.4418 15.3421 89.7959 15.4037 89.7959 15.0457C89.7959 14.9841 89.7959 14.9264 89.7381 14.8071C89.9768 14.63 90.4502 14.4491 90.4502 14.095C90.4502 13.9757 90.3886 13.8563 90.2732 13.737C90.3886 13.56 90.3886 13.3791 90.3886 13.202C90.3886 12.9056 90.1538 12.667 89.8575 12.667C89.2647 12.667 87.3633 14.1527 87.3633 15.1034C87.3633 15.7578 87.8406 16.2928 88.4911 16.2928Z" fill="#3A5545"/>
<path d="M90.0313 13.3798C88.8458 13.2604 87.2446 15.9971 87.3023 17.6637L88.1914 17.4828C88.1914 17.4828 88.7842 14.4498 90.3854 13.9764L90.0313 13.3798Z" fill="#E5F2E1"/>
<path d="M88.0149 18.9103L88.369 17.0666C88.369 17.0666 87.0642 16.5932 87.0065 17.6016C86.9449 18.6139 88.0149 18.9103 88.0149 18.9103Z" fill="#FCB68F"/>
<path d="M87.84 18.1364C87.84 18.1364 87.7785 18.1364 87.7785 18.0787C87.6591 17.7823 87.4821 17.6014 87.305 17.4243C87.2473 17.4243 87.2473 17.3628 87.305 17.305C87.305 17.2473 87.3628 17.2473 87.4243 17.305C87.6014 17.4821 87.7785 17.7207 87.8978 18.0171C87.9555 18.0787 87.8978 18.1364 87.84 18.1364Z" fill="#3A5545"/>
<path d="M90.8009 13.441C90.8009 13.6219 90.7393 13.7758 90.6123 13.9028C90.4853 14.0299 90.3313 14.0953 90.1504 14.0953C89.9695 14.0953 89.8156 14.0299 89.6885 13.9028C89.5615 13.7758 89.4961 13.6219 89.4961 13.441C89.4961 13.2601 89.5615 13.1061 89.6885 12.9791C89.8156 12.8482 89.9695 12.7866 90.1504 12.7866C90.3313 12.7866 90.4853 12.8482 90.6123 12.9791C90.7393 13.1061 90.8009 13.2601 90.8009 13.441Z" fill="#3A5545"/>
<path d="M92.1681 13.795C92.1681 13.9759 92.1027 14.1298 91.9757 14.2607C91.8486 14.3877 91.6947 14.4493 91.5138 14.4493C91.3329 14.4493 91.1789 14.3877 91.0519 14.2607C90.9249 14.1298 90.8633 13.9759 90.8633 13.795C90.8633 13.6141 90.9249 13.4601 91.0519 13.3331C91.1789 13.2061 91.3329 13.1406 91.5138 13.1406C91.6947 13.1406 91.8486 13.2061 91.9757 13.3331C92.1027 13.4601 92.1681 13.6141 92.1681 13.795Z" fill="#3A5545"/>
<path d="M93.6525 14.3915C93.6525 14.557 93.5909 14.6956 93.46 14.8111C93.333 14.9265 93.179 14.9843 93.002 14.9843C92.8211 14.9843 92.6671 14.9265 92.5401 14.8111C92.4131 14.6956 92.3477 14.557 92.3477 14.3915C92.3477 14.226 92.4131 14.0874 92.5401 13.972C92.6671 13.8527 92.8211 13.7949 93.002 13.7949C93.179 13.7949 93.333 13.8527 93.46 13.972C93.5909 14.0874 93.6525 14.226 93.6525 14.3915Z" fill="#3A5545"/>
<path d="M92.6431 16.6513C92.6046 16.6513 92.5662 16.6321 92.5238 16.5936C92.4661 16.532 92.5238 16.4743 92.5854 16.4127C93.0011 16.1163 93.4129 16.1163 93.8902 16.355C93.948 16.355 93.948 16.4743 93.948 16.532C93.948 16.5936 93.8286 16.5936 93.7709 16.5936C93.4129 16.355 93.1166 16.4127 92.6431 16.6513C92.6816 16.6513 92.6816 16.6513 92.6431 16.6513Z" fill="#3A5545"/>
<path d="M90.0903 16.7707C90.0518 16.7707 90.0133 16.7515 89.9748 16.713C89.9132 16.6514 89.9748 16.5937 90.0326 16.5321C90.9833 15.9971 91.6338 16.355 91.6338 16.355C91.6915 16.355 91.6915 16.4744 91.6915 16.5321C91.6915 16.5937 91.576 16.5937 91.5144 16.5937C91.5144 16.5321 90.9217 16.2935 90.0903 16.7707Z" fill="#3A5545"/>
<path d="M93.3528 17.3052C93.4722 17.3052 93.5299 17.1859 93.5299 17.1282C93.5299 17.0089 93.4722 16.9473 93.3528 16.9473C93.2335 16.9473 93.1758 17.0666 93.1758 17.1282C93.1758 17.1859 93.2335 17.3052 93.3528 17.3052Z" fill="#3A5545"/>
<path d="M91.0989 17.3626C91.2183 17.3626 91.2798 17.2471 91.2798 17.1278C91.2798 17.0085 91.1605 16.8892 91.0989 16.8892C91.0412 16.8892 90.9219 17.0085 90.9219 17.1278C90.9219 17.2471 90.9835 17.3626 91.0989 17.3626Z" fill="#3A5545"/>
<path d="M92.4058 19.091C92.3673 19.091 92.3288 19.0679 92.2903 19.0294C92.2287 18.9717 92.2903 18.9101 92.348 18.8524C92.8214 18.4944 92.706 18.3173 92.4673 17.9594C92.348 17.7207 92.171 17.4821 92.1094 17.1857C92.1094 17.128 92.171 17.0664 92.2287 17.0664C92.2903 17.0664 92.348 17.128 92.348 17.1857C92.4058 17.4821 92.5251 17.7207 92.6444 17.9016C92.883 18.2558 93.1178 18.6137 92.4673 19.091H92.4058Z" fill="#3A5545" fill-opacity="0.4"/>
<path d="M92.2892 20.042C92.1083 20.042 91.8735 19.9804 91.6926 19.9227C91.3385 19.7418 91.0998 19.507 90.9844 19.2068C90.9844 19.149 90.9844 19.0913 91.0421 19.0913C91.0998 19.0913 91.1614 19.0913 91.1614 19.149C91.2192 19.3877 91.4578 19.6263 91.7542 19.7418C92.0506 19.8611 92.3469 19.8611 92.6433 19.8034C92.7049 19.8034 92.7626 19.8034 92.7626 19.8611C92.7626 19.9227 92.7626 19.9804 92.7049 19.9804C92.5856 20.042 92.4047 20.042 92.2892 20.042Z" fill="#3A5545" fill-opacity="0.4"/>
<path d="M91.0418 22.6597H90.6838C89.6176 22.5982 88.7285 22.3018 88.7285 22.4211C87.4814 23.2525 86.5923 23.6682 83.8056 24.4418C83.0319 24.9769 81.4885 25.3348 82.7356 25.4541C83.8056 27.2978 88.3128 26.8821 90.6261 26.8821H90.9225C93.2357 26.8821 96.9732 25.5119 96.9732 25.5119C96.9732 25.5119 97.2118 26.0469 97.3311 25.2155C95.8454 24.4418 94.3635 23.4911 93.4128 22.4211C93.4128 22.3595 92.5237 22.5982 91.4575 22.6597C91.2804 22.6597 91.1611 22.6597 91.0418 22.6597Z" fill="#FCB68F"/>
<path d="M110.145 47.6358C112.162 46.4465 113.467 43.4134 113.467 43.4134C113.467 43.4134 114.891 41.6891 114.833 41.0347C114.771 40.4381 113.705 40.619 113.705 40.619L108.367 41.2734C108.009 44.1255 108.247 45.9115 110.145 47.6358Z" fill="#FCB68F"/>
<path d="M97.329 29.4372C97.329 28.0092 98.5145 26.8198 99.9387 26.8198C101.186 26.8198 102.548 27.2971 103.141 29.0792C104.269 32.7666 105.397 41.0343 105.397 41.0343L110.085 40.3223C108.303 43.771 108.838 46.9811 111.151 46.804C111.151 46.804 109.134 50.9649 105.989 51.3806C102.845 51.8001 99.1073 49.4791 97.9795 46.6231C97.1481 44.4253 97.2674 33.9559 97.329 29.4372Z" fill="#73A97F"/>
<path d="M109.433 48.5865C108.543 48.5865 107.593 48.1131 106.942 47.2201C105.992 45.9692 105.814 44.2448 106.465 42.9362C106.465 42.8784 106.584 42.8784 106.646 42.8784C106.704 42.8784 106.704 42.9977 106.704 43.0555C106.111 44.3064 106.288 45.9115 107.177 47.1008C107.889 48.0515 108.898 48.5288 109.848 48.3479C109.906 48.3479 109.968 48.4095 109.968 48.4672C109.968 48.5288 109.906 48.5865 109.848 48.5865C109.729 48.5288 109.61 48.5865 109.433 48.5865Z" fill="#3A5545" fill-opacity="0.3"/>
<path d="M95.6092 24.0833C93.5923 26.1079 89.0812 26.4043 86.5909 23.4289C86.5332 23.3135 86.4138 23.3135 86.2945 23.3135C85.5247 23.5483 82.3185 24.3835 80.0668 25.3342C79.2354 25.6922 77.6919 26.7006 77.8112 27.6513C78.404 32.6474 78.939 46.9235 79.4702 48.4092C80.0668 50.1336 78.1653 53.9403 79.5317 54.5331C80.7788 55.1874 97.9802 52.6894 98.8116 52.035C99.5237 51.9157 103.261 51.2036 102.788 49.4177C102.491 48.3476 103.084 46.4462 102.965 45.5532C102.845 44.8989 102.845 44.2446 102.907 43.5902C103.142 40.1415 103.796 28.0709 101.421 26.9393C99.2273 25.927 98.5152 25.392 95.6092 24.0833Z" fill="#73A97F"/>
<path d="M103.318 50.0147C103.26 50.0147 103.202 49.9569 103.202 49.8953C104.269 44.8993 103.676 34.4915 102.371 29.4377C102.371 29.3799 102.371 29.3184 102.429 29.3184C102.49 29.3184 102.548 29.3184 102.548 29.3799C103.795 34.4915 104.446 44.9609 103.38 49.9569C103.437 50.0147 103.38 50.0147 103.318 50.0147Z" fill="#3A5545" fill-opacity="0.3"/>
<path d="M104.629 37.7627C104.629 37.7627 103.974 36.9313 100.83 36.454C100.356 36.3963 95.0754 36.9313 92.8199 37.4663L91.6344 37.7627L83.3282 39.487C83.3282 39.487 82.6777 44.8988 83.3282 45.3761C83.9825 45.8495 93.6513 41.1537 93.6513 41.1537C94.8984 40.6764 96.1416 41.5116 98.5742 40.6187L100.591 40.9728C101.188 41.0921 101.365 40.38 100.891 40.1414L99.3479 39.4293L100.83 39.487C100.83 39.487 103.559 40.0836 103.855 40.0221C104.151 39.9027 104.686 39.6064 104.39 39.4293C104.686 39.1291 104.864 39.0713 104.448 38.5941C104.509 38.4786 105.041 38.24 104.629 37.7627Z" fill="#FCB68F"/>
<path d="M99.1698 39.3101L98.0421 39.0715C97.9805 39.0715 97.9805 39.0137 97.9805 39.0137C97.9805 38.9521 98.0421 38.9521 98.0421 38.9521L99.1082 39.1908C99.1698 39.1908 99.1698 39.2485 99.1698 39.2485C99.2083 39.2909 99.2083 39.3101 99.1698 39.3101Z" fill="#3A5545"/>
<path d="M104.388 39.3679C104.327 39.3679 101.598 38.2402 100.89 38.2402H100.828C100.178 38.2979 98.5725 37.8245 98.5148 37.8245C98.457 37.8245 98.457 37.7629 98.457 37.7051C98.457 37.6436 98.5148 37.6436 98.5725 37.6436C98.5725 37.6436 100.178 38.1208 100.828 38.0593C101.482 38.0015 104.327 39.1293 104.446 39.1909C104.508 39.1909 104.508 39.2486 104.508 39.3102C104.465 39.3487 104.427 39.3679 104.388 39.3679Z" fill="#3A5545"/>
<path d="M104.51 38.4173C104.468 38.4173 104.468 38.4173 104.51 38.4173C104.448 38.4173 104.033 38.0593 103.382 37.7629C102.728 37.4665 100.237 37.1086 100.237 37.1086C100.18 37.1086 100.18 37.0508 100.18 37.0508C100.18 36.9893 100.237 36.9893 100.237 36.9893C100.357 36.9893 102.789 37.2895 103.44 37.6436C104.152 38.0016 104.51 38.2979 104.568 38.2979C104.568 38.3364 104.548 38.3788 104.51 38.4173Z" fill="#3A5545"/>
<path d="M81.3115 25.7498C81.3115 25.7498 78.4055 24.6797 75.8536 29.6142C73.3016 34.5525 67.1932 44.7794 72.1161 46.5038C77.0391 48.1704 82.2006 47.8741 82.7972 46.1497L85.226 44.8988C84.0405 44.8988 83.9212 39.5486 85.1105 39.0713L82.2622 38.594C82.2622 38.594 88.49 28.2478 81.3115 25.7498Z" fill="#73A97F"/>
<path d="M76.1506 38.4788C76.0928 38.4788 76.0312 38.4172 76.0312 38.4172C76.0312 38.3595 76.0312 38.2979 76.0928 38.2979C76.2699 38.2401 80.958 36.9315 81.7894 38.3595C81.8472 38.4172 81.7894 38.4788 81.7278 38.5365C81.6701 38.5943 81.6085 38.5365 81.5508 38.4788C81.0158 37.4049 77.517 38.1208 76.1506 38.4788Z" fill="#3A5545" fill-opacity="0.3"/>
<path d="M82.3192 45.9115C82.1421 45.9115 82.0228 45.7922 81.9035 45.5536C81.3107 44.3642 81.43 39.9648 82.0844 39.1911C82.1999 39.0718 82.3192 39.0718 82.3808 39.0718C82.4385 39.0718 82.4962 39.1295 82.4385 39.1911C82.4385 39.2488 82.3808 39.3104 82.3192 39.2488L82.2614 39.3104C81.7264 39.9648 81.5494 44.3065 82.1421 45.4342C82.1999 45.5536 82.2614 45.6729 82.3808 45.6729C82.4385 45.6729 82.4962 45.7345 82.4962 45.7922C82.4962 45.8499 82.3808 45.9115 82.3192 45.9115Z" fill="#3A5545" fill-opacity="0.3"/>
<path d="M85.1082 39.0136L82.2599 38.7134C82.2215 38.7134 82.1791 38.6941 82.1406 38.6557V38.5363C83.8611 36.1576 84.631 33.3016 84.5732 29.7336C84.5732 29.6758 84.631 29.6143 84.6925 29.6143C84.7503 29.6143 84.8119 29.6758 84.8119 29.7336C84.9273 33.3016 84.1575 36.1576 82.437 38.5363L85.0467 38.8327C85.1082 38.8327 85.166 38.8943 85.166 38.952C85.166 39.0136 85.166 39.0136 85.1082 39.0136Z" fill="#3A5545" fill-opacity="0.3"/>
<path d="M79.4123 47.6938C79.3546 47.6938 79.293 47.6361 79.293 47.5783C79.293 47.5168 79.3546 47.459 79.4123 47.459C79.4123 47.459 82.0219 47.3397 82.734 46.031L82.7956 45.9694L85.2243 44.8994C85.2859 44.8994 85.3437 44.8994 85.3437 44.961C85.3437 45.0187 85.3437 45.0803 85.2859 45.0803L82.9111 46.0888C82.0835 47.5783 79.5316 47.6938 79.4123 47.6938Z" fill="#3A5545" fill-opacity="0.3"/>
<path d="M101.66 42.2817L122.422 39.1294C123.076 39.0139 123.611 38.4173 123.611 37.763L124.5 22.5977C124.558 21.9434 124.084 21.47 123.43 21.5277L102.668 24.6801C102.014 24.7994 101.483 25.3922 101.483 26.0465L100.59 41.2117C100.59 41.866 101.067 42.3433 101.66 42.2817Z" fill="#3A5545"/>
<path d="M117.798 39.2484L116.374 39.487C116.374 39.487 116.435 38.059 116.254 37.3469C116.077 35.919 114.949 36.1576 115.13 37.4047C115.188 38.1206 115.188 38.7134 115.069 39.2484C114.949 39.487 114.772 39.7257 114.653 39.7834C114.834 38.8327 114.595 36.8697 114.595 36.8697C114.715 35.0876 113.291 35.2646 113.348 36.7503L113.171 39.2484L112.933 39.9643L113.114 36.8697C113.171 35.6803 111.986 35.7996 111.866 36.7503L111.508 40.0836L111.393 40.3223L110.977 40.38L111.212 39.5486C111.508 38.4786 110.619 38.2399 110.323 39.0136L109.672 40.738C109.492 41.2114 109.73 42.2814 110.323 42.4007C110.562 42.4623 110.858 42.343 110.977 42.343C111.097 42.2814 111.154 42.2814 111.274 42.343C111.451 42.4007 111.805 42.4623 112.163 42.4623C112.282 42.4623 112.401 42.4623 112.517 42.5201C112.756 42.6394 113.229 42.7587 113.587 42.5816C113.645 42.5201 113.764 42.5201 113.826 42.5816C114.18 42.701 114.418 42.701 114.715 42.5816C114.772 42.5201 114.834 42.4623 114.892 42.4007L116.02 40.8573C116.02 40.8573 116.67 40.915 117.086 40.738C117.501 40.6186 119.164 40.3223 118.036 39.487C117.975 39.31 117.859 39.2484 117.798 39.2484Z" fill="#FCB68F"/>
<path d="M116.019 40.6763C115.98 40.6763 115.98 40.6763 116.019 40.6763C115.98 40.6378 115.957 40.5993 115.957 40.557C115.957 40.557 116.253 40.1413 116.315 39.9642C116.373 39.8449 116.315 39.5485 116.315 39.4869C116.315 39.4292 116.315 39.4292 116.373 39.4292C116.434 39.4292 116.434 39.4292 116.434 39.4869C116.434 39.4869 116.492 39.8449 116.434 40.022C116.373 40.2029 116.076 40.6186 116.019 40.6763Z" fill="#3A5545"/>
<path d="M114.296 40.7384C114.234 40.7384 114.234 40.6768 114.234 40.6768L114.531 39.7838C114.531 39.7261 114.592 39.7261 114.592 39.7261C114.65 39.7261 114.65 39.7838 114.65 39.7838L114.354 40.6768C114.354 40.7191 114.334 40.7384 114.296 40.7384Z" fill="#3A5545"/>
<path d="M112.753 41.0345C112.715 41.0345 112.715 41.0345 112.753 41.0345C112.695 41.0345 112.695 40.9729 112.695 40.9151C112.695 40.9151 112.872 40.4994 112.872 39.9644C112.872 39.9259 112.892 39.9028 112.93 39.9028C112.972 39.9028 112.992 39.9259 112.992 39.9644C112.992 40.5572 112.815 40.9729 112.753 41.0345Z" fill="#3A5545"/>
<path d="M111.034 40.6187C110.996 40.5764 110.977 40.5379 110.977 40.4994C111.034 40.3801 111.154 40.3223 111.211 40.2607H111.331V40.3801C111.211 40.4378 111.154 40.4994 111.034 40.6187Z" fill="#3A5545"/>
<path d="M112.993 42.7011C112.754 42.7011 112.577 42.6395 112.281 42.4625C111.746 42.5202 111.569 42.4009 111.449 42.3432C111.392 42.2816 111.33 42.2816 111.211 42.3432C110.857 42.5202 110.202 42.4009 110.202 42.4009C110.145 42.4009 110.145 42.3432 110.145 42.3432C110.145 42.2816 110.202 42.2816 110.202 42.2816C110.202 42.2816 110.857 42.3432 111.153 42.2238C111.33 42.1623 111.449 42.2238 111.507 42.2816C111.626 42.3432 111.746 42.4625 112.219 42.3432H112.281C112.754 42.5818 113.051 42.5818 113.524 42.4009H113.586C114.001 42.5202 114.355 42.5818 114.713 42.2816H114.833V42.4009C114.417 42.7011 114.059 42.6395 113.643 42.5202C113.347 42.6395 113.17 42.7011 112.993 42.7011Z" fill="#3A5545"/>
<path d="M105.397 41.6887L93.3533 43.5324C93.234 43.5324 93.1763 43.4708 93.1147 43.413L93.0569 42.9358C92.9992 42.5201 93.3533 42.1044 93.8883 42.0466L105.158 40.3223L105.397 41.6887Z" fill="#3A5545"/>
<path d="M136.247 141.302L134.465 145.701C133.518 147.965 131.085 149.627 127.406 150.162C123.549 150.697 119.099 149.866 115.008 148.142C114.831 148.084 114.592 147.965 114.415 147.903C114.296 147.845 114.119 147.784 113.999 147.726C113.11 147.31 112.217 146.833 111.39 146.298C109.076 144.932 107.117 143.207 105.635 141.302C103.318 138.33 102.726 135.413 103.676 133.153L105.454 128.754C106.405 126.495 108.838 124.828 112.514 124.293C117.082 123.639 122.483 124.89 127.051 127.326C129.958 128.873 132.509 130.894 134.288 133.153C136.543 136.129 137.136 139.043 136.247 141.302Z" fill="#73A97F"/>
<path d="M124.916 150.463C121.771 150.463 118.33 149.689 114.947 148.261C114.77 148.2 114.592 148.084 114.354 148.023C114.234 147.965 114.057 147.903 113.938 147.845C112.991 147.43 112.16 146.952 111.328 146.417C108.957 144.989 106.941 143.265 105.516 141.421C103.261 138.508 102.549 135.594 103.557 133.215L105.336 128.812C106.286 126.376 108.838 124.77 112.456 124.293C116.848 123.7 122.306 124.828 127.052 127.326C130.077 128.931 132.567 130.956 134.288 133.215C136.544 136.129 137.256 139.043 136.247 141.421L134.465 145.882C133.457 148.261 130.966 149.866 127.348 150.344C126.575 150.401 125.747 150.463 124.916 150.463ZM114.889 124.235C114.057 124.235 113.226 124.293 112.456 124.413C108.896 124.89 106.406 126.495 105.455 128.812L103.677 133.215C102.726 135.594 103.438 138.446 105.636 141.302C107.056 143.146 109.077 144.87 111.39 146.298C112.218 146.775 113.049 147.249 114 147.726C114.177 147.784 114.296 147.845 114.415 147.903C114.65 148.023 114.831 148.084 115.008 148.142C119.281 149.924 123.611 150.64 127.348 150.163C130.905 149.689 133.399 148.084 134.346 145.763L136.128 141.364C137.075 138.985 136.363 136.129 134.169 133.273C132.448 131.075 129.958 129.051 126.932 127.446C123.076 125.363 118.746 124.235 114.889 124.235Z" fill="#3A5545"/>
<path d="M111.328 146.356L113.822 140.232L116.551 141.364L113.938 147.784L111.328 146.356Z" fill="#FBFEF9"/>
<path d="M117.562 141.779L114.948 148.199C114.771 148.142 114.533 148.022 114.355 147.965L116.965 141.541L117.562 141.779Z" fill="#FBFEF9"/>
<path d="M117.203 143.977C125.686 147.43 134.231 146.24 136.248 141.364C138.265 136.487 132.984 129.647 124.439 126.198C115.956 122.746 107.415 123.935 105.398 128.812C103.381 133.689 108.662 140.471 117.203 143.977Z" fill="#FBFEF9"/>
<path d="M126.697 146.002C123.791 146.002 120.469 145.348 117.147 144.039C112.994 142.372 109.492 139.874 107.298 136.961C105.042 134.047 104.33 131.133 105.338 128.754C106.289 126.376 108.841 124.771 112.459 124.236C116.077 123.758 120.35 124.355 124.441 126.079C128.594 127.742 132.097 130.24 134.291 133.154C136.547 136.068 137.259 138.985 136.25 141.364C135.061 144.397 131.323 146.002 126.697 146.002ZM114.95 124.236C114.122 124.236 113.291 124.293 112.517 124.413C108.96 124.89 106.466 126.495 105.519 128.812C104.569 131.191 105.281 134.047 107.475 136.903C109.673 139.755 113.171 142.253 117.263 143.92C125.75 147.368 134.233 146.179 136.189 141.302C137.139 138.924 136.427 136.068 134.233 133.215C132.035 130.359 128.537 127.861 124.441 126.199C121.181 124.89 117.917 124.236 114.95 124.236Z" fill="#3A5545"/>
<path d="M117.917 142.253C124.799 145.051 131.681 144.096 133.283 140.113C134.884 136.129 130.611 130.656 123.791 127.861C116.909 125.067 110.027 126.017 108.426 130.001C106.763 133.927 111.035 139.458 117.917 142.253Z" fill="#FCB68F"/>
<path d="M125.568 143.92C123.135 143.92 120.468 143.385 117.858 142.315C110.976 139.52 106.704 133.989 108.305 129.944C109.079 127.981 111.153 126.672 114.059 126.314C116.965 125.899 120.406 126.434 123.732 127.804C127.054 129.17 129.898 131.191 131.68 133.512C133.52 135.833 134.051 138.212 133.281 140.175C132.512 142.134 130.433 143.443 127.527 143.801C126.934 143.862 126.222 143.92 125.568 143.92ZM117.916 142.195C121.238 143.562 124.621 144.039 127.527 143.681C130.375 143.265 132.392 142.018 133.162 140.113C133.936 138.212 133.401 135.891 131.619 133.631C129.84 131.31 126.992 129.29 123.732 127.981C120.406 126.615 117.027 126.137 114.121 126.495C111.273 126.911 109.256 128.158 108.482 130.063C106.881 133.928 111.095 139.401 117.916 142.195Z" fill="#3A5545"/>
<path d="M121.298 132.265C120.467 131.965 119.813 131.788 119.162 131.907C118.388 132.026 118.211 132.381 118.627 132.919C119.636 134.224 123.431 133.454 125.213 135.772C126.102 136.903 125.925 137.854 124.62 138.27L125.567 139.459L124.262 139.636L123.373 138.508C122.422 138.566 121.179 138.389 120.109 137.973L120.171 136.842C121.237 137.2 122.126 137.377 122.838 137.257C123.731 137.142 123.908 136.784 123.431 136.187C122.364 134.821 118.508 135.475 116.849 133.273C115.956 132.146 116.194 131.253 117.442 130.837L116.491 129.648L117.796 129.467L118.685 130.656C119.693 130.656 120.644 130.895 121.595 131.31L121.298 132.265Z" fill="#FBFEF9"/>
</svg>
