<svg width="72" height="102" viewBox="0 0 72 102" fill="none" xmlns="http://www.w3.org/2000/svg">
<path d="M71.3988 35.6076C71.3988 16.0781 55.6637 0.233601 36.2148 0.129958C31.5638 0.0939705 26.9517 0.982135 22.6433 2.73975C18.3349 4.49737 14.4152 7.09133 11.1101 10.3734C7.80503 13.6554 5.1794 17.5607 3.38292 21.8634C1.58788 26.166 0.656527 30.7824 0.645011 35.4464C0.616221 40.9913 1.88441 46.4657 4.34882 51.429C6.81322 56.3924 10.4062 60.7065 14.8369 64.0231C15.9367 64.8436 16.8321 65.9103 17.451 67.1367C18.0686 68.3646 18.3925 69.7192 18.3968 71.0953V78.4439H53.647V71.0939C53.6456 69.7307 53.9608 68.3848 54.5697 67.1641C55.1786 65.9448 56.0625 64.8839 57.1507 64.0663C61.5757 60.767 65.1701 56.4759 67.6432 51.5341C70.1176 46.5923 71.4031 41.1381 71.3988 35.6076Z" fill="#FFCC48"/>
<path d="M41.9978 78.4438C41.9791 78.3459 40.1366 68.5732 39.4442 58.2621C39.2959 56.0511 39.2095 53.9825 39.1865 52.0536C38.1342 52.497 37.0028 52.7273 35.8598 52.7287C35.0825 52.7244 34.3081 52.6395 33.5495 52.4754C33.7452 55.0449 33.8244 57.9426 33.7884 61.1699C33.6862 70.0573 32.7045 78.307 32.6944 78.3891L31.0663 78.1962C31.0764 78.1156 32.0481 69.9393 32.1488 61.1382C32.1891 57.5381 32.0826 54.5238 31.8725 52.0061C29.968 51.3252 28.1946 50.3291 26.6241 49.0624C23.9006 46.8945 22.0321 44.207 21.7471 42.0492C21.4765 39.9907 22.5863 38.4735 24.7931 37.889C26.5104 37.4327 28.0261 37.7581 29.3001 38.8549C31.3989 40.6629 32.7707 44.6575 33.3983 50.7782C34.203 50.987 35.0307 51.0949 35.8613 51.1007H35.867C37.0244 51.0863 38.1616 50.7955 39.1822 50.2543C39.2628 40.9436 40.9355 35.2706 44.1815 33.3489C46.2573 32.121 47.4808 32.5068 48.1416 33.048C50.3022 34.8143 48.739 39.7388 48.2078 41.2056C47.1512 44.1249 45.5059 46.8599 43.5755 48.9055C42.7579 49.7864 41.8294 50.5609 40.816 51.2101C40.8246 53.2657 40.9081 55.566 41.0794 58.1398C41.7661 68.3558 43.5913 78.045 43.6101 78.1415L41.9978 78.4438ZM26.2282 39.3213C25.8856 39.3242 25.5445 39.3717 25.2148 39.4624C23.794 39.8381 23.2096 40.5938 23.3723 41.8376C23.7221 44.4848 27.3985 48.4578 31.6954 50.2125C30.9713 43.9061 29.5203 41.2013 28.2248 40.0857C27.6778 39.592 26.9667 39.3185 26.2282 39.3213ZM46.6315 34.1636C46.2285 34.1636 45.6728 34.3637 45.0208 34.7481C43.1019 35.8853 41.0377 39.4106 40.8318 49.1934C43.4272 47.1723 45.5116 43.837 46.6632 40.6543C47.8796 37.2945 47.7946 34.8748 47.0979 34.3047C46.9641 34.2054 46.7985 34.155 46.6315 34.1636Z" fill="black" fill-opacity="0.3"/>
<path d="M47.4509 95.188H24.5889C22.9983 95.188 21.707 96.5166 21.707 98.1577C21.707 99.7987 22.9983 101.129 24.5889 101.129H47.4509C49.0429 101.129 50.3327 99.7987 50.3327 98.1577C50.3327 96.5166 49.0429 95.188 47.4509 95.188Z" fill="black" fill-opacity="0.19"/>
<path d="M50.7234 87.085H21.3218C19.7456 87.085 18.4688 88.2956 18.4688 89.7854C18.4688 91.2768 19.7456 92.4874 21.3218 92.4874H50.7234C52.2982 92.4874 53.575 91.2768 53.575 89.7854C53.575 88.2956 52.2982 87.085 50.7234 87.085Z" fill="black" fill-opacity="0.19"/>
<path d="M52.7929 77.3643H19.2441C17.6204 77.3643 16.3047 78.5734 16.3047 80.0647C16.3047 81.5561 17.6204 82.7652 19.2441 82.7652H52.7929C54.4166 82.7652 55.7323 81.5561 55.7323 80.0647C55.7323 78.5734 54.4166 77.3643 52.7929 77.3643Z" fill="black" fill-opacity="0.19"/>
</svg>
