<svg width="261" height="244" viewBox="0 0 261 244" fill="none" xmlns="http://www.w3.org/2000/svg">
<path d="M209.389 16.0168C212.311 17.3841 215.144 18.9241 217.893 20.6294C220.643 22.3422 223.279 24.2203 225.826 26.2637C228.365 28.2995 230.792 30.5006 233.098 32.852C235.412 35.2034 237.59 37.6975 239.649 40.3343C241.707 42.9712 243.63 45.7432 245.418 48.643C247.199 51.5428 248.844 54.5627 250.339 57.6954C251.834 60.8281 253.179 64.0659 254.366 67.4089C255.56 70.7444 256.597 74.17 257.468 77.6783C258.347 81.1866 259.061 84.77 259.617 88.421C260.165 92.0645 260.556 95.7681 260.774 99.5167C260.999 103.265 261.059 107.052 260.946 110.868C260.841 114.684 260.571 118.523 260.128 122.369C259.692 126.216 259.091 130.062 258.325 133.901C257.566 137.74 256.642 141.556 255.553 145.357C254.471 149.151 253.239 152.907 251.841 156.618C250.452 160.337 248.912 163.995 247.229 167.594C245.539 171.192 243.713 174.715 241.752 178.164C239.784 181.612 237.688 184.97 235.464 188.23C233.241 191.498 230.897 194.653 228.433 197.696C225.969 200.746 223.4 203.668 220.725 206.478C218.051 209.28 215.279 211.947 212.409 214.471C209.547 217.003 206.594 219.384 203.567 221.623C200.54 223.854 197.444 225.927 194.289 227.843C191.127 229.759 187.919 231.509 184.658 233.087C181.398 234.672 178.1 236.069 174.772 237.301C171.437 238.525 168.086 239.577 164.721 240.441C161.348 241.305 157.974 241.981 154.601 242.477C151.228 242.965 147.863 243.273 144.52 243.386C141.169 243.506 137.849 243.431 134.558 243.168C131.276 242.905 128.03 242.454 124.83 241.823C121.63 241.185 118.497 240.366 115.417 239.359C112.337 238.353 109.339 237.166 106.417 235.798C103.487 234.431 100.655 232.899 97.9056 231.186C95.1561 229.473 92.5192 227.595 89.9726 225.559C87.4334 223.516 85.0069 221.322 82.7006 218.971C80.3868 216.619 78.2082 214.125 76.1498 211.481C74.0914 208.844 72.1683 206.072 70.3803 203.172C68.5999 200.273 66.9547 197.253 65.4597 194.12C63.9648 190.987 62.62 187.749 61.4331 184.414C60.2386 181.071 59.2019 177.645 58.3305 174.137C57.4515 170.629 56.7379 167.045 56.1895 163.402C55.6335 159.751 55.2429 156.055 55.025 152.299C54.7997 148.55 54.7396 144.764 54.8523 140.947C54.9574 137.131 55.2279 133.3 55.6711 129.453C56.1068 125.6 56.7078 121.761 57.4741 117.922C58.2403 114.076 59.1644 110.259 60.2461 106.466C61.3279 102.664 62.5675 98.9082 63.9572 95.1971C65.347 91.4785 66.8871 87.82 68.5698 84.2216C70.2601 80.6231 72.0856 77.0998 74.0463 73.6517C76.0146 70.2035 78.1105 66.853 80.3342 63.5851C82.5579 60.3247 84.9017 57.1695 87.3658 54.1195C89.8298 51.0695 92.3991 48.1472 95.0735 45.3451C97.7554 42.543 100.52 39.8761 103.39 37.3444C106.259 34.8127 109.204 32.4313 112.232 30.2001C115.259 27.9615 118.354 25.8881 121.509 23.9724C124.672 22.0568 127.88 20.3064 131.14 18.7288C134.401 17.1512 137.699 15.7464 141.027 14.5143C144.362 13.2898 147.713 12.2456 151.078 11.3817C154.451 10.5178 157.824 9.83414 161.197 9.34583C164.57 8.85002 167.936 8.54952 171.279 8.42932C174.629 8.31664 177.95 8.38425 181.24 8.64718C184.531 8.91012 187.768 9.36086 190.969 9.99941C194.169 10.638 197.302 11.4568 200.382 12.4635C203.462 13.4701 206.459 14.6496 209.389 16.0168Z" fill="#80B2E8"/>
<path d="M191.432 7.63986C194.354 9.00711 197.194 10.5471 199.936 12.2524C202.686 13.9653 205.33 15.8434 207.869 17.8867C210.408 19.9226 212.835 22.1237 215.141 24.4751C217.455 26.8264 219.633 29.3205 221.692 31.9574C223.75 34.5942 225.673 37.3663 227.461 40.266C229.242 43.1658 230.887 46.1858 232.382 49.3184C233.877 52.4511 235.222 55.6889 236.409 59.0319C237.603 62.3674 238.64 65.7931 239.511 69.3013C240.39 72.8096 241.104 76.393 241.66 80.044C242.208 83.6875 242.599 87.3911 242.824 91.1398C243.042 94.8884 243.102 98.6747 242.997 102.491C242.884 106.307 242.614 110.146 242.171 113.992C241.735 117.839 241.134 121.685 240.368 125.524C239.609 129.363 238.685 133.179 237.595 136.98C236.514 140.774 235.282 144.53 233.884 148.241C232.495 151.96 230.955 155.618 229.272 159.217C227.582 162.815 225.756 166.339 223.795 169.787C221.827 173.235 219.731 176.593 217.507 179.853C215.284 183.121 212.94 186.276 210.476 189.319C208.019 192.369 205.443 195.291 202.768 198.093C200.094 200.903 197.322 203.57 194.452 206.094C191.59 208.626 188.637 211.007 185.61 213.246C182.582 215.477 179.495 217.55 176.332 219.466C173.169 221.382 169.962 223.132 166.701 224.71C163.441 226.295 160.143 227.692 156.815 228.924C153.48 230.149 150.129 231.2 146.764 232.064C143.39 232.928 140.017 233.604 136.644 234.1C133.271 234.588 129.906 234.896 126.563 235.009C123.212 235.129 119.892 235.054 116.601 234.791C113.318 234.528 110.073 234.077 106.873 233.446C103.673 232.808 100.54 231.989 97.4599 230.982C94.3873 229.976 91.3824 228.789 88.4601 227.422C85.5303 226.054 82.6981 224.522 79.9486 222.809C77.2066 221.096 74.5622 219.218 72.023 217.182C69.4763 215.139 67.0574 212.945 64.7436 210.594C62.4297 208.242 60.2512 205.741 58.1928 203.104C56.1344 200.467 54.2112 197.695 52.4308 194.795C50.6428 191.896 49.0052 188.876 47.5027 185.743C46.0077 182.61 44.663 179.372 43.4761 176.037C42.2816 172.694 41.2524 169.268 40.3734 165.76C39.4945 162.252 38.7808 158.668 38.2324 155.025C37.6765 151.374 37.2859 147.678 37.068 143.922C36.8426 140.173 36.7825 136.387 36.8952 132.57C37.0004 128.754 37.2708 124.923 37.7141 121.077C38.1498 117.223 38.7508 113.384 39.517 109.545C40.2833 105.699 41.2073 101.882 42.2891 98.0887C43.3709 94.2875 44.6104 90.5313 46.0002 86.8202C47.39 83.1015 48.93 79.443 50.6128 75.8446C52.3031 72.2462 54.1286 68.7229 56.0893 65.2747C58.0575 61.8265 60.1535 58.476 62.3772 55.2081C64.6008 51.9478 66.9447 48.7926 69.4087 45.7426C71.8728 42.6925 74.442 39.7702 77.1164 36.9681C79.7983 34.166 82.5704 31.4991 85.4326 28.9675C88.3023 26.4358 91.2472 24.0544 94.2746 21.8232C97.3021 19.5845 100.397 17.5111 103.552 15.5954C106.715 13.6798 109.923 11.9294 113.183 10.3518C116.444 8.77423 119.742 7.36941 123.077 6.13738C126.405 4.91287 129.756 3.86865 133.121 3.00473C136.494 2.14081 139.867 1.45718 143.24 0.968879C146.613 0.473062 149.979 0.172569 153.329 0.052371C156.672 -0.060313 159.993 0.00729631 163.283 0.270229C166.574 0.533161 169.811 0.983904 173.012 1.62245C176.212 2.25349 179.352 3.07985 182.425 4.08651C185.505 5.09317 188.502 6.27261 191.432 7.63986Z" fill="#D2EDFF"/>
<path d="M179.765 32.5356C182.026 33.5948 184.219 34.7818 186.345 36.104C188.471 37.4261 190.515 38.8835 192.476 40.4611C194.444 42.0387 196.322 43.7365 198.11 45.5545C199.89 47.3725 201.581 49.3032 203.173 51.3466C204.766 53.3824 206.253 55.5234 207.635 57.7696C209.01 60.0158 210.28 62.3447 211.437 64.7712C212.594 67.1976 213.638 69.6993 214.554 72.2835C215.478 74.8678 216.282 77.5121 216.958 80.2316C217.634 82.9436 218.19 85.7156 218.619 88.5328C219.039 91.3574 219.34 94.2196 219.513 97.1194C219.685 100.019 219.73 102.949 219.648 105.901C219.565 108.854 219.355 111.814 219.017 114.796C218.679 117.771 218.213 120.746 217.619 123.713C217.026 126.681 216.312 129.633 215.478 132.57C214.637 135.508 213.683 138.415 212.609 141.285C211.527 144.162 210.34 146.986 209.033 149.774C207.733 152.561 206.321 155.28 204.803 157.947C203.278 160.614 201.663 163.213 199.935 165.737C198.215 168.261 196.404 170.703 194.504 173.062C192.596 175.413 190.605 177.682 188.539 179.846C186.466 182.017 184.325 184.075 182.108 186.036C179.885 187.989 177.609 189.837 175.265 191.565C172.928 193.293 170.532 194.893 168.09 196.373C165.649 197.86 163.162 199.212 160.638 200.429C158.114 201.654 155.567 202.736 152.991 203.69C150.414 204.636 147.822 205.448 145.215 206.116C142.608 206.785 140.002 207.311 137.395 207.694C134.781 208.069 132.181 208.31 129.59 208.4C127.005 208.483 124.436 208.43 121.889 208.227C119.35 208.024 116.841 207.679 114.362 207.183C111.89 206.695 109.464 206.056 107.083 205.282C104.701 204.501 102.38 203.585 100.119 202.525C97.8573 201.474 95.6637 200.279 93.5377 198.957C91.4117 197.635 89.3684 196.185 87.4076 194.607C85.4394 193.022 83.5613 191.324 81.7809 189.506C79.9929 187.688 78.3026 185.758 76.71 183.722C75.1174 181.679 73.63 179.538 72.2552 177.291C70.8729 175.053 69.6033 172.716 68.4464 170.29C67.2895 167.863 66.2453 165.362 65.3288 162.777C64.4048 160.201 63.6085 157.549 62.9248 154.837C62.2487 152.117 61.7003 149.353 61.2721 146.528C60.8439 143.711 60.5434 140.849 60.3706 137.942C60.1979 135.042 60.1528 132.119 60.2354 129.167C60.3181 126.207 60.5284 123.247 60.8665 120.272C61.212 117.298 61.6703 114.323 62.2638 111.348C62.8572 108.38 63.5709 105.428 64.4048 102.491C65.2462 99.5534 66.2002 96.6461 67.282 93.7764C68.3563 90.8991 69.5432 88.0745 70.8504 85.2874C72.15 82.5078 73.5623 79.7809 75.0874 77.114C76.6049 74.4471 78.2275 71.8478 79.9479 69.3236C81.6682 66.7995 83.4787 64.3655 85.3868 62.0066C87.2874 59.6477 89.2782 57.3865 91.3516 55.2154C93.4175 53.0519 95.5661 50.986 97.7822 49.0327C99.9984 47.072 102.275 45.2315 104.618 43.5037C106.962 41.7758 109.351 40.1682 111.793 38.6882C114.242 37.2083 116.721 35.8561 119.245 34.6315C121.769 33.407 124.316 32.3253 126.893 31.3712C129.469 30.4246 132.061 29.6133 134.668 28.9447C137.275 28.2761 139.881 27.7502 142.496 27.3746C145.103 26.9915 147.702 26.7586 150.294 26.6684C152.885 26.5783 155.447 26.6309 157.994 26.8337C160.54 27.0365 163.05 27.3896 165.521 27.8779C167.993 28.3738 170.419 29.0048 172.801 29.7861C175.182 30.5598 177.503 31.4764 179.765 32.5356Z" fill="#312F84"/>
<path d="M166.844 60.1212C168.369 60.8349 169.848 61.6387 171.283 62.5327C172.718 63.4267 174.1 64.4033 175.43 65.47C176.752 66.5368 178.022 67.6862 179.231 68.9182C180.433 70.1427 181.575 71.4499 182.65 72.8246C183.731 74.2069 184.73 75.6493 185.662 77.1668C186.594 78.6843 187.457 80.2544 188.239 81.892C189.02 83.5297 189.719 85.2275 190.342 86.9704C190.966 88.7133 191.507 90.5012 191.965 92.3342C192.423 94.1672 192.791 96.0378 193.084 97.946C193.37 99.8541 193.573 101.785 193.693 103.746C193.805 105.706 193.835 107.682 193.783 109.673C193.723 111.671 193.58 113.669 193.355 115.683C193.122 117.688 192.806 119.702 192.408 121.708C192.01 123.713 191.529 125.704 190.966 127.687C190.395 129.671 189.749 131.639 189.02 133.577C188.299 135.515 187.495 137.431 186.609 139.309C185.73 141.187 184.776 143.028 183.754 144.831C182.725 146.634 181.628 148.384 180.471 150.089C179.307 151.795 178.082 153.447 176.797 155.04C175.505 156.633 174.168 158.158 172.763 159.622C171.366 161.087 169.916 162.477 168.421 163.799C166.926 165.122 165.386 166.369 163.801 167.533C162.223 168.705 160.608 169.787 158.956 170.786C157.303 171.792 155.628 172.701 153.922 173.528C152.217 174.354 150.497 175.083 148.754 175.729C147.018 176.368 145.268 176.916 143.503 177.367C141.745 177.817 139.987 178.17 138.221 178.433C136.456 178.689 134.698 178.847 132.948 178.907C131.205 178.967 129.47 178.929 127.749 178.794C126.029 178.659 124.339 178.418 122.663 178.088C120.996 177.757 119.358 177.329 117.75 176.803C116.143 176.277 114.573 175.654 113.048 174.94C111.515 174.226 110.035 173.423 108.6 172.529C107.165 171.635 105.783 170.658 104.453 169.591C103.131 168.525 101.862 167.375 100.652 166.151C99.4501 164.919 98.3083 163.619 97.234 162.237C96.1597 160.862 95.1531 159.412 94.2215 157.895C93.29 156.385 92.4336 154.807 91.6523 153.169C90.871 151.532 90.1649 149.841 89.5413 148.098C88.9178 146.348 88.3769 144.56 87.9262 142.727C87.4679 140.894 87.0923 139.024 86.7993 137.115C86.5138 135.215 86.311 133.277 86.1983 131.323C86.0781 129.363 86.0481 127.387 86.1082 125.389C86.1608 123.398 86.3035 121.392 86.5289 119.379C86.7617 117.373 87.0773 115.367 87.4754 113.354C87.8736 111.348 88.3544 109.357 88.9253 107.374C89.4887 105.391 90.1348 103.43 90.8635 101.484C91.5922 99.5461 92.396 97.6304 93.275 95.7524C94.1539 93.8743 95.108 92.0337 96.1372 90.2308C97.1589 88.4278 98.2557 86.6774 99.4201 84.9721C100.577 83.2668 101.802 81.6216 103.094 80.029C104.378 78.4364 105.723 76.9038 107.12 75.4389C108.518 73.974 109.967 72.5842 111.462 71.2621C112.965 69.9399 114.497 68.6928 116.083 67.5284C117.668 66.364 119.283 65.2747 120.928 64.2756C122.581 63.2764 124.256 62.3599 125.961 61.5335C127.667 60.7147 129.387 59.9785 131.13 59.3399C132.873 58.6939 134.623 58.1455 136.381 57.6947C138.139 57.244 139.904 56.8909 141.662 56.6355C143.428 56.3725 145.185 56.2148 146.936 56.1547C148.686 56.0946 150.414 56.1322 152.134 56.2674C153.855 56.4101 155.545 56.643 157.22 56.9735C158.888 57.3041 160.533 57.7398 162.141 58.2657C163.741 58.7915 165.311 59.4075 166.844 60.1212Z" fill="#D2EDFF"/>
<path d="M152.031 91.7406C153.406 92.3792 154.69 93.183 155.885 94.1446C157.079 95.1062 158.161 96.203 159.13 97.45C160.099 98.6896 160.933 100.049 161.639 101.522C162.345 102.994 162.901 104.557 163.314 106.209C163.728 107.862 163.983 109.575 164.088 111.333C164.193 113.098 164.141 114.886 163.938 116.697C163.728 118.507 163.374 120.31 162.864 122.098C162.353 123.879 161.699 125.621 160.91 127.312C160.114 129.009 159.19 130.625 158.146 132.157C157.102 133.697 155.945 135.117 154.69 136.439C153.428 137.761 152.083 138.941 150.664 139.993C149.236 141.044 147.756 141.946 146.224 142.689C144.691 143.433 143.129 144.004 141.544 144.41C139.958 144.815 138.381 145.048 136.803 145.101C135.226 145.161 133.686 145.033 132.183 144.733C130.681 144.44 129.238 143.967 127.864 143.321C126.481 142.682 125.197 141.878 124.002 140.917C122.808 139.963 121.726 138.858 120.757 137.619C119.788 136.372 118.954 135.019 118.248 133.539C117.549 132.067 116.986 130.504 116.58 128.852C116.167 127.199 115.904 125.494 115.799 123.728C115.694 121.963 115.746 120.175 115.956 118.364C116.159 116.554 116.52 114.759 117.023 112.971C117.534 111.183 118.188 109.44 118.984 107.749C119.773 106.059 120.697 104.444 121.741 102.904C122.785 101.371 123.942 99.9441 125.204 98.622C126.459 97.3073 127.803 96.1204 129.231 95.0686C130.651 94.0169 132.131 93.1229 133.663 92.3792C135.203 91.6355 136.758 91.057 138.343 90.6514C139.928 90.2457 141.513 90.0128 143.084 89.9602C144.661 89.9076 146.201 90.0278 147.704 90.3283C149.214 90.6288 150.649 91.0946 152.031 91.7406Z" fill="#312F84"/>
<path d="M71.9939 71.886C71.9939 71.886 54.0919 13.3347 35.927 4.37994C17.7546 -4.56728 23.6518 49.3189 23.6518 49.3189L71.9939 71.886Z" fill="#8282DB"/>
<path d="M62.4077 89.9304C62.4077 89.9304 9.01729 105.661 1.70025 91.7635C-5.61679 77.8731 13.0514 71.8857 13.0514 71.8857L62.4077 89.9304Z" fill="#8282DB"/>
<path d="M35.628 56.2902C35.2674 56.2902 34.9594 56.17 34.6964 55.9296C34.426 55.6892 34.2833 55.3887 34.2457 55.0281L31.0004 18.6382C30.9928 18.2701 31.1055 17.9471 31.3534 17.6766C31.5938 17.3987 31.9018 17.2484 32.2699 17.2109C32.6305 17.1808 32.9611 17.2785 33.2465 17.5039C33.5395 17.7367 33.7123 18.0297 33.7649 18.3903L37.0102 54.7877C37.0478 55.1633 36.9351 55.5014 36.6947 55.7944C36.4468 56.0873 36.1313 56.2526 35.7557 56.2902H35.628Z" fill="#5656BF"/>
<path d="M46.2429 61.2481C45.8823 61.2481 45.5668 61.1279 45.3038 60.88C45.0334 60.6321 44.8906 60.324 44.8606 59.9635L43.268 37.7269C43.2229 37.3362 43.3281 36.9906 43.576 36.6826C43.8314 36.3746 44.1544 36.2094 44.5526 36.1793C44.9432 36.1493 45.2888 36.2695 45.5818 36.5399C45.8748 36.8028 46.025 37.1334 46.04 37.5315L47.6026 59.7681C47.6252 60.1513 47.5125 60.4818 47.2646 60.7673C47.0166 61.0603 46.7011 61.218 46.318 61.2481H46.2429Z" fill="#5656BF"/>
<path d="M13.504 88.6682C13.1585 88.6758 12.8505 88.5631 12.5875 88.3377C12.3246 88.1048 12.1668 87.8193 12.1218 87.4738C12.0692 87.1357 12.1443 86.8127 12.3396 86.5272C12.535 86.2342 12.7979 86.0464 13.1359 85.9563L35.2599 79.8112C35.628 79.706 35.9735 79.7436 36.3116 79.9314C36.6496 80.1117 36.8675 80.3896 36.9727 80.7577C37.0778 81.1258 37.0403 81.4789 36.8525 81.8095C36.6722 82.1475 36.3942 82.3654 36.0261 82.4705L13.8722 88.6232C13.752 88.6532 13.6318 88.6682 13.504 88.6682Z" fill="#5656BF"/>
<path d="M143.383 114.85L143.248 114.932C142.106 115.578 140.904 115.698 139.657 115.285L18.8508 75.635C17.491 75.1843 16.244 74.5457 15.0946 73.7043C13.9377 72.863 12.9461 71.8638 12.1122 70.7144C11.2783 69.5575 10.6398 68.3105 10.2041 66.9507C9.76083 65.5985 9.54297 64.2087 9.54297 62.7889C9.54297 61.3315 9.77585 59.9117 10.2416 58.5294C10.5496 57.6129 10.9478 56.7414 11.4436 55.9151C11.9394 55.0887 12.5104 54.3225 13.1714 53.6163C13.8325 52.9101 14.5537 52.2866 15.35 51.7307C16.1388 51.1823 16.9877 50.724 17.8742 50.3559C18.7682 49.9803 19.6922 49.7099 20.6387 49.5371C21.5853 49.3643 22.5469 49.2967 23.5085 49.3267C24.4775 49.3568 25.4241 49.4845 26.3631 49.7249C27.3022 49.9578 28.2037 50.2883 29.0676 50.7165L143.165 107.029C143.954 107.42 144.563 107.991 145.006 108.742C145.306 109.253 145.502 109.809 145.584 110.395C145.667 110.981 145.629 111.559 145.479 112.138C145.321 112.709 145.066 113.234 144.705 113.7C144.337 114.173 143.902 114.549 143.383 114.85Z" fill="#5656BF"/>
</svg>
