<svg width="1920" height="1935" viewBox="0 0 1920 1935" fill="none" xmlns="http://www.w3.org/2000/svg">
<g opacity="0.3">
<path d="M1162.19 1495C1154.65 1502.98 1146.85 1510.32 1138.88 1516.92C1122.16 1530.77 1104.56 1541.51 1086.55 1548.86C1067.19 1556.76 1047.17 1560.81 1027.03 1560.89C986.549 1561.06 951.452 1547.12 917.508 1533.63C910.842 1530.98 903.95 1528.24 897.177 1525.67C851.003 1508.19 805.439 1498.3 757.887 1495.41C663.029 1489.65 558.915 1509.24 456.797 1552.06C338.701 1601.58 233.451 1675.36 160.435 1759.81C117.522 1809.44 78.1335 1891.39 85.8819 1951.98C90.4812 1987.93 111.824 2010.66 147.603 2017.69L147.432 2018.06C128.67 2014.37 113.835 2006.47 103.343 1994.57C93.7184 1983.65 87.7188 1969.38 85.5137 1952.13C82.0056 1924.71 88.0774 1890.69 103.072 1853.75C116.929 1819.62 137.213 1786.19 160.19 1759.61C198.403 1715.42 245.217 1674.25 299.334 1637.26C348.391 1603.73 401.354 1574.95 456.753 1551.72C558.93 1508.87 663.104 1489.27 758.017 1495.03C805.598 1497.92 851.186 1507.82 897.387 1525.31C904.163 1527.88 911.057 1530.62 917.721 1533.27C951.638 1546.75 986.711 1560.68 1027.13 1560.51C1066.22 1560.35 1103.76 1545.59 1138.7 1516.65C1187.08 1476.58 1227.5 1410.58 1246.81 1340.12C1274.65 1238.58 1266.56 1142.2 1258.74 1048.99C1257.37 1032.65 1255.95 1015.76 1254.77 999.248C1251.7 956.373 1248.9 899.579 1254.44 840.475C1260.1 780.062 1273.51 725.899 1295.41 674.888C1308.82 643.664 1326.32 613.678 1347.41 585.762C1366.89 559.975 1390.09 535.115 1416.35 511.867C1461.4 471.99 1516.72 435.445 1585.47 400.138C1720.85 330.623 1863.99 268.654 2010.91 215.957C2150.55 165.87 2294.86 123.694 2439.82 90.5983L2439.79 90.9661C2139.3 159.569 1851.89 263.698 1585.55 400.465C1435.07 477.735 1342.98 564.95 1295.74 674.938C1247.69 786.834 1247.83 896.868 1255.14 999.109C1256.32 1015.62 1257.73 1032.51 1259.1 1048.85C1266.93 1142.08 1275.02 1238.49 1247.17 1340.1C1238.17 1372.94 1224.03 1406.09 1206.28 1435.95C1196.9 1451.73 1186.58 1466.47 1175.61 1479.78C1171.25 1485.09 1166.77 1490.16 1162.19 1495Z" fill="#312F84" fill-opacity="0.5"/>
<path d="M1156.94 1475.26C1137.7 1495.62 1117.05 1511.79 1095.54 1523.36C1071.56 1536.27 1046.59 1543.36 1021.32 1544.45C1019.08 1544.54 1016.81 1544.59 1014.58 1544.59C974.395 1544.63 939.203 1531.45 905.171 1518.7C898.291 1516.12 891.178 1513.45 884.186 1510.96C842.553 1496.12 801.909 1487.22 759.931 1483.75C754.762 1483.33 749.508 1482.98 744.31 1482.73C649.291 1478.05 545.271 1498.69 443.494 1542.4C325.459 1593.15 220.74 1667.92 148.628 1752.94C106.503 1802.67 67.7183 1884.64 75.0892 1945.1C79.5032 1981.3 100.354 2004.63 135.384 2012.58L135.206 2012.95C116.845 2008.79 102.339 2000.49 92.0956 1988.3C82.6884 1977.11 76.8413 1962.62 74.721 1945.25C71.3625 1917.72 77.3602 1883.75 92.0614 1847.01C105.649 1813.06 125.647 1779.59 148.376 1752.76C186.136 1708.24 232.597 1666.64 286.466 1629.14C335.261 1595.16 388.078 1565.87 443.446 1542.07C545.282 1498.32 649.361 1477.68 744.436 1482.35C749.636 1482.61 754.895 1482.96 760.066 1483.38C802.071 1486.85 842.738 1495.76 884.393 1510.61C891.387 1513.1 898.501 1515.76 905.383 1518.34C939.396 1531.08 974.562 1544.26 1014.69 1544.22C1016.92 1544.22 1019.18 1544.17 1021.42 1544.07C1073.64 1541.83 1119.8 1514.55 1157.03 1475.17C1157.24 1474.95 1157.44 1474.74 1157.64 1474.52C1157.41 1474.77 1157.17 1475.02 1156.94 1475.26ZM1164.72 1466.71C1197.96 1428.8 1223.4 1381.31 1238.76 1334.45C1271.74 1233.25 1268.12 1134.68 1264.61 1039.35C1264.46 1035.42 1264.32 1031.5 1264.18 1027.57C1263.87 1018.96 1263.51 1008.76 1263.21 998.407C1261.86 951.975 1261.35 896.836 1267.75 839.945C1274.57 779.411 1288.21 725.402 1309.47 674.832C1322.54 643.768 1339.38 613.805 1359.54 585.775C1378.21 559.806 1400.34 534.632 1425.31 510.962C1468.46 470.071 1521.3 432.198 1586.86 395.179C1650.75 359.064 1705.14 331.149 1758.03 307.33C1832.99 273.607 1908.93 245.779 1973.33 223.001C2123.2 170.192 2278.4 126.077 2434.61 91.8813L2434.58 92.2469C2278.39 126.439 2123.2 170.549 1973.35 223.352C1908.96 246.125 1833.03 273.949 1758.09 307.665C1705.21 331.48 1650.83 359.387 1586.96 395.497C1444.15 476.139 1356.08 564.916 1309.81 674.882C1261.81 789.046 1260.78 901.676 1263.58 998.285C1263.88 1008.64 1264.24 1018.84 1264.55 1027.45C1264.69 1031.37 1264.84 1035.3 1264.98 1039.23C1268.49 1134.58 1272.12 1233.19 1239.11 1334.47C1230.89 1359.55 1219.93 1384.15 1206.55 1407.59C1194.09 1429.41 1180.04 1449.25 1164.72 1466.71Z" fill="#312F84" fill-opacity="0.5"/>
<path d="M1152.74 1455C1150.42 1457.44 1148.08 1459.84 1145.72 1462.18C1125.85 1481.89 1104.65 1497.49 1082.73 1508.54C1058.75 1520.61 1033.89 1527.22 1008.86 1528.17C1006.63 1528.25 1004.37 1528.29 1002.13 1528.29C962.27 1528.2 926.997 1515.78 892.891 1503.76C885.782 1501.26 878.429 1498.67 871.2 1496.25C829.062 1482.14 788.237 1473.85 746.386 1470.9C741.209 1470.53 735.945 1470.25 730.734 1470.05C635.558 1466.46 531.631 1488.14 430.194 1532.75C312.225 1584.72 208.033 1660.48 136.822 1746.09C96.7727 1794.33 56.9945 1875.01 64.2945 1938.15C68.5118 1974.63 88.8722 1998.61 123.173 2007.49L122.985 2007.85C105.014 2003.2 90.8361 1994.51 80.8385 1982.02C71.6427 1970.53 65.9553 1955.82 63.9292 1938.3C60.7352 1910.67 66.6641 1876.76 81.0736 1840.24C94.3944 1806.47 114.106 1772.97 136.573 1745.9C173.885 1701.05 219.991 1659.03 273.61 1621.01C322.148 1586.6 374.812 1556.79 430.147 1532.42C531.644 1487.78 635.628 1466.09 730.86 1469.68C736.073 1469.88 741.34 1470.16 746.521 1470.53C788.394 1473.48 829.244 1481.78 871.404 1495.9C878.635 1498.32 885.988 1500.91 893.097 1503.41C927.186 1515.42 962.433 1527.84 1002.25 1527.92C1004.48 1527.93 1006.74 1527.89 1008.96 1527.81C1110.7 1523.94 1193.63 1425.06 1230.7 1328.79C1269.36 1227.42 1270.35 1125.88 1271.32 1027.68L1271.33 1026.67C1271.42 1017.15 1271.51 1007.32 1271.65 997.562C1273.06 894.643 1278.23 784.94 1323.53 674.767C1336.26 643.854 1352.46 613.911 1371.66 585.776C1389.53 559.606 1410.6 534.126 1434.28 510.044C1475.58 468.057 1525.94 428.859 1588.25 390.208C1653.68 349.541 1705.29 321.184 1755.6 298.262C1827.33 265.646 1903.19 240.073 1970.11 217.512C2119.4 167.552 2273.93 125.711 2429.4 93.1483L2429.36 93.5146C2273.91 126.074 2119.39 167.913 1970.12 217.865C1903.2 240.424 1827.36 265.992 1755.66 298.599C1705.36 321.51 1653.77 349.858 1588.36 390.511C1453.3 474.291 1369.25 564.628 1323.86 674.811C1278.59 784.912 1273.42 894.569 1272.01 997.449C1271.88 1007.2 1271.78 1017.04 1271.69 1026.55L1271.68 1027.56C1271.2 1076.5 1270.7 1127.1 1265.5 1177.34C1259.65 1233.79 1248.38 1283.34 1231.03 1328.82C1212.75 1376.29 1185.15 1420.71 1152.74 1455Z" fill="#312F84" fill-opacity="0.5"/>
<path d="M2424.14 94.7768C2269.43 125.707 2115.58 165.273 1966.89 212.374C1960.61 214.387 1954.31 216.395 1947.99 218.412C1883.69 238.918 1817.21 260.122 1753.23 289.526C1691.22 318.102 1635.8 354.087 1589.77 385.521C1462.56 472.15 1382.53 564.049 1337.92 674.733C1292.21 788.445 1285.69 903.866 1280.45 996.608C1280.14 1002.17 1279.83 1007.74 1279.52 1013.31C1279.3 1017.42 1279.07 1021.54 1278.84 1025.66C1275.88 1078.48 1272.81 1126.17 1265.14 1174.83C1256.38 1230.42 1242.58 1278.94 1222.96 1323.17C1204.57 1364.62 1179 1403.31 1149.82 1434.18C1144.5 1439.81 1139.07 1445.17 1133.53 1450.25C1113.32 1468.78 1091.92 1483.41 1069.94 1493.72C1045.95 1504.98 1021.21 1511.09 996.39 1511.91C994.169 1511.98 991.912 1512.01 989.684 1512C950.152 1511.78 914.822 1500.12 880.658 1488.83C873.3 1486.4 865.687 1483.89 858.204 1481.55C815.545 1468.18 774.534 1460.49 732.831 1458.04C727.642 1457.74 722.367 1457.51 717.149 1457.38C621.811 1454.87 517.982 1477.6 416.887 1523.1C298.981 1576.28 195.326 1653.03 125.008 1739.22C77.017 1798.21 47.6087 1877.13 53.4884 1931.13C57.4946 1967.91 77.3668 1992.55 110.951 2002.38L110.755 2002.74C93.1707 1997.6 79.3099 1988.49 69.5574 1975.69C60.5771 1963.89 55.0485 1948.95 53.1208 1931.28C50.1002 1903.55 55.965 1869.71 70.0852 1833.41C83.1436 1799.84 102.557 1766.32 124.756 1739.04C161.618 1693.85 207.369 1651.41 260.737 1612.88C309.015 1578.03 361.536 1547.7 416.834 1522.76C517.991 1477.23 621.878 1454.49 717.273 1457C722.496 1457.13 727.774 1457.36 732.963 1457.66C774.691 1460.11 815.721 1467.81 858.402 1481.18C865.888 1483.52 873.498 1486.03 880.859 1488.47C915.003 1499.74 950.311 1511.4 989.795 1511.62C992.022 1511.63 994.273 1511.6 996.489 1511.53C1103.25 1508.02 1185.03 1407.83 1222.63 1323.11C1267.48 1222.02 1273.32 1117.75 1278.47 1025.75C1278.7 1021.63 1278.93 1017.52 1279.16 1013.4C1279.46 1007.83 1279.77 1002.27 1280.08 996.699C1283.07 943.761 1286.42 891.853 1294.39 838.847C1303.56 777.891 1317.69 724.193 1337.58 674.687C1349.99 643.912 1365.53 613.995 1383.79 585.767C1400.86 559.384 1420.86 533.595 1443.25 509.113C1482.74 465.939 1530.63 425.413 1589.64 385.224C1635.69 353.782 1691.13 317.779 1753.18 289.19C1817.18 259.77 1883.68 238.563 1947.99 218.052C1954.31 216.038 1960.61 214.027 1966.89 212.014C2115.6 164.909 2269.46 125.339 2424.19 94.4062L2424.14 94.7768Z" fill="#312F84" fill-opacity="0.5"/>
<path d="M2418.93 96.0401C2262.02 125.903 2108.85 163.193 1963.67 206.882C1954.98 209.498 1946.07 212.147 1937.45 214.711C1875.73 233.077 1811.91 252.065 1750.81 280.452C1689.85 308.86 1635.91 346.98 1591.18 380.528C1471.94 469.658 1395.93 563.12 1351.98 674.654C1310.17 781.144 1299.8 885.734 1289.77 986.881L1288.67 997.987C1287.8 1006.76 1286.9 1015.83 1285.99 1024.75C1275.65 1125.71 1262.43 1224.07 1214.89 1317.51C1203.35 1340.19 1189.76 1361.82 1174.49 1381.82C1158.1 1403.3 1140.2 1422.3 1121.28 1438.29C1100.74 1455.65 1079.16 1469.32 1057.13 1478.89C1033.16 1489.32 1008.53 1494.95 983.93 1495.63C981.708 1495.69 979.458 1495.71 977.241 1495.69C938.06 1495.35 902.7 1484.44 868.504 1473.88C860.873 1471.53 852.98 1469.1 845.219 1466.83C802.026 1454.21 760.835 1447.12 719.291 1445.17C714.099 1444.93 708.811 1444.77 703.578 1444.69C608.082 1443.27 504.35 1467.04 403.59 1513.44C285.751 1567.84 182.623 1645.59 113.201 1732.36C66.1908 1791.32 37.1916 1870.14 42.6871 1924.02C46.4709 1961.15 65.8532 1986.48 98.7377 1997.28L98.5348 1997.64C81.3275 1991.99 67.7807 1982.47 58.2716 1969.33C49.5059 1957.22 44.1381 1942.03 42.3189 1924.18C39.4845 1896.36 45.2928 1862.6 59.1187 1826.55C71.9134 1793.19 91.031 1759.68 112.946 1732.18C149.359 1686.67 194.753 1643.8 247.874 1604.75C295.895 1569.46 348.263 1538.62 403.531 1513.11C504.347 1466.68 608.142 1442.9 703.694 1444.32C708.929 1444.4 714.222 1444.56 719.414 1444.8C760.981 1446.75 802.194 1453.84 845.409 1466.48C853.17 1468.74 861.065 1471.17 868.696 1473.53C902.873 1484.07 938.216 1494.98 977.351 1495.32C979.561 1495.34 981.809 1495.32 984.028 1495.26C1088.78 1492.36 1171.8 1401.5 1214.57 1317.44C1262.07 1224.07 1275.28 1125.75 1285.62 1024.83C1286.53 1015.91 1287.43 1006.84 1288.3 998.07L1289.4 986.964C1294.33 937.315 1299.41 885.977 1308.51 833.598C1318.82 774.276 1332.92 722.273 1351.63 674.62C1363.71 643.969 1378.61 614.073 1395.91 585.767C1412.18 559.153 1431.13 533.054 1452.21 508.194C1489.94 463.711 1535.35 421.866 1591.02 380.251C1635.77 346.689 1689.74 308.546 1750.74 280.123C1811.88 251.717 1875.71 232.723 1937.45 214.354C1946.07 211.79 1954.98 209.139 1963.67 206.526C2108.86 162.831 2262.05 125.537 2418.97 95.6738L2418.93 96.0401Z" fill="#312F84" fill-opacity="0.5"/>
<path d="M2413.71 97.3066C2256.81 125.647 2104.31 160.668 1960.44 201.396C1949.63 204.458 1938.48 207.538 1927.7 210.517C1868.3 226.935 1806.88 243.914 1748.38 271.389C1687.93 299.875 1635.71 340.022 1592.59 375.543C1481.45 466.738 1409.46 561.762 1366.03 674.585C1328.26 773.161 1314.68 870.583 1301.56 964.799C1300.18 974.713 1298.74 984.965 1297.33 994.932C1295.66 1006.64 1294.37 1015.56 1293.14 1023.85C1286.51 1068.28 1277.89 1120.49 1264.16 1170.85C1249.61 1224.21 1230.85 1270.34 1206.82 1311.87C1194.17 1333.7 1179.7 1354.35 1163.79 1373.25C1146.7 1393.54 1128.28 1411.4 1109.03 1426.34C1088.17 1442.53 1066.4 1455.22 1044.32 1464.07C1020.37 1473.67 995.861 1478.82 971.466 1479.36C969.26 1479.41 967.014 1479.42 964.795 1479.39C925.996 1478.92 890.632 1468.76 856.429 1458.94C848.495 1456.66 840.294 1454.31 832.228 1452.12C788.482 1440.24 747.111 1433.76 705.741 1432.31C700.539 1432.13 695.243 1432.03 689.997 1432.01C594.343 1431.68 490.704 1456.5 390.283 1503.78C272.514 1559.41 169.919 1638.15 101.391 1725.49C62.4914 1775.28 25.9113 1853.75 31.8752 1916.83C35.4214 1954.34 54.3151 1980.39 86.516 1992.18L86.3063 1992.53C69.4672 1986.37 56.2333 1976.41 46.968 1962.93C38.4168 1950.49 33.214 1935.03 31.5083 1916.98C28.8712 1889.08 34.6291 1855.42 48.161 1819.64C60.6989 1786.49 79.5107 1752.99 101.133 1725.32C137.099 1679.47 182.138 1636.17 235.005 1596.62C282.766 1560.89 334.988 1529.54 390.222 1503.45C490.7 1456.14 594.398 1431.3 690.108 1431.64C695.354 1431.66 700.657 1431.76 705.861 1431.94C747.251 1433.39 788.645 1439.88 832.413 1451.76C840.485 1453.94 848.686 1456.3 856.619 1458.58C890.802 1468.4 926.15 1478.55 964.906 1479.01C967.122 1479.04 969.364 1479.03 971.567 1478.98C1059.19 1477.03 1147.02 1414.51 1206.51 1311.75C1260.38 1218.7 1278.66 1118.53 1292.77 1023.91C1294 1015.61 1295.29 1006.69 1296.96 994.99C1298.37 985.024 1299.8 974.772 1301.18 964.858C1307.65 918.475 1314.33 870.516 1324.12 821.873C1335.18 766.867 1348.78 718.672 1365.69 674.544C1377.45 643.994 1391.7 614.124 1408.04 585.759C1423.53 558.891 1441.41 532.484 1461.18 507.268C1497.19 461.358 1540.12 418.182 1592.41 375.275C1635.55 339.737 1687.81 299.559 1748.31 271.05C1806.85 243.557 1868.29 226.576 1927.71 210.152C1938.48 207.173 1949.63 204.093 1960.44 201.031C2104.32 160.303 2256.84 125.277 2413.75 96.9318L2413.71 97.3066Z" fill="#312F84" fill-opacity="0.5"/>
<path d="M2408.49 98.5745C2251.6 125.385 2099.76 158.132 1957.21 195.909C1945.08 199.125 1932.52 202.321 1920.37 205.417C1862.49 220.16 1802.65 235.401 1745.94 262.32C1685.68 291.037 1635.31 333.146 1593.99 370.551C1492.53 461.999 1422.56 561.427 1380.09 674.511C1346.38 764.669 1330.57 854.314 1315.28 941.009C1312.19 958.521 1309 976.627 1305.76 994.098C1303.78 1004.79 1301.99 1014.23 1300.28 1022.96C1292.32 1063.56 1280.97 1116.83 1263.65 1168.87C1246.26 1221.15 1225.02 1266.08 1198.74 1306.22C1170.07 1350.01 1134.8 1387.41 1096.75 1414.4C1075.6 1429.41 1053.65 1441.14 1031.5 1449.26C1007.59 1458.03 983.195 1462.69 958.999 1463.1C956.8 1463.13 954.56 1463.13 952.347 1463.1C913.963 1462.51 878.627 1453.1 844.458 1444C836.192 1441.8 827.647 1439.52 819.237 1437.42C774.923 1426.3 733.366 1420.42 692.194 1419.46C686.981 1419.34 681.675 1419.3 676.419 1419.34C580.607 1420.09 477.063 1445.95 376.985 1494.14C259.288 1550.98 157.223 1630.71 89.5863 1718.64C43.869 1778.33 16.3328 1855.06 21.0661 1909.56C24.3599 1947.48 42.7688 1974.28 74.303 1987.08L74.0837 1987.43C57.6044 1980.75 44.675 1970.34 35.6549 1956.5C27.3171 1943.71 22.285 1927.96 20.6969 1909.7C18.2663 1881.72 23.9798 1848.18 37.2196 1812.69C49.5008 1779.76 68.0033 1746.3 89.32 1718.47C124.838 1672.29 169.525 1628.57 222.139 1588.5C269.643 1552.32 321.718 1520.46 376.916 1493.8C477.053 1445.59 580.655 1419.71 676.528 1418.96C681.784 1418.92 687.092 1418.97 692.31 1419.09C733.504 1420.05 775.081 1425.93 819.417 1437.06C827.828 1439.16 836.375 1441.43 844.641 1443.64C878.792 1452.73 914.112 1462.14 952.458 1462.72C954.671 1462.76 956.903 1462.76 959.102 1462.73C1045.71 1461.26 1135.18 1402.7 1198.45 1306.09C1256.12 1218.01 1281.3 1117.98 1299.92 1023C1301.62 1014.27 1303.42 1004.83 1305.4 994.147C1308.64 976.679 1311.83 958.572 1314.92 941.063C1330.21 854.349 1346.03 764.686 1379.74 674.487C1391.19 644.011 1404.79 614.163 1420.17 585.768C1434.88 558.613 1451.69 531.896 1470.15 506.361C1504.47 458.872 1544.92 414.371 1593.79 370.314C1635.15 332.884 1685.56 290.737 1745.88 261.992C1802.63 235.053 1862.49 219.805 1920.39 205.058C1932.54 201.963 1945.1 198.764 1957.23 195.548C2099.79 157.769 2251.64 125.017 2408.54 98.2052L2408.49 98.5745Z" fill="#312F84" fill-opacity="0.5"/>
<path d="M2403.28 99.8398C2246.39 125.104 2095.23 155.582 1953.98 190.422C1941 193.622 1927.49 196.767 1914.42 199.805C1857.62 213.023 1798.88 226.687 1743.52 253.253C1683.22 282.303 1634.81 326.328 1595.4 365.565C1502.3 457.837 1436.47 558.872 1394.14 674.439C1364.58 755.598 1347.54 836.754 1331.06 915.239C1325.4 942.225 1320.04 967.717 1314.2 993.262C1311.82 1003.66 1309.61 1013.08 1307.43 1022.06C1293.33 1080.03 1279.26 1126.05 1263.15 1166.88C1242.93 1218.1 1219.22 1261.83 1190.66 1300.57C1179.58 1315.6 1167.72 1329.8 1155.27 1342.97C1133.19 1366.32 1109.26 1386.48 1084.48 1402.46C1039.65 1431.37 993.239 1446.29 946.535 1446.83C944.328 1446.85 942.097 1446.84 939.9 1446.79C901.965 1446.09 866.708 1437.43 832.609 1429.05C823.969 1426.92 815.041 1424.73 806.246 1422.71C761.343 1412.34 719.603 1407.08 678.647 1406.6C673.424 1406.54 668.108 1406.56 662.842 1406.66C566.872 1408.49 463.422 1435.4 363.682 1484.48C246.059 1542.54 144.525 1623.26 77.7797 1711.76C32.4061 1772.22 5.89869 1846.95 10.2556 1902.16C13.282 1940.54 31.2068 1968.13 62.088 1981.97L61.8613 1982.32C45.7363 1975.09 33.1084 1964.22 24.3309 1950C16.207 1936.84 11.3468 1920.79 9.88944 1902.3C7.67642 1874.26 13.3504 1840.85 26.2984 1805.66C38.3245 1772.98 56.5138 1739.58 77.5127 1711.6C112.583 1665.1 156.915 1620.94 209.276 1580.37C256.525 1543.75 308.45 1511.38 363.613 1484.14C463.412 1435.04 566.92 1408.11 662.948 1406.28C668.217 1406.18 673.533 1406.16 678.761 1406.22C719.739 1406.7 761.502 1411.97 806.422 1422.34C815.217 1424.36 824.151 1426.55 832.788 1428.68C866.869 1437.05 902.112 1445.71 940.014 1446.42C942.208 1446.46 944.436 1446.47 946.641 1446.45C1033.86 1445.46 1122.7 1392.23 1190.39 1300.41C1254.82 1213.01 1285.53 1110.67 1307.07 1022.08C1309.24 1013.1 1311.46 1003.68 1313.83 993.288C1319.68 967.746 1325.03 942.256 1330.7 915.27C1347.18 836.773 1364.22 755.6 1393.8 674.411C1404.95 643.964 1417.9 614.14 1432.3 585.761C1446.24 558.275 1461.99 531.248 1479.11 505.435C1511.77 456.206 1549.74 410.378 1595.18 365.337C1634.62 326.067 1683.08 282.002 1743.45 252.919C1798.85 226.33 1857.62 212.661 1914.45 199.439C1927.51 196.399 1941.02 193.256 1954 190.057C2095.26 155.215 2246.43 124.738 2403.33 99.4715L2403.28 99.8398Z" fill="#312F84" fill-opacity="0.5"/>
<path d="M2398.06 101.107C2238.97 125.151 2092.66 152.571 1950.75 184.934C1937.21 188.024 1923.67 190.868 1909.34 193.883C1853.32 205.661 1795.39 217.842 1741.08 244.188C1680.26 273.813 1632.03 321.95 1596.8 360.578C1512.32 452.786 1450.63 555.43 1408.2 674.372C1382.85 745.836 1365.63 817.667 1348.98 887.136C1340.23 923.646 1331.97 958.128 1322.63 992.433C1319.86 1002.62 1317.22 1012.02 1314.57 1021.17C1298.1 1077.87 1281.59 1123.53 1262.63 1164.89C1239.61 1215.1 1213.42 1257.63 1182.58 1294.93C1166.74 1314.09 1149.58 1331.78 1131.6 1347.52C1112.56 1364.18 1092.58 1378.64 1072.2 1390.51C1027.04 1416.82 980.565 1430.3 934.071 1430.56C931.871 1430.57 929.646 1430.55 927.455 1430.5C890.025 1429.68 854.896 1421.76 820.922 1414.1C811.858 1412.05 802.485 1409.94 793.258 1408.01C747.747 1398.41 705.826 1393.74 665.1 1393.74C659.864 1393.74 654.538 1393.83 649.267 1393.98C553.139 1396.9 449.786 1424.85 350.384 1474.82C258.743 1521.05 177.141 1580.91 114.427 1647.25C96.6975 1666.01 80.4902 1685.27 65.9755 1704.9C21.6722 1765.12 -4.43955 1839.6 -0.551547 1894.67C2.19525 1933.53 19.6329 1961.96 49.8749 1976.87L49.6385 1977.22C33.8566 1969.44 21.5276 1958.08 12.9947 1943.47C5.08375 1929.93 0.401751 1913.55 -0.92296 1894.81C-2.90705 1866.72 2.73284 1833.45 15.3886 1798.6C27.3337 1765.7 44.7329 1733.25 65.702 1704.75C100.324 1657.92 144.304 1613.33 196.412 1572.24C243.399 1535.19 295.178 1502.3 350.307 1474.49C449.766 1424.5 553.179 1396.52 649.366 1393.6C654.64 1393.44 659.971 1393.36 665.209 1393.36C705.956 1393.36 747.896 1398.03 793.429 1407.63C802.656 1409.56 812.033 1411.68 821.099 1413.72C855.057 1421.38 890.172 1429.3 927.572 1430.12C929.76 1430.16 931.985 1430.19 934.181 1430.18C1021.12 1429.68 1111.56 1380.31 1182.33 1294.74C1253.94 1208.14 1290.43 1103.05 1314.22 1021.17C1316.87 1012.02 1319.5 1002.62 1322.27 992.432C1331.61 958.134 1339.88 923.653 1348.63 887.149C1365.28 817.672 1382.5 745.828 1407.86 674.338C1429.7 613.101 1455.94 557.553 1488.08 504.511C1519.08 453.358 1554.57 406.204 1596.57 360.361C1620.47 334.15 1641.15 313.88 1661.65 296.566C1688.12 274.212 1714.08 256.969 1741.02 243.846C1795.38 217.476 1853.33 205.292 1909.38 193.506C1923.71 190.494 1937.25 187.645 1950.78 184.561C2092.7 152.197 2239.02 124.775 2398.11 100.73L2398.06 101.107Z" fill="#312F84" fill-opacity="0.5"/>
<path d="M2392.84 102.374C2233.76 124.829 2088.1 150.042 1947.52 179.446C1933.61 182.354 1919.64 184.976 1904.84 187.753C1849.41 198.155 1792.09 208.907 1738.65 235.118C1677.55 265.199 1631.5 315.299 1598.2 355.584C1522.67 446.556 1465.11 550.809 1422.25 674.294C1401.22 735.224 1384.92 796.746 1369.15 856.246C1356.69 903.28 1344.92 947.703 1331.06 991.589C1327.93 1001.51 1324.78 1011.16 1321.7 1020.27C1303.15 1075.14 1283.65 1121.79 1262.09 1162.89C1236.28 1212.11 1207.63 1253.45 1174.5 1289.27C1157.64 1307.49 1139.59 1324.2 1120.86 1338.93C1101.22 1354.36 1080.71 1367.69 1059.91 1378.55C1014.5 1402.26 967.965 1414.29 921.597 1414.29C919.413 1414.28 917.192 1414.25 914.997 1414.19C878.137 1413.26 843.208 1406.08 809.429 1399.14C799.873 1397.17 789.987 1395.14 780.256 1393.29C734.117 1384.47 692.015 1380.41 651.543 1380.87C646.297 1380.94 640.96 1381.08 635.679 1381.3C539.393 1385.3 436.133 1414.3 337.07 1465.16C219.601 1525.67 119.125 1608.38 54.1574 1698.03C10.9397 1757.96 -14.7814 1832.15 -11.3723 1887.05C-8.9236 1926.45 8.0275 1955.74 37.6479 1971.77L37.4047 1972.11C21.9634 1963.76 9.92783 1951.9 1.63778 1936.87C-6.05695 1922.91 -10.5617 1906.2 -11.743 1887.18C-13.4905 1859.06 -7.87926 1825.96 4.48385 1791.46C16.1773 1758.83 33.2586 1726.47 53.8817 1697.88C88.0607 1650.71 131.681 1605.71 183.535 1564.11C230.27 1526.61 281.899 1493.21 336.991 1464.84C436.111 1413.94 539.43 1384.92 635.772 1380.92C641.056 1380.7 646.398 1380.56 651.646 1380.5C692.142 1380.03 734.26 1384.09 780.42 1392.92C790.153 1394.76 800.037 1396.8 809.598 1398.76C843.362 1405.71 878.276 1412.88 915.111 1413.81C917.303 1413.87 919.524 1413.9 921.703 1413.91C1010.1 1413.91 1099.79 1369.57 1174.26 1289.06C1234.69 1223.73 1281.43 1138.32 1321.35 1020.25C1324.42 1011.15 1327.57 1001.5 1330.7 991.578C1344.55 947.704 1356.33 903.285 1368.79 856.257C1384.56 796.75 1400.86 735.217 1421.9 674.27C1443.51 612.009 1468.09 556.182 1497.04 503.593C1526.37 450.316 1559.38 401.838 1597.94 355.392C1631.27 315.064 1677.38 264.906 1738.58 234.78C1792.08 208.543 1849.43 197.783 1904.88 187.376C1919.67 184.602 1933.65 181.978 1947.55 179.071C2088.13 149.663 2233.81 124.451 2392.89 101.998L2392.84 102.374Z" fill="#312F84" fill-opacity="0.5"/>
<path d="M2387.62 103.64C2228.56 124.495 2083.55 147.493 1944.3 173.956C1930.16 176.641 1915.89 178.995 1900.77 181.484C1845.8 190.541 1788.95 199.909 1736.23 226.046C1674.78 256.625 1630.94 308.667 1599.61 350.589C1532.53 439.957 1480.65 542.79 1436.31 674.219C1419.76 723.579 1405.48 773.615 1391.68 822.002C1374.91 880.772 1359.07 936.284 1339.49 990.753C1335.97 1000.57 1332.39 1010.2 1328.85 1019.37C1308.01 1073.37 1286 1119.66 1261.57 1160.89C1247.89 1183.99 1233.25 1205.72 1218.07 1225.49C1201.87 1246.56 1184.49 1266.12 1166.43 1283.62C1129.77 1319.12 1089.8 1347.03 1047.63 1366.59C1002.08 1387.71 955.493 1398.29 909.142 1398.01C906.955 1397.99 904.74 1397.95 902.558 1397.89C866.353 1396.85 831.717 1390.41 798.226 1384.18C788.086 1382.29 777.604 1380.34 767.274 1378.58C720.481 1370.54 678.197 1367.09 638.001 1368.01C632.743 1368.13 627.393 1368.34 622.107 1368.62C525.66 1373.7 422.498 1403.75 323.778 1455.51C206.388 1517.24 106.446 1600.93 42.3584 1691.17C-26.0767 1787.97 -52.004 1920.82 25.4406 1966.66L25.1877 1967C5.81408 1955.53 -7.90337 1938.56 -15.5902 1916.54C-22.6109 1896.44 -24.5117 1872.54 -21.2363 1845.51C-18.1922 1820.38 -10.8606 1793.7 0.550172 1766.23C11.4036 1740.11 25.7627 1714.09 42.0769 1691.02C75.8079 1643.53 119.076 1598.09 170.68 1555.98C217.16 1518.05 268.642 1484.14 323.698 1455.19C422.477 1403.4 525.699 1373.33 622.203 1368.24C627.494 1367.97 632.843 1367.76 638.107 1367.64C678.32 1366.71 720.627 1370.17 767.44 1378.21C777.77 1379.97 788.252 1381.92 798.394 1383.81C831.875 1390.04 866.496 1396.48 902.681 1397.51C904.861 1397.57 907.072 1397.62 909.257 1397.64C998.338 1398.17 1089.59 1357.59 1166.22 1283.39C1231.09 1220.57 1284.18 1134.2 1328.51 1019.34C1332.05 1010.17 1335.63 1000.55 1339.15 990.729C1358.73 936.273 1374.56 880.77 1391.32 822.009C1405.13 773.616 1419.41 723.575 1435.96 674.207C1480.32 542.724 1532.23 439.845 1599.34 350.428C1620.39 322.258 1639.32 300.351 1658.91 281.483C1683.95 257.362 1709.21 239.123 1736.15 225.718C1788.94 199.55 1845.82 190.179 1900.82 181.116C1915.93 178.625 1930.21 176.274 1944.34 173.589C2083.6 147.125 2228.61 124.125 2387.68 103.272L2387.62 103.64Z" fill="#312F84" fill-opacity="0.5"/>
<path d="M2382.4 104.903C2223.35 124.141 2078.99 144.935 1941.07 168.464C1926.8 170.899 1912.32 172.952 1896.99 175.122C1842.37 182.862 1785.89 190.865 1733.79 216.975C1671.23 248.436 1628.05 305.448 1601.02 345.594C1527.44 454.374 1483.57 572.721 1450.37 674.143C1438.48 710.641 1427.37 747.744 1416.61 783.628C1395.04 855.612 1374.67 923.601 1347.93 989.911C1344 999.665 1339.99 1009.27 1336 1018.47C1312.87 1071.75 1288.35 1117.68 1261.05 1158.88C1230.09 1205.6 1195.54 1245.66 1158.35 1277.96C1120.14 1311.15 1078.76 1336.94 1035.34 1354.62C989.809 1373.17 943.159 1382.29 896.682 1381.73C894.507 1381.7 892.296 1381.65 890.115 1381.58C854.681 1380.45 820.473 1374.74 787.387 1369.22C776.546 1367.41 765.335 1365.54 754.287 1363.86C706.159 1356.52 664.906 1353.75 624.459 1355.15C619.19 1355.33 613.835 1355.59 608.534 1355.93C511.925 1362.11 408.857 1393.2 310.473 1445.85C193.165 1508.81 93.7508 1593.49 30.547 1684.31C-37.3158 1782.22 -62.3527 1912.7 13.2232 1961.56L12.9636 1961.89C-5.78622 1949.77 -19.0706 1932.37 -26.5222 1910.17C-33.3463 1889.83 -35.1965 1865.85 -32.0134 1838.89C-29.0465 1813.75 -21.8723 1787.1 -10.6927 1759.68C-0.0487668 1733.58 14.1169 1707.46 30.2655 1684.16C63.5515 1636.33 106.464 1590.47 157.812 1547.85C204.038 1509.48 255.373 1475.05 310.391 1445.53C408.832 1392.84 511.958 1361.73 608.619 1355.56C613.922 1355.23 619.282 1354.96 624.554 1354.78C665.022 1353.37 706.294 1356.15 754.443 1363.5C765.491 1365.17 776.703 1367.04 787.545 1368.85C820.621 1374.37 854.82 1380.08 890.232 1381.21C892.413 1381.28 894.619 1381.33 896.794 1381.37C987.141 1382.44 1079.96 1345.63 1158.16 1277.72C1228.3 1216.8 1286.36 1131.99 1335.67 1018.42C1339.65 1009.22 1343.67 999.619 1347.59 989.872C1374.32 923.578 1394.7 855.6 1416.26 783.627C1427.01 747.743 1438.13 710.635 1450.02 674.131C1472.35 605.933 1492.99 551.157 1514.99 501.758C1540.88 443.604 1568.92 392.479 1600.73 345.456C1620.07 316.744 1638.65 293.349 1657.53 273.935C1681.85 248.939 1706.77 230.198 1733.72 216.647C1785.89 190.502 1842.4 182.495 1897.05 174.751C1912.38 172.579 1926.85 170.53 1941.11 168.093C2079.04 144.561 2223.41 123.771 2382.47 104.529L2382.4 104.903Z" fill="#312F84" fill-opacity="0.5"/>
<path d="M2377.18 106.17C2218.14 123.783 2074.43 142.364 1937.83 162.976C1923.51 165.138 1908.9 166.869 1893.44 168.699C1839.1 175.137 1782.91 181.791 1731.36 207.907C1668.35 239.931 1627.59 298.973 1602.42 340.602C1540.09 443.259 1503.05 552.361 1464.42 674.069C1457.49 696.045 1450.62 718.416 1443.98 740.054C1418.44 823.269 1392.03 909.312 1356.36 989.077C1352.03 998.769 1347.58 1008.36 1343.14 1017.58C1318.07 1069.53 1290.27 1116.4 1260.51 1156.88C1226.8 1202.74 1189.71 1241.58 1150.27 1272.32C1110.65 1303.2 1067.85 1326.87 1023.04 1342.66C977.705 1358.65 930.993 1366.32 884.21 1365.48C882.041 1365.43 879.837 1365.37 877.661 1365.3C843.166 1364.08 809.554 1359.1 777.05 1354.28C765.338 1352.55 753.229 1350.76 741.293 1349.17C692.45 1342.64 651.019 1340.46 610.905 1342.31C605.639 1342.55 600.269 1342.87 594.95 1343.27C498.185 1350.52 395.217 1382.65 297.168 1436.2C179.945 1500.38 81.0633 1586.05 18.7351 1677.45C-46.1876 1773 -74.4673 1903.26 1 1956.47L0.733615 1956.79C-17.3945 1944.01 -30.2435 1926.19 -37.4599 1903.81C-44.0926 1883.23 -45.8869 1859.17 -42.7991 1832.28C-37.0983 1782.69 -14.7745 1726.2 18.4477 1677.31C51.288 1629.15 93.8464 1582.86 144.941 1539.73C190.915 1500.92 242.098 1465.98 297.077 1435.88C395.181 1382.3 498.212 1350.15 595.031 1342.89C600.355 1342.49 605.726 1342.17 610.997 1341.93C651.13 1340.08 692.579 1342.26 741.439 1348.8C753.377 1350.38 765.489 1352.17 777.201 1353.91C809.698 1358.72 843.303 1363.7 877.78 1364.92C879.952 1365 882.155 1365.06 884.323 1365.1C977.924 1366.79 1069.83 1334.61 1150.1 1272.05C1224.43 1214.12 1289.26 1128.48 1342.81 1017.51C1347.25 1008.3 1351.7 998.714 1356.03 989.027C1391.68 909.29 1418.08 823.258 1443.62 740.059C1450.26 718.421 1457.13 696.051 1464.07 674.072C1480.97 620.795 1500.94 559.079 1523.95 500.848C1548.02 439.936 1573.59 387.485 1602.12 340.495C1620.03 310.871 1637.71 286.631 1656.16 266.399C1679.43 240.881 1704.7 221.1 1731.28 207.591C1754.37 195.891 1780.7 187.035 1811.78 180.518C1839.21 174.761 1866.81 171.495 1893.5 168.333C1908.96 166.504 1923.57 164.773 1937.89 162.612C2074.49 141.999 2218.21 123.417 2377.25 105.803L2377.18 106.17Z" fill="#312F84" fill-opacity="0.5"/>
<path d="M2371.96 107.435C2212.93 123.41 2069.87 139.782 1934.61 157.488C1920.28 159.365 1905.6 160.757 1890.06 162.232C1835.95 167.372 1779.99 172.685 1728.94 198.839C1681.27 223.318 1640.34 268.057 1603.83 335.613C1552.66 429.959 1522.55 529.073 1490.68 634.012C1486.71 647.079 1482.61 660.587 1478.49 673.999C1476.88 679.254 1475.27 684.517 1473.67 689.774C1443.17 789.639 1411.63 892.902 1364.8 988.239C1360.07 997.879 1355.19 1007.45 1350.29 1016.68C1322.95 1068.14 1292.57 1114.64 1259.99 1154.86C1223.51 1199.89 1183.87 1237.51 1142.2 1266.66C1101.3 1295.27 1057.08 1316.8 1010.77 1330.67C965.88 1344.12 919.112 1350.35 871.759 1349.2C869.597 1349.14 867.399 1349.07 865.228 1348.99C831.919 1347.7 799.166 1343.44 767.489 1339.33C754.662 1337.67 741.394 1335.95 728.313 1334.45C678.726 1328.74 637.119 1327.15 597.37 1329.43C592.088 1329.73 586.713 1330.12 581.384 1330.58C484.455 1338.92 381.578 1372.1 283.869 1426.55C166.736 1491.94 68.38 1578.6 6.93023 1670.58C-56.0329 1765.1 -83.7914 1895.63 -11.2108 1951.36L-11.4846 1951.69C-28.9905 1938.24 -41.4071 1919.99 -48.3838 1897.44C-54.8221 1876.63 -56.568 1852.48 -53.568 1825.67C-48.0291 1776.15 -26.0829 1719.58 6.64445 1670.45C39.0397 1621.96 81.2406 1575.25 132.082 1531.6C177.798 1492.35 228.838 1456.9 283.779 1426.23C381.544 1371.75 484.482 1338.54 581.456 1330.21C586.786 1329.75 592.171 1329.36 597.453 1329.06C637.222 1326.77 678.847 1328.37 728.452 1334.08C741.536 1335.57 754.802 1337.3 767.632 1338.96C799.299 1343.07 832.047 1347.32 865.344 1348.61C867.515 1348.69 869.708 1348.77 871.87 1348.82C968.155 1351.17 1061.58 1322.66 1142.05 1266.37C1221.49 1210.81 1291.44 1126.77 1349.97 1016.58C1354.86 1007.36 1359.74 997.797 1364.47 988.162C1411.29 892.859 1442.82 789.614 1473.31 689.769C1474.91 684.506 1476.52 679.249 1478.13 673.993C1482.25 660.582 1486.35 647.074 1490.32 634.009C1522.2 529.048 1552.32 429.907 1603.51 335.518C1620.01 304.998 1636.79 279.918 1654.8 258.844C1677.34 232.469 1702.26 212.172 1728.86 198.513C1751.73 186.799 1777.89 178.206 1808.84 172.242C1836.15 166.984 1863.6 164.377 1890.14 161.856C1905.68 160.379 1920.35 158.987 1934.67 157.112C2069.95 139.405 2213.01 123.032 2372.04 107.059L2371.96 107.435Z" fill="#312F84" fill-opacity="0.5"/>
<path d="M2366.75 108.701C2220.14 121.907 2073.66 136.473 1931.38 151.999C1916.93 153.618 1902.05 154.684 1886.29 155.814C1835.04 159.485 1776.95 163.648 1726.51 189.773C1678.45 214.702 1638.78 260.774 1605.23 330.623C1565.26 413.611 1541.79 498.296 1516.93 587.954C1509.15 616.03 1501.1 645.067 1492.54 673.928C1477.62 724.34 1461.08 778.487 1441.22 832.87C1419.96 891.113 1397.71 941.662 1373.23 987.41C1368.08 997.022 1362.77 1006.57 1357.42 1015.79C1327.85 1066.77 1294.88 1112.87 1259.43 1152.78C1220.19 1196.96 1178.03 1233.38 1134.11 1261.02C1052.8 1311.85 960.337 1336.05 859.286 1332.94C857.13 1332.87 854.938 1332.78 852.773 1332.7C821.033 1331.36 789.547 1327.83 759.096 1324.42C744.764 1322.81 729.943 1321.15 715.317 1319.75C664.955 1314.88 623.169 1313.87 583.818 1316.58C578.521 1316.95 573.136 1317.39 567.802 1317.91C470.718 1327.32 367.938 1361.55 270.568 1416.89C153.519 1483.5 55.6984 1571.16 -4.87813 1663.72C-67.4561 1759.54 -93.9229 1887.36 -23.4281 1946.26L-23.7109 1946.58C-40.5968 1932.47 -52.575 1913.79 -59.3179 1891.07C-65.5612 1870.01 -67.2564 1845.79 -64.35 1819.06C-61.6128 1793.88 -54.9096 1767.3 -44.4304 1740.07C-34.2545 1713.63 -21.0471 1687.9 -5.17201 1663.59C26.7805 1614.77 68.6268 1567.63 119.212 1523.47C164.679 1483.79 215.566 1447.82 270.469 1416.57C367.896 1361.2 470.737 1326.95 567.872 1317.53C573.209 1317.02 578.602 1316.57 583.899 1316.2C623.271 1313.49 665.074 1314.5 715.454 1319.37C730.082 1320.78 744.903 1322.44 759.238 1324.04C789.686 1327.45 821.167 1330.98 852.894 1332.32C855.059 1332.41 857.251 1332.49 859.404 1332.56C960.378 1335.67 1052.76 1311.49 1133.99 1260.71C1217.45 1208.19 1294.6 1123.46 1357.12 1015.68C1362.45 1006.46 1367.77 996.921 1372.91 987.318C1427.67 885.035 1461.86 776.417 1492.18 673.93C1500.75 645.069 1508.79 616.038 1516.58 587.961C1541.43 498.284 1564.91 413.581 1604.9 330.553C1638.51 260.595 1678.26 214.437 1726.42 189.449C1749.01 177.748 1774.94 169.438 1805.69 164.038C1832.8 159.277 1860.04 157.328 1886.38 155.439C1902.13 154.309 1917.01 153.244 1931.45 151.623C2073.74 136.097 2220.22 121.53 2366.83 108.327L2366.75 108.701Z" fill="#312F84" fill-opacity="0.5"/>
<path d="M2361.53 109.969C2215.69 121.578 2069.88 133.873 1928.15 146.512C1913.87 147.808 1899.08 148.511 1883.43 149.258C1832.23 151.697 1774.19 154.462 1724.07 180.705C1675.62 206.099 1637.21 253.507 1606.62 325.631C1574.55 401.169 1555.33 480.255 1536.75 556.739C1527.42 595.09 1517.79 634.747 1506.59 673.855C1488.94 735.6 1472.4 785.956 1454.54 832.332C1432.51 889.516 1408.67 939.97 1381.66 986.572C1376.12 996.14 1370.36 1005.67 1364.56 1014.89C1334.34 1062.93 1300.84 1106.49 1264.92 1144.5C1262.92 1146.61 1260.92 1148.7 1258.91 1150.77C1216.86 1194.22 1172.15 1229.41 1126.03 1255.36C1103.74 1267.86 1080.31 1278.58 1056.39 1287.23C1033.9 1295.36 1010.28 1301.9 986.175 1306.68C942.81 1315.28 897.223 1318.55 846.819 1316.67C844.652 1316.58 842.487 1316.5 840.322 1316.4C810.806 1315.05 781.268 1312.25 752.704 1309.54C736.214 1307.98 719.163 1306.36 702.321 1305.04C650.448 1300.97 609.72 1300.56 570.263 1303.72C564.956 1304.15 559.56 1304.65 554.216 1305.23C456.982 1315.73 354.298 1351 257.267 1407.24C140.308 1475.07 43.0176 1563.72 -16.6856 1656.85C-77.342 1751.59 -103.331 1879.66 -35.6439 1941.16L-35.9335 1941.47C-67.4611 1912.83 -81.0125 1868.21 -75.1232 1812.44C-72.4611 1787.24 -65.9154 1760.69 -55.6694 1733.52C-45.6986 1707.08 -32.6825 1681.25 -16.9795 1656.72C14.525 1607.57 56.019 1560.01 106.349 1515.34C151.563 1475.22 202.303 1438.74 257.163 1406.92C354.257 1350.65 457.001 1315.36 554.294 1304.86C559.641 1304.28 565.044 1303.77 570.352 1303.34C609.829 1300.18 650.572 1300.59 702.462 1304.67C719.306 1305.98 736.36 1307.6 752.847 1309.17C781.409 1311.87 810.942 1314.67 840.451 1316.02C842.615 1316.12 844.778 1316.21 846.942 1316.29C954.05 1320.29 1045.31 1300.26 1125.94 1255.04C1237.46 1192.28 1317.1 1089.74 1364.27 1014.76C1370.06 1005.55 1375.81 996.03 1381.35 986.466C1443.48 879.281 1480.73 763.101 1506.24 673.861C1517.44 634.761 1527.07 595.106 1536.39 556.761C1554.98 480.261 1574.2 401.157 1606.29 325.582C1619.98 293.309 1634.95 266.543 1652.06 243.761C1673.16 215.665 1697.37 194.341 1724 180.385C1746.44 168.633 1772.29 160.561 1803.02 155.707C1830.09 151.432 1857.26 150.136 1883.53 148.886C1899.18 148.139 1913.96 147.437 1928.23 146.14C2069.97 133.501 2215.78 121.206 2361.62 109.594L2361.53 109.969Z" fill="#312F84" fill-opacity="0.5"/>
<path d="M2356.31 111.234L1924.92 141.024C1910.83 141.996 1896.18 142.339 1880.67 142.702C1829.48 143.9 1771.47 145.259 1721.65 171.637C1673.46 197.147 1635.24 247.278 1608.03 320.642C1581.87 391.169 1566.94 463.941 1552.51 534.32C1543.1 580.194 1533.38 627.629 1520.65 673.784C1482.39 812.509 1435.07 920.611 1371.71 1013.99C1345.42 1052.72 1316.86 1088.44 1286.49 1120.57C1277.29 1130.31 1267.92 1139.71 1258.4 1148.77C1213.51 1191.49 1166.25 1225.46 1117.96 1249.71C1073.19 1272.18 1026.07 1286.91 973.906 1294.71C932.25 1300.95 887.907 1302.76 834.358 1300.4C806.096 1299.15 777.631 1296.91 750.104 1294.74C687.807 1289.84 623.39 1284.77 556.722 1290.86C454.465 1300.2 346.313 1337.1 243.958 1397.58C127.095 1466.63 30.3325 1556.27 -28.4975 1649.99C-85.4553 1740.72 -115.812 1868.94 -47.8647 1936.06L-48.1611 1936.36C-78.5313 1906.36 -91.5819 1861.23 -85.9037 1805.83C-80.7696 1755.74 -60.4872 1700.35 -28.792 1649.86C2.26969 1600.38 43.4091 1552.39 93.4803 1507.22C138.439 1466.65 189.035 1429.66 243.857 1397.27C294.503 1367.34 346.933 1343.02 399.693 1324.96C452.894 1306.75 505.752 1295.15 556.795 1290.48C623.489 1284.39 687.924 1289.46 750.235 1294.37C777.76 1296.53 806.223 1298.77 834.48 1300.02C912.61 1303.46 1015.43 1300.81 1117.88 1249.37C1235.37 1190.38 1320.6 1088.73 1371.42 1013.84C1434.75 920.515 1482.05 812.46 1520.29 673.789C1533.01 627.653 1542.74 580.221 1552.15 534.354C1566.58 463.962 1581.51 391.171 1607.68 320.609C1634.94 247.119 1673.26 196.885 1721.56 171.311C1743.87 159.502 1769.65 151.667 1800.39 147.362C1827.44 143.574 1854.55 142.938 1880.77 142.324C1896.28 141.961 1910.93 141.617 1925.01 140.646L2356.4 110.856L2356.31 111.234Z" fill="#312F84" fill-opacity="0.5"/>
<path d="M2338.18 97.6203C2223.27 100.416 2127.43 105.425 2036.58 113.38C1992.46 117.227 1948.2 121.904 1905.02 127.28C1891.95 128.906 1878.57 130.097 1864.4 131.357C1828.78 134.521 1791.95 137.795 1756.85 148.443C1737.99 154.147 1721.59 161.298 1706.71 170.301C1660.93 197.844 1626.35 248.239 1603.93 320.085C1592.3 357.251 1584.54 393.761 1578.49 424.573C1572.07 457.193 1567.25 490.789 1562.58 523.281C1555.87 569.981 1548.93 618.271 1537.05 666.006C1529.86 695.082 1521.28 723.339 1511.55 749.997C1492.08 803.329 1467.11 856.72 1437.34 908.688C1418.87 940.73 1398.76 971.458 1377.56 1000.01C1359.29 1024.61 1339.86 1048.2 1319.82 1070.13C1289.83 1102.95 1258 1132.45 1225.21 1157.82C1190.34 1184.8 1154.12 1207.28 1117.56 1224.65C1084.97 1240.14 1051.19 1251.95 1014.31 1260.75C945.608 1277.17 880.737 1280.75 831.897 1282.03C807.847 1282.61 783.825 1282.66 760.594 1282.71C693.695 1282.85 630.508 1282.99 563.446 1294.51C508.91 1304.05 453.369 1321.26 398.352 1345.66C356.073 1364.41 313.589 1388.11 272.079 1416.09C262.194 1422.76 252.286 1429.71 242.642 1436.75C201.133 1467.06 157.626 1504.22 113.333 1547.21C68.6326 1590.51 33.4072 1631.23 5.65671 1671.7C-10.0561 1694.55 -23.4126 1718.46 -34.0513 1742.76C-71.6082 1828.55 -71.8892 1906.17 -34.8006 1950.4L-35.1902 1950.76C-45.0774 1938.97 -52.4368 1924.84 -57.0707 1908.76C-61.4712 1893.49 -63.4457 1876.36 -62.9412 1857.85C-61.9836 1822.88 -52.1375 1783.05 -34.4665 1742.69C-23.8128 1718.35 -10.4339 1694.4 5.30354 1671.51C33.0845 1631.01 68.3369 1590.25 113.075 1546.92C157.391 1503.91 200.922 1466.72 242.46 1436.4C252.115 1429.35 262.026 1422.4 271.919 1415.72C313.46 1387.71 355.979 1364 398.293 1345.24C453.347 1320.82 508.935 1303.6 563.502 1294.05C630.605 1282.52 693.807 1282.39 760.727 1282.24C783.955 1282.2 807.974 1282.14 832.019 1281.57C880.836 1280.29 945.677 1276.71 1014.34 1260.3C1051.18 1251.5 1084.92 1239.71 1117.48 1224.24C1189.03 1190.24 1257 1138.31 1319.53 1069.87C1339.55 1047.97 1358.96 1024.39 1377.22 999.812C1398.4 971.277 1418.5 940.572 1436.95 908.556C1466.71 856.619 1491.66 803.261 1511.11 749.962C1520.84 723.323 1529.41 695.083 1536.6 666.031C1548.47 618.322 1555.41 570.043 1562.12 523.359C1566.79 490.862 1571.61 457.259 1578.03 424.624C1584.09 393.797 1591.86 357.27 1603.49 320.077C1613.47 288.088 1626.1 259.92 1641.04 236.348C1659.39 207.394 1681.44 185.041 1706.58 169.916C1721.5 160.886 1737.95 153.715 1756.85 147.995C1792.01 137.331 1828.86 134.056 1864.5 130.887C1878.67 129.628 1892.05 128.437 1905.1 126.813C1948.29 121.433 1992.56 116.755 2036.69 112.909C2127.54 104.955 2223.39 99.9478 2338.31 97.1498L2338.18 97.6203Z" fill="#312F84" fill-opacity="0.5"/>
<path d="M2320.05 84.0023C2208.18 81.5646 2109.32 85.0757 2017.82 94.7385C1973.17 99.4189 1928.52 105.742 1885.11 113.533C1873.6 115.602 1861.97 117.393 1849.65 119.293C1812.77 124.984 1774.64 130.868 1739.3 144.42C1721.43 151.238 1705.88 159.264 1691.77 168.964C1637.73 206.101 1611.94 271.333 1599.82 319.521C1591.2 353.629 1586.03 387.341 1581.07 421.746C1576.73 451.861 1574.36 481.819 1571.86 513.533C1568.14 560.608 1564.3 609.285 1553.45 658.225C1547.07 687.323 1538.41 715.803 1527.72 742.873C1507.81 793.299 1481.34 844.105 1446.8 898.197C1427.46 928.468 1406.14 958.024 1383.41 986.041C1364.21 1009.66 1343.98 1032.24 1323.29 1053.15C1292.51 1084.25 1259.87 1112.25 1226.27 1136.35C1190.98 1161.67 1154.27 1182.95 1117.16 1199.6C1084.64 1214.19 1050.53 1225.71 1012.86 1234.81C944.497 1251.38 878.92 1258.94 829.428 1263.67C811.107 1265.42 792.884 1266.97 775.256 1268.45C705.057 1274.39 638.75 1279.98 570.167 1298.16C518.911 1311.74 466.989 1332.31 415.85 1359.28C377.156 1379.68 339.327 1404.32 300.206 1434.59C291.179 1441.58 282.145 1448.83 273.356 1456.14C234.773 1488.25 196.588 1525.36 150.677 1570.52C117.521 1603.02 74.9544 1646.36 39.7948 1693.41C23.0994 1715.65 8.72121 1738.81 -2.94975 1762.25C-44.035 1844.79 -51.0613 1920.49 -21.7451 1964.74L-22.2334 1965.15C-30.0088 1953.41 -35.3454 1939.48 -38.1062 1923.75C-40.7339 1908.75 -41.0352 1892.03 -39.0107 1874.04C-35.1576 1839.85 -22.8563 1801.15 -3.43237 1762.14C8.25943 1738.65 22.6659 1715.44 39.3889 1693.16C74.5796 1646.07 117.18 1602.7 150.357 1570.18C196.282 1525 234.479 1487.88 273.087 1455.75C281.885 1448.43 290.925 1441.18 299.961 1434.18C339.121 1403.88 376.985 1379.22 415.722 1358.79C466.913 1331.79 518.878 1311.21 570.187 1297.61C638.819 1279.42 705.15 1273.82 775.374 1267.89C792.997 1266.4 811.22 1264.86 829.538 1263.1C879.015 1258.37 944.567 1250.81 1012.89 1234.25C1050.52 1225.16 1084.6 1213.66 1117.07 1199.09C1190.05 1166.34 1259.32 1117.12 1322.96 1052.81C1343.63 1031.92 1363.84 1009.36 1383.02 985.764C1405.73 957.773 1427.04 928.243 1446.35 897.999C1480.87 843.952 1507.32 793.189 1527.21 742.806C1537.89 715.77 1546.54 687.328 1552.91 658.262C1563.75 609.365 1567.59 560.708 1571.31 513.654C1573.81 481.927 1576.18 451.963 1580.52 421.83C1585.48 387.407 1590.65 353.681 1599.28 319.539C1607.14 288.3 1617.95 260.376 1631.4 236.535C1647.71 207.629 1667.96 184.743 1691.57 168.515C1705.73 158.782 1721.33 150.726 1739.26 143.888C1774.66 130.314 1812.83 124.426 1849.74 118.73C1862.04 116.831 1873.68 115.034 1885.18 112.97C1928.6 105.175 1973.27 98.8526 2017.94 94.1693C2109.46 84.5077 2208.33 80.9931 2320.22 83.4344L2320.05 84.0023Z" fill="#312F84" fill-opacity="0.5"/>
<path d="M2301.91 70.3881C2191.53 62.7306 2092.47 64.5969 1999.07 76.0992C1953.87 81.6194 1908.84 89.5903 1865.21 99.7893C1855.89 101.967 1846.17 104.095 1836.77 106.155C1797.94 114.651 1757.8 123.437 1721.76 140.393C1704.8 148.32 1690.11 157.225 1676.84 167.618C1625.91 207.505 1604.61 271.932 1595.72 318.953C1589.63 350.776 1586.85 382.493 1584.16 413.169L1583.66 418.913C1581.21 446.755 1580.91 474.762 1580.59 504.418C1580.09 551.64 1579.57 600.465 1569.85 650.444C1564.27 679.604 1555.55 708.306 1543.9 735.754C1523.6 783.611 1495.74 831.9 1456.25 887.715C1435.83 916.577 1413.28 944.96 1389.24 972.076C1369.12 994.717 1348.09 1016.28 1326.74 1036.17C1262.13 1096.4 1191.48 1142.96 1116.74 1174.55C1084.44 1188.21 1049.98 1199.44 1011.42 1208.87C946.2 1224.87 884.534 1235.65 826.966 1245.31C819.247 1246.61 811.597 1247.88 804.006 1249.14C725.262 1262.23 650.886 1274.59 576.905 1301.81C528.606 1319.58 480.308 1343.5 433.353 1372.89C398.88 1394.48 364.528 1420.71 328.339 1453.09C320.187 1460.39 312.024 1467.94 304.075 1475.53C284.097 1494.63 263.819 1515.76 242.349 1538.12C225.105 1556.08 207.275 1574.66 188.023 1593.85C150.745 1630.81 108.498 1672.71 73.9352 1715.13C56.103 1737.01 40.701 1759.43 28.1563 1781.76C-16.3615 1861.01 -30.1316 1934.78 -8.67845 1979.11L-9.27759 1979.53C-14.9353 1967.84 -18.2519 1954.12 -19.1374 1938.73C-19.9848 1924.01 -18.6204 1907.7 -15.0817 1890.23C-8.3125 1856.82 6.45429 1819.25 27.6128 1781.59C40.1841 1759.21 55.6174 1736.74 73.4852 1714.81C108.083 1672.35 150.353 1630.44 187.646 1593.45C206.884 1574.28 224.716 1555.7 241.955 1537.75C263.433 1515.37 283.717 1494.24 303.715 1475.12C311.672 1467.53 319.844 1459.98 328.002 1452.67C364.234 1420.25 398.628 1393.98 433.149 1372.37C480.16 1342.94 528.512 1318.99 576.864 1301.2C650.911 1273.96 725.323 1261.59 804.101 1248.5C811.691 1247.24 819.342 1245.96 827.06 1244.67C884.618 1235.01 946.265 1224.24 1011.46 1208.24C1049.99 1198.82 1084.41 1187.6 1116.67 1173.96C1191.31 1142.41 1261.87 1095.91 1326.4 1035.76C1347.72 1015.89 1368.73 994.349 1388.83 971.732C1412.84 944.644 1435.37 916.288 1455.77 887.458C1495.22 831.699 1523.04 783.466 1543.32 735.673C1554.94 708.283 1563.65 679.635 1569.22 650.525C1578.92 600.61 1579.44 551.813 1579.95 504.619C1580.26 474.951 1580.56 446.928 1583.02 419.065L1583.52 413.321C1586.21 382.63 1588.99 350.895 1595.08 319.038C1604.01 271.866 1625.39 207.223 1676.56 167.15C1689.89 156.711 1704.64 147.77 1721.65 139.816C1757.77 122.823 1797.96 114.026 1836.83 105.522C1846.22 103.466 1855.95 101.337 1865.26 99.1604C1908.91 88.9575 1953.97 80.9821 1999.19 75.4601C2092.63 63.9532 2191.72 62.0857 2302.14 69.7469L2301.91 70.3881Z" fill="#312F84" fill-opacity="0.5"/>
<path d="M2283.77 56.7731C2176.4 44.0487 2074.3 44.2779 1980.32 57.4604C1934.58 63.8195 1889.16 73.4362 1845.32 86.0414C1838.99 87.8617 1832.47 89.6935 1826.17 91.4683C1784.53 103.184 1741.46 115.297 1704.23 136.356C1688.2 145.358 1674.37 155.139 1661.92 166.263C1614.2 208.933 1597.35 272.536 1591.61 318.381C1587.99 346.788 1587.29 374.859 1586.61 402.006C1586.5 406.703 1586.38 411.395 1586.25 416.082C1585.52 441.828 1587.12 468.048 1588.81 495.805C1591.68 542.994 1594.64 591.789 1586.25 642.666C1581.32 672.543 1572.76 700.664 1560.08 728.643C1533.56 787.165 1497.49 836.602 1465.71 877.244C1444.21 904.73 1420.45 931.941 1395.08 958.12C1374.04 979.769 1352.21 1000.32 1330.21 1019.2C1264.97 1075.2 1193.02 1119.05 1116.34 1149.51C1084.44 1162.19 1049.65 1173.12 1009.98 1182.93C969.94 1192.88 932.141 1201.69 895.584 1210.2C870.739 1215.99 847.271 1221.46 824.519 1226.96C738.513 1247.73 661.022 1267.98 583.657 1305.45C538.342 1327.4 493.662 1354.67 450.862 1386.51C420.186 1409.33 390.194 1436.36 356.476 1471.59C349.21 1479.19 341.915 1487.04 334.799 1494.91C324.007 1506.88 313.134 1519.55 301.63 1532.95C279.549 1558.67 254.518 1587.83 225.368 1617.17C214.266 1628.34 202.828 1639.63 191.763 1650.55C163.304 1678.64 133.878 1707.69 108.068 1736.86C89.1154 1758.28 72.6888 1779.96 59.2519 1801.28C11.4209 1877.19 -9.08776 1949.05 4.3869 1993.49L3.67341 1993.9C0.143796 1982.26 -1.15067 1968.74 -0.177021 1953.7C0.758713 1939.27 3.79119 1923.35 8.83294 1906.42C18.5494 1873.79 35.7788 1837.35 58.6593 1801.03C72.1279 1779.66 88.5887 1757.93 107.585 1736.46C133.422 1707.26 162.862 1678.21 191.335 1650.1C202.397 1639.19 213.835 1627.89 224.934 1616.73C254.058 1587.41 279.071 1558.28 301.14 1532.57C312.651 1519.16 323.526 1506.49 334.33 1494.51C341.455 1486.63 348.756 1478.77 356.031 1471.16C389.793 1435.88 419.832 1408.81 450.559 1385.95C493.412 1354.08 538.149 1326.77 583.524 1304.79C618.469 1287.87 656.419 1273.11 699.538 1259.68C738.14 1247.66 777.438 1237.62 824.568 1226.23C847.322 1220.74 870.791 1215.27 895.639 1209.48C932.191 1200.96 969.989 1192.16 1010.02 1182.21C1049.65 1172.41 1084.4 1161.49 1116.27 1148.83C1192.84 1118.41 1264.69 1074.63 1329.84 1018.7C1351.82 999.843 1373.62 979.317 1394.63 957.693C1419.97 931.545 1443.71 904.364 1465.18 876.908C1496.93 836.319 1532.95 786.947 1559.42 728.529C1572.06 700.626 1580.6 672.579 1585.52 642.781C1593.9 591.99 1590.93 543.233 1588.07 496.082C1586.38 468.307 1584.78 442.075 1585.51 416.3C1585.64 411.613 1585.75 406.924 1585.87 402.23C1586.55 375.065 1587.25 346.976 1590.88 318.532C1594.61 288.706 1601.75 261.24 1612.1 236.899C1624.37 208.068 1641 184.142 1661.54 165.787C1674.04 154.608 1687.94 144.779 1704.03 135.74C1741.37 114.624 1784.49 102.496 1826.18 90.7656C1832.48 88.9909 1839 87.159 1845.33 85.3396C1889.2 72.7257 1934.66 63.1044 1980.43 56.7386C2030.34 49.7401 2082.87 46.3423 2136.56 46.6453C2184.02 46.9116 2233.64 50.077 2284.05 56.0478L2283.77 56.7731Z" fill="#312F84" fill-opacity="0.5"/>
<path d="M2265.62 43.1526C2159.74 25.2273 2057.45 23.7688 1961.57 38.818C1915.28 46.0192 1869.48 57.2809 1825.43 72.2872C1823.34 73.0009 1821.24 73.7145 1819.14 74.4291C1773.31 90.0134 1725.93 106.128 1686.71 132.308C1671.51 142.451 1658.53 153.112 1647.02 164.894C1602.61 210.35 1590.15 273.133 1587.51 317.793C1585.89 344.006 1587 369.684 1588.07 394.515C1588.34 400.654 1588.61 407.004 1588.84 413.229C1589.71 436.945 1593.06 461.4 1596.61 487.291C1603.08 534.386 1609.76 583.082 1602.65 634.872C1598.54 664.835 1589.91 693.178 1576.26 721.523C1549.38 777.364 1511.78 824.331 1475.16 866.766C1452.58 892.932 1427.6 918.971 1400.92 944.159C1378.96 964.81 1356.34 984.344 1333.66 1002.23C1268.13 1053.94 1194.87 1095.07 1115.94 1124.46C1084.32 1136.23 1050.2 1146.57 1008.54 1156.98C929.46 1176.86 871.955 1192.77 822.088 1208.58C722.907 1240.01 653.626 1270.06 590.437 1309.07C548.132 1335.18 507.075 1365.8 468.397 1400.09C441.564 1423.88 415.728 1451.62 384.636 1490.05C378.272 1497.93 371.848 1506.08 365.546 1514.27C359.602 1522.01 353.66 1529.97 347.365 1538.39C324.126 1569.5 297.785 1604.77 262.723 1640.48C244.242 1659.3 224.742 1677.94 205.886 1695.96C184.457 1716.45 162.297 1737.63 142.205 1758.58C122.061 1779.58 104.61 1800.52 90.3543 1820.79C39.3567 1893.31 12.108 1963.25 17.4643 2007.89L16.6403 2008.23C15.2468 1996.64 15.9745 1983.32 18.8015 1968.64C21.5284 1954.48 26.2254 1938.98 32.7599 1922.58C45.4516 1890.72 65.1495 1855.41 89.7276 1820.46C104.025 1800.13 121.513 1779.15 141.704 1758.09C161.813 1737.13 183.985 1715.93 205.425 1695.44C224.275 1677.42 243.766 1658.79 262.232 1639.99C297.231 1604.34 323.545 1569.11 346.759 1538.04C353.054 1529.61 359.005 1521.65 364.949 1513.89C371.26 1505.69 377.69 1497.54 384.058 1489.65C415.2 1451.17 441.077 1423.38 467.97 1399.54C506.701 1365.2 547.817 1334.54 590.182 1308.39C653.456 1269.33 722.81 1239.24 822.078 1207.78C871.963 1191.98 929.487 1176.06 1008.59 1156.17C1050.21 1145.76 1084.3 1135.44 1115.88 1123.68C1194.71 1094.33 1267.86 1053.27 1333.29 1001.63C1355.94 983.768 1378.54 964.254 1400.46 943.635C1427.11 918.475 1452.06 892.47 1474.61 866.338C1511.18 823.966 1548.71 777.081 1575.54 721.369C1589.14 693.13 1597.74 664.885 1601.83 635.026C1608.92 583.349 1602.25 534.702 1595.79 487.659C1592.24 461.751 1588.88 437.279 1588.01 413.528C1587.79 407.304 1587.52 400.955 1587.25 394.816C1586.17 369.965 1585.06 344.269 1586.69 318.012C1588.4 288.866 1593.72 261.629 1602.47 237.057C1612.73 208.274 1627.56 183.83 1646.53 164.409C1658.1 152.558 1671.16 141.844 1686.42 131.653C1725.78 105.387 1773.23 89.2473 1819.12 73.6434C1821.22 72.9286 1823.32 72.214 1825.41 71.5012C1869.51 56.4781 1915.36 45.2038 1961.7 37.993C2057.66 22.9338 2160.04 24.3923 2265.99 42.3295L2265.62 43.1526Z" fill="#312F84" fill-opacity="0.5"/>
<path d="M1489.45 851.181C1487.81 852.913 1486.2 854.618 1484.6 856.292C1460.93 881.181 1434.73 906.051 1406.74 930.2C1383.88 949.844 1360.46 968.364 1337.11 985.252C1303.77 1009.39 1267.9 1031.33 1230.49 1050.49C1194.36 1068.98 1155.68 1085.44 1115.53 1099.41C1076.18 1113.09 1036.92 1123.5 1007.1 1131.04C937.422 1148.75 874.357 1168.65 819.658 1190.2C731.067 1225.1 660.386 1264.01 597.218 1312.67C559.11 1342.03 521.21 1376.34 487.496 1412.01C486.974 1412.56 486.454 1413.11 485.934 1413.67C457.048 1444.38 433.708 1477.4 412.794 1508.5C407.358 1516.6 401.803 1525.05 396.287 1533.61C393.272 1538.31 390.274 1543.03 387.102 1548.03C364.738 1583.3 339.386 1623.28 300.071 1663.79C276.126 1688.46 250.116 1712.19 224.961 1735.14C208.718 1749.96 191.925 1765.28 176.334 1780.3C154.901 1800.95 136.434 1821.13 121.445 1840.31C67.4608 1909.36 33.4745 1977.4 30.5293 2022.31L29.6087 2022.54C31.1209 1999.5 40.227 1971.31 56.671 1938.74C72.3778 1907.64 94.5508 1873.45 120.794 1839.88C135.825 1820.66 154.338 1800.41 175.821 1779.72C191.428 1764.69 208.231 1749.36 224.48 1734.54C249.62 1711.6 275.616 1687.89 299.526 1663.25C338.743 1622.84 364.048 1582.93 386.376 1547.72C389.549 1542.72 392.547 1537.99 395.565 1533.29C401.087 1524.72 406.645 1516.27 412.087 1508.16C433.038 1477 456.419 1443.93 485.372 1413.14C519.53 1376.82 558.067 1341.85 596.827 1311.99C629.43 1286.88 663.39 1264.76 700.642 1244.37C736.52 1224.74 775.426 1206.73 819.58 1189.34C874.322 1167.78 937.434 1147.86 1007.16 1130.14C1036.95 1122.61 1076.19 1112.21 1115.49 1098.54C1196.98 1070.2 1271.42 1031.85 1336.76 984.551C1360.07 967.687 1383.46 949.19 1406.29 929.575C1434.25 905.456 1460.41 880.623 1484.05 855.765C1521.03 816.869 1562.89 770.669 1591.65 714.209C1606.2 685.632 1614.87 657.196 1618.14 627.277C1623.89 574.731 1613.3 526.292 1603.06 479.44C1597.8 455.341 1592.82 432.579 1590.52 410.761C1589.78 403.772 1588.95 396.641 1588.15 389.745C1585.44 366.444 1582.64 342.355 1582.49 317.508C1582.23 289.022 1585.7 262.01 1592.83 237.225C1601.09 208.488 1614.09 183.534 1631.5 163.055C1642.24 150.414 1654.44 138.813 1668.8 127.587C1707.18 97.5713 1755.36 77.3898 1805.48 57.6782C1849.18 40.4914 1896.72 27.2066 1942.96 19.2629C1994.25 10.3795 2047.73 7.03181 2101.92 9.31725C2150.2 11.3529 2199.32 17.8495 2247.92 28.6256L2247.48 29.5457C2143.11 6.40195 2040.61 3.2509 1942.83 20.1885C1896.66 28.1198 1849.19 41.3808 1805.56 58.5449C1755.52 78.2224 1707.45 98.3638 1669.2 128.267C1654.92 139.432 1642.79 150.969 1632.11 163.532C1600.14 201.164 1582.84 255.744 1583.41 317.218C1583.56 342.019 1586.36 366.087 1589.06 389.366C1589.87 396.265 1590.69 403.401 1591.43 410.39C1593.74 432.168 1598.71 454.913 1603.97 478.987C1608.99 501.975 1614.19 525.745 1617.43 550.451C1621.1 578.459 1621.64 603.525 1619.06 627.089C1615.78 657.141 1607.07 685.703 1592.45 714.415C1579.55 739.738 1563.27 764.674 1542.7 790.652C1525.26 812.644 1506.3 833.36 1489.45 851.181Z" fill="#312F84" fill-opacity="0.5"/>
<path d="M1537.38 802.736C1522.5 818.479 1507.52 832.953 1494.04 845.826C1469.25 869.495 1441.83 893.192 1412.56 916.251C1388.81 934.877 1364.58 952.386 1340.55 968.287C1274.77 1011.86 1201.02 1046.55 1115.1 1074.36C1077.64 1086.49 1040.49 1096.2 1005.65 1105.1C936.965 1122.74 873.572 1145.19 817.225 1171.82C734.355 1211 666.602 1256.89 604 1316.26C568.331 1350.09 533.569 1388.46 503.467 1427.23C478.27 1459.67 458.766 1494.28 440.941 1526.94C436.49 1535.13 431.806 1543.87 427.02 1552.94C425.827 1555.21 424.629 1557.5 423.412 1559.83C403.446 1597.98 380.854 1641.16 339.512 1684.89C338.814 1685.63 338.117 1686.36 337.407 1687.1C309.219 1716.48 277.578 1743.78 246.973 1770.18C234.84 1780.64 222.295 1791.47 210.44 1802.03C187.287 1822.65 168.337 1841.56 152.508 1859.83C94.9366 1926.29 55.2192 1990.78 43.5514 2036.76L42.5703 2036.81C48.3395 2014.08 61.4766 1985.75 80.5554 1954.88C99.3222 1924.52 123.972 1891.47 151.838 1859.3C167.712 1840.98 186.709 1822.02 209.913 1801.35C221.779 1790.78 234.33 1779.95 246.464 1769.48C277.037 1743.11 308.65 1715.84 336.786 1686.51C379.323 1642.18 402.28 1598.3 422.533 1559.59C423.747 1557.27 424.949 1554.97 426.139 1552.7C430.929 1543.62 435.616 1534.87 440.072 1526.68C457.925 1493.96 477.469 1459.3 502.733 1426.76C532.883 1387.94 567.701 1349.5 603.428 1315.62C634.451 1286.2 666.416 1260.4 701.145 1236.75C736.914 1212.4 774.823 1190.86 817.043 1170.91C873.462 1144.24 936.935 1121.76 1005.69 1104.1C1040.51 1095.21 1077.64 1085.51 1115.07 1073.39C1200.87 1045.61 1274.51 1010.97 1340.19 967.473C1364.18 951.593 1388.38 934.108 1412.09 915.509C1441.33 892.482 1468.71 868.821 1493.46 845.184C1535.11 805.411 1578.24 761.985 1607.73 707.041C1623.25 678.127 1631.99 649.499 1634.42 619.522C1638.77 566.119 1623.41 515.802 1609.86 471.406C1603.04 449.07 1596.6 427.97 1592.99 407.996C1591.69 400.789 1590.26 393.425 1588.88 386.304C1584.56 364.028 1580.09 340.994 1578.27 317C1576.05 289.142 1577.7 262.354 1583.15 237.381C1589.42 208.698 1600.62 183.231 1616.44 161.697C1626.32 148.236 1637.68 135.747 1651.13 123.515C1688.74 89.3465 1737.94 65.0302 1785.51 43.8437C1829.44 24.2791 1877.39 9.30085 1924.18 0.520522C1976.17 -9.30884 2030.13 -12.6307 2084.57 -9.35474C2133.25 -6.42295 2182.13 1.73756 2229.83 14.9061L2229.31 15.9075C2127.9 -12.0831 2022.35 -17.0539 1924.05 1.52972C1877.35 10.2906 1829.49 25.2424 1785.65 44.7678C1738.2 65.9031 1689.12 90.1552 1651.67 124.18C1638.29 136.339 1627.01 148.751 1617.19 162.124C1587.98 201.886 1574.52 256.748 1579.28 316.606C1581.1 340.553 1585.56 363.562 1589.88 385.816C1591.26 392.939 1592.69 400.303 1593.99 407.517C1597.59 427.447 1604.03 448.525 1610.84 470.84C1624.41 515.307 1639.8 565.705 1635.43 619.284C1632.98 649.427 1624.2 678.215 1608.59 707.292C1595.05 732.523 1577.72 757.169 1555.6 782.64C1549.64 789.54 1543.52 796.243 1537.38 802.736Z" fill="#312F84" fill-opacity="0.5"/>
<path d="M1569.19 773.972C1568.98 774.197 1568.77 774.419 1568.56 774.645C1547.49 796.854 1524.85 816.819 1503.47 835.366C1477.52 857.873 1448.89 880.391 1418.37 902.302C1393.74 919.908 1368.71 936.402 1343.99 951.323C1278.46 990.903 1205.6 1022.04 1114.69 1049.32C1081.95 1059.14 1048.59 1067.73 1016.33 1076.04C1012.29 1077.07 1008.25 1078.12 1004.22 1079.16C935.321 1097.03 871.594 1122.02 814.81 1153.44C737.056 1196.46 670.322 1250.89 610.797 1319.85C578.159 1357.66 547.112 1399.47 521.013 1440.78C500.422 1473.37 485.922 1506.04 469.102 1545.38C465.702 1553.36 462.097 1561.91 457.762 1572.27L457.522 1572.85C449.196 1592.89 439.758 1615.59 426.878 1638.89C412.086 1665.65 395.023 1689.05 374.758 1710.42C343.147 1743.74 306.412 1773.52 270.886 1802.31C262.182 1809.36 253.179 1816.66 244.557 1823.77C219.834 1844.16 199.889 1862.35 183.584 1879.37C123.549 1942.07 77.2545 2004.72 56.569 2051.25L55.5809 2051.08C65.7121 2028.29 82.6178 2000.6 104.467 1971.02C126.357 1941.38 153.487 1909.47 182.919 1878.73C199.27 1861.65 219.264 1843.41 244.041 1822.98C252.669 1815.87 261.672 1808.57 270.379 1801.51C305.86 1772.76 342.549 1743.02 374.085 1709.78C374.225 1709.63 374.368 1709.48 374.508 1709.33C419.53 1661.7 440.034 1612.37 456.519 1572.71L456.763 1572.13C461.098 1561.76 464.704 1553.21 468.106 1545.23C484.955 1505.82 499.48 1473.09 520.137 1440.4C546.278 1399.03 577.376 1357.14 610.07 1319.26C639.2 1285.52 669.168 1256.05 701.696 1229.16C736.748 1200.18 773.661 1175.1 814.543 1152.48C871.435 1121.01 935.269 1095.97 1004.28 1078.07C1008.31 1077.03 1012.35 1075.99 1016.39 1074.95C1048.64 1066.65 1081.99 1058.06 1114.7 1048.25C1205.5 1021.01 1278.25 989.917 1343.67 950.403C1368.36 935.503 1393.35 919.032 1417.95 901.453C1448.43 879.572 1477.02 857.085 1502.92 834.614C1549.32 794.368 1593.49 753.775 1623.87 699.887C1640.35 670.642 1649.15 641.823 1650.75 611.786C1653.65 557.526 1633.78 507.607 1616.25 463.56C1608.04 442.94 1600.29 423.462 1595.52 405.248C1593.68 398.24 1591.7 391.077 1589.78 384.15C1583.79 362.491 1577.6 340.098 1574.09 316.508C1569.95 289.244 1569.75 262.679 1573.52 237.555C1577.81 208.916 1587.2 182.946 1601.42 160.367C1610.24 146.366 1620.48 133.255 1632.71 120.318C1632.98 120.037 1633.24 119.756 1633.51 119.474C1671.68 79.4022 1724.14 50.626 1765.59 30.03C1809.74 8.0928 1858.1 -8.58749 1905.45 -18.2064C1958.13 -28.9831 2012.57 -32.2808 2067.27 -28.0069C2116.34 -24.1699 2164.97 -14.3429 2211.78 1.21165L2211.17 2.29517C2141.51 -20.8466 2031.9 -42.9911 1905.33 -17.1021C1858.09 -7.50832 1809.84 9.13331 1765.8 31.0179C1724.47 51.5511 1672.17 80.237 1634.19 120.117C1621.67 133.244 1611.26 146.53 1602.3 160.741C1575.95 202.577 1566.32 257.723 1575.19 316.023C1578.68 339.558 1584.87 361.927 1590.85 383.562C1592.77 390.491 1594.75 397.659 1596.59 404.67C1601.35 422.837 1609.09 442.292 1617.29 462.888C1634.86 507.013 1654.77 557.026 1651.86 611.498C1650.24 641.735 1641.39 670.749 1624.79 700.19C1610.72 725.141 1592.53 749.288 1569.19 773.972Z" fill="#312F84" fill-opacity="0.5"/>
<path d="M1595.73 752.26C1591.2 757.052 1586.45 761.842 1581.49 766.643C1559.76 787.657 1536.64 806.192 1512.9 824.901C1485.37 846.59 1456.35 867.345 1424.19 888.35C1398.69 904.927 1372.87 920.405 1347.43 934.353C1282.92 969.759 1211.01 997.489 1114.28 1024.27C1090.26 1030.92 1065.78 1037.13 1042.11 1043.14C1029.23 1046.41 1015.9 1049.79 1002.78 1053.21C933.206 1071.43 869.156 1098.96 812.403 1135.04C737.415 1182.71 673.695 1244.32 617.596 1323.4C587.959 1365.19 560.628 1410.45 538.561 1454.3C520.834 1489.53 509.777 1524.36 498.071 1561.24L497.261 1563.79C495.439 1569.56 493.603 1575.39 491.743 1581.3C490.673 1584.7 489.596 1588.12 488.507 1591.58C481.759 1613.16 474.203 1636.21 462.704 1659.97C449.352 1687.55 432.806 1711.67 412.114 1733.73C377.662 1770.44 336.178 1801.88 296.058 1832.29C290.331 1836.63 284.408 1841.12 278.679 1845.5C251.815 1866.01 231.477 1882.98 214.662 1898.9C152.612 1957.65 99.7282 2018.45 69.5677 2065.73L68.6176 2065.32C98.8571 2017.92 151.846 1956.98 214.005 1898.13C230.866 1882.17 251.257 1865.16 278.171 1844.6C283.906 1840.22 289.829 1835.73 295.559 1831.39C335.187 1801.36 376.15 1770.31 410.275 1734.21C410.642 1733.82 411.01 1733.43 411.379 1733.04C455.345 1686.18 472.414 1639.38 487.376 1591.56C488.465 1588.1 489.542 1584.68 490.612 1581.27C492.47 1575.37 494.305 1569.54 496.128 1563.76L496.938 1561.21C508.664 1524.27 519.739 1489.38 537.523 1454.04C559.628 1410.11 587.007 1364.77 616.697 1322.91C672.937 1243.63 736.83 1181.85 812.021 1134.05C868.916 1097.89 933.114 1070.29 1002.84 1052.03C1015.97 1048.61 1029.29 1045.22 1042.18 1041.95C1065.84 1035.95 1090.31 1029.74 1114.32 1023.09C1210.94 996.349 1282.74 968.658 1347.14 933.315C1372.54 919.385 1398.33 903.931 1423.79 887.377C1455.91 866.403 1484.88 845.679 1512.37 824.021C1554.09 791.146 1606.02 750.234 1639.98 692.706C1657.44 663.131 1666.3 634.124 1667.06 604.029C1668.46 548.902 1643.86 499.474 1622.16 455.863C1612.73 436.919 1603.82 419.024 1598.03 402.486C1595.77 396.042 1593.37 389.45 1591.04 383.075C1583.23 361.692 1575.17 339.581 1569.91 316.004C1563.84 289.293 1561.81 262.953 1563.86 237.714C1566.19 209.116 1573.77 182.642 1586.39 159.027C1594.49 143.87 1604.13 129.608 1615.87 115.422C1631.59 96.4227 1650.85 78.582 1674.73 60.8724C1694.93 45.89 1718.13 31.2774 1745.64 16.1997C1790.02 -8.11517 1838.79 -26.4925 1886.69 -36.9479C1940.08 -48.6767 1995 -51.9465 2049.94 -46.6733C2099.41 -41.9258 2147.79 -30.4299 2193.72 -12.5004L2193.02 -11.3412C2096.04 -49.1898 1987.21 -57.8612 1886.58 -35.7553C1838.81 -25.329 1790.17 -7.00274 1745.93 17.2422C1686.65 49.7278 1645.58 81.1101 1616.69 116.023C1605.02 130.113 1595.45 144.276 1587.4 159.326C1557.38 215.507 1561.95 275.217 1571.08 315.41C1576.33 338.929 1584.38 361.013 1592.18 382.37C1594.5 388.75 1596.91 395.344 1599.17 401.79C1604.95 418.278 1613.85 436.152 1623.26 455.073C1645.01 498.776 1669.66 548.31 1668.26 603.688C1667.49 634.022 1658.56 663.26 1640.96 693.072C1629.03 713.278 1614.14 732.776 1595.73 752.26Z" fill="#312F84" fill-opacity="0.5"/>
<path d="M1619.6 734.293C1588.74 766.943 1552.94 792.543 1522.32 814.445C1493.51 835.052 1463.31 854.664 1429.99 874.407C1403.65 889.952 1377.02 904.416 1350.86 917.394C1272.46 956.322 1190.62 979.73 1113.86 999.224C1098.19 1003.2 1082.23 1007.1 1066.79 1010.87C1045.36 1016.1 1023.2 1021.52 1001.34 1027.27C930.868 1045.89 866.49 1075.96 809.998 1116.64C736.921 1169.26 676.206 1238.06 624.388 1326.96C597.707 1372.74 574.095 1421.45 556.103 1467.83C542.224 1503.6 534.865 1538.01 527.075 1574.44C526.521 1577.02 525.97 1579.61 525.409 1582.21L525.108 1583.62C523.218 1592.48 521.262 1601.64 519.244 1610.89C514.446 1633.09 508.589 1657 498.343 1681.38C486.449 1709.67 470.462 1734.42 449.463 1757.04C412.606 1796.75 366.593 1829.24 322.099 1860.65C318.98 1862.86 315.875 1865.05 312.788 1867.23C283.474 1887.98 262.791 1903.77 245.726 1918.44C182.309 1972.95 122.829 2031.91 82.5393 2080.22L81.6651 2079.57C122.018 2031.18 181.584 1972.13 245.087 1917.55C262.2 1902.84 282.928 1887.01 312.295 1866.23C315.382 1864.04 318.487 1861.85 321.611 1859.65C366.019 1828.29 411.938 1795.86 448.659 1756.31C494.261 1707.18 508.353 1655.55 517.981 1611C520 1601.75 521.956 1592.59 523.848 1583.74L524.149 1582.32C524.707 1579.72 525.261 1577.14 525.814 1574.56C533.618 1538.06 540.989 1503.6 554.914 1467.7C572.94 1421.24 596.598 1372.44 623.325 1326.58C647.892 1284.43 673.887 1247.6 702.791 1213.99C735.035 1176.5 770.933 1143.41 809.492 1115.65C866.163 1074.84 930.729 1044.68 1001.4 1026C1023.27 1020.24 1045.44 1014.83 1066.87 1009.6C1082.31 1005.83 1098.26 1001.94 1113.93 997.955C1190.61 978.479 1272.35 955.103 1350.61 916.245C1376.73 903.285 1403.32 888.842 1429.63 873.32C1462.89 853.607 1493.05 834.026 1521.82 813.45C1565.99 781.858 1620.96 742.541 1656.09 685.553C1674.52 655.648 1683.44 626.454 1683.36 596.301C1683.21 540.291 1653.66 491.454 1627.59 448.364C1617.11 431.05 1607.22 414.699 1600.53 399.749C1598.06 394.219 1595.45 388.556 1592.94 383.077C1583.09 361.647 1572.91 339.483 1565.71 315.526C1557.74 289.336 1553.86 263.218 1554.19 237.9C1554.56 209.335 1560.33 182.357 1571.34 157.714C1578.5 141.711 1587.29 126.565 1598.22 111.399C1612.95 90.9706 1632.06 70.9172 1655.02 51.7956C1675.12 35.051 1698.9 18.4306 1725.68 2.39994C1770.28 -24.2897 1819.46 -44.3688 1867.93 -55.6671C1922.02 -68.3461 1977.42 -71.5949 2032.61 -65.3207C2082.46 -59.6534 2130.59 -46.4891 2175.65 -26.1911L2174.85 -24.9614C2079.38 -67.9729 1970.35 -78.425 1867.83 -54.3908C1819.52 -43.1263 1770.5 -23.1155 1726.05 3.48265C1668.44 37.9625 1626.94 73.4384 1599.18 111.94C1588.33 126.994 1579.6 142.034 1572.5 157.921C1546.29 216.553 1555.02 275.602 1566.95 314.817C1574.14 338.714 1584.31 360.846 1594.14 382.249C1596.66 387.727 1599.26 393.396 1601.74 398.93C1608.4 413.83 1618.28 430.161 1628.74 447.452C1641.29 468.183 1655.5 491.676 1666.25 516.433C1678.56 544.798 1684.58 570.791 1684.65 595.896C1684.69 610.414 1682.57 625.048 1678.35 639.396C1673.81 654.827 1666.67 670.499 1657.13 685.975C1646.22 703.685 1633.4 719.696 1619.6 734.293Z" fill="#312F84" fill-opacity="0.5"/>
<path d="M1641.83 718.771C1631.63 729.565 1620.17 740.15 1607.35 750.648C1582.1 771.325 1555.34 788.675 1531.74 803.988C1501.98 823.286 1469.7 842.287 1435.79 860.461C1408.62 874.966 1381.2 888.416 1354.28 900.43C1277.07 934.936 1199.53 954.244 1113.44 974.179C1105.79 975.95 1098 977.736 1090.47 979.459C1060.83 986.255 1030.19 993.28 999.9 1001.32C928.394 1020.39 863.693 1052.99 807.592 1098.24C736.825 1155.31 677.466 1233.46 631.174 1330.51C607.42 1380.32 587.522 1432.47 573.635 1481.34C563.179 1518.14 559.143 1552.75 554.871 1589.4C554.438 1593.12 554 1596.86 553.558 1600.61C552.461 1609.97 551.264 1620.02 549.976 1630.19C547.305 1651.53 543.318 1676.85 533.977 1702.78C523.523 1731.8 508.096 1757.18 486.815 1780.35C447.86 1822.76 397.478 1855.8 348.753 1887.75L346.899 1888.96C323.045 1904.61 298.038 1921.37 276.79 1937.96C212.027 1988.55 147.644 2044.21 95.5086 2094.69L94.7326 2093.82C146.923 2043.29 211.362 1987.57 276.185 1936.95C297.494 1920.31 322.542 1903.51 346.433 1887.84L348.287 1886.63C396.904 1854.75 447.18 1821.78 485.946 1779.57C530.717 1730.82 542.518 1679.09 548.601 1630.44C549.891 1620.28 551.082 1610.22 552.181 1600.87C552.626 1597.12 553.061 1593.38 553.497 1589.66C557.777 1552.95 561.821 1518.28 572.31 1481.36C586.221 1432.4 606.157 1380.14 629.956 1330.24C651.676 1284.71 676.373 1243.04 703.356 1206.4C734.188 1164.54 769.045 1127.81 806.96 1097.23C863.275 1051.82 928.211 1019.09 999.96 999.96C1030.27 991.911 1060.93 984.881 1090.59 978.082C1098.11 976.357 1105.9 974.571 1113.55 972.8C1199.56 952.886 1277.02 933.599 1354.09 899.155C1380.96 887.157 1408.35 873.727 1435.48 859.244C1469.34 841.095 1501.57 822.126 1531.28 802.857C1577.85 772.652 1635.81 735.058 1672.21 678.373C1691.63 648.138 1700.61 618.76 1699.68 588.553C1697.92 531.64 1661.68 481.393 1632.56 441.017C1621.22 425.29 1610.5 410.439 1603.06 396.997C1600.71 392.761 1598.27 388.417 1595.91 384.216C1583.65 362.396 1570.98 339.828 1561.54 315.029C1546.74 276.536 1533.83 217.768 1556.32 156.392C1562.53 139.445 1570.47 123.406 1580.59 107.365C1606.96 65.2979 1649.07 25.3329 1705.74 -11.4185C1750.56 -40.4829 1800.16 -62.264 1849.19 -74.405C1903.97 -88.0363 1959.86 -91.2622 2015.3 -83.9847C2040.72 -80.6488 2065.98 -75.0689 2090.36 -67.4072C2113.65 -60.0883 2136.27 -50.8315 2157.6 -39.8954L2156.7 -38.596C2062.75 -86.7905 1953.51 -99.0231 1849.1 -73.0406C1800.25 -60.9434 1750.84 -39.2458 1706.19 -10.2946C1649.79 26.2833 1607.9 66.0294 1581.69 107.831C1571.64 123.755 1563.77 139.67 1557.6 156.491C1535.27 217.445 1548.13 275.895 1562.85 314.198C1572.26 338.936 1584.92 361.469 1597.16 383.264C1599.52 387.464 1601.97 391.808 1604.31 396.049C1611.73 409.444 1622.43 424.279 1633.76 439.98C1648.41 460.298 1665.02 483.323 1677.9 508.017C1692.69 536.392 1700.27 562.583 1701.06 588.086C1701.51 602.635 1699.59 617.339 1695.35 631.784C1690.79 647.347 1683.37 663.187 1673.3 678.857C1664.47 692.615 1654.05 705.847 1641.83 718.771Z" fill="#312F84" fill-opacity="0.5"/>
<path d="M1662.86 704.972C1650.63 717.909 1636.51 730.395 1620.28 742.647C1593.98 762.503 1565.91 778.985 1541.15 793.527C1509.97 811.835 1476.47 829.662 1441.59 846.509C1413.6 859.979 1385.38 872.412 1357.71 883.463C1281.59 913.887 1205.52 929.788 1124.98 946.627C1121 947.461 1117.01 948.292 1113.02 949.13C1075.58 956.977 1036.88 965.087 998.465 975.378C925.847 994.9 860.821 1030.04 805.193 1079.82C735.318 1142.35 679.054 1227.89 637.957 1334.06C617.399 1387.17 600.783 1444.27 591.166 1494.86C583.903 1533.05 583.001 1568.34 582.048 1605.7C581.934 1610.13 581.822 1614.56 581.696 1619.02C581.453 1627.94 581.146 1638.52 580.703 1649.49C579.905 1669.83 577.925 1696.7 569.584 1724.16C560.551 1753.91 545.697 1779.91 524.168 1803.66C506.424 1823.13 484.299 1842.22 456.523 1862.01C432.676 1879 408.213 1894.11 381.003 1910.7C356.096 1925.79 329.937 1941.82 307.842 1957.51C242.395 2003.98 175.317 2055.01 108.47 2109.16L107.794 2108.1C174.678 2053.91 241.797 2002.86 307.278 1956.37C329.434 1940.64 355.631 1924.58 380.566 1909.47C426.177 1881.66 482.948 1847.06 523.235 1802.84C569.166 1752.17 577.291 1699.39 579.225 1649.89C579.67 1638.93 579.977 1628.35 580.219 1619.44C580.344 1614.98 580.457 1610.54 580.57 1606.12C581.526 1568.7 582.431 1533.35 589.717 1495.03C599.354 1444.34 616.003 1387.13 636.601 1333.92C677.822 1227.43 734.292 1141.6 804.432 1078.83C831.325 1054.77 860.676 1033.9 891.661 1016.82C924.906 998.488 960.864 984.06 998.53 973.931C1036.98 963.628 1075.72 955.511 1113.17 947.662C1117.17 946.826 1121.16 945.99 1125.14 945.156C1205.6 928.336 1281.61 912.445 1357.58 882.081C1385.21 871.046 1413.39 858.632 1441.34 845.181C1476.17 828.355 1509.61 810.558 1540.75 792.276C1589.67 763.544 1650.57 727.785 1688.34 671.209C1708.79 640.562 1717.84 610.993 1715.99 580.823C1712.7 522.948 1670.77 473.567 1637.09 433.887C1625.04 419.694 1613.66 406.29 1605.58 394.263C1603.92 391.781 1602.24 389.289 1600.55 386.786C1585.3 364.172 1569.52 340.785 1557.36 314.548C1539.78 276.897 1522.72 218.67 1541.3 155.086C1546.48 137.349 1553.56 120.426 1562.96 103.347C1575.96 79.5655 1593.68 56.1106 1615.61 33.6324C1635.64 13.1094 1659.25 -6.69118 1685.79 -25.2197C1730.82 -56.6569 1780.83 -80.1398 1830.43 -93.1268C1885.91 -107.716 1942.28 -110.914 1997.97 -102.635C2023.52 -98.8382 2048.78 -92.5934 2073.03 -84.0739C2096.26 -75.9154 2118.63 -65.6586 2139.54 -53.5823L2138.54 -52.2209C2047.46 -104.843 1935.13 -119.224 1830.35 -91.6794C1780.97 -78.7443 1731.17 -55.3642 1686.33 -24.0639C1631.04 14.5292 1588.81 58.7208 1564.19 103.735C1554.87 120.684 1547.84 137.477 1542.7 155.077C1524.25 218.221 1541.23 276.136 1558.72 313.6C1570.86 339.766 1586.61 363.119 1601.84 385.703C1603.53 388.206 1605.21 390.701 1606.88 393.183C1614.93 405.167 1626.29 418.553 1638.32 432.724C1672.1 472.518 1714.15 522.043 1717.46 580.289C1718.35 594.833 1716.64 609.602 1712.38 624.18C1707.79 639.864 1700.08 655.872 1689.48 671.759C1681.82 683.224 1672.99 694.253 1662.86 704.972Z" fill="#312F84" fill-opacity="0.5"/>
<path d="M1683.04 692.411C1669.11 707.15 1652.61 721.121 1633.21 734.648C1605.76 753.785 1576.43 769.346 1550.56 783.073C1517.86 800.42 1483.15 817.071 1447.39 832.568C1418.6 845.002 1389.58 856.416 1361.13 866.505C1291.08 891.354 1222.1 903.982 1149.07 917.351C1137.13 919.536 1124.79 921.798 1112.59 924.087C1069.72 932.142 1033.65 939.537 997.022 949.439C923.241 969.434 857.893 1007.11 802.788 1061.41C733.545 1129.65 680.364 1222.58 644.725 1337.61C627.022 1394.76 614.218 1455.41 608.676 1508.38C604.502 1548.28 606.675 1584.62 608.975 1623.08C609.26 1627.85 609.545 1632.63 609.818 1637.43C610.312 1645.99 610.94 1657.29 611.411 1668.79C613.453 1717.25 609.123 1773.94 561.508 1826.97C560.02 1828.62 558.506 1830.26 556.977 1831.88C518.757 1872.31 468.054 1902.55 415.09 1932.45L411.777 1934.31C385.486 1949.06 360.651 1963 338.881 1977.06C256.838 2030.02 179.57 2083.2 121.421 2123.62L120.84 2122.39C179.006 2081.96 256.293 2028.76 338.366 1975.78C360.195 1961.69 385.058 1947.73 411.383 1932.96L414.693 1931.1C469.597 1900.11 522.071 1868.76 560.509 1826.12C607.594 1773.67 611.871 1717.44 609.846 1669.34C609.377 1657.85 608.748 1646.56 608.256 1638C607.98 1633.2 607.694 1628.42 607.409 1623.66C605.107 1585.13 602.929 1548.74 607.117 1508.7C612.667 1455.62 625.497 1394.86 643.234 1337.59C659.698 1284.45 680.315 1235.2 704.506 1191.23C732.263 1140.77 765.03 1096.77 801.888 1060.44C857.276 1005.86 922.952 967.992 997.079 947.903C1033.77 937.987 1069.87 930.586 1112.78 922.521C1124.98 920.229 1137.33 917.969 1149.27 915.781C1222.22 902.425 1291.13 889.81 1361.05 865.007C1389.46 854.935 1418.44 843.537 1447.18 831.121C1482.89 815.648 1517.55 799.023 1550.2 781.699C1601.45 754.508 1665.23 720.665 1704.44 664.04C1725.88 633.089 1734.99 603.338 1732.29 573.092C1727.26 514.262 1679.45 465.825 1641.04 426.905C1628.51 414.206 1616.67 402.208 1608.1 391.524L1607.9 391.28C1588.7 367.35 1568.85 342.605 1553.16 314.067C1539.44 289.219 1530.02 263.783 1525.18 238.465C1519.71 209.918 1520.08 181.428 1526.25 153.781C1530.39 135.284 1536.62 117.472 1545.3 99.3317C1568.69 50.2525 1610.36 2.40866 1665.82 -39.0232C1688.14 -55.698 1711.98 -70.4154 1736.69 -82.7762C1761.55 -95.2065 1786.77 -104.989 1811.66 -111.857C1867.85 -127.404 1924.71 -130.579 1980.64 -121.293C2030.92 -112.946 2079.62 -94.2675 2121.47 -67.2775L2120.37 -65.8563C2030.8 -123.625 1918.26 -139.834 1811.61 -110.323C1761.7 -96.552 1711.51 -71.4877 1666.47 -37.8374C1611.33 3.36045 1569.91 50.8947 1546.69 99.6328C1538.07 117.633 1531.89 135.301 1527.79 153.654C1516.26 205.272 1525.53 260.371 1554.6 312.997C1570.24 341.461 1590.07 366.17 1609.24 390.067L1609.44 390.311C1617.98 400.958 1629.8 412.938 1642.31 425.62C1680.84 464.662 1728.78 513.246 1733.86 572.489C1735.16 587.072 1733.64 601.912 1729.37 616.588C1724.75 632.415 1716.77 648.586 1705.64 664.665C1699.01 674.238 1691.5 683.466 1683.04 692.411Z" fill="#312F84" fill-opacity="0.5"/>
<path d="M593.859 1855.74C576.769 1873.82 555.586 1891.07 529.33 1908.33C503.241 1925.47 475.397 1940.5 449.193 1954.18C444.442 1956.65 439.718 1959.1 435.028 1961.53C411.676 1973.62 389.619 1985.04 369.931 1996.59C291.431 2042.65 217.61 2087.5 146.222 2130.88L134.392 2138.06L133.904 2136.68L145.734 2129.49C217.13 2086.11 290.959 2041.25 369.475 1995.19C389.216 1983.61 411.3 1972.17 434.681 1960.07C439.369 1957.64 444.092 1955.2 448.839 1952.73C502.629 1924.63 558.435 1893.51 597.799 1849.38C646.111 1795.06 645.988 1735.02 640.483 1688.79C639.085 1676.95 637.516 1665.35 636.306 1656.56C635.643 1651.71 634.967 1646.88 634.292 1642.06C628.705 1602.11 623.428 1564.38 624.537 1522.36C626.005 1466.91 635.005 1402.59 649.889 1341.26C663.697 1284.36 682.255 1231.31 705.052 1183.58C731.2 1128.84 762.929 1081.22 799.357 1042.04C854.014 982.948 920.063 942.508 995.644 921.865C1037.56 910.439 1078.19 903.072 1112.4 897.369C1131.02 894.268 1149.85 891.363 1168.06 888.551C1232.51 878.604 1299.16 868.316 1364.54 847.926C1393.74 838.821 1423.52 828.433 1453.04 817.053C1489.54 802.946 1525.42 787.492 1559.67 771.115C1613.21 745.515 1679.84 713.657 1720.56 656.866C1742.98 625.608 1752.15 595.675 1748.6 565.355C1741.76 505.532 1687.83 458.154 1644.49 420.089C1631.67 408.83 1619.57 398.198 1610.63 388.777C1590.49 367.544 1567.46 342.468 1548.99 313.574C1533.32 289.119 1522.05 263.913 1515.51 238.657C1508.1 210.087 1506.67 181.089 1511.23 152.469C1514.26 133.504 1519.79 114.273 1527.67 95.3105C1538.88 68.2275 1555.21 41.3807 1576.22 15.512C1595.88 -8.71331 1619.32 -31.7066 1645.86 -52.8292C1668.25 -70.6429 1692.25 -86.3743 1717.19 -99.5855C1742.29 -112.879 1767.76 -123.312 1792.9 -130.59C1821.88 -138.995 1851.42 -143.978 1880.71 -145.399C1908.46 -146.748 1936.26 -144.915 1963.33 -139.956C2013.97 -130.679 2062.42 -110.282 2103.42 -80.974L2102.21 -79.4947C2014.17 -142.429 1901.42 -160.462 1792.87 -128.972C1743.14 -114.57 1691.2 -87.1026 1646.61 -51.6215C1591.47 -7.75002 1550.87 43.1296 1529.17 95.5184C1521.36 114.329 1515.88 133.407 1512.87 152.222C1504.27 206.15 1516.91 260.036 1550.46 312.382C1568.87 341.202 1591.87 366.231 1611.98 387.429C1620.89 396.815 1632.97 407.433 1645.77 418.674C1667.15 437.455 1691.39 458.742 1711.32 483.012C1734.46 511.176 1747.19 537.886 1750.25 564.67C1751.96 579.288 1750.66 594.198 1746.36 608.979C1741.73 624.944 1733.47 641.287 1721.8 657.551C1715.92 665.758 1709.5 673.447 1702.68 680.668C1661.8 723.914 1606.05 750.566 1559.95 772.606C1525.65 789.005 1489.72 804.485 1453.17 818.609C1423.61 830.006 1393.79 840.407 1364.54 849.525C1299.03 869.958 1232.31 880.257 1167.8 890.215C1149.59 893.025 1130.77 895.93 1112.16 899.029C1077.99 904.722 1037.42 912.078 995.582 923.484C920.406 944.014 854.744 984.217 800.387 1042.98C714.789 1135.03 672.17 1255.94 651.494 1341.15C636.641 1402.36 627.655 1466.55 626.194 1521.88C625.088 1563.77 630.356 1601.45 635.932 1641.34C636.607 1646.15 637.28 1650.99 637.946 1655.84C639.155 1664.63 640.725 1676.25 642.128 1688.09C644.439 1707.5 646.821 1736.79 640.845 1766.95C637.943 1781.6 633.246 1795.67 626.887 1808.77C619.795 1823.37 610.365 1837.34 598.862 1850.27C597.235 1852.11 595.566 1853.93 593.859 1855.74Z" fill="#312F84" fill-opacity="0.5"/>
<path d="M630.73 1879.6C613.62 1897.7 592.276 1914.73 565.729 1931.49C538.246 1948.84 508.631 1963.69 483.287 1975.92C475.496 1979.67 467.684 1983.38 460.128 1986.98C439.008 1997.01 419.054 2006.49 400.976 2016.13C336.05 2050.72 271.839 2085.36 209.739 2118.87C189.198 2129.95 167.96 2141.41 147.364 2152.5L146.96 2150.97C167.556 2139.88 188.794 2128.42 209.335 2117.34C271.435 2083.83 335.654 2049.19 400.585 2014.59C418.712 2004.94 438.687 1995.44 459.834 1985.39C467.387 1981.81 475.197 1978.09 482.982 1974.34C535.54 1948.97 594.972 1918.1 635.082 1872.65C684.285 1816.81 680.184 1755.45 671.118 1708.23C668.799 1696.13 666.288 1684.17 664.357 1675.11C663.368 1670.46 662.37 1665.82 661.376 1661.19C652.421 1619.57 643.963 1580.25 641.962 1536.03C639.359 1478.5 644.541 1410.63 656.547 1344.93C673.425 1253.58 711.464 1123.69 796.83 1023.66C851.036 959.962 917.448 916.952 994.216 895.835C1028.71 886.352 1065.05 879.073 1112.04 872.231C1135.78 868.773 1159.82 865.792 1183.07 862.908C1243.55 855.403 1306.09 847.648 1368.04 830.857C1398.05 822.726 1428.63 813.353 1458.91 802.999C1495.57 790.449 1532.66 776.164 1569.15 760.544C1625.1 736.452 1694.73 706.47 1736.7 649.709C1759.78 618.653 1769.27 587.677 1764.93 557.637C1756.2 496.772 1693.31 448.617 1647.39 413.459C1634.51 403.593 1622.33 394.274 1613.18 386.05C1592.84 367.779 1566.69 342.976 1544.83 313.101C1506.94 261.365 1490.58 206.883 1496.23 151.173C1498.17 131.605 1502.82 111.461 1510.05 91.3057C1520.33 62.6231 1535.97 34.0888 1556.56 6.49537C1575.96 -19.4992 1599.29 -44.0963 1625.92 -66.617C1648.43 -85.5706 1672.59 -102.303 1697.71 -116.355C1723.09 -130.542 1748.8 -141.629 1774.16 -149.311C1803.47 -158.198 1833.32 -163.414 1862.87 -164.808C1890.88 -166.13 1918.85 -164.041 1946.03 -158.602C1997.03 -148.386 2045.22 -126.272 2085.38 -94.6536L2084.07 -93.124C1997.56 -161.244 1884.59 -181.103 1774.15 -147.611C1724.07 -132.436 1671.72 -103.238 1626.77 -65.3962C1571.48 -18.6186 1531.68 35.6034 1511.69 91.4156C1504.51 111.408 1499.9 131.386 1497.98 150.799C1492.37 206.14 1508.64 260.3 1546.36 311.78C1568.15 341.575 1594.25 366.325 1614.55 384.564C1623.68 392.754 1635.83 402.063 1648.7 411.918C1672.44 430.092 1699.34 450.695 1721.87 474.754C1748.11 502.775 1762.76 529.634 1766.67 556.874C1768.79 571.549 1767.69 586.529 1763.4 601.405C1758.74 617.532 1750.19 634.038 1737.99 650.466C1719.11 675.998 1693.31 698.298 1659.11 718.639C1629.38 736.32 1597.5 750.049 1569.38 762.161C1532.84 777.806 1495.69 792.108 1458.98 804.677C1428.65 815.048 1398.03 824.434 1367.98 832.578C1305.9 849.405 1243.29 857.17 1182.75 864.682C1159.51 867.562 1135.48 870.546 1111.76 874C1064.85 880.832 1028.58 888.099 994.166 897.559C917.846 918.545 851.852 961.276 797.99 1024.57C712.994 1124.17 675.091 1253.64 658.263 1344.72C646.28 1410.29 641.108 1478.02 643.706 1535.42C645.7 1579.52 654.148 1618.78 663.09 1660.34C664.087 1664.97 665.085 1669.61 666.074 1674.26C668.006 1683.33 670.522 1695.3 672.842 1707.41C681.99 1755.05 686.096 1816.99 636.214 1873.6C634.438 1875.61 632.607 1877.61 630.73 1879.6Z" fill="#312F84" fill-opacity="0.5"/>
<path d="M667.713 1903.35C620.96 1952.81 549.724 1983.74 486.573 2011.15C467.168 2019.58 448.837 2027.54 432.016 2035.67L160.335 2166.94L160.011 2165.28L431.692 2034.01C448.556 2025.86 466.908 2017.89 486.339 2009.45C551.932 1980.98 626.279 1948.7 672.365 1895.92C722.409 1838.62 714.358 1775.91 701.757 1727.67C697.635 1711.9 693.133 1696.17 688.78 1680.96C676.877 1639.36 664.567 1596.35 659.377 1549.69C655.258 1512.64 654.141 1470.39 656.15 1427.52C658.352 1380.49 664.129 1333.36 673.316 1287.46C683.449 1236.85 697.526 1188.96 715.157 1145.13C734.659 1096.64 758.491 1053.24 785.997 1016.13C841.099 941.782 910.667 892.549 992.766 869.806C1060.99 850.902 1129.26 844.556 1195.28 838.419C1252.75 833.076 1312.17 827.551 1371.52 813.785C1440.06 797.882 1509.74 776.411 1578.62 749.963C1636.65 727.68 1708.88 699.95 1752.81 642.532C1789.91 594.04 1792.47 548.142 1760.63 502.219C1733.54 463.157 1687.04 432.011 1649.69 406.985C1636.96 398.458 1624.93 390.401 1615.71 383.309C1564.87 344.216 1529.45 305.016 1507.42 263.473C1493.68 237.552 1485.2 210.457 1482.22 182.942C1478.89 152.207 1482.32 120.024 1492.41 87.2906C1501.13 58.9712 1514.78 30.666 1532.98 3.15494C1550.31 -23.0326 1571.37 -47.9431 1595.57 -70.8853C1643.18 -116.006 1699.93 -150.509 1755.38 -168.037C1785.03 -177.408 1815.18 -182.854 1845 -184.223C1873.26 -185.521 1901.42 -183.179 1928.69 -177.255C1980.06 -166.097 2027.99 -142.265 2067.31 -108.337L2065.89 -106.757C1982.16 -179.003 1866.09 -201.245 1755.4 -166.248C1637.84 -129.086 1527.97 -22.4482 1494.15 87.3165C1460.65 196.049 1500.86 292.342 1617.08 381.695C1626.27 388.765 1638.28 396.809 1651 405.327C1688.43 430.407 1735.03 461.618 1762.24 500.859C1777.06 522.234 1784.53 544.102 1784.46 565.858C1784.42 578.093 1782 590.608 1777.28 603.056C1772.25 616.304 1764.46 629.867 1754.13 643.373C1749.91 648.892 1745.34 654.251 1740.43 659.447C1722.53 678.383 1699.97 695.248 1672 710.652C1640.48 728.006 1606.26 741.148 1578.76 751.708C1509.78 778.19 1440.01 799.693 1371.37 815.619C1311.89 829.419 1252.41 834.946 1194.88 840.295C1128.94 846.425 1060.75 852.763 992.699 871.619C911.154 894.214 842.06 943.105 787.339 1016.94C676.646 1166.3 644.36 1397.41 661.204 1548.95C666.377 1595.48 678.67 1638.44 690.557 1679.98C694.911 1695.2 699.417 1710.93 703.542 1726.72C711.907 1758.75 714.628 1785.14 712.1 1809.77C710.52 1825.14 706.778 1839.9 700.976 1853.64C694.524 1868.91 685.302 1883.47 673.562 1896.92C671.662 1899.09 669.709 1901.23 667.713 1903.35Z" fill="#312F84" fill-opacity="0.5"/>
</g>
</svg>
