<svg width="18" height="18" viewBox="0 0 18 18" fill="none" xmlns="http://www.w3.org/2000/svg">
<g id="closed eye">
<path id="Vector" d="M16.0315 12.3045C15.9672 12.3412 15.8964 12.3648 15.823 12.374C15.7496 12.3832 15.6751 12.3779 15.6038 12.3583C15.5325 12.3387 15.4657 12.3052 15.4074 12.2598C15.349 12.2144 15.3002 12.1579 15.2636 12.0936L13.9277 9.7592C13.151 10.2844 12.2943 10.68 11.3908 10.9306L11.8036 13.407C11.8157 13.4799 11.8134 13.5545 11.7968 13.6265C11.7801 13.6985 11.7494 13.7665 11.7064 13.8267C11.6635 13.8868 11.6091 13.9379 11.5464 13.977C11.4836 14.0161 11.4138 14.0425 11.3409 14.0546C11.3109 14.0595 11.2806 14.0621 11.2502 14.0623C11.1171 14.0621 10.9884 14.0148 10.887 13.9286C10.7856 13.8425 10.7179 13.7232 10.6961 13.5919L10.2904 11.1605C9.43488 11.2796 8.56695 11.2796 7.71138 11.1605L7.30568 13.5919C7.28385 13.7235 7.21602 13.8429 7.11428 13.9291C7.01255 14.0152 6.88352 14.0625 6.75021 14.0623C6.71912 14.0622 6.68808 14.0596 6.6574 14.0546C6.58448 14.0425 6.51467 14.0161 6.45195 13.977C6.38923 13.9379 6.33483 13.8868 6.29186 13.8267C6.24889 13.7665 6.2182 13.6985 6.20154 13.6265C6.18487 13.5545 6.18256 13.4799 6.19474 13.407L6.60958 10.9306C5.70651 10.6792 4.85022 10.2828 4.07411 9.7571L2.7424 12.0936C2.70546 12.1579 2.65621 12.2144 2.59746 12.2597C2.53871 12.305 2.47161 12.3383 2.39998 12.3577C2.32836 12.3771 2.25361 12.3822 2.18002 12.3727C2.10643 12.3632 2.03543 12.3393 1.97107 12.3024C1.90671 12.2655 1.85026 12.2162 1.80493 12.1575C1.75961 12.0987 1.7263 12.0316 1.70691 11.96C1.68751 11.8884 1.68242 11.8136 1.69191 11.74C1.70141 11.6664 1.72531 11.5954 1.76224 11.5311L3.16849 9.07014C2.67454 8.6434 2.22034 8.17272 1.81146 7.66389C1.76047 7.60696 1.72161 7.54023 1.69727 7.46778C1.67292 7.39533 1.6636 7.31868 1.66986 7.24251C1.67612 7.16634 1.69785 7.09224 1.7337 7.02474C1.76955 6.95724 1.81878 6.89776 1.87839 6.84992C1.938 6.80208 2.00673 6.76689 2.08039 6.7465C2.15405 6.72611 2.23109 6.72094 2.30681 6.73131C2.38253 6.74169 2.45535 6.76738 2.52081 6.80683C2.58627 6.84628 2.64301 6.89866 2.68755 6.96077C3.85474 8.40499 5.89661 10.1248 9.00021 10.1248C12.1038 10.1248 14.1457 8.40288 15.3129 6.96077C15.3569 6.89739 15.4135 6.84375 15.4792 6.80319C15.5448 6.76263 15.6181 6.73601 15.6945 6.725C15.7709 6.71398 15.8487 6.7188 15.9232 6.73916C15.9976 6.75952 16.0671 6.79497 16.1272 6.84333C16.1874 6.89168 16.2369 6.95189 16.2728 7.02022C16.3087 7.08855 16.3301 7.16352 16.3358 7.24049C16.3414 7.31746 16.3312 7.39477 16.3057 7.46761C16.2802 7.54045 16.24 7.60726 16.1876 7.66389C15.7787 8.17272 15.3245 8.6434 14.8305 9.07014L16.2368 11.5311C16.2745 11.5952 16.2992 11.6662 16.3093 11.74C16.3194 11.8137 16.3147 11.8887 16.2957 11.9607C16.2766 12.0326 16.2434 12.1001 16.198 12.1591C16.1527 12.2181 16.0961 12.2675 16.0315 12.3045Z" fill="white"/>
</g>
</svg>
