<svg width="18" height="17" viewBox="0 0 18 17" fill="none" xmlns="http://www.w3.org/2000/svg">
<path d="M0.5 1.7C0.5 0.761117 1.26112 0 2.2 0H15.8C16.7389 0 17.5 0.761117 17.5 1.7V1.7C17.5 2.63889 16.7389 3.4 15.8 3.4H2.2C1.26112 3.4 0.5 2.63889 0.5 1.7V1.7Z" fill="white"/>
<path d="M0.5 15.3001C0.5 14.3612 1.26112 13.6001 2.2 13.6001H15.8C16.7389 13.6001 17.5 14.3612 17.5 15.3001V15.3001C17.5 16.239 16.7389 17.0001 15.8 17.0001H2.2C1.26112 17.0001 0.5 16.239 0.5 15.3001V15.3001Z" fill="white"/>
<path d="M0.5 8.49981C0.5 7.56092 1.26112 6.7998 2.2 6.7998H10.5692C11.5081 6.7998 12.2692 7.56092 12.2692 8.49981V8.49981C12.2692 9.43869 11.5081 10.1998 10.5692 10.1998H2.2C1.26112 10.1998 0.5 9.43869 0.5 8.49981V8.49981Z" fill="white"/>
</svg>
