<svg width="14" height="13" viewBox="0 0 14 13" fill="none" xmlns="http://www.w3.org/2000/svg">
<path d="M6.99935 12.3332C3.7776 12.3332 1.16602 9.72159 1.16602 6.49984C1.16602 3.27809 3.7776 0.666504 6.99935 0.666504C10.2211 0.666504 12.8327 3.27809 12.8327 6.49984C12.8327 9.72159 10.2211 12.3332 6.99935 12.3332ZM6.99935 11.1665C8.23703 11.1665 9.42401 10.6748 10.2992 9.79967C11.1743 8.9245 11.666 7.73751 11.666 6.49984C11.666 5.26216 11.1743 4.07518 10.2992 3.20001C9.42401 2.32484 8.23703 1.83317 6.99935 1.83317C5.76167 1.83317 4.57469 2.32484 3.69952 3.20001C2.82435 4.07518 2.33268 5.26216 2.33268 6.49984C2.33268 7.73751 2.82435 8.9245 3.69952 9.79967C4.57469 10.6748 5.76167 11.1665 6.99935 11.1665ZM6.41602 8.24984H7.58268V9.4165H6.41602V8.24984ZM7.58268 7.29025V7.6665H6.41602V6.7915C6.41602 6.63679 6.47747 6.48842 6.58687 6.37902C6.69627 6.26963 6.84464 6.20817 6.99935 6.20817C7.16506 6.20816 7.32736 6.16109 7.46737 6.07245C7.60738 5.9838 7.71934 5.85722 7.79022 5.70743C7.86109 5.55764 7.88798 5.3908 7.86775 5.22633C7.84751 5.06186 7.78099 4.90651 7.67592 4.77837C7.57085 4.65023 7.43155 4.55455 7.27423 4.50249C7.11691 4.45042 6.94804 4.44409 6.78726 4.48425C6.62649 4.5244 6.48042 4.60939 6.36606 4.72931C6.2517 4.84924 6.17375 4.99917 6.14127 5.16167L4.99677 4.93242C5.06772 4.5778 5.23156 4.24839 5.47155 3.97785C5.71154 3.7073 6.01907 3.50534 6.36269 3.39261C6.70632 3.27987 7.07372 3.2604 7.42733 3.3362C7.78094 3.41199 8.10809 3.58032 8.37533 3.82398C8.64256 4.06765 8.8403 4.37791 8.94833 4.72304C9.05636 5.06817 9.0708 5.4358 8.99019 5.78835C8.90957 6.1409 8.73678 6.46571 8.48949 6.72959C8.24219 6.99347 7.92926 7.18695 7.58268 7.29025Z" fill="#fff" fill-opacity="1"/>
</svg>
