<svg width="271" height="63" viewBox="0 0 271 63" fill="none" xmlns="http://www.w3.org/2000/svg">
<path d="M58.494 0L58.6113 0.178985V0.777601C58.6113 0.910711 58.1714 1.0897 57.2923 1.31982C55.1445 2.16887 53.1703 4.32646 51.3602 7.79409C50.4036 9.77796 49.5854 11.8957 48.9056 14.1458C47.8166 17.93 47.039 21.2848 46.5682 24.2155H46.6246C47.1872 24.1238 48.1077 23.4635 49.3861 22.2362C50.2149 21.2848 50.9097 20.3079 51.4828 19.301H51.5392C51.7896 19.316 52.0303 19.4386 52.2604 19.6589V19.7199C52.1423 20.1854 51.5392 21.1262 50.46 22.5325C49.171 23.8718 47.9542 24.7931 46.8081 25.2887C46.2862 25.4218 46.026 25.6827 46.026 26.0708C44.1181 35.869 42.1598 42.9013 40.1549 47.1661C38.7283 50.4292 36.7903 53.3899 34.3401 56.0341C30.0551 60.3094 25.0992 62.4467 19.4792 62.4467H18.4617C11.8701 62.4467 6.59234 59.3115 2.6389 53.0372C0.879887 49.8509 0 46.2968 0 42.3696C0 35.6705 2.83817 30.1573 8.50926 25.8309C11.828 23.3913 15.6634 22.1745 20.0154 22.1745C25.7128 22.1745 30.0844 24.7923 33.1429 30.0242C34.2988 32.2134 34.8816 34.632 34.8816 37.2761V37.6393C34.8816 42.9886 32.6421 47.3255 28.1667 50.639C26.0392 51.9581 23.8049 52.6184 21.4571 52.6184H20.6742C17.0998 52.6184 14.1029 50.9609 11.6836 47.6474C10.6458 45.9546 10.1292 44.0986 10.1292 42.0733C10.3901 39.557 10.6458 38.2944 10.9068 38.2944C11.3467 38.3658 11.5663 38.4681 11.5663 38.5959C11.2083 40.273 11.0293 41.4747 11.0293 42.1906C11.0293 45.6884 12.8041 48.5062 16.3583 50.639C17.6879 51.2015 18.849 51.4828 19.8357 51.4828H20.9148C24.7096 51.4828 28.105 49.4425 31.1019 45.3665C32.8203 42.6411 33.6791 40.0225 33.6791 37.5168V36.1977C33.6791 32.066 31.7411 28.4705 27.8644 25.412C25.5993 23.8929 23.0213 23.1363 20.1372 23.1363C13.8006 23.1363 8.54913 26.2919 4.37609 32.6022C2.41779 35.8397 1.44089 39.2351 1.44089 42.7893V43.3924C1.44089 49.3711 3.9369 54.3871 8.9274 58.4323C11.6483 60.4681 14.8647 61.4909 18.5775 61.4909C25.6805 61.4909 31.035 57.1133 34.6402 48.3633C36.3947 44.5174 38.8952 37.0663 42.132 26.0099C40.2504 25.7083 38.7313 25.033 37.5754 23.9749C35.3351 21.9752 34.2206 19.6589 34.2206 17.02V16.8411L34.1597 16.6004L34.2206 16.3598V16.1191C34.2206 11.7054 36.9362 7.9114 42.3674 4.73556C44.3873 3.62556 46.8269 2.60806 49.6801 1.67704C54.0171 0.562526 56.9523 0 58.4918 0H58.494ZM37.3987 19.116V19.4792C37.3987 22.1128 38.4568 23.8515 40.5745 24.6908C41.1731 24.8901 41.771 25.0337 42.3696 25.1097L43.7504 20.5584C46.405 11.8084 50.184 5.41615 55.0783 1.38073H54.9557C54.2194 1.38073 52.5424 1.85677 49.9238 2.81787C47.3361 3.95796 45.0401 5.49211 43.0299 7.43011C39.2765 10.9587 37.3994 14.8504 37.3994 19.116H37.3987Z" fill="#FEFEFE"/>
<path d="M52.7566 45.906C52.0873 45.715 51.6774 45.3044 51.527 44.6764C51.4856 44.5057 51.4653 44.3418 51.4653 44.171C51.4653 43.522 51.8684 41.4998 52.6611 38.1172C53.1461 36.0536 53.4605 34.5097 53.6109 33.4779C53.7545 32.4528 54.1779 30.4848 54.8751 27.5812C55.4624 25.101 55.7564 23.3043 55.7564 22.1898C55.7564 21.5002 55.688 20.9054 55.5519 20.4068C55.415 19.9149 55.1759 19.4569 54.8412 19.0403C54.7593 18.9313 54.6705 18.8493 54.5885 18.7876C54.5682 18.7673 54.5479 18.7395 54.5269 18.7192C54.6502 18.7673 54.766 18.7876 54.8751 18.7876C55.1007 18.7876 55.333 18.7327 55.5654 18.6304C55.9204 18.4597 56.3107 18.186 56.7341 17.8107C57.4042 17.1956 57.9847 16.8955 58.4698 16.8955C58.8248 16.8955 59.1466 17.1068 59.4264 17.5377C59.7129 17.9679 59.8565 18.5628 59.8565 19.3208C59.8565 20.667 59.5903 22.3342 59.0504 24.3218C58.5172 26.3035 57.9915 28.2166 57.4929 30.0411C56.9259 32.1663 56.6386 33.799 56.6386 34.9331C56.6386 35.391 56.7619 35.6437 57.0146 35.6851C57.2267 35.7325 57.8351 35.2068 58.8458 34.1133C59.5429 33.3545 60.0212 32.8559 60.2807 32.61C60.5469 32.3709 61.2508 31.6128 62.4127 30.3276C63.1647 29.4876 63.6904 29.0363 63.9709 28.9679C64.2574 28.9062 64.4831 28.8792 64.6477 28.8792C65.3035 28.8792 65.8164 29.2409 66.1917 29.9794C66.3827 30.3825 66.5745 30.7653 66.7655 31.1481C66.8069 31.2097 66.8271 31.3398 66.8271 31.5241C66.8271 31.9888 66.6294 32.8086 66.2255 33.9832C65.0095 37.5772 64.3673 39.5039 64.3056 39.7574C64.2372 40.01 64.1958 40.1875 64.1755 40.2906C64.0935 40.6523 64.0529 40.9463 64.0529 41.1787C64.0529 41.575 64.1687 41.9232 64.3943 42.2173C64.5034 42.3609 64.756 42.5451 65.1524 42.7505C65.214 42.7715 65.3095 42.8189 65.4396 42.8806C65.3095 43.5093 65.0914 44.0349 64.7771 44.4591C64.4627 44.8757 64.2717 45.2104 64.2101 45.463C64.1416 45.7157 63.998 45.8458 63.7656 45.8458C63.6626 45.8458 63.4716 45.812 63.1986 45.7503C62.9256 45.6894 62.7068 45.6548 62.536 45.6548C62.345 45.6548 62.2081 45.6751 62.1262 45.7165C62.0239 45.7571 61.9284 45.8323 61.8464 45.9353C61.6554 46.1474 61.4982 46.2632 61.3681 46.2835C61.0538 46.3452 60.7876 46.3038 60.5687 46.1399C60.3431 45.9827 60.1589 45.7706 60.0017 45.4976C59.8377 45.2246 59.7625 44.9712 59.7625 44.7396C59.7625 44.596 59.7836 44.4117 59.8242 44.1861C59.8656 43.9672 59.9062 43.7492 59.9543 43.5439C60.665 41.0433 61.3892 38.5285 62.1269 36.0077C62.1269 35.4813 62.0314 34.997 61.8472 34.5525C61.7787 34.4089 61.6765 34.3337 61.5261 34.3337C60.7063 34.3337 59.476 35.543 57.8366 37.9615C56.0325 40.6057 55.0014 43.0656 54.748 45.3412C54.7277 45.6353 54.6389 45.8466 54.4818 45.9699C54.3246 46.0993 54.1268 46.1609 53.8944 46.1609C53.7305 46.1609 53.5936 46.1474 53.4846 46.1263C53.1296 46.0038 52.8897 45.9286 52.7604 45.9075L52.7566 45.906Z" fill="#FEFEFE"/>
<path d="M81.9326 35.4043C81.9326 35.6164 81.7416 36.4023 81.3656 37.7687C81.1738 38.4659 81.0783 39.3134 81.0783 40.3241C81.0783 41.5402 81.6251 42.3396 82.7185 42.7224C82.8892 42.866 83.0667 43.0164 83.2585 43.1593C83.0058 43.5421 82.35 44.1159 81.2979 44.895C80.0616 45.8238 79.1253 46.2818 78.4966 46.2818C78.3259 46.2818 78.1822 46.2547 78.0521 46.1863C78.0115 46.1457 77.9912 46.1178 77.9912 46.0975C77.8611 45.8245 77.7995 45.3868 77.7995 44.7995C77.7995 44.2528 77.8138 43.8565 77.8341 43.6038C77.8544 43.3511 77.9296 42.8247 78.0529 42.0252C78.0732 41.9643 78.0875 41.9027 78.0875 41.8342C78.0875 41.7523 78.0875 41.6981 78.0875 41.6771C78.0875 41.1988 77.91 40.9528 77.5475 40.9528C77.2738 40.9528 77.1648 41.11 77.2197 41.4108C77.267 41.7184 76.0856 42.8803 73.6738 44.8958C72.4299 45.9276 71.5899 46.4397 71.1455 46.4397C70.9815 46.4397 70.8725 46.2825 70.8311 45.9682C70.7897 45.6538 70.5649 45.3876 70.1543 45.162C69.7444 44.9431 69.5391 44.7521 69.5391 44.5814C69.5391 43.9941 69.5256 43.4338 69.5053 42.9074C69.485 42.381 69.4639 41.8621 69.4436 41.3356C69.4436 40.4956 69.5256 39.7165 69.6963 39.0126C69.867 38.3087 70.1881 37.5506 70.6732 36.7302C70.7552 36.5798 70.81 36.3752 70.8304 36.1158C70.8507 35.8495 70.8913 35.6442 70.9597 35.5006C71.1237 35.1178 72.0321 34.2297 73.6723 32.8361C75.3117 31.4351 76.4255 30.5883 77.0136 30.2943C77.1572 30.2123 77.3144 30.1709 77.4851 30.1709C77.8401 30.2326 78.1206 30.2807 78.3184 30.3146C78.5237 30.3416 78.6801 30.3349 78.8102 30.2943C79.2268 30.2123 79.7119 29.9393 80.2586 29.4746C80.4293 29.3309 80.6685 29.0985 80.9828 28.7842C81.1949 29.0985 81.5499 29.3444 82.0417 29.5219C82.5335 29.6994 82.8479 29.8363 82.9712 29.9182C83.0321 29.9589 83.0667 30.0544 83.0667 30.198C83.0667 30.2183 82.814 31.202 82.3079 33.1362C82.0552 34.0996 81.9319 34.8576 81.9319 35.4043H81.9326ZM73.6994 36.3474C73.6994 36.7302 73.5557 37.2769 73.2624 37.9876C73.112 38.3493 73.0368 38.684 73.0368 38.9983C73.0368 39.169 73.0301 39.4217 73.009 39.7571C72.9887 40.0918 72.9752 40.3309 72.9752 40.4813C72.9752 40.9047 73.0158 41.2191 73.0977 41.4447C73.1865 41.6635 73.3234 41.8891 73.5076 42.1208C73.6783 42.3118 74.1701 42.0801 74.9906 41.4236C75.8103 40.7746 76.4872 40.091 77.0128 39.3736C77.0948 39.251 77.1768 39.1277 77.2655 38.9976C77.2452 38.9976 77.2249 38.9976 77.1971 38.9976C77.176 38.6629 77.6205 37.5559 78.5229 35.6841C78.7553 35.1855 78.9463 34.6591 79.09 34.1259C79.2404 33.5927 79.3156 33.1151 79.3156 32.691C79.3156 32.1646 79.1794 31.8367 78.9057 31.7141C78.7756 31.6727 78.653 31.6524 78.5229 31.6524C77.7024 31.6524 76.7188 32.1789 75.5576 33.2242C74.3213 34.365 73.6994 35.4036 73.6994 36.3466V36.3474Z" fill="#FEFEFE"/>
<path d="M98.5834 29.2558C99.4242 29.6318 100.011 30.1989 100.353 30.9434C100.688 31.6887 100.852 32.6107 100.852 33.7034C100.852 34.2501 100.79 34.7758 100.667 35.2751C100.647 35.4045 100.551 35.7331 100.381 36.2588C100.36 36.3821 100.312 36.5318 100.237 36.6957C100.169 36.8664 100.121 36.9687 100.1 37.0101C99.9295 37.5154 99.7588 38.0072 99.5949 38.4923C99.3828 38.9774 99.0752 39.3669 98.6789 39.661C98.4465 39.7836 98.2277 39.9137 98.0163 40.037C96.8823 41.4237 95.6866 42.5924 94.4224 43.5422C92.8852 44.6966 91.5323 45.3253 90.3569 45.4351C90.1862 45.4351 90.0155 45.6058 89.8515 45.9548C89.6808 46.3029 89.5033 46.4737 89.3115 46.4737C88.1775 46.4737 87.3029 46.1187 86.6945 45.4013C85.9838 44.5612 85.6221 43.2489 85.6221 41.4591C85.6221 40.8507 85.9913 39.0609 86.7291 36.0956C87.166 34.3125 87.5285 32.5016 87.8022 30.6772C87.9662 29.495 88.2391 28.2383 88.6219 26.8922C88.916 25.8604 89.2093 24.8218 89.5033 23.7697C89.5642 23.5584 89.5988 23.2644 89.5988 22.8883C89.5988 22.677 89.5785 22.4101 89.5371 22.0822C89.4898 21.7543 89.4416 21.2625 89.3732 20.5992C89.3123 19.9366 89.1687 19.0688 88.9363 17.9964C88.8754 17.8738 88.8069 17.7437 88.7453 17.6203C89.0596 17.3677 89.3123 17.1759 89.5041 17.0533C90.0914 16.6705 90.5975 16.4863 91.0142 16.4863C91.4789 16.4457 91.861 16.4043 92.1685 16.3772C92.4761 16.3426 92.6536 16.3291 92.722 16.3291C93.2003 16.3291 93.5763 16.4246 93.8425 16.6231C94.102 16.8277 94.2321 17.1902 94.2321 17.7166C94.2321 17.8392 94.2321 17.9355 94.2321 17.9964C94.1298 19.0071 93.8493 20.4495 93.3989 22.3213C92.9476 24.1864 92.4972 26.0522 92.0595 27.8969C91.615 29.7484 91.3969 30.8622 91.3969 31.245C91.3969 31.4292 91.424 31.5247 91.4924 31.5247C92.4152 31.5247 93.5831 31.1216 94.9909 30.3154C96.3987 29.5025 97.3546 29.0994 97.8607 29.0994C98.0931 29.0994 98.2502 29.1062 98.3322 29.1272C98.4623 29.1957 98.5443 29.2363 98.5849 29.2566L98.5834 29.2558ZM95.3654 39.2857C95.6865 38.9029 95.864 38.3908 95.9054 37.735C95.9468 37.086 95.9874 36.5325 96.028 36.0678C96.028 35.897 96.049 35.6647 96.0964 35.3706C96.1378 35.0766 96.1445 34.8374 96.1242 34.6464C96.0626 34.141 95.9257 33.7034 95.7144 33.3206C95.5023 32.9445 95.2022 32.6919 94.7992 32.5685C94.6961 32.5212 94.5397 32.5001 94.3276 32.5001C93.2552 32.5001 92.0595 33.6688 90.7336 36.0053C89.5996 38.0208 89.0318 39.306 89.0318 39.852C89.1957 41.4914 89.8523 42.3111 90.9863 42.3111C92.2708 42.3111 93.726 41.3004 95.3662 39.2842L95.3654 39.2857Z" fill="#FEFEFE"/>
<path d="M115.207 35.4043C115.207 35.6164 115.016 36.4023 114.64 37.7687C114.449 38.4659 114.353 39.3134 114.353 40.3241C114.353 41.5402 114.9 42.3396 115.993 42.7224C116.163 42.866 116.341 43.0164 116.533 43.1593C116.28 43.5421 115.624 44.1159 114.572 44.895C113.336 45.8238 112.399 46.2818 111.771 46.2818C111.6 46.2818 111.456 46.2547 111.326 46.1863C111.286 46.1457 111.265 46.1178 111.265 46.0975C111.135 45.8245 111.074 45.3868 111.074 44.7995C111.074 44.2528 111.088 43.8565 111.108 43.6038C111.129 43.3511 111.204 42.8247 111.327 42.0252C111.348 41.9643 111.362 41.9027 111.362 41.8342C111.362 41.7523 111.362 41.6981 111.362 41.6771C111.362 41.1988 111.184 40.9528 110.822 40.9528C110.549 40.9528 110.439 41.11 110.494 41.4108C110.542 41.7184 109.36 42.8803 106.948 44.8958C105.704 45.9276 104.864 46.4397 104.42 46.4397C104.256 46.4397 104.147 46.2825 104.105 45.9682C104.064 45.6538 103.839 45.3876 103.428 45.162C103.019 44.9431 102.813 44.7521 102.813 44.5814C102.813 43.9941 102.8 43.4338 102.779 42.9074C102.759 42.381 102.738 41.8621 102.718 41.3356C102.718 40.4956 102.8 39.7165 102.97 39.0126C103.141 38.3087 103.462 37.5506 103.947 36.7302C104.029 36.5798 104.084 36.3752 104.105 36.1158C104.125 35.8495 104.166 35.6442 104.234 35.5006C104.398 35.1178 105.306 34.2297 106.946 32.8361C108.586 31.4351 109.7 30.5883 110.288 30.2943C110.431 30.2123 110.589 30.1709 110.759 30.1709C111.114 30.2326 111.395 30.2807 111.593 30.3146C111.798 30.3416 111.955 30.3349 112.084 30.2943C112.501 30.2123 112.986 29.9393 113.533 29.4746C113.703 29.3309 113.943 29.0985 114.257 28.7842C114.469 29.0985 114.824 29.3444 115.316 29.5219C115.808 29.6994 116.122 29.8363 116.245 29.9182C116.307 29.9589 116.341 30.0544 116.341 30.198C116.341 30.2183 116.088 31.202 115.582 33.1362C115.329 34.0996 115.206 34.8576 115.206 35.4043H115.207ZM106.974 36.3474C106.974 36.7302 106.83 37.2769 106.537 37.9876C106.386 38.3493 106.311 38.684 106.311 38.9983C106.311 39.169 106.304 39.4217 106.284 39.7571C106.263 40.0918 106.249 40.3309 106.249 40.4813C106.249 40.9047 106.291 41.2191 106.373 41.4447C106.461 41.6635 106.598 41.8891 106.783 42.1208C106.953 42.3118 107.445 42.0801 108.266 41.4236C109.085 40.7746 109.762 40.091 110.288 39.3736C110.37 39.251 110.452 39.1277 110.54 38.9976C110.519 38.9976 110.499 38.9976 110.472 38.9976C110.452 38.6629 110.895 37.5559 111.798 35.6841C112.03 35.1855 112.221 34.6591 112.365 34.1259C112.515 33.5927 112.59 33.1151 112.59 32.691C112.59 32.1646 112.454 31.8367 112.181 31.7141C112.051 31.6727 111.928 31.6524 111.798 31.6524C110.977 31.6524 109.994 32.1789 108.833 33.2242C107.596 34.365 106.974 35.4036 106.974 36.3466L106.974 36.3474Z" fill="#FEFEFE"/>
<path d="M126.72 24.6498C126.426 26.3509 126.215 27.5745 126.091 28.3055C125.859 29.6516 125.743 30.7451 125.743 31.5851C125.743 31.9062 125.791 32.1318 125.887 32.2687C125.975 32.4056 126.064 32.4733 126.153 32.4733C126.296 32.4733 126.679 32.1589 127.287 31.5234C129.18 29.5283 131.27 27.6971 133.56 26.0366C133.983 25.7222 134.413 25.5651 134.858 25.5651C135.295 25.5651 135.65 25.7087 135.91 25.9885C136.176 26.275 136.251 26.5623 136.149 26.8563C135.978 27.0067 135.814 27.1504 135.644 27.3008C135.541 27.3827 135.486 27.4986 135.486 27.649C135.486 27.7512 135.528 27.9287 135.61 28.1821C135.698 28.4348 135.739 28.6266 135.739 28.7492C135.739 28.8996 135.685 29.0154 135.582 29.0974C135.452 29.159 135.336 29.2207 135.234 29.2884C135.213 29.3501 135.24 29.4456 135.316 29.5824C135.384 29.7186 135.384 29.808 135.295 29.8554C134.79 30.1495 134.318 30.4292 133.881 30.7022C133.061 31.2286 132.377 31.734 131.831 32.2191C131.68 32.3417 131.352 32.5131 130.847 32.7244C130.574 32.8267 130.355 32.9501 130.191 33.1005C129.747 33.4562 129.432 33.7495 129.241 33.9818C128.947 34.3443 128.797 34.679 128.797 34.9933C128.797 35.7927 129.275 37.0434 130.218 38.7445C131.27 40.6576 132.186 41.5187 132.965 41.3337C133.402 41.2247 133.696 41.163 133.846 41.1427C134.331 41.0404 134.625 40.9855 134.728 40.9855C134.96 40.9855 135.082 41.0886 135.11 41.2999C135.152 41.4022 135.172 41.5187 135.172 41.6481C135.172 41.7917 135.172 41.9278 135.172 42.0579C135.172 42.6047 135.035 43.0416 134.762 43.3838C134.4 43.5883 134.058 43.7936 133.717 43.9779C133.615 44.1283 133.526 44.3396 133.451 44.6269C133.375 44.9066 133.321 45.0916 133.28 45.1804C132.835 46.0618 132.262 46.5062 131.544 46.5062C130.895 46.5062 130.198 46.1234 129.46 45.3654C128.853 44.7367 128.347 43.9786 127.95 43.0965C126.878 40.6779 126.181 39.2295 125.866 38.7445C125.45 38.4301 125.04 38.1158 124.637 37.8014C124.493 38.4504 124.377 38.9904 124.289 39.407C123.769 41.6548 123.25 43.6086 122.745 45.2759C122.601 45.7956 122.403 46.1843 122.15 46.4235C121.897 46.6626 121.61 46.7852 121.295 46.7852C120.851 46.7852 120.414 46.5807 119.97 46.1701C119.533 45.7602 119.245 45.3225 119.123 44.8653C119.034 44.5645 119.348 42.8017 120.066 39.5634C121.009 35.2317 121.72 31.6926 122.177 28.9387C122.976 24.2039 123.379 20.3294 123.379 17.3025C123.379 17.0911 123.222 16.6873 122.901 16.1C122.737 15.7856 122.648 15.5262 122.648 15.3141C122.648 15.102 122.696 14.8907 122.778 14.6854C122.86 14.4733 122.955 14.2552 123.057 14.0364C123.166 13.8175 123.324 13.6333 123.536 13.4829C124.014 13.1279 124.383 12.6632 124.636 12.0961C124.971 11.2967 125.476 10.9004 126.153 10.9004C126.7 10.9004 127.239 11.1666 127.772 11.6998C128.312 12.2398 128.578 12.7519 128.578 13.2302C128.578 16.0315 128.359 18.2455 127.916 19.885C127.185 22.6178 126.782 24.2031 126.72 24.6476V24.6498Z" fill="#FEFEFE"/>
<path d="M182.605 0H183.382C186.946 0 190.526 1.82068 194.111 5.4515V5.63574C193.819 5.99371 193.62 6.1727 193.512 6.1727C190.843 3.77446 189.027 2.4396 188.055 2.15834C186.43 1.31982 184.813 0.900183 183.203 0.900183C179.296 0.900183 176.002 2.71559 173.312 6.35168L173.195 6.59234V6.71492L173.496 6.654H174.273C178.866 6.654 182.762 8.77098 185.959 13.0057C187.836 15.6904 188.777 18.6309 188.777 21.8173V22.6558L188.716 24.7525H188.777C189.615 24.5223 190.035 24.3434 190.035 24.2103C191.962 11.4257 195.379 5.03337 200.284 5.03337C201.9 5.03337 202.978 6.15315 203.52 8.39346L203.577 9.17031V9.89151C203.577 14.1262 200.463 18.6775 194.228 23.556V23.9756C194.228 31.3959 192.97 36.9858 190.454 40.7543C186.909 46.2667 181.693 49.0236 174.81 49.0236H173.674C166.674 49.0236 161.038 46.0268 156.773 40.0331C154.339 36.3872 153.117 32.1728 153.117 27.3914C153.117 20.0064 156.375 14.0946 162.885 9.65086C165.913 7.93246 168.868 6.91496 171.757 6.59234C175.081 2.1997 178.697 0.000752769 182.604 0.000752769L182.605 0ZM194.229 22.1737C196.367 20.4245 198.044 18.6858 199.266 16.9576C201.102 14.1247 202.022 11.5061 202.022 9.10789V8.39195C202.022 6.83223 201.439 6.05463 200.284 6.05463H200.043C196.908 6.05463 194.99 10.8466 194.29 20.435L194.229 22.1737ZM170.92 13.0658V13.4238C170.92 18.3384 173.416 21.9745 178.412 24.3321C180.248 25.0119 181.926 25.3496 183.444 25.3496H184.763C185.908 25.3496 186.768 25.1909 187.34 24.869C187.581 23.8621 187.698 22.8235 187.698 21.7549V21.3969C187.698 16.2831 185.223 12.2634 180.267 9.34854C178.421 8.30998 175.824 7.78882 172.474 7.78882C172.229 7.8911 171.809 8.8522 171.216 10.6676C171.017 11.6242 170.92 12.4266 170.92 13.0658ZM154.437 27.5688V28.648C154.437 34.6876 156.933 39.8834 161.93 44.2249C165.197 46.6231 168.552 47.8249 171.999 47.8249H173.313C177.819 47.8249 181.537 45.8463 184.461 41.8876C185.729 40.103 186.809 37.8424 187.698 35.1163C188.578 32.339 189.314 29.2662 189.918 25.8911L189.975 25.4105H189.918C188.875 25.6609 188.359 25.9166 188.359 26.1881C186.988 30.765 184.994 33.9205 182.365 35.6592C180.176 37.0558 177.742 37.7559 175.052 37.7559H174.576C170.377 37.7559 167.105 35.9555 164.747 32.3608C163.867 30.6319 163.427 28.8165 163.427 26.9093C163.427 25.5391 163.744 24.3012 164.384 23.1912H164.506C164.864 23.2522 165.043 23.3702 165.043 23.5545C164.767 24.9608 164.583 26.0806 164.506 26.9093C164.506 30.5913 166.225 33.5114 169.661 35.6592C171.057 36.3391 172.438 36.6767 173.793 36.6767H174.335C177.311 36.6767 180.027 35.5569 182.481 33.3219C184.261 31.5215 185.56 29.7061 186.378 27.8651L187.038 26.1881V26.1264C186.158 26.249 185.1 26.3107 183.862 26.3107C179.618 26.3107 176.022 24.8119 173.076 21.8158C170.837 19.4273 169.716 16.5688 169.716 13.2448C169.716 11.7769 170.1 10.0382 170.857 8.02872V7.97232C169.871 8.04903 168.09 8.63185 165.523 9.70651C163.805 10.5759 162.086 11.8746 160.368 13.6028C156.415 17.909 154.436 22.5625 154.436 27.5688H154.437Z" fill="#FEFEFE"/>
<path d="M201.258 46.2731C200.612 46.0881 200.216 45.6926 200.07 45.0857C200.031 44.921 200.011 44.7623 200.011 44.5976C200.011 43.9711 200.4 42.0181 201.165 38.7535C201.633 36.7614 201.937 35.2709 202.082 34.2744C202.22 33.2847 202.63 31.3851 203.303 28.5823C203.87 26.1878 204.153 24.4528 204.153 23.3782C204.153 22.7119 204.087 22.1381 203.955 21.6568C203.824 21.1822 203.593 20.74 203.27 20.3377C203.191 20.2324 203.105 20.1535 203.026 20.094C203.006 20.0745 202.986 20.0482 202.967 20.0279C203.085 20.0737 203.197 20.094 203.303 20.094C203.52 20.094 203.745 20.0414 203.969 19.9421C204.312 19.7774 204.688 19.5135 205.097 19.1502C205.743 18.5569 206.304 18.2666 206.773 18.2666C207.115 18.2666 207.426 18.4712 207.696 18.8863C207.974 19.3022 208.112 19.876 208.112 20.6077C208.112 21.9072 207.855 23.5166 207.334 25.4357C206.819 27.3489 206.312 29.1959 205.829 30.9564C205.282 33.008 205.005 34.5842 205.005 35.6792C205.005 36.1206 205.124 36.3651 205.368 36.4049C205.572 36.4508 206.16 35.9432 207.136 34.8881C207.808 34.1556 208.271 33.6743 208.521 33.4366C208.778 33.2058 209.458 32.4733 210.579 31.2332C211.305 30.4217 211.813 29.9863 212.083 29.9201C212.361 29.8607 212.578 29.8344 212.736 29.8344C213.369 29.8344 213.864 30.1841 214.227 30.8963C214.412 31.2851 214.596 31.6551 214.781 32.0243C214.82 32.0837 214.84 32.2093 214.84 32.3876C214.84 32.8358 214.649 33.6277 214.26 34.7617C213.086 38.2309 212.465 40.0914 212.406 40.3351C212.341 40.5795 212.301 40.7509 212.28 40.8494C212.201 41.1991 212.162 41.4827 212.162 41.7068C212.162 42.0896 212.274 42.4257 212.492 42.7092C212.598 42.8476 212.841 43.0258 213.224 43.2236C213.284 43.2432 213.376 43.2898 213.502 43.3492C213.376 43.9561 213.166 44.4637 212.862 44.8728C212.558 45.2752 212.374 45.5985 212.314 45.8422C212.248 46.0859 212.11 46.2115 211.886 46.2115C211.787 46.2115 211.602 46.1784 211.338 46.119C211.074 46.0595 210.864 46.0265 210.698 46.0265C210.514 46.0265 210.382 46.046 210.303 46.0859C210.203 46.1257 210.112 46.1979 210.032 46.2972C209.847 46.5017 209.696 46.6138 209.57 46.6341C209.266 46.6935 209.009 46.6537 208.799 46.4957C208.581 46.3438 208.403 46.1393 208.251 45.8753C208.092 45.6113 208.02 45.3677 208.02 45.1436C208.02 45.0052 208.04 44.827 208.08 44.6089C208.119 44.3976 208.159 44.187 208.205 43.9892C208.891 41.5752 209.59 39.1476 210.303 36.7133C210.303 36.2056 210.21 35.7371 210.032 35.3085C209.966 35.1701 209.867 35.0971 209.722 35.0971C208.931 35.0971 207.743 36.2643 206.16 38.5994C204.419 41.1518 203.423 43.5267 203.179 45.7234C203.159 46.0069 203.073 46.2115 202.921 46.3303C202.769 46.4559 202.578 46.5153 202.354 46.5153C202.196 46.5153 202.064 46.5017 201.959 46.4822C201.616 46.3634 201.385 46.2912 201.259 46.2709L201.258 46.2731Z" fill="#FEFEFE"/>
<path d="M229.424 36.1345C229.424 36.339 229.239 37.0978 228.876 38.4169C228.691 39.09 228.599 39.9074 228.599 40.8843C228.599 42.0583 229.127 42.8298 230.182 43.1991C230.346 43.3375 230.518 43.4826 230.703 43.621C230.459 43.9902 229.825 44.5445 228.81 45.2965C227.616 46.1937 226.712 46.6359 226.106 46.6359C225.941 46.6359 225.802 46.6096 225.677 46.5434C225.637 46.5035 225.618 46.4772 225.618 46.4577C225.492 46.1937 225.433 45.7718 225.433 45.204C225.433 44.6761 225.446 44.2941 225.466 44.0496C225.486 43.806 225.559 43.2976 225.678 42.526C225.697 42.4666 225.711 42.4072 225.711 42.341C225.711 42.2621 225.711 42.2094 225.711 42.1891C225.711 41.7274 225.539 41.4897 225.19 41.4897C224.926 41.4897 224.82 41.6416 224.873 41.9319C224.919 42.2282 223.778 43.3503 221.45 45.2958C220.249 46.2915 219.438 46.7863 219.009 46.7863C218.851 46.7863 218.745 46.6344 218.706 46.3313C218.666 46.0275 218.448 45.7703 218.053 45.553C217.657 45.3416 217.459 45.1574 217.459 44.9919C217.459 44.4249 217.446 43.8835 217.426 43.3758C217.407 42.8675 217.387 42.3666 217.367 41.859C217.367 41.0475 217.446 40.2955 217.611 39.6164C217.775 38.9366 218.085 38.2048 218.554 37.4129C218.633 37.2678 218.685 37.07 218.706 36.8196C218.725 36.5624 218.765 36.3646 218.831 36.2262C218.989 35.857 219.867 34.9997 221.45 33.6535C223.033 32.3014 224.108 31.4831 224.675 31.1996C224.814 31.1207 224.965 31.0808 225.13 31.0808C225.473 31.1402 225.744 31.1868 225.935 31.2192C226.133 31.2455 226.285 31.2387 226.409 31.1996C226.812 31.1207 227.28 30.8567 227.807 30.4085C227.972 30.2701 228.203 30.046 228.507 29.7422C228.711 30.046 229.054 30.2829 229.53 30.4544C230.004 30.6258 230.308 30.7582 230.427 30.8371C230.486 30.877 230.519 30.9695 230.519 31.1071C230.519 31.1267 230.275 32.0765 229.787 33.9438C229.542 34.8741 229.424 35.6066 229.424 36.1337V36.1345ZM221.475 37.0444C221.475 37.4137 221.337 37.9416 221.053 38.6275C220.908 38.9772 220.836 39.3005 220.836 39.6036C220.836 39.7683 220.829 40.0127 220.81 40.3361C220.79 40.6595 220.777 40.8904 220.777 41.0355C220.777 41.4446 220.816 41.7477 220.895 41.9658C220.981 42.1771 221.113 42.3944 221.291 42.6193C221.456 42.8043 221.931 42.5794 222.722 41.9462C223.513 41.3198 224.167 40.6602 224.674 39.9676C224.753 39.8488 224.832 39.73 224.918 39.6044C224.899 39.6044 224.878 39.6044 224.852 39.6044C224.832 39.281 225.261 38.2131 226.132 36.4052C226.356 35.9239 226.541 35.4155 226.679 34.9011C226.825 34.3868 226.897 33.925 226.897 33.5159C226.897 33.0083 226.765 32.6917 226.501 32.5728C226.376 32.5337 226.257 32.5134 226.132 32.5134C225.341 32.5134 224.391 33.0211 223.269 34.0303C222.075 35.132 221.475 36.1345 221.475 37.0444H221.475Z" fill="#FEFEFE"/>
<path d="M234.298 36.4051C234.338 36.1412 234.423 35.7592 234.555 35.2508C234.687 34.7424 234.753 34.3077 234.753 33.9445C234.753 33.661 234.654 33.2722 234.463 32.7834C234.272 32.2953 234.172 31.9922 234.172 31.8734C234.172 31.7478 234.211 31.6493 234.298 31.5696C234.602 31.3056 234.845 31.1011 235.024 30.9559C235.597 30.5137 235.993 30.2565 236.211 30.1971C236.395 30.1573 236.844 30.3821 237.556 30.8634C237.774 31.0281 238.123 31.2921 238.586 31.6553C238.546 31.741 238.507 31.8132 238.467 31.8726C238.019 32.0509 237.821 32.196 237.86 32.2945C237.88 32.5585 237.9 32.8285 237.92 33.106C237.939 33.376 238.038 33.594 238.223 33.7595C238.302 33.8385 238.395 33.8783 238.5 33.8783C238.659 33.8783 238.916 33.4624 239.259 32.6314C239.464 32.1434 239.668 31.82 239.866 31.6553C240.413 31.1936 240.875 30.8439 241.238 30.6258C241.766 30.2956 242.194 30.1377 242.518 30.1377C242.616 30.1377 242.709 30.1573 242.788 30.1971C243.052 30.3355 243.328 30.6716 243.612 31.1996C243.652 31.2853 243.711 31.4041 243.797 31.5688C243.513 31.7862 243.368 32.0042 243.368 32.2088C243.368 32.3073 243.421 32.4397 243.52 32.6044C243.626 32.7623 243.652 32.9082 243.613 33.0263C243.349 33.6986 243.118 34.1543 242.913 34.398C242.59 34.8003 242.148 35.0049 241.6 35.0049C241.277 35.0049 240.974 34.9522 240.69 34.8529C240.143 34.6679 239.377 35.4072 238.408 37.0624C237.432 38.7116 236.944 40.2285 236.944 41.6137C236.944 42.544 237.095 43.3291 237.398 43.9556C237.504 44.1601 237.656 44.3842 237.86 44.6286C237.471 44.8723 237.161 45.1761 236.93 45.5386C236.699 45.9018 236.521 46.0861 236.395 46.0861C236.171 46.047 235.993 46.0267 235.848 46.0267C235.505 46.0267 235.181 46.0665 234.891 46.1455C234.594 46.2312 234.278 46.3892 233.928 46.6336C233.77 46.7389 233.644 46.7855 233.565 46.7855C233.38 46.7855 233.235 46.6667 233.123 46.423C233.011 46.1786 232.958 45.856 232.958 45.4469C232.958 45.1235 233.004 44.761 233.11 44.3519C233.289 43.745 233.493 42.4981 233.717 40.6248C233.941 38.7447 234.133 37.3399 234.298 36.4029V36.4051Z" fill="#FEFEFE"/>
<path d="M252.108 46.1211C252.068 46.1407 252.015 46.2136 251.956 46.3452C251.897 46.4776 251.745 46.543 251.5 46.543C251.072 46.543 250.689 46.5889 250.339 46.6686C249.996 46.7476 249.772 46.7874 249.673 46.7874C249.633 46.7874 249.488 46.7679 249.244 46.728C248.473 46.5633 247.773 45.9692 247.147 44.9344C246.599 44.0177 246.323 43.2393 246.323 42.5858C246.323 42.467 246.342 42.3685 246.382 42.2827C246.448 42.1835 246.508 41.451 246.567 40.0928C246.626 38.7339 246.811 37.6788 247.114 36.9268C247.279 36.5643 247.596 36.0627 248.057 35.4362C249.219 33.893 249.938 32.8703 250.221 32.3627C250.28 32.2371 250.471 32.1318 250.802 32.0393C251.125 31.9468 251.316 31.8746 251.375 31.8152C251.989 31.3474 252.773 30.9375 253.737 30.5954C254.7 30.2524 255.558 30.0742 256.31 30.0742C257.022 30.0742 257.51 30.2524 257.774 30.5954C257.873 30.7337 257.972 30.8992 258.057 31.0834C258.15 31.2617 258.196 31.5053 258.196 31.8159C258.196 31.9543 258.169 32.0994 258.103 32.2378C258.044 32.383 257.972 32.5416 257.892 32.7259C257.872 32.9109 257.839 33.0951 257.8 33.2862C257.76 33.4839 257.741 33.6163 257.741 33.702C257.741 33.8404 257.774 34.0059 257.833 34.1901C257.853 34.2495 257.926 34.342 258.044 34.4601C258.17 34.5857 258.216 34.691 258.196 34.7962C258.196 34.8948 258.13 34.994 257.999 35.0865C257.866 35.1783 257.794 35.2445 257.775 35.2843C257.465 35.8716 256.983 36.4387 256.31 36.9862C255.908 37.3095 255.354 37.6788 254.668 38.0811C254.463 38.0811 254.259 38.0811 254.061 38.0811C253.797 38.3451 253.467 38.5166 253.071 38.5827C252.676 38.6549 252.233 38.6948 251.745 38.6948C251.178 38.6948 250.868 38.7346 250.829 38.8136L250.407 39.6642L250.222 39.968C250.222 40.2319 250.229 40.4696 250.235 40.6741C250.248 40.8719 250.281 41.0697 250.341 41.2479C250.341 41.2878 250.426 41.3735 250.585 41.4916C250.585 41.5976 250.585 41.6766 250.585 41.7353C250.566 41.8609 250.559 41.9797 250.559 42.1045C250.559 42.388 250.572 42.6061 250.605 42.7708C250.631 42.9355 250.711 43.0746 250.829 43.1995C251.198 43.5627 251.633 43.747 252.141 43.747C252.669 43.747 253.388 43.5033 254.299 43.0152C254.483 42.9558 254.668 42.8964 254.853 42.8302C254.872 42.8693 254.893 42.9882 254.925 43.1799C254.958 43.3777 254.971 43.5296 254.971 43.6552C254.971 44.4464 254.562 45.0668 253.75 45.509C253.731 45.509 253.183 45.7135 252.108 46.1226V46.1211ZM252.293 33.5155C252.088 33.7795 251.818 34.248 251.469 34.9136C251.047 35.725 250.829 36.2853 250.829 36.5891C250.829 36.7538 250.869 36.8463 250.954 36.8666C251.034 36.9057 251.192 36.9328 251.423 36.9591C251.66 36.9786 251.865 36.9854 252.049 36.9854C252.577 36.9854 253.045 36.7809 253.447 36.3785C253.856 35.9694 254.259 35.5671 254.667 35.1587C254.911 34.9805 255.03 34.6112 255.03 34.0638C255.03 33.5163 254.872 33.0876 254.541 32.7838C254.363 32.6056 254.126 32.5138 253.842 32.5138C253.538 32.5138 253.202 32.6522 252.84 32.9357C252.635 33.1004 252.451 33.2922 252.292 33.5163L252.293 33.5155Z" fill="#FEFEFE"/>
<path d="M270.986 30.383C271.045 30.6004 270.92 30.8448 270.617 31.1087C270.518 31.1945 270.346 31.3133 270.102 31.478C270.221 31.5968 270.307 31.7021 270.346 31.7818C270.386 31.8803 270.386 31.9668 270.346 32.0255L269.706 33.2129C269.561 33.3122 269.225 33.2325 268.684 32.9693C268.149 32.7053 267.734 32.5737 267.451 32.5737C267.147 32.5737 266.896 32.6662 266.692 32.8444C266.368 33.1084 266.144 33.3724 266.019 33.6228C265.9 33.88 265.84 34.144 265.84 34.4275C265.84 35.0411 266.547 35.991 267.951 37.2769C269.363 38.5629 270.069 39.6451 270.069 40.522C270.069 40.9047 269.977 41.4124 269.798 42.0388C269.732 42.2434 269.646 42.5269 269.521 42.8969C269.073 43.1142 268.426 43.5301 267.575 44.143C266.639 44.8289 265.709 45.5087 264.772 46.181C264.488 46.2998 264.152 46.366 263.769 46.366C263.097 46.366 262.457 46.2277 261.85 45.9509C261.243 45.6802 260.94 45.3703 260.94 45.0274C260.94 44.9214 260.967 44.8228 261.026 44.7168C261.171 44.519 261.276 44.1761 261.349 43.7016C261.421 43.2263 261.573 42.9623 261.818 42.9232C262.062 42.8834 262.325 42.8307 262.609 42.7713C262.813 42.7713 262.985 42.8172 263.13 42.9097C263.268 43.0022 263.394 43.1796 263.493 43.4444C263.658 43.7474 263.995 43.8993 264.503 43.8993C265.004 43.8993 265.466 43.7542 265.868 43.4707C266.356 43.1278 266.601 42.7119 266.601 42.2238C266.601 42.0591 266.568 41.8877 266.508 41.7094C266.185 40.7137 265.202 39.6188 263.553 38.4178C262.926 37.95 262.61 37.3033 262.61 36.4723C262.61 34.7042 262.94 33.4047 263.586 32.5737C263.79 32.3097 264.127 32.0661 264.588 31.8412C264.694 31.7818 264.7 31.6434 264.621 31.4321C264.542 31.2208 264.529 31.0824 264.588 31.023C264.918 30.6733 265.386 30.4297 266.007 30.271C266.626 30.1191 267.28 30.0469 267.972 30.0469C268.679 30.0469 269.384 30.0995 270.07 30.1988C270.314 30.2183 270.617 30.2777 270.987 30.3838L270.986 30.383Z" fill="#FEFEFE"/>
</svg>
