<svg width="179" height="179" viewBox="0 0 179 179" fill="none" xmlns="http://www.w3.org/2000/svg">
<g filter="url(#filter0_d_302_2787)">
<circle cx="89.5" cy="84.5" r="26.5" fill="#023D6D"/>
</g>
<g clip-path="url(#clip0_302_2787)">
<path d="M81.4006 88.6154C84.0144 91.7398 87.1608 94.1999 90.7519 95.9405C92.1192 96.5885 93.9477 97.3572 95.9849 97.489C96.1112 97.4945 96.232 97.5 96.3583 97.5C97.7256 97.5 98.8238 97.0278 99.7189 96.0558C99.7244 96.0504 99.7354 96.0394 99.7408 96.0284C100.059 95.644 100.422 95.2981 100.801 94.9302C101.059 94.6831 101.322 94.425 101.575 94.1614C102.744 92.9424 102.744 91.3939 101.564 90.2133L98.2637 86.9132C97.7037 86.3311 97.0337 86.0236 96.3309 86.0236C95.628 86.0236 94.9526 86.3311 94.3761 86.9077L92.4102 88.8735C92.229 88.7692 92.0423 88.6758 91.8666 88.588C91.647 88.4781 91.4438 88.3738 91.2626 88.2585C89.4725 87.1218 87.8471 85.6392 86.2932 83.7338C85.5079 82.7399 84.9808 81.9053 84.6129 81.0542C85.1291 80.5874 85.6123 80.0987 86.079 79.621C86.2437 79.4508 86.414 79.2806 86.5842 79.1103C87.1772 78.5173 87.4957 77.8309 87.4957 77.1335C87.4957 76.4362 87.1827 75.7498 86.5842 75.1568L84.9479 73.5204C84.7557 73.3282 84.5745 73.1415 84.3878 72.9493C84.0253 72.5759 83.6465 72.1916 83.2731 71.8456C82.7075 71.291 82.0431 71 81.3402 71C80.6428 71 79.9729 71.291 79.3854 71.8511L77.3317 73.9048C76.5849 74.6516 76.1621 75.5576 76.0742 76.6064C75.9699 77.9188 76.2115 79.3135 76.8375 80.9993C77.7985 83.6075 79.2481 86.0291 81.4006 88.6154ZM77.4141 76.7217C77.48 75.9914 77.76 75.3819 78.2872 74.8547L80.3298 72.8121C80.6483 72.5046 80.9998 72.3453 81.3402 72.3453C81.6752 72.3453 82.0156 72.5046 82.3286 72.823C82.6965 73.1635 83.0424 73.5204 83.4158 73.8993C83.6025 74.0915 83.7947 74.2837 83.9869 74.4814L85.6233 76.1177C85.9637 76.4581 86.1394 76.8041 86.1394 77.1445C86.1394 77.485 85.9637 77.8309 85.6233 78.1714C85.453 78.3416 85.2828 78.5173 85.1126 78.6875C84.6019 79.2037 84.1242 79.6924 83.597 80.1591C83.5861 80.1701 83.5806 80.1756 83.5696 80.1866C83.1138 80.6424 83.1852 81.0761 83.295 81.4056C83.3005 81.4221 83.306 81.4331 83.3115 81.4495C83.7343 82.4654 84.3219 83.4318 85.2389 84.585C86.8862 86.6167 88.6214 88.1926 90.5323 89.4061C90.7684 89.5599 91.021 89.6807 91.2571 89.8015C91.4768 89.9113 91.6799 90.0156 91.8611 90.131C91.8831 90.1419 91.8996 90.1529 91.9215 90.1639C92.1027 90.2573 92.2785 90.3012 92.4542 90.3012C92.8935 90.3012 93.179 90.0211 93.2723 89.9278L95.326 87.8741C95.6445 87.5556 95.9904 87.3854 96.3309 87.3854C96.7482 87.3854 97.0887 87.6435 97.3028 87.8741L100.614 91.1798C101.273 91.8387 101.267 92.5525 100.597 93.2499C100.367 93.497 100.125 93.7331 99.8671 93.9802C99.4828 94.3536 99.0819 94.738 98.7195 95.1718C98.088 95.8527 97.3358 96.1712 96.3638 96.1712C96.2705 96.1712 96.1716 96.1657 96.0783 96.1602C94.2772 96.0449 92.6024 95.342 91.345 94.7435C87.9295 93.0907 84.9314 90.746 82.4439 87.7698C80.3957 85.3043 79.0175 83.009 78.106 80.549C77.5404 79.039 77.3262 77.8254 77.4141 76.7217Z" fill="white"/>
</g>
<defs>
<filter id="filter0_d_302_2787" x="0.5" y="0.5" width="178" height="178" filterUnits="userSpaceOnUse" color-interpolation-filters="sRGB">
<feFlood flood-opacity="0" result="BackgroundImageFix"/>
<feColorMatrix in="SourceAlpha" type="matrix" values="0 0 0 0 0 0 0 0 0 0 0 0 0 0 0 0 0 0 127 0" result="hardAlpha"/>
<feOffset dy="5"/>
<feGaussianBlur stdDeviation="31.25"/>
<feComposite in2="hardAlpha" operator="out"/>
<feColorMatrix type="matrix" values="0 0 0 0 0.145098 0 0 0 0 0.705882 0 0 0 0 0.972549 0 0 0 0.2 0"/>
<feBlend mode="normal" in2="BackgroundImageFix" result="effect1_dropShadow_302_2787"/>
<feBlend mode="normal" in="SourceGraphic" in2="effect1_dropShadow_302_2787" result="shape"/>
</filter>
<clipPath id="clip0_302_2787">
<rect width="26.5" height="26.5" fill="white" transform="translate(76 71)"/>
</clipPath>
</defs>
</svg>
