<svg width="50" height="50" viewBox="0 0 179 179" fill="none" xmlns="http://www.w3.org/2000/svg">
<g filter="url(#filter0_d_238_2580)">
<ellipse cx="89.2209" cy="84.5" rx="26.3419" ry="26.5" fill="#023D6D"/>
</g>
<g clip-path="url(#clip0_238_2580)">
<path d="M96.9812 84.3227L96.9817 84.3217L96.9818 84.3214C96.9824 84.32 96.9852 84.3132 96.9903 84.3006C96.9959 84.2867 97.0039 84.2665 97.0141 84.2404C97.0344 84.1882 97.0632 84.1127 97.0975 84.0176C97.1662 83.8274 97.2572 83.5593 97.348 83.2439C97.5299 82.6118 97.7091 81.796 97.7091 81.0392C97.7091 76.3311 93.9016 72.5017 89.223 72.5017C84.5445 72.5017 80.737 76.3311 80.737 81.0392C80.737 82.5549 81.4547 84.2962 81.4655 84.3225L81.4656 84.3225L81.3731 84.3606L81.4654 84.3222C81.6914 84.864 82.1584 85.7418 82.4819 86.2354L96.9812 84.3227ZM96.9812 84.3227C96.7553 84.8645 96.2883 85.7418 95.9647 86.2354C95.9647 86.2354 95.9647 86.2354 95.9647 86.2355L89.2922 96.4058L89.2922 96.4059M96.9812 84.3227L89.2922 96.4059M89.2922 96.4059C89.2619 96.4522 89.24 96.4819 89.2233 96.5C89.2066 96.4819 89.1847 96.4522 89.1544 96.4059L89.1544 96.4058M89.2922 96.4059L89.1544 96.4058M89.1544 96.4058L82.4819 86.2355L89.1544 96.4058ZM80.2251 84.8462L80.2254 84.8467C80.4836 85.4634 80.9913 86.4177 81.3587 86.979L81.3587 86.9791L88.0306 97.1489C88.3188 97.589 88.7521 97.85 89.223 97.85C89.694 97.85 90.1272 97.589 90.4154 97.1496C90.4154 97.1495 90.4154 97.1495 90.4154 97.1495L97.0879 86.9791L97.0879 86.9791C97.4559 86.4177 97.963 85.4633 98.2213 84.8467L98.2214 84.8464C98.2546 84.7664 99.0539 82.8387 99.0539 81.0392C99.0539 75.5867 94.6445 71.15 89.223 71.15C83.8015 71.15 79.3922 75.5867 79.3922 81.0392C79.3922 82.8257 80.1811 84.7393 80.2243 84.8442L80.2251 84.8462Z" fill="white" stroke="white" stroke-width="0.2"/>
<path d="M89.2219 75.7555C86.3253 75.7555 83.9703 78.126 83.9703 81.038C83.9703 83.95 86.3253 86.3205 89.2219 86.3205C92.1186 86.3205 94.4736 83.95 94.4736 81.038C94.4736 78.126 92.1186 75.7555 89.2219 75.7555ZM89.2219 84.9689C87.0688 84.9689 85.3151 83.2061 85.3151 81.038C85.3151 78.8699 87.0688 77.1071 89.2219 77.1071C91.375 77.1071 93.1287 78.8699 93.1287 81.038C93.1287 83.2061 91.375 84.9689 89.2219 84.9689Z" fill="white" stroke="white" stroke-width="0.2"/>
</g>
<defs>
<filter id="filter0_d_238_2580" x="0.378906" y="0.5" width="177.684" height="178" filterUnits="userSpaceOnUse" color-interpolation-filters="sRGB">
<feFlood flood-opacity="0" result="BackgroundImageFix"/>
<feColorMatrix in="SourceAlpha" type="matrix" values="0 0 0 0 0 0 0 0 0 0 0 0 0 0 0 0 0 0 127 0" result="hardAlpha"/>
<feOffset dy="5"/>
<feGaussianBlur stdDeviation="31.25"/>
<feComposite in2="hardAlpha" operator="out"/>
<feColorMatrix type="matrix" values="0 0 0 0 0.145098 0 0 0 0 0.705882 0 0 0 0 0.972549 0 0 0 0.2 0"/>
<feBlend mode="normal" in2="BackgroundImageFix" result="effect1_dropShadow_238_2580"/>
<feBlend mode="normal" in="SourceGraphic" in2="effect1_dropShadow_238_2580" result="shape"/>
</filter>
<clipPath id="clip0_238_2580">
<rect width="26.3419" height="26.5" fill="white" transform="translate(76.0508 71.25)"/>
</clipPath>
</defs>
</svg>
