<svg width="179" height="179" viewBox="0 0 179 179" fill="none" xmlns="http://www.w3.org/2000/svg">
<g id="Group 1000001124">
<g id="Group 1000001120">
<g id="Group 1000001056">
<g id="Ellipse 1097" filter="url(#filter0_d_400_3179)">
<circle cx="89.5" cy="84.5" r="26.5" fill="#ADFF14"/>
</g>
</g>
</g>
<g id="Group">
<g id="Vector">
<mask id="path-2-inside-1_400_3179" fill="white">
<path d="M99.9463 77H81.0537C79.37 77 78 78.4139 78 80.1517V91.3653C78 93.1031 79.37 94.5171 81.0537 94.5171H99.9463C101.63 94.5171 103 93.1031 103 91.3653V80.1521C103 78.4139 101.63 77 99.9463 77ZM98.4542 79.0562L90.5 84.3453L82.5458 79.0562H98.4542ZM99.9463 92.4613H81.0537C80.4683 92.4613 79.9922 91.9695 79.9922 91.3657V80.2103L89.8854 86.7763C89.8987 86.7849 89.913 86.7907 89.9266 86.7986C89.9409 86.8068 89.9555 86.8147 89.9701 86.8223C90.0468 86.863 90.1258 86.8959 90.2065 86.9175C90.2148 86.9199 90.2231 86.9209 90.2314 86.923C90.32 86.9446 90.4097 86.958 90.4993 86.958C90.5 86.958 90.5013 86.958 90.5013 86.958C90.591 86.958 90.6806 86.9449 90.7693 86.923C90.7776 86.9209 90.7859 86.9199 90.7942 86.9175C90.8749 86.8959 90.9536 86.863 91.0306 86.8223C91.0452 86.8147 91.0598 86.8068 91.0741 86.7986C91.0877 86.7907 91.102 86.7849 91.1153 86.7763L101.008 80.2103V91.3653C101.008 91.9695 100.532 92.4613 99.9463 92.4613Z"/>
</mask>
<path d="M99.9463 77H81.0537C79.37 77 78 78.4139 78 80.1517V91.3653C78 93.1031 79.37 94.5171 81.0537 94.5171H99.9463C101.63 94.5171 103 93.1031 103 91.3653V80.1521C103 78.4139 101.63 77 99.9463 77ZM98.4542 79.0562L90.5 84.3453L82.5458 79.0562H98.4542ZM99.9463 92.4613H81.0537C80.4683 92.4613 79.9922 91.9695 79.9922 91.3657V80.2103L89.8854 86.7763C89.8987 86.7849 89.913 86.7907 89.9266 86.7986C89.9409 86.8068 89.9555 86.8147 89.9701 86.8223C90.0468 86.863 90.1258 86.8959 90.2065 86.9175C90.2148 86.9199 90.2231 86.9209 90.2314 86.923C90.32 86.9446 90.4097 86.958 90.4993 86.958C90.5 86.958 90.5013 86.958 90.5013 86.958C90.591 86.958 90.6806 86.9449 90.7693 86.923C90.7776 86.9209 90.7859 86.9199 90.7942 86.9175C90.8749 86.8959 90.9536 86.863 91.0306 86.8223C91.0452 86.8147 91.0598 86.8068 91.0741 86.7986C91.0877 86.7907 91.102 86.7849 91.1153 86.7763L101.008 80.2103V91.3653C101.008 91.9695 100.532 92.4613 99.9463 92.4613Z" fill="black"/>
<path d="M103 80.1521L87 80.149V80.1521H103ZM98.4542 79.0562L107.314 92.3795L151.412 63.0562H98.4542V79.0562ZM90.5 84.3453L81.6406 97.6686L90.5 103.56L99.3594 97.6686L90.5 84.3453ZM82.5458 79.0562V63.0562H29.5879L73.6865 92.3795L82.5458 79.0562ZM79.9922 80.2103L88.8399 66.8792L63.9922 50.3882V80.2103H79.9922ZM89.8854 86.7763L81.0377 100.107L81.1246 100.165L81.2123 100.222L89.8854 86.7763ZM89.9266 86.7986L81.9096 100.645L81.9248 100.654L81.94 100.663L89.9266 86.7986ZM89.9701 86.8223L97.4814 72.695L97.3948 72.6489L97.3075 72.6039L89.9701 86.8223ZM90.2065 86.9175L94.6486 71.5465L94.4959 71.5024L94.3423 71.4613L90.2065 86.9175ZM90.2314 86.923L86.3844 102.454L86.4149 102.461L86.4455 102.469L90.2314 86.923ZM90.7693 86.923L94.6118 102.455L94.6163 102.454L90.7693 86.923ZM90.7942 86.9175L86.6584 71.4613L86.5048 71.5024L86.3521 71.5465L90.7942 86.9175ZM91.0306 86.8223L83.6931 72.6039L83.6186 72.6423L83.5445 72.6816L91.0306 86.8223ZM91.0741 86.7986L99.0607 100.663L99.0759 100.654L99.0911 100.645L91.0741 86.7986ZM91.1153 86.7763L99.7884 100.222L99.876 100.165L99.9629 100.107L91.1153 86.7763ZM101.008 80.2103H117.008V50.3882L92.1608 66.8792L101.008 80.2103ZM101.008 91.3653L117.008 91.3741V91.3653H101.008ZM99.9463 61H81.0537V93H99.9463V61ZM81.0537 61C70.0605 61 62 70.0578 62 80.1517H94C94 86.7701 88.6794 93 81.0537 93V61ZM62 80.1517V91.3653H94V80.1517H62ZM62 91.3653C62 101.459 70.0605 110.517 81.0537 110.517V78.5171C88.6794 78.5171 94 84.747 94 91.3653H62ZM81.0537 110.517H99.9463V78.5171H81.0537V110.517ZM99.9463 110.517C110.939 110.517 119 101.459 119 91.3653H87C87 84.747 92.3206 78.5171 99.9463 78.5171V110.517ZM119 91.3653V80.1521H87V91.3653H119ZM119 80.1551C119.002 70.0579 110.939 61 99.9463 61V93C92.3214 93 86.9987 86.77 87 80.149L119 80.1551ZM89.5948 65.7328L81.6406 71.0219L99.3594 97.6686L107.314 92.3795L89.5948 65.7328ZM99.3594 71.0219L91.4052 65.7328L73.6865 92.3795L81.6406 97.6686L99.3594 71.0219ZM82.5458 95.0562H98.4542V63.0562H82.5458V95.0562ZM99.9463 76.4613H81.0537V108.461H99.9463V76.4613ZM81.0537 76.4613C89.781 76.4613 95.9922 83.6166 95.9922 91.3657H63.9922C63.9922 100.322 71.1557 108.461 81.0537 108.461V76.4613ZM95.9922 91.3657V80.2103H63.9922V91.3657H95.9922ZM71.1445 93.5415L81.0377 100.107L98.7331 73.4452L88.8399 66.8792L71.1445 93.5415ZM81.2123 100.222C81.6149 100.481 81.961 100.679 82.2046 100.813C82.4386 100.941 82.6257 101.036 82.673 101.06C82.6754 101.061 82.7392 101.093 82.6934 101.07C82.6795 101.063 82.6316 101.039 82.5701 101.007C82.4491 100.944 82.2078 100.818 81.9096 100.645L97.9436 72.952C97.6385 72.7754 97.3903 72.6452 97.2625 72.5792C97.1975 72.5456 97.1461 72.5196 97.1287 72.5108C97.121 72.5069 97.1114 72.5021 97.1157 72.5042C97.1163 72.5045 97.1261 72.5095 97.1387 72.5159C97.1791 72.5363 97.3593 72.6275 97.5865 72.752C97.8232 72.8818 98.1625 73.0756 98.5585 73.331L81.2123 100.222ZM81.94 100.663C82.2095 100.818 82.4462 100.944 82.6326 101.041L97.3075 72.6039C97.4647 72.685 97.6722 72.7957 97.9132 72.9345L81.94 100.663ZM82.4587 100.95C83.3905 101.445 84.6032 101.981 86.0707 102.374L94.3423 71.4613C95.6484 71.8108 96.703 72.2811 97.4814 72.695L82.4587 100.95ZM85.7644 102.289C86.1535 102.401 86.4807 102.48 86.7089 102.531C86.9277 102.58 87.1006 102.614 87.1409 102.622C87.1533 102.624 87.1634 102.626 87.1644 102.626C87.1685 102.627 87.161 102.625 87.1537 102.624C87.1382 102.621 87.0909 102.612 87.0301 102.599C86.9106 102.575 86.6769 102.526 86.3844 102.454L94.0784 71.3924C93.7817 71.3189 93.5438 71.2691 93.4202 71.2439C93.3574 71.2311 93.308 71.2214 93.2904 71.218C93.2821 71.2163 93.2735 71.2147 93.2766 71.2153C93.2769 71.2153 93.2793 71.2158 93.2825 71.2164C93.2858 71.2171 93.2908 71.2181 93.297 71.2193C93.3332 71.2263 93.5018 71.2593 93.7165 71.3075C93.9406 71.3577 94.2636 71.4353 94.6486 71.5465L85.7644 102.289ZM86.4455 102.469C87.4438 102.712 88.8344 102.958 90.4993 102.958V70.958C91.985 70.958 93.1962 71.1774 94.0172 71.3774L86.4455 102.469ZM90.4993 102.958C90.4993 102.958 90.4993 102.958 90.4993 102.958C90.4993 102.958 90.4993 102.958 90.4993 102.958C90.4993 102.958 90.4993 102.958 90.4993 102.958C90.4993 102.958 90.4994 102.958 90.4994 102.958C90.4994 102.958 90.4994 102.958 90.4994 102.958C90.4994 102.958 90.4994 102.958 90.4994 102.958C90.4994 102.958 90.4994 102.958 90.4994 102.958C90.4994 102.958 90.4994 102.958 90.4994 102.958C90.4994 102.958 90.4994 102.958 90.4994 102.958C90.4994 102.958 90.4994 102.958 90.4994 102.958C90.4994 102.958 90.4994 102.958 90.4994 102.958C90.4994 102.958 90.4994 102.958 90.4994 102.958C90.4994 102.958 90.4994 102.958 90.4994 102.958C90.4994 102.958 90.4994 102.958 90.4994 102.958C90.4994 102.958 90.4994 102.958 90.4994 102.958C90.4994 102.958 90.4994 102.958 90.4994 102.958C90.4994 102.958 90.4994 102.958 90.4994 102.958C90.4994 102.958 90.4994 102.958 90.4994 102.958C90.4994 102.958 90.4994 102.958 90.4994 102.958C90.4994 102.958 90.4994 102.958 90.4994 102.958C90.4994 102.958 90.4994 102.958 90.4994 102.958C90.4994 102.958 90.4994 102.958 90.4994 102.958C90.4994 102.958 90.4994 102.958 90.4994 102.958C90.4994 102.958 90.4994 102.958 90.4994 102.958C90.4994 102.958 90.4994 102.958 90.4994 102.958C90.4994 102.958 90.4994 102.958 90.4994 102.958C90.4994 102.958 90.4994 102.958 90.4994 102.958C90.4994 102.958 90.4994 102.958 90.4995 102.958C90.4995 102.958 90.4995 102.958 90.4995 102.958C90.4995 102.958 90.4995 102.958 90.4995 102.958C90.4995 102.958 90.4995 102.958 90.4995 102.958C90.4995 102.958 90.4995 102.958 90.4995 102.958C90.4995 102.958 90.4995 102.958 90.4995 102.958C90.4995 102.958 90.4995 102.958 90.4995 102.958C90.4995 102.958 90.4995 102.958 90.4995 102.958C90.4995 102.958 90.4995 102.958 90.4995 102.958C90.4995 102.958 90.4995 102.958 90.4995 102.958C90.4995 102.958 90.4995 102.958 90.4995 102.958C90.4995 102.958 90.4995 102.958 90.4995 102.958C90.4995 102.958 90.4995 102.958 90.4995 102.958C90.4995 102.958 90.4995 102.958 90.4995 102.958C90.4995 102.958 90.4995 102.958 90.4995 102.958C90.4995 102.958 90.4995 102.958 90.4995 102.958C90.4995 102.958 90.4995 102.958 90.4995 102.958C90.4995 102.958 90.4995 102.958 90.4995 102.958C90.4995 102.958 90.4995 102.958 90.4995 102.958C90.4995 102.958 90.4995 102.958 90.4995 102.958C90.4995 102.958 90.4995 102.958 90.4995 102.958C90.4995 102.958 90.4995 102.958 90.4995 102.958C90.4995 102.958 90.4995 102.958 90.4995 102.958C90.4995 102.958 90.4996 102.958 90.4996 102.958C90.4996 102.958 90.4996 102.958 90.4996 102.958C90.4996 102.958 90.4996 102.958 90.4996 102.958C90.4996 102.958 90.4996 102.958 90.4996 102.958C90.4996 102.958 90.4996 102.958 90.4996 102.958C90.4996 102.958 90.4996 102.958 90.4996 102.958C90.4996 102.958 90.4996 102.958 90.4996 102.958C90.4996 102.958 90.4996 102.958 90.4996 102.958C90.4996 102.958 90.4996 102.958 90.4996 102.958C90.4996 102.958 90.4996 102.958 90.4996 102.958C90.4996 102.958 90.4996 102.958 90.4996 102.958C90.4996 102.958 90.4996 102.958 90.4996 102.958C90.4996 102.958 90.4996 102.958 90.4996 102.958C90.4996 102.958 90.4996 102.958 90.4996 102.958C90.4996 102.958 90.4996 102.958 90.4996 102.958C90.4996 102.958 90.4996 102.958 90.4996 102.958C90.4996 102.958 90.4996 102.958 90.4996 102.958C90.4996 102.958 90.4996 102.958 90.4996 102.958C90.4996 102.958 90.4996 102.958 90.4996 102.958C90.4996 102.958 90.4996 102.958 90.4996 102.958C90.4996 102.958 90.4996 102.958 90.4996 102.958C90.4996 102.958 90.4996 102.958 90.4997 102.958C90.4997 102.958 90.4997 102.958 90.4997 102.958C90.4997 102.958 90.4997 102.958 90.4997 102.958C90.4997 102.958 90.4997 102.958 90.4997 102.958C90.4997 102.958 90.4997 102.958 90.4997 102.958C90.4997 102.958 90.4997 102.958 90.4997 102.958C90.4997 102.958 90.4997 102.958 90.4997 102.958C90.4997 102.958 90.4997 102.958 90.4997 102.958C90.4997 102.958 90.4997 102.958 90.4997 102.958C90.4997 102.958 90.4997 102.958 90.4997 102.958C90.4997 102.958 90.4997 102.958 90.4997 102.958C90.4997 102.958 90.4997 102.958 90.4997 102.958C90.4997 102.958 90.4997 102.958 90.4997 102.958C90.4997 102.958 90.4997 102.958 90.4997 102.958C90.4997 102.958 90.4997 102.958 90.4997 102.958C90.4997 102.958 90.4997 102.958 90.4997 102.958C90.4997 102.958 90.4997 102.958 90.4997 102.958C90.4997 102.958 90.4997 102.958 90.4997 102.958C90.4997 102.958 90.4997 102.958 90.4997 102.958C90.4997 102.958 90.4997 102.958 90.4997 102.958C90.4997 102.958 90.4997 102.958 90.4997 102.958C90.4997 102.958 90.4998 102.958 90.4998 102.958C90.4998 102.958 90.4998 102.958 90.4998 102.958C90.4998 102.958 90.4998 102.958 90.4998 102.958C90.4998 102.958 90.4998 102.958 90.4998 102.958C90.4998 102.958 90.4998 102.958 90.4998 102.958C90.4998 102.958 90.4998 102.958 90.4998 102.958C90.4998 102.958 90.4998 102.958 90.4998 102.958C90.4998 102.958 90.4998 102.958 90.4998 102.958C90.4998 102.958 90.4998 102.958 90.4998 102.958C90.4998 102.958 90.4998 102.958 90.4998 102.958C90.4998 102.958 90.4998 102.958 90.4998 102.958C90.4998 102.958 90.4998 102.958 90.4998 102.958C90.4998 102.958 90.4998 102.958 90.4998 102.958C90.4998 102.958 90.4998 102.958 90.4998 102.958C90.4998 102.958 90.4998 102.958 90.4998 102.958C90.4998 102.958 90.4998 102.958 90.4998 102.958C90.4998 102.958 90.4998 102.958 90.4998 102.958C90.4998 102.958 90.4998 102.958 90.4998 102.958C90.4998 102.958 90.4998 102.958 90.4998 102.958C90.4998 102.958 90.4998 102.958 90.4998 102.958C90.4998 102.958 90.4999 102.958 90.4999 102.958C90.4999 102.958 90.4999 102.958 90.4999 102.958C90.4999 102.958 90.4999 102.958 90.4999 102.958C90.4999 102.958 90.4999 102.958 90.4999 102.958C90.4999 102.958 90.4999 102.958 90.4999 102.958C90.4999 102.958 90.4999 102.958 90.4999 102.958C90.4999 102.958 90.4999 102.958 90.4999 102.958C90.4999 102.958 90.4999 102.958 90.4999 102.958C90.4999 102.958 90.4999 102.958 90.4999 102.958C90.4999 102.958 90.4999 102.958 90.4999 102.958C90.4999 102.958 90.4999 102.958 90.4999 102.958C90.4999 102.958 90.4999 102.958 90.4999 102.958C90.4999 102.958 90.4999 102.958 90.4999 102.958C90.4999 102.958 90.4999 102.958 90.4999 102.958C90.4999 102.958 90.4999 102.958 90.4999 102.958C90.4999 102.958 90.4999 102.958 90.4999 102.958C90.4999 102.958 90.4999 102.958 90.4999 102.958C90.4999 102.958 90.4999 102.958 90.4999 102.958C90.4999 102.958 90.4999 102.958 90.4999 102.958C90.4999 102.958 90.4999 102.958 90.4999 102.958C90.5 102.958 90.5 102.958 90.5 102.958C90.5 102.958 90.5 102.958 90.5 102.958C90.5 102.958 90.5 102.958 90.5 102.958C90.5 102.958 90.5 102.958 90.5 102.958C90.5 102.958 90.5 102.958 90.5 102.958C90.5 102.958 90.5 102.958 90.5 102.958C90.5 102.958 90.5 102.958 90.5 102.958C90.5 102.958 90.5 102.958 90.5 102.958C90.5 102.958 90.5 102.958 90.5 102.958C90.5 102.958 90.5 102.958 90.5 102.958C90.5 102.958 90.5 102.958 90.5 102.958C90.5 102.958 90.5 102.958 90.5 102.958C90.5 102.958 90.5 102.958 90.5 102.958C90.5 102.958 90.5 102.958 90.5 102.958C90.5 102.958 90.5 102.958 90.5 102.958C90.5 102.958 90.5 102.958 90.5 102.958C90.5 102.958 90.5 102.958 90.5 102.958C90.5 102.958 90.5 102.958 90.5 102.958C90.5 102.958 90.5 102.958 90.5 102.958C90.5 102.958 90.5 102.958 90.5001 102.958C90.5001 102.958 90.5001 102.958 90.5001 102.958C90.5001 102.958 90.5001 102.958 90.5001 102.958C90.5001 102.958 90.5001 102.958 90.5001 102.958C90.5001 102.958 90.5001 102.958 90.5001 102.958C90.5001 102.958 90.5001 102.958 90.5001 102.958C90.5001 102.958 90.5001 102.958 90.5001 102.958C90.5001 102.958 90.5001 102.958 90.5001 102.958C90.5001 102.958 90.5001 102.958 90.5001 102.958C90.5001 102.958 90.5001 102.958 90.5001 102.958C90.5001 102.958 90.5001 102.958 90.5001 102.958C90.5001 102.958 90.5001 102.958 90.5001 102.958C90.5001 102.958 90.5001 102.958 90.5001 102.958C90.5001 102.958 90.5001 102.958 90.5001 102.958C90.5001 102.958 90.5001 102.958 90.5001 102.958C90.5001 102.958 90.5001 102.958 90.5001 102.958C90.5001 102.958 90.5001 102.958 90.5001 102.958C90.5001 102.958 90.5001 102.958 90.5001 102.958C90.5001 102.958 90.5001 102.958 90.5001 102.958C90.5001 102.958 90.5001 102.958 90.5001 102.958C90.5002 102.958 90.5002 102.958 90.5002 102.958C90.5002 102.958 90.5002 102.958 90.5002 102.958C90.5002 102.958 90.5002 102.958 90.5002 102.958C90.5002 102.958 90.5002 102.958 90.5002 102.958C90.5002 102.958 90.5002 102.958 90.5002 102.958C90.5002 102.958 90.5002 102.958 90.5002 102.958C90.5002 102.958 90.5002 102.958 90.5002 102.958C90.5002 102.958 90.5002 102.958 90.5002 102.958C90.5002 102.958 90.5002 102.958 90.5002 102.958C90.5002 102.958 90.5002 102.958 90.5002 102.958C90.5002 102.958 90.5002 102.958 90.5002 102.958C90.5002 102.958 90.5002 102.958 90.5002 102.958C90.5002 102.958 90.5002 102.958 90.5002 102.958C90.5002 102.958 90.5002 102.958 90.5002 102.958C90.5002 102.958 90.5002 102.958 90.5002 102.958C90.5002 102.958 90.5002 102.958 90.5002 102.958C90.5002 102.958 90.5002 102.958 90.5002 102.958C90.5002 102.958 90.5002 102.958 90.5002 102.958C90.5002 102.958 90.5002 102.958 90.5002 102.958C90.5002 102.958 90.5003 102.958 90.5003 102.958C90.5003 102.958 90.5003 102.958 90.5003 102.958C90.5003 102.958 90.5003 102.958 90.5003 102.958C90.5003 102.958 90.5003 102.958 90.5003 102.958C90.5003 102.958 90.5003 102.958 90.5003 102.958C90.5003 102.958 90.5003 102.958 90.5003 102.958C90.5003 102.958 90.5003 102.958 90.5003 102.958C90.5003 102.958 90.5003 102.958 90.5003 102.958C90.5003 102.958 90.5003 102.958 90.5003 102.958C90.5003 102.958 90.5003 102.958 90.5003 102.958C90.5003 102.958 90.5003 102.958 90.5003 102.958C90.5003 102.958 90.5003 102.958 90.5003 102.958C90.5003 102.958 90.5003 102.958 90.5003 102.958C90.5003 102.958 90.5003 102.958 90.5003 102.958C90.5003 102.958 90.5003 102.958 90.5003 102.958C90.5003 102.958 90.5003 102.958 90.5003 102.958C90.5003 102.958 90.5003 102.958 90.5003 102.958C90.5003 102.958 90.5003 102.958 90.5003 102.958C90.5003 102.958 90.5003 102.958 90.5003 102.958C90.5003 102.958 90.5003 102.958 90.5004 102.958C90.5004 102.958 90.5004 102.958 90.5004 102.958C90.5004 102.958 90.5004 102.958 90.5004 102.958C90.5004 102.958 90.5004 102.958 90.5004 102.958C90.5004 102.958 90.5004 102.958 90.5004 102.958C90.5004 102.958 90.5004 102.958 90.5004 102.958C90.5004 102.958 90.5004 102.958 90.5004 102.958C90.5004 102.958 90.5004 102.958 90.5004 102.958C90.5004 102.958 90.5004 102.958 90.5004 102.958C90.5004 102.958 90.5004 102.958 90.5004 102.958C90.5004 102.958 90.5004 102.958 90.5004 102.958C90.5004 102.958 90.5004 102.958 90.5004 102.958C90.5004 102.958 90.5004 102.958 90.5004 102.958C90.5004 102.958 90.5004 102.958 90.5004 102.958C90.5004 102.958 90.5004 102.958 90.5004 102.958C90.5004 102.958 90.5004 102.958 90.5004 102.958C90.5004 102.958 90.5004 102.958 90.5004 102.958C90.5004 102.958 90.5004 102.958 90.5004 102.958C90.5004 102.958 90.5004 102.958 90.5004 102.958C90.5004 102.958 90.5004 102.958 90.5004 102.958C90.5004 102.958 90.5005 102.958 90.5005 102.958C90.5005 102.958 90.5005 102.958 90.5005 102.958C90.5005 102.958 90.5005 102.958 90.5005 102.958C90.5005 102.958 90.5005 102.958 90.5005 102.958C90.5005 102.958 90.5005 102.958 90.5005 102.958C90.5005 102.958 90.5005 102.958 90.5005 102.958C90.5005 102.958 90.5005 102.958 90.5005 102.958C90.5005 102.958 90.5005 102.958 90.5005 102.958C90.5005 102.958 90.5005 102.958 90.5005 102.958C90.5005 102.958 90.5005 102.958 90.5005 102.958C90.5005 102.958 90.5005 102.958 90.5005 102.958C90.5005 102.958 90.5005 102.958 90.5005 102.958C90.5005 102.958 90.5005 102.958 90.5005 102.958C90.5005 102.958 90.5005 102.958 90.5005 102.958C90.5005 102.958 90.5005 102.958 90.5005 102.958C90.5005 102.958 90.5005 102.958 90.5005 102.958C90.5005 102.958 90.5005 102.958 90.5005 102.958C90.5005 102.958 90.5005 102.958 90.5005 102.958C90.5005 102.958 90.5005 102.958 90.5005 102.958C90.5005 102.958 90.5005 102.958 90.5005 102.958C90.5005 102.958 90.5006 102.958 90.5006 102.958C90.5006 102.958 90.5006 102.958 90.5006 102.958C90.5006 102.958 90.5006 102.958 90.5006 102.958C90.5006 102.958 90.5006 102.958 90.5006 102.958C90.5006 102.958 90.5006 102.958 90.5006 102.958C90.5006 102.958 90.5006 102.958 90.5006 102.958C90.5006 102.958 90.5006 102.958 90.5006 102.958C90.5006 102.958 90.5006 102.958 90.5006 102.958C90.5006 102.958 90.5006 102.958 90.5006 102.958C90.5006 102.958 90.5006 102.958 90.5006 102.958C90.5006 102.958 90.5006 102.958 90.5006 102.958C90.5006 102.958 90.5006 102.958 90.5006 102.958C90.5006 102.958 90.5006 102.958 90.5006 102.958C90.5006 102.958 90.5006 102.958 90.5006 102.958C90.5006 102.958 90.5006 102.958 90.5006 102.958C90.5006 102.958 90.5006 102.958 90.5006 102.958C90.5006 102.958 90.5006 102.958 90.5006 102.958C90.5006 102.958 90.5006 102.958 90.5006 102.958C90.5006 102.958 90.5006 102.958 90.5006 102.958C90.5006 102.958 90.5006 102.958 90.5006 102.958C90.5006 102.958 90.5006 102.958 90.5006 102.958C90.5007 102.958 90.5007 102.958 90.5007 102.958C90.5007 102.958 90.5007 102.958 90.5007 102.958C90.5007 102.958 90.5007 102.958 90.5007 102.958C90.5007 102.958 90.5007 102.958 90.5007 102.958C90.5007 102.958 90.5007 102.958 90.5007 102.958C90.5007 102.958 90.5007 102.958 90.5007 102.958C90.5007 102.958 90.5007 102.958 90.5007 102.958C90.5007 102.958 90.5007 102.958 90.5007 102.958C90.5007 102.958 90.5007 102.958 90.5007 102.958C90.5007 102.958 90.5007 102.958 90.5007 102.958C90.5007 102.958 90.5007 102.958 90.5007 102.958C90.5007 102.958 90.5007 102.958 90.5007 102.958C90.5007 102.958 90.5007 102.958 90.5007 102.958C90.5007 102.958 90.5007 102.958 90.5007 102.958C90.5007 102.958 90.5007 102.958 90.5007 102.958C90.5007 102.958 90.5007 102.958 90.5007 102.958C90.5007 102.958 90.5007 102.958 90.5007 102.958C90.5007 102.958 90.5007 102.958 90.5007 102.958C90.5007 102.958 90.5007 102.958 90.5007 102.958C90.5007 102.958 90.5007 102.958 90.5007 102.958C90.5007 102.958 90.5007 102.958 90.5007 102.958C90.5007 102.958 90.5007 102.958 90.5008 102.958C90.5008 102.958 90.5008 102.958 90.5008 102.958C90.5008 102.958 90.5008 102.958 90.5008 102.958C90.5008 102.958 90.5008 102.958 90.5008 102.958C90.5008 102.958 90.5008 102.958 90.5008 102.958C90.5008 102.958 90.5008 102.958 90.5008 102.958C90.5008 102.958 90.5008 102.958 90.5008 102.958C90.5008 102.958 90.5008 102.958 90.5008 102.958C90.5008 102.958 90.5008 102.958 90.5008 102.958C90.5008 102.958 90.5008 102.958 90.5008 102.958C90.5008 102.958 90.5008 102.958 90.5008 102.958C90.5008 102.958 90.5008 102.958 90.5008 102.958C90.5008 102.958 90.5008 102.958 90.5008 102.958C90.5008 102.958 90.5008 102.958 90.5008 102.958C90.5008 102.958 90.5008 102.958 90.5008 102.958C90.5008 102.958 90.5008 102.958 90.5008 102.958C90.5008 102.958 90.5008 102.958 90.5008 102.958C90.5008 102.958 90.5008 102.958 90.5008 102.958C90.5008 102.958 90.5008 102.958 90.5008 102.958C90.5008 102.958 90.5008 102.958 90.5008 102.958C90.5008 102.958 90.5008 102.958 90.5008 102.958C90.5008 102.958 90.5008 102.958 90.5008 102.958C90.5008 102.958 90.5008 102.958 90.5008 102.958C90.5008 102.958 90.5009 102.958 90.5009 102.958C90.5009 102.958 90.5009 102.958 90.5009 102.958C90.5009 102.958 90.5009 102.958 90.5009 102.958C90.5009 102.958 90.5009 102.958 90.5009 102.958C90.5009 102.958 90.5009 102.958 90.5009 102.958C90.5009 102.958 90.5009 102.958 90.5009 102.958C90.5009 102.958 90.5009 102.958 90.5009 102.958C90.5009 102.958 90.5009 102.958 90.5009 102.958C90.5009 102.958 90.5009 102.958 90.5009 102.958C90.5009 102.958 90.5009 102.958 90.5009 102.958C90.5009 102.958 90.5009 102.958 90.5009 102.958C90.5009 102.958 90.5009 102.958 90.5009 102.958C90.5009 102.958 90.5009 102.958 90.5009 102.958C90.5009 102.958 90.5009 102.958 90.5009 102.958C90.5009 102.958 90.5009 102.958 90.5009 102.958C90.5009 102.958 90.5009 102.958 90.5009 102.958C90.5009 102.958 90.5009 102.958 90.5009 102.958C90.5009 102.958 90.5009 102.958 90.5009 102.958C90.5009 102.958 90.5009 102.958 90.5009 102.958C90.5009 102.958 90.5009 102.958 90.5009 102.958C90.5009 102.958 90.5009 102.958 90.5009 102.958C90.5009 102.958 90.5009 102.958 90.5009 102.958C90.5009 102.958 90.5009 102.958 90.5009 102.958C90.5009 102.958 90.5009 102.958 90.5009 102.958C90.5009 102.958 90.5009 102.958 90.501 102.958C90.501 102.958 90.501 102.958 90.501 102.958C90.501 102.958 90.501 102.958 90.501 102.958C90.501 102.958 90.501 102.958 90.501 102.958C90.501 102.958 90.501 102.958 90.501 102.958C90.501 102.958 90.501 102.958 90.501 102.958C90.501 102.958 90.501 102.958 90.501 102.958C90.501 102.958 90.501 102.958 90.501 102.958C90.501 102.958 90.501 102.958 90.501 102.958C90.501 102.958 90.501 102.958 90.501 102.958C90.501 102.958 90.501 102.958 90.501 102.958C90.501 102.958 90.501 102.958 90.501 102.958C90.501 102.958 90.501 102.958 90.501 102.958C90.501 102.958 90.501 102.958 90.501 102.958C90.501 102.958 90.501 102.958 90.501 102.958C90.501 102.958 90.501 102.958 90.501 102.958C90.501 102.958 90.501 102.958 90.501 102.958C90.501 102.958 90.501 102.958 90.501 102.958C90.501 102.958 90.501 102.958 90.501 102.958C90.501 102.958 90.501 102.958 90.501 102.958C90.501 102.958 90.501 102.958 90.501 102.958C90.501 102.958 90.501 102.958 90.501 102.958C90.501 102.958 90.501 102.958 90.501 102.958C90.501 102.958 90.501 102.958 90.501 102.958C90.501 102.958 90.501 102.958 90.501 102.958C90.501 102.958 90.501 102.958 90.501 102.958C90.501 102.958 90.501 102.958 90.501 102.958C90.501 102.958 90.501 102.958 90.5011 102.958C90.5011 102.958 90.5011 102.958 90.5011 102.958C90.5011 102.958 90.5011 102.958 90.5011 102.958C90.5011 102.958 90.5011 102.958 90.5011 102.958C90.5011 102.958 90.5011 102.958 90.5011 102.958C90.5011 102.958 90.5011 102.958 90.5011 102.958C90.5011 102.958 90.5011 102.958 90.5011 102.958C90.5011 102.958 90.5011 102.958 90.5011 102.958C90.5011 102.958 90.5011 102.958 90.5011 102.958C90.5011 102.958 90.5011 102.958 90.5011 102.958C90.5011 102.958 90.5011 102.958 90.5011 102.958C90.5011 102.958 90.5011 102.958 90.5011 102.958C90.5011 102.958 90.5011 102.958 90.5011 102.958C90.5011 102.958 90.5011 102.958 90.5011 102.958C90.5011 102.958 90.5011 102.958 90.5011 102.958C90.5011 102.958 90.5011 102.958 90.5011 102.958C90.5011 102.958 90.5011 102.958 90.5011 102.958C90.5011 102.958 90.5011 102.958 90.5011 102.958C90.5011 102.958 90.5011 102.958 90.5011 102.958C90.5011 102.958 90.5011 102.958 90.5011 102.958C90.5011 102.958 90.5011 102.958 90.5011 102.958C90.5011 102.958 90.5011 102.958 90.5011 102.958C90.5011 102.958 90.5011 102.958 90.5011 102.958C90.5011 102.958 90.5011 102.958 90.5011 102.958C90.5011 102.958 90.5011 102.958 90.5011 102.958C90.5011 102.958 90.5011 102.958 90.5011 102.958C90.5011 102.958 90.5011 102.958 90.5011 102.958C90.5011 102.958 90.5011 102.958 90.5011 102.958C90.5011 102.958 90.5011 102.958 90.5011 102.958C90.5011 102.958 90.5011 102.958 90.5011 102.958C90.5011 102.958 90.5011 102.958 90.5011 102.958C90.5011 102.958 90.5012 102.958 90.5012 102.958C90.5012 102.958 90.5012 102.958 90.5012 102.958C90.5012 102.958 90.5012 102.958 90.5012 102.958C90.5012 102.958 90.5012 102.958 90.5012 102.958C90.5012 102.958 90.5012 102.958 90.5012 102.958C90.5012 102.958 90.5012 102.958 90.5012 102.958C90.5012 102.958 90.5012 102.958 90.5012 102.958C90.5012 102.958 90.5012 102.958 90.5012 102.958C90.5012 102.958 90.5012 102.958 90.5012 102.958C90.5012 102.958 90.5012 102.958 90.5012 102.958C90.5012 102.958 90.5012 102.958 90.5012 102.958C90.5012 102.958 90.5012 102.958 90.5012 102.958C90.5012 102.958 90.5012 102.958 90.5012 102.958C90.5012 102.958 90.5012 102.958 90.5012 102.958C90.5012 102.958 90.5012 102.958 90.5012 102.958C90.5012 102.958 90.5012 102.958 90.5012 102.958C90.5012 102.958 90.5012 102.958 90.5012 102.958C90.5012 102.958 90.5012 102.958 90.5012 102.958C90.5012 102.958 90.5012 102.958 90.5012 102.958C90.5012 102.958 90.5012 102.958 90.5012 102.958C90.5012 102.958 90.5012 102.958 90.5012 102.958C90.5012 102.958 90.5012 102.958 90.5012 102.958C90.5012 102.958 90.5012 102.958 90.5012 102.958C90.5012 102.958 90.5012 102.958 90.5012 102.958C90.5012 102.958 90.5012 102.958 90.5012 102.958C90.5012 102.958 90.5012 102.958 90.5012 102.958C90.5012 102.958 90.5012 102.958 90.5012 102.958C90.5012 102.958 90.5012 102.958 90.5012 102.958C90.5012 102.958 90.5012 102.958 90.5012 102.958C90.5012 102.958 90.5012 102.958 90.5012 102.958C90.5012 102.958 90.5012 102.958 90.5012 102.958C90.5012 102.958 90.5012 102.958 90.5012 102.958C90.5012 102.958 90.5012 102.958 90.5012 102.958C90.5012 102.958 90.5012 102.958 90.5012 102.958C90.5012 102.958 90.5012 102.958 90.5012 102.958C90.5012 102.958 90.5012 102.958 90.5012 102.958C90.5012 102.958 90.5012 102.958 90.5012 102.958C90.5012 102.958 90.5012 102.958 90.5012 102.958C90.5012 102.958 90.5012 102.958 90.5012 102.958C90.5012 102.958 90.5012 102.958 90.5012 102.958C90.5012 102.958 90.5012 102.958 90.5013 102.958C90.5013 102.958 90.5013 102.958 90.5013 102.958C90.5013 102.958 90.5013 102.958 90.5013 102.958C90.5013 102.958 90.5013 102.958 90.5013 102.958C90.5013 102.958 90.5013 102.958 90.5013 102.958C90.5013 102.958 90.5013 102.958 90.5013 102.958C90.5013 102.958 90.5013 102.958 90.5013 102.958C90.5013 102.958 90.5013 102.958 90.5013 102.958C90.5013 102.958 90.5013 102.958 90.5013 102.958C90.5013 102.958 90.5013 102.958 90.5013 102.958C90.5013 102.958 90.5013 102.958 90.5013 102.958C90.5013 102.958 90.5013 102.958 90.5013 102.958H90.5013C90.5013 102.958 90.5013 102.958 90.5013 102.958C90.5013 102.958 90.5013 102.958 90.5013 102.958C90.5013 102.958 90.5013 102.958 90.5013 102.958H90.5013C90.5013 102.958 90.5013 102.958 90.5013 102.958C90.5013 102.958 90.5013 102.958 90.5013 102.958H90.5013C90.5013 102.958 90.5013 102.958 90.5013 102.958C90.5013 102.958 90.5013 102.958 90.5013 102.958H90.5013C90.5013 102.958 90.5013 102.958 90.5013 102.958H90.5013C90.5013 102.958 90.5013 102.958 90.5013 102.958H90.5013C90.5013 102.958 90.5013 102.958 90.5013 102.958H90.5013C90.5013 102.958 90.5013 102.958 90.5013 102.958C90.5013 102.958 90.5013 102.958 90.5013 102.958H90.5013C90.5013 102.958 90.5013 102.958 90.5013 102.958C90.5013 102.958 90.5013 102.958 90.5013 102.958H90.5013H90.5013C90.5013 102.958 90.5013 102.958 90.5013 102.958C90.5013 102.958 90.5013 102.958 90.5013 102.958C90.5013 102.958 90.5013 102.958 90.5013 102.958C90.5013 102.958 90.5013 102.958 90.5013 102.958H90.5013H90.5013H90.5013H90.5013H90.5013H90.5013C90.5013 102.958 90.5013 102.958 90.5013 102.958C90.5013 102.958 90.5013 102.958 90.5013 102.958C90.5013 102.958 90.5013 102.958 90.5013 102.958C90.5013 102.958 90.5013 102.958 90.5013 102.958H90.5013C90.5013 102.958 90.5013 102.958 90.5013 102.958H90.5013C90.5013 102.958 90.5013 102.958 90.5013 102.958C90.5013 102.958 90.5013 102.958 90.5013 102.958H90.5013H90.5013C90.5013 102.958 90.5013 102.958 90.5013 102.958C90.5013 102.958 90.5013 102.958 90.5013 102.958C90.5013 102.958 90.5013 102.958 90.5013 102.958C90.5013 102.958 90.5013 102.958 90.5013 86.958C90.5013 70.958 90.5013 70.958 90.5013 70.958C90.5013 70.958 90.5013 70.958 90.5013 70.958C90.5013 70.958 90.5013 70.958 90.5013 70.958C90.5013 70.958 90.5013 70.958 90.5013 70.958H90.5013H90.5013C90.5013 70.958 90.5013 70.958 90.5013 70.958C90.5013 70.958 90.5013 70.958 90.5013 70.958H90.5013C90.5013 70.958 90.5013 70.958 90.5013 70.958H90.5013C90.5013 70.958 90.5013 70.958 90.5013 70.958C90.5013 70.958 90.5013 70.958 90.5013 70.958C90.5013 70.958 90.5013 70.958 90.5013 70.958C90.5013 70.958 90.5013 70.958 90.5013 70.958H90.5013H90.5013H90.5013H90.5013H90.5013H90.5013C90.5013 70.958 90.5013 70.958 90.5013 70.958C90.5013 70.958 90.5013 70.958 90.5013 70.958C90.5013 70.958 90.5013 70.958 90.5013 70.958C90.5013 70.958 90.5013 70.958 90.5013 70.958H90.5013H90.5013C90.5013 70.958 90.5013 70.958 90.5013 70.958C90.5013 70.958 90.5013 70.958 90.5013 70.958H90.5013C90.5013 70.958 90.5013 70.958 90.5013 70.958C90.5013 70.958 90.5013 70.958 90.5013 70.958H90.5013C90.5013 70.958 90.5013 70.958 90.5013 70.958H90.5013C90.5013 70.958 90.5013 70.958 90.5013 70.958H90.5013C90.5013 70.958 90.5013 70.958 90.5013 70.958H90.5013C90.5013 70.958 90.5013 70.958 90.5013 70.958C90.5013 70.958 90.5013 70.958 90.5013 70.958H90.5013C90.5013 70.958 90.5013 70.958 90.5013 70.958C90.5013 70.958 90.5013 70.958 90.5013 70.958H90.5013C90.5013 70.958 90.5013 70.958 90.5013 70.958C90.5013 70.958 90.5013 70.958 90.5013 70.958C90.5013 70.958 90.5013 70.958 90.5013 70.958H90.5013C90.5013 70.958 90.5013 70.958 90.5013 70.958C90.5013 70.958 90.5013 70.958 90.5013 70.958C90.5013 70.958 90.5013 70.958 90.5013 70.958C90.5013 70.958 90.5013 70.958 90.5013 70.958C90.5013 70.958 90.5013 70.958 90.5013 70.958C90.5013 70.958 90.5013 70.958 90.5013 70.958C90.5013 70.958 90.5013 70.958 90.5013 70.958C90.5013 70.958 90.5013 70.958 90.5013 70.958C90.5013 70.958 90.5013 70.958 90.5013 70.958C90.5013 70.958 90.5013 70.958 90.5013 70.958C90.5013 70.958 90.5013 70.958 90.5013 70.958C90.5012 70.958 90.5012 70.958 90.5012 70.958C90.5012 70.958 90.5012 70.958 90.5012 70.958C90.5012 70.958 90.5012 70.958 90.5012 70.958C90.5012 70.958 90.5012 70.958 90.5012 70.958C90.5012 70.958 90.5012 70.958 90.5012 70.958C90.5012 70.958 90.5012 70.958 90.5012 70.958C90.5012 70.958 90.5012 70.958 90.5012 70.958C90.5012 70.958 90.5012 70.958 90.5012 70.958C90.5012 70.958 90.5012 70.958 90.5012 70.958C90.5012 70.958 90.5012 70.958 90.5012 70.958C90.5012 70.958 90.5012 70.958 90.5012 70.958C90.5012 70.958 90.5012 70.958 90.5012 70.958C90.5012 70.958 90.5012 70.958 90.5012 70.958C90.5012 70.958 90.5012 70.958 90.5012 70.958C90.5012 70.958 90.5012 70.958 90.5012 70.958C90.5012 70.958 90.5012 70.958 90.5012 70.958C90.5012 70.958 90.5012 70.958 90.5012 70.958C90.5012 70.958 90.5012 70.958 90.5012 70.958C90.5012 70.958 90.5012 70.958 90.5012 70.958C90.5012 70.958 90.5012 70.958 90.5012 70.958C90.5012 70.958 90.5012 70.958 90.5012 70.958C90.5012 70.958 90.5012 70.958 90.5012 70.958C90.5012 70.958 90.5012 70.958 90.5012 70.958C90.5012 70.958 90.5012 70.958 90.5012 70.958C90.5012 70.958 90.5012 70.958 90.5012 70.958C90.5012 70.958 90.5012 70.958 90.5012 70.958C90.5012 70.958 90.5012 70.958 90.5012 70.958C90.5012 70.958 90.5012 70.958 90.5012 70.958C90.5012 70.958 90.5012 70.958 90.5012 70.958C90.5012 70.958 90.5012 70.958 90.5012 70.958C90.5012 70.958 90.5012 70.958 90.5012 70.958C90.5012 70.958 90.5012 70.958 90.5012 70.958C90.5012 70.958 90.5012 70.958 90.5012 70.958C90.5012 70.958 90.5012 70.958 90.5012 70.958C90.5012 70.958 90.5012 70.958 90.5012 70.958C90.5012 70.958 90.5012 70.958 90.5012 70.958C90.5012 70.958 90.5012 70.958 90.5012 70.958C90.5012 70.958 90.5012 70.958 90.5012 70.958C90.5012 70.958 90.5012 70.958 90.5012 70.958C90.5012 70.958 90.5012 70.958 90.5012 70.958C90.5012 70.958 90.5011 70.958 90.5011 70.958C90.5011 70.958 90.5011 70.958 90.5011 70.958C90.5011 70.958 90.5011 70.958 90.5011 70.958C90.5011 70.958 90.5011 70.958 90.5011 70.958C90.5011 70.958 90.5011 70.958 90.5011 70.958C90.5011 70.958 90.5011 70.958 90.5011 70.958C90.5011 70.958 90.5011 70.958 90.5011 70.958C90.5011 70.958 90.5011 70.958 90.5011 70.958C90.5011 70.958 90.5011 70.958 90.5011 70.958C90.5011 70.958 90.5011 70.958 90.5011 70.958C90.5011 70.958 90.5011 70.958 90.5011 70.958C90.5011 70.958 90.5011 70.958 90.5011 70.958C90.5011 70.958 90.5011 70.958 90.5011 70.958C90.5011 70.958 90.5011 70.958 90.5011 70.958C90.5011 70.958 90.5011 70.958 90.5011 70.958C90.5011 70.958 90.5011 70.958 90.5011 70.958C90.5011 70.958 90.5011 70.958 90.5011 70.958C90.5011 70.958 90.5011 70.958 90.5011 70.958C90.5011 70.958 90.5011 70.958 90.5011 70.958C90.5011 70.958 90.5011 70.958 90.5011 70.958C90.5011 70.958 90.5011 70.958 90.5011 70.958C90.5011 70.958 90.5011 70.958 90.5011 70.958C90.5011 70.958 90.5011 70.958 90.5011 70.958C90.5011 70.958 90.5011 70.958 90.5011 70.958C90.5011 70.958 90.5011 70.958 90.5011 70.958C90.5011 70.958 90.5011 70.958 90.5011 70.958C90.5011 70.958 90.5011 70.958 90.5011 70.958C90.5011 70.958 90.5011 70.958 90.5011 70.958C90.5011 70.958 90.5011 70.958 90.5011 70.958C90.5011 70.958 90.5011 70.958 90.5011 70.958C90.5011 70.958 90.5011 70.958 90.5011 70.958C90.501 70.958 90.501 70.958 90.501 70.958C90.501 70.958 90.501 70.958 90.501 70.958C90.501 70.958 90.501 70.958 90.501 70.958C90.501 70.958 90.501 70.958 90.501 70.958C90.501 70.958 90.501 70.958 90.501 70.958C90.501 70.958 90.501 70.958 90.501 70.958C90.501 70.958 90.501 70.958 90.501 70.958C90.501 70.958 90.501 70.958 90.501 70.958C90.501 70.958 90.501 70.958 90.501 70.958C90.501 70.958 90.501 70.958 90.501 70.958C90.501 70.958 90.501 70.958 90.501 70.958C90.501 70.958 90.501 70.958 90.501 70.958C90.501 70.958 90.501 70.958 90.501 70.958C90.501 70.958 90.501 70.958 90.501 70.958C90.501 70.958 90.501 70.958 90.501 70.958C90.501 70.958 90.501 70.958 90.501 70.958C90.501 70.958 90.501 70.958 90.501 70.958C90.501 70.958 90.501 70.958 90.501 70.958C90.501 70.958 90.501 70.958 90.501 70.958C90.501 70.958 90.501 70.958 90.501 70.958C90.501 70.958 90.501 70.958 90.501 70.958C90.501 70.958 90.501 70.958 90.501 70.958C90.501 70.958 90.501 70.958 90.501 70.958C90.501 70.958 90.501 70.958 90.501 70.958C90.501 70.958 90.501 70.958 90.501 70.958C90.501 70.958 90.501 70.958 90.501 70.958C90.501 70.958 90.501 70.958 90.501 70.958C90.5009 70.958 90.5009 70.958 90.5009 70.958C90.5009 70.958 90.5009 70.958 90.5009 70.958C90.5009 70.958 90.5009 70.958 90.5009 70.958C90.5009 70.958 90.5009 70.958 90.5009 70.958C90.5009 70.958 90.5009 70.958 90.5009 70.958C90.5009 70.958 90.5009 70.958 90.5009 70.958C90.5009 70.958 90.5009 70.958 90.5009 70.958C90.5009 70.958 90.5009 70.958 90.5009 70.958C90.5009 70.958 90.5009 70.958 90.5009 70.958C90.5009 70.958 90.5009 70.958 90.5009 70.958C90.5009 70.958 90.5009 70.958 90.5009 70.958C90.5009 70.958 90.5009 70.958 90.5009 70.958C90.5009 70.958 90.5009 70.958 90.5009 70.958C90.5009 70.958 90.5009 70.958 90.5009 70.958C90.5009 70.958 90.5009 70.958 90.5009 70.958C90.5009 70.958 90.5009 70.958 90.5009 70.958C90.5009 70.958 90.5009 70.958 90.5009 70.958C90.5009 70.958 90.5009 70.958 90.5009 70.958C90.5009 70.958 90.5009 70.958 90.5009 70.958C90.5009 70.958 90.5009 70.958 90.5009 70.958C90.5009 70.958 90.5009 70.958 90.5009 70.958C90.5009 70.958 90.5009 70.958 90.5009 70.958C90.5009 70.958 90.5009 70.958 90.5009 70.958C90.5009 70.958 90.5009 70.958 90.5009 70.958C90.5009 70.958 90.5008 70.958 90.5008 70.958C90.5008 70.958 90.5008 70.958 90.5008 70.958C90.5008 70.958 90.5008 70.958 90.5008 70.958C90.5008 70.958 90.5008 70.958 90.5008 70.958C90.5008 70.958 90.5008 70.958 90.5008 70.958C90.5008 70.958 90.5008 70.958 90.5008 70.958C90.5008 70.958 90.5008 70.958 90.5008 70.958C90.5008 70.958 90.5008 70.958 90.5008 70.958C90.5008 70.958 90.5008 70.958 90.5008 70.958C90.5008 70.958 90.5008 70.958 90.5008 70.958C90.5008 70.958 90.5008 70.958 90.5008 70.958C90.5008 70.958 90.5008 70.958 90.5008 70.958C90.5008 70.958 90.5008 70.958 90.5008 70.958C90.5008 70.958 90.5008 70.958 90.5008 70.958C90.5008 70.958 90.5008 70.958 90.5008 70.958C90.5008 70.958 90.5008 70.958 90.5008 70.958C90.5008 70.958 90.5008 70.958 90.5008 70.958C90.5008 70.958 90.5008 70.958 90.5008 70.958C90.5008 70.958 90.5008 70.958 90.5008 70.958C90.5008 70.958 90.5008 70.958 90.5008 70.958C90.5008 70.958 90.5008 70.958 90.5008 70.958C90.5008 70.958 90.5008 70.958 90.5008 70.958C90.5008 70.958 90.5008 70.958 90.5008 70.958C90.5007 70.958 90.5007 70.958 90.5007 70.958C90.5007 70.958 90.5007 70.958 90.5007 70.958C90.5007 70.958 90.5007 70.958 90.5007 70.958C90.5007 70.958 90.5007 70.958 90.5007 70.958C90.5007 70.958 90.5007 70.958 90.5007 70.958C90.5007 70.958 90.5007 70.958 90.5007 70.958C90.5007 70.958 90.5007 70.958 90.5007 70.958C90.5007 70.958 90.5007 70.958 90.5007 70.958C90.5007 70.958 90.5007 70.958 90.5007 70.958C90.5007 70.958 90.5007 70.958 90.5007 70.958C90.5007 70.958 90.5007 70.958 90.5007 70.958C90.5007 70.958 90.5007 70.958 90.5007 70.958C90.5007 70.958 90.5007 70.958 90.5007 70.958C90.5007 70.958 90.5007 70.958 90.5007 70.958C90.5007 70.958 90.5007 70.958 90.5007 70.958C90.5007 70.958 90.5007 70.958 90.5007 70.958C90.5007 70.958 90.5007 70.958 90.5007 70.958C90.5007 70.958 90.5007 70.958 90.5007 70.958C90.5007 70.958 90.5007 70.958 90.5007 70.958C90.5007 70.958 90.5007 70.958 90.5007 70.958C90.5007 70.958 90.5007 70.958 90.5007 70.958C90.5007 70.958 90.5007 70.958 90.5006 70.958C90.5006 70.958 90.5006 70.958 90.5006 70.958C90.5006 70.958 90.5006 70.958 90.5006 70.958C90.5006 70.958 90.5006 70.958 90.5006 70.958C90.5006 70.958 90.5006 70.958 90.5006 70.958C90.5006 70.958 90.5006 70.958 90.5006 70.958C90.5006 70.958 90.5006 70.958 90.5006 70.958C90.5006 70.958 90.5006 70.958 90.5006 70.958C90.5006 70.958 90.5006 70.958 90.5006 70.958C90.5006 70.958 90.5006 70.958 90.5006 70.958C90.5006 70.958 90.5006 70.958 90.5006 70.958C90.5006 70.958 90.5006 70.958 90.5006 70.958C90.5006 70.958 90.5006 70.958 90.5006 70.958C90.5006 70.958 90.5006 70.958 90.5006 70.958C90.5006 70.958 90.5006 70.958 90.5006 70.958C90.5006 70.958 90.5006 70.958 90.5006 70.958C90.5006 70.958 90.5006 70.958 90.5006 70.958C90.5006 70.958 90.5006 70.958 90.5006 70.958C90.5006 70.958 90.5006 70.958 90.5006 70.958C90.5006 70.958 90.5006 70.958 90.5006 70.958C90.5006 70.958 90.5006 70.958 90.5006 70.958C90.5006 70.958 90.5005 70.958 90.5005 70.958C90.5005 70.958 90.5005 70.958 90.5005 70.958C90.5005 70.958 90.5005 70.958 90.5005 70.958C90.5005 70.958 90.5005 70.958 90.5005 70.958C90.5005 70.958 90.5005 70.958 90.5005 70.958C90.5005 70.958 90.5005 70.958 90.5005 70.958C90.5005 70.958 90.5005 70.958 90.5005 70.958C90.5005 70.958 90.5005 70.958 90.5005 70.958C90.5005 70.958 90.5005 70.958 90.5005 70.958C90.5005 70.958 90.5005 70.958 90.5005 70.958C90.5005 70.958 90.5005 70.958 90.5005 70.958C90.5005 70.958 90.5005 70.958 90.5005 70.958C90.5005 70.958 90.5005 70.958 90.5005 70.958C90.5005 70.958 90.5005 70.958 90.5005 70.958C90.5005 70.958 90.5005 70.958 90.5005 70.958C90.5005 70.958 90.5005 70.958 90.5005 70.958C90.5005 70.958 90.5005 70.958 90.5005 70.958C90.5005 70.958 90.5005 70.958 90.5005 70.958C90.5005 70.958 90.5005 70.958 90.5005 70.958C90.5005 70.958 90.5005 70.958 90.5005 70.958C90.5005 70.958 90.5004 70.958 90.5004 70.958C90.5004 70.958 90.5004 70.958 90.5004 70.958C90.5004 70.958 90.5004 70.958 90.5004 70.958C90.5004 70.958 90.5004 70.958 90.5004 70.958C90.5004 70.958 90.5004 70.958 90.5004 70.958C90.5004 70.958 90.5004 70.958 90.5004 70.958C90.5004 70.958 90.5004 70.958 90.5004 70.958C90.5004 70.958 90.5004 70.958 90.5004 70.958C90.5004 70.958 90.5004 70.958 90.5004 70.958C90.5004 70.958 90.5004 70.958 90.5004 70.958C90.5004 70.958 90.5004 70.958 90.5004 70.958C90.5004 70.958 90.5004 70.958 90.5004 70.958C90.5004 70.958 90.5004 70.958 90.5004 70.958C90.5004 70.958 90.5004 70.958 90.5004 70.958C90.5004 70.958 90.5004 70.958 90.5004 70.958C90.5004 70.958 90.5004 70.958 90.5004 70.958C90.5004 70.958 90.5004 70.958 90.5004 70.958C90.5004 70.958 90.5004 70.958 90.5004 70.958C90.5004 70.958 90.5004 70.958 90.5004 70.958C90.5004 70.958 90.5004 70.958 90.5004 70.958C90.5003 70.958 90.5003 70.958 90.5003 70.958C90.5003 70.958 90.5003 70.958 90.5003 70.958C90.5003 70.958 90.5003 70.958 90.5003 70.958C90.5003 70.958 90.5003 70.958 90.5003 70.958C90.5003 70.958 90.5003 70.958 90.5003 70.958C90.5003 70.958 90.5003 70.958 90.5003 70.958C90.5003 70.958 90.5003 70.958 90.5003 70.958C90.5003 70.958 90.5003 70.958 90.5003 70.958C90.5003 70.958 90.5003 70.958 90.5003 70.958C90.5003 70.958 90.5003 70.958 90.5003 70.958C90.5003 70.958 90.5003 70.958 90.5003 70.958C90.5003 70.958 90.5003 70.958 90.5003 70.958C90.5003 70.958 90.5003 70.958 90.5003 70.958C90.5003 70.958 90.5003 70.958 90.5003 70.958C90.5003 70.958 90.5003 70.958 90.5003 70.958C90.5003 70.958 90.5003 70.958 90.5003 70.958C90.5003 70.958 90.5003 70.958 90.5003 70.958C90.5003 70.958 90.5003 70.958 90.5003 70.958C90.5003 70.958 90.5003 70.958 90.5003 70.958C90.5003 70.958 90.5002 70.958 90.5002 70.958C90.5002 70.958 90.5002 70.958 90.5002 70.958C90.5002 70.958 90.5002 70.958 90.5002 70.958C90.5002 70.958 90.5002 70.958 90.5002 70.958C90.5002 70.958 90.5002 70.958 90.5002 70.958C90.5002 70.958 90.5002 70.958 90.5002 70.958C90.5002 70.958 90.5002 70.958 90.5002 70.958C90.5002 70.958 90.5002 70.958 90.5002 70.958C90.5002 70.958 90.5002 70.958 90.5002 70.958C90.5002 70.958 90.5002 70.958 90.5002 70.958C90.5002 70.958 90.5002 70.958 90.5002 70.958C90.5002 70.958 90.5002 70.958 90.5002 70.958C90.5002 70.958 90.5002 70.958 90.5002 70.958C90.5002 70.958 90.5002 70.958 90.5002 70.958C90.5002 70.958 90.5002 70.958 90.5002 70.958C90.5002 70.958 90.5002 70.958 90.5002 70.958C90.5002 70.958 90.5002 70.958 90.5002 70.958C90.5002 70.958 90.5002 70.958 90.5002 70.958C90.5002 70.958 90.5002 70.958 90.5002 70.958C90.5002 70.958 90.5002 70.958 90.5001 70.958C90.5001 70.958 90.5001 70.958 90.5001 70.958C90.5001 70.958 90.5001 70.958 90.5001 70.958C90.5001 70.958 90.5001 70.958 90.5001 70.958C90.5001 70.958 90.5001 70.958 90.5001 70.958C90.5001 70.958 90.5001 70.958 90.5001 70.958C90.5001 70.958 90.5001 70.958 90.5001 70.958C90.5001 70.958 90.5001 70.958 90.5001 70.958C90.5001 70.958 90.5001 70.958 90.5001 70.958C90.5001 70.958 90.5001 70.958 90.5001 70.958C90.5001 70.958 90.5001 70.958 90.5001 70.958C90.5001 70.958 90.5001 70.958 90.5001 70.958C90.5001 70.958 90.5001 70.958 90.5001 70.958C90.5001 70.958 90.5001 70.958 90.5001 70.958C90.5001 70.958 90.5001 70.958 90.5001 70.958C90.5001 70.958 90.5001 70.958 90.5001 70.958C90.5001 70.958 90.5001 70.958 90.5001 70.958C90.5001 70.958 90.5001 70.958 90.5001 70.958C90.5001 70.958 90.5001 70.958 90.5001 70.958C90.5001 70.958 90.5001 70.958 90.5001 70.958C90.5 70.958 90.5 70.958 90.5 70.958C90.5 70.958 90.5 70.958 90.5 70.958C90.5 70.958 90.5 70.958 90.5 70.958C90.5 70.958 90.5 70.958 90.5 70.958C90.5 70.958 90.5 70.958 90.5 70.958C90.5 70.958 90.5 70.958 90.5 70.958C90.5 70.958 90.5 70.958 90.5 70.958C90.5 70.958 90.5 70.958 90.5 70.958C90.5 70.958 90.5 70.958 90.5 70.958C90.5 70.958 90.5 70.958 90.5 70.958C90.5 70.958 90.5 70.958 90.5 70.958C90.5 70.958 90.5 70.958 90.5 70.958C90.5 70.958 90.5 70.958 90.5 70.958C90.5 70.958 90.5 70.958 90.5 70.958C90.5 70.958 90.5 70.958 90.5 70.958C90.5 70.958 90.5 70.958 90.5 70.958C90.5 70.958 90.5 70.958 90.5 70.958C90.5 70.958 90.5 70.958 90.5 70.958C90.5 70.958 90.5 70.958 90.5 70.958C90.5 70.958 90.5 70.958 90.4999 70.958C90.4999 70.958 90.4999 70.958 90.4999 70.958C90.4999 70.958 90.4999 70.958 90.4999 70.958C90.4999 70.958 90.4999 70.958 90.4999 70.958C90.4999 70.958 90.4999 70.958 90.4999 70.958C90.4999 70.958 90.4999 70.958 90.4999 70.958C90.4999 70.958 90.4999 70.958 90.4999 70.958C90.4999 70.958 90.4999 70.958 90.4999 70.958C90.4999 70.958 90.4999 70.958 90.4999 70.958C90.4999 70.958 90.4999 70.958 90.4999 70.958C90.4999 70.958 90.4999 70.958 90.4999 70.958C90.4999 70.958 90.4999 70.958 90.4999 70.958C90.4999 70.958 90.4999 70.958 90.4999 70.958C90.4999 70.958 90.4999 70.958 90.4999 70.958C90.4999 70.958 90.4999 70.958 90.4999 70.958C90.4999 70.958 90.4999 70.958 90.4999 70.958C90.4999 70.958 90.4999 70.958 90.4999 70.958C90.4999 70.958 90.4999 70.958 90.4999 70.958C90.4999 70.958 90.4999 70.958 90.4999 70.958C90.4999 70.958 90.4999 70.958 90.4999 70.958C90.4999 70.958 90.4998 70.958 90.4998 70.958C90.4998 70.958 90.4998 70.958 90.4998 70.958C90.4998 70.958 90.4998 70.958 90.4998 70.958C90.4998 70.958 90.4998 70.958 90.4998 70.958C90.4998 70.958 90.4998 70.958 90.4998 70.958C90.4998 70.958 90.4998 70.958 90.4998 70.958C90.4998 70.958 90.4998 70.958 90.4998 70.958C90.4998 70.958 90.4998 70.958 90.4998 70.958C90.4998 70.958 90.4998 70.958 90.4998 70.958C90.4998 70.958 90.4998 70.958 90.4998 70.958C90.4998 70.958 90.4998 70.958 90.4998 70.958C90.4998 70.958 90.4998 70.958 90.4998 70.958C90.4998 70.958 90.4998 70.958 90.4998 70.958C90.4998 70.958 90.4998 70.958 90.4998 70.958C90.4998 70.958 90.4998 70.958 90.4998 70.958C90.4998 70.958 90.4998 70.958 90.4998 70.958C90.4998 70.958 90.4998 70.958 90.4998 70.958C90.4998 70.958 90.4998 70.958 90.4998 70.958C90.4998 70.958 90.4998 70.958 90.4998 70.958C90.4998 70.958 90.4998 70.958 90.4998 70.958C90.4998 70.958 90.4997 70.958 90.4997 70.958C90.4997 70.958 90.4997 70.958 90.4997 70.958C90.4997 70.958 90.4997 70.958 90.4997 70.958C90.4997 70.958 90.4997 70.958 90.4997 70.958C90.4997 70.958 90.4997 70.958 90.4997 70.958C90.4997 70.958 90.4997 70.958 90.4997 70.958C90.4997 70.958 90.4997 70.958 90.4997 70.958C90.4997 70.958 90.4997 70.958 90.4997 70.958C90.4997 70.958 90.4997 70.958 90.4997 70.958C90.4997 70.958 90.4997 70.958 90.4997 70.958C90.4997 70.958 90.4997 70.958 90.4997 70.958C90.4997 70.958 90.4997 70.958 90.4997 70.958C90.4997 70.958 90.4997 70.958 90.4997 70.958C90.4997 70.958 90.4997 70.958 90.4997 70.958C90.4997 70.958 90.4997 70.958 90.4997 70.958C90.4997 70.958 90.4997 70.958 90.4997 70.958C90.4997 70.958 90.4997 70.958 90.4997 70.958C90.4997 70.958 90.4997 70.958 90.4997 70.958C90.4997 70.958 90.4997 70.958 90.4997 70.958C90.4997 70.958 90.4997 70.958 90.4997 70.958C90.4997 70.958 90.4997 70.958 90.4997 70.958C90.4996 70.958 90.4996 70.958 90.4996 70.958C90.4996 70.958 90.4996 70.958 90.4996 70.958C90.4996 70.958 90.4996 70.958 90.4996 70.958C90.4996 70.958 90.4996 70.958 90.4996 70.958C90.4996 70.958 90.4996 70.958 90.4996 70.958C90.4996 70.958 90.4996 70.958 90.4996 70.958C90.4996 70.958 90.4996 70.958 90.4996 70.958C90.4996 70.958 90.4996 70.958 90.4996 70.958C90.4996 70.958 90.4996 70.958 90.4996 70.958C90.4996 70.958 90.4996 70.958 90.4996 70.958C90.4996 70.958 90.4996 70.958 90.4996 70.958C90.4996 70.958 90.4996 70.958 90.4996 70.958C90.4996 70.958 90.4996 70.958 90.4996 70.958C90.4996 70.958 90.4996 70.958 90.4996 70.958C90.4996 70.958 90.4996 70.958 90.4996 70.958C90.4996 70.958 90.4996 70.958 90.4996 70.958C90.4996 70.958 90.4996 70.958 90.4996 70.958C90.4996 70.958 90.4996 70.958 90.4996 70.958C90.4996 70.958 90.4996 70.958 90.4996 70.958C90.4996 70.958 90.4996 70.958 90.4996 70.958C90.4996 70.958 90.4996 70.958 90.4996 70.958C90.4996 70.958 90.4995 70.958 90.4995 70.958C90.4995 70.958 90.4995 70.958 90.4995 70.958C90.4995 70.958 90.4995 70.958 90.4995 70.958C90.4995 70.958 90.4995 70.958 90.4995 70.958C90.4995 70.958 90.4995 70.958 90.4995 70.958C90.4995 70.958 90.4995 70.958 90.4995 70.958C90.4995 70.958 90.4995 70.958 90.4995 70.958C90.4995 70.958 90.4995 70.958 90.4995 70.958C90.4995 70.958 90.4995 70.958 90.4995 70.958C90.4995 70.958 90.4995 70.958 90.4995 70.958C90.4995 70.958 90.4995 70.958 90.4995 70.958C90.4995 70.958 90.4995 70.958 90.4995 70.958C90.4995 70.958 90.4995 70.958 90.4995 70.958C90.4995 70.958 90.4995 70.958 90.4995 70.958C90.4995 70.958 90.4995 70.958 90.4995 70.958C90.4995 70.958 90.4995 70.958 90.4995 70.958C90.4995 70.958 90.4995 70.958 90.4995 70.958C90.4995 70.958 90.4995 70.958 90.4995 70.958C90.4995 70.958 90.4995 70.958 90.4995 70.958C90.4995 70.958 90.4995 70.958 90.4995 70.958C90.4995 70.958 90.4995 70.958 90.4995 70.958C90.4995 70.958 90.4995 70.958 90.4995 70.958C90.4995 70.958 90.4995 70.958 90.4995 70.958C90.4994 70.958 90.4994 70.958 90.4994 70.958C90.4994 70.958 90.4994 70.958 90.4994 70.958C90.4994 70.958 90.4994 70.958 90.4994 70.958C90.4994 70.958 90.4994 70.958 90.4994 70.958C90.4994 70.958 90.4994 70.958 90.4994 70.958C90.4994 70.958 90.4994 70.958 90.4994 70.958C90.4994 70.958 90.4994 70.958 90.4994 70.958C90.4994 70.958 90.4994 70.958 90.4994 70.958C90.4994 70.958 90.4994 70.958 90.4994 70.958C90.4994 70.958 90.4994 70.958 90.4994 70.958C90.4994 70.958 90.4994 70.958 90.4994 70.958C90.4994 70.958 90.4994 70.958 90.4994 70.958C90.4994 70.958 90.4994 70.958 90.4994 70.958C90.4994 70.958 90.4994 70.958 90.4994 70.958C90.4994 70.958 90.4994 70.958 90.4994 70.958C90.4994 70.958 90.4994 70.958 90.4994 70.958C90.4994 70.958 90.4994 70.958 90.4994 70.958C90.4994 70.958 90.4994 70.958 90.4994 70.958C90.4994 70.958 90.4994 70.958 90.4994 70.958C90.4994 70.958 90.4994 70.958 90.4994 70.958C90.4994 70.958 90.4994 70.958 90.4994 70.958C90.4994 70.958 90.4994 70.958 90.4994 70.958C90.4994 70.958 90.4994 70.958 90.4994 70.958C90.4994 70.958 90.4994 70.958 90.4994 70.958C90.4994 70.958 90.4993 70.958 90.4993 70.958C90.4993 70.958 90.4993 70.958 90.4993 70.958C90.4993 70.958 90.4993 70.958 90.4993 70.958C90.4993 70.958 90.4993 70.958 90.4993 70.958V102.958ZM90.5013 102.958C92.1333 102.958 93.5311 102.722 94.6118 102.455L86.9268 71.3913C87.8301 71.1678 89.0486 70.958 90.5013 70.958V102.958ZM94.6163 102.454C94.3237 102.526 94.0899 102.575 93.9704 102.599C93.9097 102.612 93.8623 102.621 93.8468 102.624C93.8395 102.625 93.832 102.627 93.8361 102.626C93.8372 102.626 93.8472 102.624 93.8596 102.622C93.9 102.614 94.0728 102.58 94.2917 102.531C94.5198 102.48 94.8471 102.401 95.2363 102.289L86.3521 71.5465C86.7371 71.4352 87.0602 71.3577 87.2842 71.3074C87.499 71.2592 87.6677 71.2263 87.7038 71.2192C87.71 71.218 87.715 71.217 87.7183 71.2164C87.7215 71.2158 87.7239 71.2153 87.7242 71.2152C87.7273 71.2146 87.7187 71.2163 87.7104 71.2179C87.6928 71.2214 87.6434 71.231 87.5806 71.2439C87.4569 71.269 87.219 71.3189 86.9223 71.3924L94.6163 102.454ZM94.93 102.374C96.4117 101.977 97.6186 101.438 98.5167 100.963L83.5445 72.6816C84.2885 72.2877 85.3381 71.8146 86.6584 71.4613L94.93 102.374ZM98.368 101.041C98.5547 100.944 98.7913 100.818 99.0607 100.663L83.0875 72.9345C83.3283 72.7958 83.5357 72.6851 83.6931 72.6039L98.368 101.041ZM99.0911 100.645C98.7927 100.818 98.5513 100.944 98.4303 101.007C98.3688 101.039 98.3209 101.063 98.3069 101.07C98.2611 101.093 98.325 101.061 98.3273 101.06C98.3746 101.036 98.5617 100.941 98.7958 100.813C99.0394 100.679 99.3856 100.481 99.7884 100.222L82.4421 73.331C82.8383 73.0755 83.1777 72.8817 83.4144 72.7519C83.6417 72.6273 83.8219 72.5362 83.8623 72.5157C83.8749 72.5093 83.8847 72.5044 83.8853 72.504C83.8896 72.5019 83.88 72.5067 83.8723 72.5106C83.8548 72.5194 83.8035 72.5454 83.7384 72.579C83.6105 72.6451 83.3623 72.7753 83.0571 72.952L99.0911 100.645ZM99.9629 100.107L109.856 93.5415L92.1608 66.8792L82.2676 73.4452L99.9629 100.107ZM85.0085 80.2103V91.3653H117.008V80.2103H85.0085ZM85.0085 91.3565C85.0127 83.613 91.2208 76.4613 99.9463 76.4613V108.461C109.843 108.461 117.004 100.326 117.008 91.3741L85.0085 91.3565Z" fill="black" mask="url(#path-2-inside-1_400_3179)"/>
</g>
</g>
</g>
<defs>
<filter id="filter0_d_400_3179" x="0.5" y="0.5" width="178" height="178" filterUnits="userSpaceOnUse" color-interpolation-filters="sRGB">
<feFlood flood-opacity="0" result="BackgroundImageFix"/>
<feColorMatrix in="SourceAlpha" type="matrix" values="0 0 0 0 0 0 0 0 0 0 0 0 0 0 0 0 0 0 127 0" result="hardAlpha"/>
<feOffset dy="5"/>
<feGaussianBlur stdDeviation="31.25"/>
<feComposite in2="hardAlpha" operator="out"/>
<feColorMatrix type="matrix" values="0 0 0 0 0.145098 0 0 0 0 0.705882 0 0 0 0 0.972549 0 0 0 0.2 0"/>
<feBlend mode="normal" in2="BackgroundImageFix" result="effect1_dropShadow_400_3179"/>
<feBlend mode="normal" in="SourceGraphic" in2="effect1_dropShadow_400_3179" result="shape"/>
</filter>
</defs>
</svg>
